<?xml version="1.0" encoding="UTF-8"?>
<svg id="Capa_2" xmlns="http://www.w3.org/2000/svg" viewBox="0 0 444.54 446.16">
  <defs>
    <style>
      .cls-1 {
        opacity: .6;
      }

      .cls-2 {
        fill: #e8505b;
      }

      .cls-3 {
        fill: #263238;
      }

      .cls-4 {
        fill: #eb996e;
      }

      .cls-5, .cls-6 {
        fill: #fff;
      }

      .cls-7 {
        opacity: .4;
      }

      .cls-6 {
        fill-rule: evenodd;
      }

      .cls-8 {
        fill: #e0e0e0;
      }

      .cls-9 {
        fill: #455a64;
      }

      .cls-10 {
        fill: #ffbe9d;
      }

      .cls-11 {
        fill: #ebebeb;
      }

      .cls-12 {
        fill: #ff367c;
      }

      .cls-13 {
        fill: #455a64;
      }

      .cls-14 {
        fill: #f5f5f5;
      }

      .cls-15 {
        opacity: .5;
      }
    </style>
  </defs>
  <g id="Background_Complete">
    <g>
      <path class="cls-13" d="M108.8,102.48h0c-18.92,0-34.26-15.34-34.26-34.26h0c0-18.92,15.34-34.26,34.26-34.26h0c18.92,0,34.26,15.34,34.26,34.26h0c0,18.92-15.34,34.26-34.26,34.26Z"/>
      <g>
        <g>
          <rect class="cls-5" x="93.27" y="60.59" width="7.09" height="22.91"/>
          <path class="cls-5" d="M96.78,57.59c2.32,0,4.19-1.89,4.19-4.23s-1.88-4.23-4.19-4.23-4.19,1.89-4.19,4.23,1.88,4.23,4.19,4.23Z"/>
        </g>
        <path class="cls-5" d="M111.69,71.47c0-3.22,1.48-5.14,4.32-5.14,2.61,0,3.86,1.84,3.86,5.14v12.02h7.06v-14.5c0-6.14-3.48-9.1-8.33-9.1s-6.9,3.78-6.9,3.78v-3.09h-6.8v22.91h6.8v-12.02Z"/>
      </g>
    </g>
    <polygon class="cls-14" points="154.72 0 159.41 8.58 167.99 13.27 159.41 17.96 154.72 26.54 150.03 17.96 141.45 13.27 150.03 8.58 154.72 0"/>
    <polygon class="cls-11" points="350.37 232.39 353.89 238.82 360.32 242.34 353.89 245.86 350.37 252.29 346.85 245.86 340.42 242.34 346.85 238.82 350.37 232.39"/>
    <polygon class="cls-8" points="360.32 200.62 361.91 203.52 364.81 205.11 361.91 206.7 360.32 209.6 358.73 206.7 355.83 205.11 358.73 203.52 360.32 200.62"/>
    <polygon class="cls-8" points="121.21 3.23 122.8 6.13 125.7 7.72 122.8 9.3 121.21 12.21 119.62 9.3 116.72 7.72 119.62 6.13 121.21 3.23"/>
    <path class="cls-8" d="M41.63,272.87c3.58-1.56,6.09-5.3,6.06-9.67-.05-5.73-4.45-10.34-9.82-10.29-5.37.04-9.68,4.73-9.63,10.45.04,4.41,2.67,8.14,6.32,9.6-14.94,2.45-14.05,18.71-14.05,18.71l35.39-.29s.59-16.45-14.27-18.5Z"/>
    <path class="cls-11" d="M381.13,380.05c-.5-2.55-3.01-4.54-5.61-4.44-2.57.09-4.91,2.22-5.26,4.77-.37-2.54-2.73-4.65-5.3-4.72-2.59-.07-5.09,1.94-5.57,4.49-.35,1.86.29,3.79,1.33,5.37,1.05,1.57,2.47,2.85,3.88,4.11,1.98,1.76,3.81,3.42,5.78,5.18,1.96-1.78,3.63-3.45,5.59-5.23,1.4-1.27,2.82-2.56,3.85-4.14,1.03-1.58,1.65-3.52,1.29-5.38Z"/>
    <g>
      <path class="cls-8" d="M404.18,169.26l3.79-.75,5.99-13.18-1.5-7.57s5.79-1.52,7.07,8.53c1.28,10.05,1.52,7.38,1.52,7.38,0,0,12.46-2.42,13.71-1.54.91.64,3.7,12.93,5.16,19.61.73,3.36-.71,6.91-3.69,8.33-.42.2-.86.36-1.3.45-3.1.62-19.47,1.24-19.47,1.24l-6.55,1.3-4.72-23.79Z"/>
      <polygon class="cls-8" points="392.91 169.34 400.39 194.82 406.89 193.53 401.85 168.11 392.91 169.34"/>
    </g>
  </g>
  <g id="Floor">
    <path class="cls-3" d="M442.97,445.44c0,.14-99.17.26-221.47.26s-221.49-.12-221.49-.26,99.15-.26,221.49-.26,221.47.12,221.47.26Z"/>
  </g>
  <g id="Icons">
    <g>
      <path class="cls-12" d="M365.93,159.26h0c-20.18,9.81-44.49,1.41-54.31-18.77h0c-9.81-20.18-1.41-44.49,18.77-54.31h0c20.18-9.81,44.49-1.41,54.31,18.77h0c9.81,20.18,1.41,44.49-18.77,54.31Z"/>
      <path class="cls-5" d="M338.12,131.81c.68-.04,1.09-.52.95-1.23-.1-.49-.36-1.73-.47-2.25-.14-.71-.31-.89-1.03-1.21-1.58-.7-2.97-1.92-4.02-4.09-3.06-6.3-1.09-14.23,6.47-17.91,6.69-3.26,12.36-.95,15.02,4.51,3.5,7.19,3.26,14.8-1.46,17.1-2.61,1.27-5.61.06-6.27-2.89-.78-3.52-.99-7.64-2.1-9.92-.99-2.04-2.92-3.21-5.18-2.11-2.67,1.3-3.47,5.1-1.67,8.79,1.14,2.35,2.71,3.56,2.71,3.56,0,0,2.89,12.89,3.4,15.14,1.01,4.49,4.22,9.04,4.53,9.51.19.28.6.16.66-.14.09-.44,1.36-5.91.53-10.35-.23-1.26-1.58-7.7-1.58-7.7,1.67,1.23,4.91,1.45,7.6.14,8.01-3.9,9.9-13.85,5.14-23.62-3.6-7.39-13.21-11.23-22.72-6.6-11.84,5.76-13.68,17.16-10.24,24.24,2.09,4.29,5.56,7.31,9.74,7.04Z"/>
    </g>
    <g>
      <path class="cls-12" d="M406.51,273.87h0c-14.46-5.52-21.7-21.72-16.17-36.18h0c5.52-14.46,21.72-21.7,36.18-16.17h0c14.46,5.52,21.7,21.72,16.17,36.18h0c-5.52,14.46-21.72,21.7-36.18,16.17Z"/>
      <g>
        <path class="cls-6" d="M431.14,252.45c2.7-7.64-1.21-16.09-8.88-19.02-7.58-2.89-16.02.68-19.2,8-.08.2-.17.4-.25.61-1.01,2.65-1.22,5.4-.74,8l-5.41,6.53,8.76.5c1.6,1.88,3.68,3.4,6.15,4.34,7.79,2.98,16.49-.88,19.44-8.61.05-.12.09-.24.13-.36ZM412.42,259.18c-2.41-.92-4.37-2.49-5.78-4.44l-5.11-.29,3.15-3.8c-.68-2.48-.61-5.19.38-7.76.15-.38.31-.76.5-1.12,2.86-5.73,9.71-8.46,15.85-6.11,6.22,2.38,9.51,9.12,7.67,15.36-.09.31-.19.62-.31.93-2.48,6.49-9.81,9.73-16.35,7.23Z"/>
        <path class="cls-6" d="M422.3,252.72c-.28-.3-1.66-1.79-1.94-2.02-.27-.24-.48-.38-.84-.13-.36.25-1.32.77-1.61.92-.29.15-.5.1-.78-.2-.28-.3-1.26-1.09-2.13-2.76-.68-1.29-.95-2.68-1.02-3.1-.07-.42.18-.54.42-.64.22-.1.5-.27.75-.4.07-.04.13-.08.19-.12.13-.1.23-.19.37-.33.21-.19.22-.41.2-.61-.02-.2-.07-2.16-.1-2.96-.02-.79-.36-.79-.56-.87-.2-.08-.42-.2-.65-.28-.23-.09-.64-.15-1.09.08-.45.22-1.66.71-2.3,2.4-.15.4-.23.82-.27,1.24-.11,1.34.26,2.63.33,2.85.09.29.94,4.71,3.92,7.44,3,2.71,3.17,2.25,3.83,2.44.65.19,2.36-.04,2.95-.74.6-.69.86-1.37.83-1.55-.03-.17-.23-.35-.51-.65Z"/>
      </g>
    </g>
    <g>
      <path class="cls-12" d="M42.13,144.35h0c-11.8,0-21.37-9.57-21.37-21.37h0c0-11.8,9.57-21.37,21.37-21.37h0c11.8,0,21.37,9.57,21.37,21.37h0c0,11.8-9.57,21.37-21.37,21.37Z"/>
      <path class="cls-5" d="M30.74,130.14c2.07,1.33,4.52,2.1,7.16,2.1,8.67,0,13.57-7.33,13.28-13.9.91-.66,1.7-1.48,2.33-2.42-.84.37-1.74.62-2.68.74.96-.58,1.7-1.49,2.05-2.58-.9.54-1.9.92-2.97,1.13-.85-.91-2.07-1.47-3.41-1.47-3.01,0-5.23,2.81-4.55,5.74-3.88-.19-7.33-2.05-9.63-4.88-1.22,2.1-.63,4.85,1.45,6.24-.77-.02-1.49-.23-2.12-.58-.05,2.16,1.5,4.19,3.75,4.64-.66.18-1.38.22-2.11.08.59,1.86,2.32,3.21,4.36,3.24-1.96,1.54-4.44,2.23-6.92,1.93Z"/>
    </g>
    <g>
      <path class="cls-9" d="M80.53,383.73h0c-19.77,4.71-39.62-7.5-44.33-27.27h0c-4.71-19.77,7.5-39.62,27.27-44.33h0c19.77-4.71,39.62,7.5,44.33,27.27h0c4.71,19.77-7.5,39.62-27.27,44.33Z"/>
      <g>
        <path class="cls-5" d="M68.17,331.83c5.24-1.25,5.87-1.38,7.96-1.77,1.93-.37,3.05-.3,3.81-.19,1,.14,1.76.41,2.61.93.85.52,1.43,1.08,2.01,1.91.43.63,1,1.59,1.54,3.48.59,2.05.76,2.66,2,7.9,1.25,5.24,1.38,5.87,1.78,7.96.37,1.93.3,3.05.19,3.81-.14,1-.41,1.76-.93,2.61-.52.85-1.08,1.43-1.91,2.01-.63.43-1.59,1-3.48,1.54-2.05.59-2.66.75-7.9,2-5.24,1.25-5.87,1.38-7.96,1.78-1.93.37-3.05.3-3.81.19-1-.14-1.76-.41-2.61-.93-.85-.52-1.43-1.08-2.01-1.91-.43-.63-1-1.59-1.54-3.48-.59-2.05-.76-2.66-2-7.91-1.25-5.24-1.38-5.87-1.78-7.96-.37-1.94-.3-3.05-.19-3.81.14-1,.41-1.76.93-2.61.52-.85,1.08-1.43,1.91-2.01.63-.43,1.59-1,3.48-1.54,2.05-.59,2.66-.76,7.9-2M67.32,328.3c-5.33,1.27-5.99,1.45-8.07,2.05-2.07.59-3.41,1.27-4.55,2.05-1.17.81-2.11,1.74-2.94,3.09-.83,1.35-1.24,2.61-1.44,4.02-.19,1.36-.18,2.87.22,4.98.4,2.12.54,2.79,1.81,8.12,1.27,5.33,1.45,5.99,2.05,8.07.59,2.07,1.26,3.41,2.05,4.55.81,1.17,1.74,2.11,3.09,2.94,1.35.83,2.61,1.24,4.02,1.44,1.36.19,2.87.18,4.98-.22,2.12-.4,2.79-.54,8.12-1.81,5.33-1.27,5.99-1.45,8.07-2.05,2.07-.59,3.41-1.27,4.55-2.05,1.17-.81,2.11-1.74,2.94-3.09.83-1.35,1.24-2.61,1.44-4.02.19-1.36.18-2.87-.22-4.98-.4-2.12-.54-2.79-1.81-8.12-1.27-5.33-1.45-5.99-2.05-8.07-.59-2.07-1.27-3.41-2.05-4.55-.81-1.17-1.74-2.11-3.09-2.94-1.35-.83-2.61-1.24-4.02-1.44-1.36-.19-2.87-.18-4.98.22-2.12.4-2.79.54-8.12,1.81"/>
        <path class="cls-5" d="M69.6,337.85c-5.57,1.33-9.01,6.91-7.68,12.48,1.33,5.57,6.91,9,12.48,7.68,5.57-1.33,9-6.91,7.68-12.48-1.33-5.57-6.91-9.01-12.48-7.68M73.56,354.47c-3.61.86-7.24-1.37-8.1-4.98-.86-3.61,1.37-7.24,4.98-8.1,3.61-.86,7.24,1.37,8.1,4.98.86,3.61-1.37,7.24-4.98,8.1"/>
        <path class="cls-5" d="M82.34,334.39c.31,1.3-.49,2.61-1.79,2.92-1.3.31-2.61-.49-2.92-1.79-.31-1.3.49-2.61,1.79-2.92,1.3-.31,2.61.49,2.92,1.79"/>
      </g>
    </g>
    <g>
      <path class="cls-9" d="M359.3,351.34h0c-9.48,0-17.16-7.68-17.16-17.16h0c0-9.48,7.68-17.16,17.16-17.16h0c9.48,0,17.16,7.68,17.16,17.16h0c0,9.48-7.68,17.16-17.16,17.16Z"/>
      <path class="cls-5" d="M356.69,344.55h4.18v-10.46h2.91l.31-3.5h-3.23v-2c0-.83.17-1.15.96-1.15h2.26v-3.64h-2.89c-3.11,0-4.51,1.37-4.51,3.99v2.79h-2.17v3.55h2.17v10.42Z"/>
    </g>
  </g>
  <g id="Device">
    <g>
      <g>
        <g>
          <path class="cls-3" d="M300.77,446.16l-137.89-.08c-16.58,0-30.02-13.46-30.02-30.04l.07-345.69c0-16.59,13.46-30.04,30.05-30.03l137.89.08c16.58,0,30.02,13.46,30.02,30.04l-.07,345.69c0,16.59-13.46,30.04-30.05,30.03Z"/>
          <path class="cls-5" d="M300.72,52.63l-26.73-.02c-3.58,0-6.49,3.04-6.49,6.78v4.85c0,3.75-2.91,6.78-6.49,6.78l-52.11-.03c-3.58,0-6.49-3.04-6.49-6.79v-4.85c0-3.75-2.9-6.79-6.49-6.79h-9.4s-23.4-.02-23.4-.02c-11.62,0-21.05,9.41-21.05,21.03l-.07,337.41c0,11.62,9.41,21.03,21.02,21.04l137.61.08c11.62,0,21.04-9.41,21.05-21.03l.07-337.42c0-11.61-9.41-21.03-21.02-21.04Z"/>
        </g>
        <g>
          <path class="cls-3" d="M302.74,80.04c0,.09-3.48.19-7.76.23-4.29.04-7.77,0-7.77-.1,0-.09,3.48-.19,7.76-.23,4.29-.04,7.77,0,7.77.1Z"/>
          <path class="cls-3" d="M302.77,84.01c0,.09-3.48.19-7.76.23-4.29.04-7.77,0-7.77-.1,0-.09,3.47-.19,7.76-.23,4.29-.04,7.77,0,7.77.1Z"/>
          <path class="cls-3" d="M302.8,87.99c0,.09-3.48.19-7.76.23-4.29.04-7.77,0-7.77-.1,0-.09,3.47-.19,7.76-.23,4.29-.04,7.77,0,7.77.1Z"/>
        </g>
        <path class="cls-3" d="M156.52,91.86s.15-.02.41-.03c.32-.01.69-.02,1.13-.04,1.07-.03,2.46-.06,4.18-.1l-.12.12c-.01-.93-.03-1.94-.05-3.03,0-.56-.05-1.09,0-1.74.11-.65.69-1.22,1.4-1.29.67-.01,1.27-.04,2-.01.75.09,1.39.82,1.37,1.61.02,1.41.03,2.89.05,4.42l-.19-.19c1.69-.02,3.46-.03,5.27-.05l-.2.2c-.02-2.12-.04-4.32-.06-6.57,0-.56,0-1.12-.01-1.67,0-.52-.32-.86-.74-1.25-.78-.77-1.55-1.53-2.31-2.27-.75-.74-1.5-1.48-2.22-2.19-.36-.36-.72-.71-1.08-1.06-.37-.36-.66-.73-1.09-.81-.42-.11-.87-.02-1.21.23-.32.27-.66.65-.98.96-.65.65-1.28,1.29-1.89,1.91-1.19,1.24-2.43,2.37-3.33,3.43-.38.59-.24,1.31-.27,1.97,0,.65,0,1.27,0,1.86,0,1.14-.01,2.14-.02,2.99,0,.76-.02,1.4-.02,1.91,0,.44-.02.68-.03.69-.01.01-.02-.21-.04-.63-.01-.51-.03-1.13-.05-1.88-.02-.86-.04-1.87-.07-3.02-.01-.6-.02-1.23-.04-1.89,0-.34-.01-.68-.02-1.04,0-.37.09-.76.29-1.1.98-1.19,2.14-2.25,3.34-3.53.61-.62,1.23-1.26,1.88-1.92.34-.33.61-.66,1.02-1.01.42-.32,1-.44,1.53-.3.56.12.93.58,1.27.91.36.35.72.7,1.08,1.06.73.71,1.47,1.44,2.23,2.19.76.74,1.53,1.5,2.31,2.27.19.2.41.36.59.64.17.26.27.57.28.89,0,.56,0,1.12.02,1.68.02,2.25.03,4.45.05,6.57v.2s-.2,0-.2,0c-1.82.01-3.58.02-5.27.03h-.19s0-.19,0-.19c0-1.53-.02-3.01-.02-4.42.02-.64-.47-1.2-1.07-1.28-.61-.03-1.32-.01-1.91,0-.57.05-1.04.5-1.14,1.02-.05.53-.01,1.15-.02,1.68,0,1.09,0,2.1,0,3.03v.12s-.12,0-.12,0c-1.74-.01-3.16-.02-4.25-.03-.43,0-.79-.01-1.11-.02-.25,0-.37-.01-.36-.02Z"/>
        <g>
          <g>
            <path class="cls-9" d="M247.48,355.52s-.51.07-1.44.1c-1.03.02-2.35.05-3.94.08-3.33.05-7.92.08-13,.08s-9.67-.03-13-.08c-1.59-.03-2.91-.06-3.94-.08-.93-.03-1.44-.07-1.44-.1s.51-.07,1.44-.1c1.03-.02,2.35-.05,3.94-.08,3.33-.05,7.92-.08,13-.08s9.67.03,13,.08c1.59.03,2.91.06,3.94.08.93.03,1.44.07,1.44.1Z"/>
            <path class="cls-9" d="M305.27,364.57c0,.14-21.17.26-47.28.26s-47.28-.12-47.28-.26,21.17-.26,47.28-.26,47.28.12,47.28.26Z"/>
            <path class="cls-9" d="M275.72,373.08c0,.14-14.55.26-32.5.26s-32.51-.12-32.51-.26,14.55-.26,32.51-.26,32.5.12,32.5.26Z"/>
          </g>
          <path class="cls-3" d="M307.14,389.64l-2.94-2.95-2.8,2.79v-8.43s5.75,0,5.75,0v8.58ZM304.2,386.33l.09.09,2.59,2.6v-7.7s-5.2,0-5.2,0v7.55s2.53-2.53,2.53-2.53Z"/>
          <path class="cls-3" d="M228.91,388.54l-1.04-.46c-.5.27-.94.41-1.34.41-1.59.01-2.89-1.27-2.9-2.86-.01-1.59,1.27-2.89,2.86-2.9,1.59-.01,2.89,1.27,2.9,2.86,0,.71-.25,1.39-.72,1.92l.24,1.04ZM226.48,382.93c-1.48.01-2.67,1.22-2.66,2.7.01,1.48,1.22,2.67,2.7,2.66.38,0,.8-.14,1.29-.41l.04-.02.76.34-.17-.75.03-.04c.46-.5.71-1.15.7-1.82-.01-1.48-1.22-2.67-2.7-2.66Z"/>
          <path class="cls-3" d="M235.57,388.1l-1.19-2.9-2.23-2.03,5.4-.04-1.99,4.97ZM232.66,383.36l1.9,1.74,1.01,2.47,1.7-4.25-4.61.04Z"/>
          <rect class="cls-3" x="234.27" y="384.07" width="3.52" height=".2" transform="translate(-171.34 190.91) rotate(-33.05)"/>
          <path class="cls-2" d="M220.4,383.77c-.15-.77-.92-1.37-1.71-1.34-.78.03-1.49.68-1.59,1.45-.12-.77-.83-1.41-1.61-1.43-.79-.02-1.54.6-1.68,1.37-.1.56.09,1.15.41,1.63.32.48.75.86,1.18,1.24.6.53,1.16,1.03,1.76,1.56.59-.54,1.1-1.05,1.69-1.59.42-.39.85-.78,1.16-1.26.31-.48.5-1.07.38-1.63Z"/>
          <path class="cls-3" d="M313.16,397.1s-.01-.32-.02-.94c0-.63-.01-1.54-.02-2.74,0-2.41-.02-5.96-.04-10.56-.02-9.19-.05-22.56-.09-39.33l.17.17c-38.48.02-95.91.05-159.92.09h-.01l.26-.26c0,18.62,0,36.68,0,53.57l-.25-.25c46.04.05,85.98.09,114.43.12,14.24.03,25.59.05,33.41.07,3.9.01,6.91.03,8.96.03,1.02,0,1.79.01,2.32.02.52,0,.8.02.8.02,0,0-.25.01-.77.02-.53,0-1.29,0-2.29.02-2.04,0-5.03.02-8.91.03-7.8.02-19.14.04-33.35.07-28.49.03-68.5.07-114.61.12h-.25s0-.25,0-.25c0-16.89,0-34.95,0-53.57v-.26h.27c64.01.04,121.44.07,159.92.09h.17v.17c-.04,16.82-.07,30.22-.09,39.44-.02,4.58-.03,8.12-.04,10.52,0,1.18-.01,2.09-.02,2.71,0,.61-.02.91-.02.91Z"/>
          <g>
            <g>
              <rect class="cls-11" x="164.22" y="348.17" width="35.42" height="44.3" transform="translate(-189.41 550.14) rotate(-89.67)"/>
              <path class="cls-3" d="M204.18,352.73s-.08,0-.22.01c-.16,0-.37,0-.63,0-.58,0-1.38,0-2.42.01-2.13,0-5.2,0-9.08.01-7.79-.02-18.83-.04-31.95-.06l.23-.23c-.05,10.54-.11,22.63-.17,35.41.05.06-.49-.49-.25-.26h.01s.02,0,.02,0h.05s.1,0,.1,0h.19s.38,0,.38,0h.77s1.53.01,1.53.01c1.02,0,2.03.01,3.03.02,2.01.01,4,.02,5.97.04,3.93.03,7.77.05,11.49.07,7.44.05,14.42.1,20.75.15l-.22.22c.11-10.63.2-19.46.26-25.65.04-3.08.07-5.51.1-7.19.02-.81.03-1.45.04-1.9.01-.43.03-.67.03-.67,0,0,.01.2.02.62,0,.45,0,1.07.01,1.86,0,1.67,0,4.08.02,7.14,0,6.23-.02,15.1-.03,25.79v.22s-.22,0-.22,0c-6.33-.03-13.31-.05-20.75-.09-3.72-.02-7.56-.04-11.49-.06-1.97-.01-3.96-.02-5.97-.03-1.01,0-2.02-.01-3.03-.02h-1.53s-.77-.01-.77-.01h-.38s-.19,0-.19,0h-.1s-.05,0-.05,0h-.02s-.01,0-.01,0c.23.23-.33-.32-.27-.27.08-12.79.16-24.87.23-35.41v-.23s.23,0,.23,0c13.18.12,24.27.23,32.1.3,3.86.05,6.91.09,9.03.11,1.02.02,1.81.03,2.37.04.25,0,.45.01.6.02.13,0,.2.01.19.01Z"/>
            </g>
            <rect class="cls-8" x="166.42" y="349.72" width="30.96" height="41.19" transform="translate(-189.44 550.11) rotate(-89.67)"/>
            <polygon class="cls-14" points="161.22 385.68 175.72 366.52 184.56 378.61 190.64 372.21 202.41 385.91 161.22 385.68"/>
            <path class="cls-14" d="M188.42,364.23c-.01,1.79-1.47,3.23-3.26,3.22s-3.23-1.47-3.22-3.26c.01-1.79,1.47-3.23,3.26-3.22s3.23,1.47,3.22,3.26Z"/>
          </g>
        </g>
        <g>
          <g>
            <path class="cls-3" d="M234.58,122.99s-.16.04-.47.05c-.37.01-.82.03-1.36.05-1.26.02-2.95.05-4.99.08-4.21.05-10.03.08-16.46.08s-12.25-.03-16.46-.08c-2.04-.03-3.73-.06-4.99-.08-.54-.02-.99-.04-1.36-.05-.31-.02-.47-.03-.47-.05s.16-.04.47-.05c.37-.01.82-.03,1.36-.05,1.26-.02,2.95-.05,4.99-.08,4.21-.05,10.03-.08,16.46-.08s12.25.03,16.46.08c2.04.03,3.73.06,4.99.08.54.02.99.04,1.36.05.31.02.47.03.47.05Z"/>
            <g>
              <path class="cls-3" d="M300.03,318.77l-4.37-4.38-4.16,4.15.02-12.54h8.52s-.02,12.77-.02,12.77ZM295.66,313.84l.14.14,3.84,3.86.02-11.44h-7.75s-.02,11.21-.02,11.21l3.77-3.76Z"/>
              <path class="cls-3" d="M189.17,317.45l-2.04-.91c-.99.53-1.85.8-2.64.8-3.13.02-5.69-2.5-5.71-5.62-.03-3.13,2.5-5.69,5.62-5.71,3.12-.03,5.69,2.5,5.71,5.62.01,1.39-.49,2.73-1.41,3.78l.47,2.04ZM184.4,306.39c-2.91.02-5.26,2.41-5.24,5.32.02,2.91,2.41,5.26,5.32,5.24.75,0,1.58-.27,2.54-.8l.08-.05,1.5.67-.34-1.48.07-.07c.9-.99,1.39-2.26,1.38-3.59-.02-2.91-2.41-5.26-5.32-5.24Z"/>
              <path class="cls-3" d="M202.29,316.57l-2.34-5.71-4.39-4,10.64-.09-3.91,9.79ZM196.56,307.25l3.74,3.43,1.99,4.86,3.34-8.36-9.07.07Z"/>
              <rect class="cls-3" x="199.74" y="308.64" width="6.92" height=".39" transform="translate(-135.54 160.78) rotate(-33.05)"/>
              <path class="cls-12" d="M172.43,308.06c-.3-1.52-1.81-2.7-3.36-2.64-1.53.06-2.93,1.34-3.13,2.86-.23-1.52-1.64-2.77-3.18-2.81-1.55-.04-3.03,1.17-3.31,2.7-.2,1.11.18,2.26.81,3.2.63.94,1.48,1.7,2.33,2.44,1.19,1.05,2.28,2.03,3.47,3.08,1.17-1.07,2.16-2.07,3.33-3.13.83-.76,1.68-1.53,2.29-2.48.61-.95.98-2.11.76-3.21Z"/>
            </g>
            <circle class="cls-11" cx="171.46" cy="122.99" r="7.22"/>
          </g>
          <g>
            <path class="cls-9" d="M297.3,277.37c0,.14-30.26.26-67.58.26s-67.59-.12-67.59-.26,30.25-.26,67.59-.26,67.58.12,67.58.26Z"/>
            <path class="cls-9" d="M297.3,266.11c0,.14-30.26.26-67.58.26s-67.59-.12-67.59-.26,30.25-.26,67.59-.26,67.58.12,67.58.26Z"/>
            <path class="cls-9" d="M235.71,288.77c0,.14-16.47.26-36.78.26s-36.79-.12-36.79-.26,16.47-.26,36.79-.26,36.78.12,36.78.26Z"/>
          </g>
        </g>
        <g>
          <path class="cls-3" d="M226.63,411.4c0,1.61-1.3,2.91-2.88,2.9-1.59,0-2.87-1.32-2.86-2.93,0-1.61,1.3-2.91,2.88-2.9,1.59,0,2.87,1.32,2.86,2.93Z"/>
          <path class="cls-3" d="M235.53,411.44c0,1.61-1.3,2.91-2.88,2.9-1.59,0-2.87-1.32-2.86-2.93,0-1.61,1.3-2.91,2.88-2.9,1.59,0,2.87,1.32,2.86,2.93Z"/>
          <path class="cls-3" d="M244.43,411.49c0,1.61-1.3,2.91-2.88,2.9-1.59,0-2.87-1.32-2.86-2.93,0-1.61,1.3-2.91,2.88-2.9,1.59,0,2.87,1.32,2.86,2.93Z"/>
        </g>
      </g>
      <g>
        <rect class="cls-8" x="154.19" y="137.27" width="159.93" height="97.8"/>
        <polygon class="cls-14" points="168.95 235.09 214.78 173.75 243.19 212.11 262.45 191.59 300.21 235.05 168.95 235.09"/>
        <path class="cls-14" d="M255.23,166.23c0,5.71-4.62,10.34-10.33,10.34-5.71,0-10.34-4.62-10.34-10.33,0-5.71,4.62-10.34,10.33-10.34,5.71,0,10.34,4.62,10.34,10.33Z"/>
      </g>
      <path class="cls-3" d="M313.69,325.97c0-2.09-.1-90.45-.24-221.24l.24.24c-48.23,0-102.59.02-159.91.02h-.02l.26-.26c-.02,82.74-.03,159.31-.05,221.24l-.21-.21c96.98.13,158.18.21,159.93.21-1.74,0-62.94.08-159.93.21h-.21s0-.21,0-.21c-.01-61.93-.03-138.5-.05-221.24v-.26s.26,0,.26,0h.02c57.32,0,111.68.02,159.91.02h.24s0,.24,0,.24c-.05,65.46-.09,120.8-.12,159.77-.03,19.46-.05,34.84-.06,45.35-.01,5.24-.02,9.28-.03,12,0,1.35-.01,2.38-.01,3.08,0,.69-.01,1.03-.01,1.03Z"/>
    </g>
  </g>
  <g id="Megaphone">
    <g>
      <g>
        <g>
          <path class="cls-10" d="M238.54,353.41l3.54-11.89c.62-2.58,1.44-5.62,2.54-9.09.99-3.12,3.54-6.4,5.86-8.76,3.61-3.67,5.33-3.7,7.76-5.65.22-.14.47-.34.68-.46.5-.27.87-.63,1.18-1.02,2.09-2.26.08-5.76-4.17-5.43-3.2.25-8.41,1.17-16.9,9.92-.11.13-.22.24-.32.38-4.45,5.79-8.63-10.73-9.39-16.88-.49-3.99-4.8-6.44-8.71-5l-20.66,9.66c-1.71-.6-3.73-.5-6.03.2-3.04,1.12-4.73,4.25-3.94,7.29l8.38,33.45-24.61,81.89h53.05l11.74-78.63Z"/>
          <g>
            <g>
              <path class="cls-12" d="M279.29,278.2l-16.4,32.13-8.2-2.28-41.22,33.53c-3.51,2.85-8.65,2.4-11.6-1.03l-15.69-18.24s31.64-13.63,37.49-24.91c5.85-11.28-.91-13.84-.91-13.84l14.89-16.92,41.63,11.56Z"/>
              <path class="cls-12" d="M258.02,212.56s-24-5.31-57.78-37.79c-33.78-32.48-49.65-75.62-53.78-75.41-4.13.21-22.19-8.17-56.52,66.52-34.34,74.69-20.81,92.04-13.98,91.9,6.83-.14,53.23-13.07,82.2-9.78,28.98,3.29,66.23,18.4,66.23,18.4l33.64-53.84Z"/>
              <path class="cls-2" d="M309.02,253.27l-8.19,15.57-3.67,6.97c-5.03,9.57-16.67,13.52-26.49,9l-51.45-17.93,29.96-68.4,51.4,27.39c9.87,5.26,13.63,17.5,8.43,27.39Z"/>
              <g class="cls-7">
                <path d="M309.02,253.27l-8.19,15.57-3.67,6.97c-5.03,9.57-16.67,13.52-26.49,9l-51.45-17.93,29.96-68.4,51.4,27.39c9.87,5.26,13.63,17.5,8.43,27.39Z"/>
              </g>
              <path class="cls-2" d="M92.71,167.24c-18.27,40.46-25.88,76.52-16.99,80.53,8.89,4.02,30.91-25.53,49.18-65.99,18.27-40.46,25.88-76.52,16.99-80.53-8.89-4.02-30.91,25.53-49.18,65.99Z"/>
              <g class="cls-15">
                <path d="M92.71,167.24c-18.27,40.46-25.88,76.52-16.99,80.53,8.89,4.02,30.91-25.53,49.18-65.99,18.27-40.46,25.88-76.52,16.99-80.53-8.89-4.02-30.91,25.53-49.18,65.99Z"/>
              </g>
            </g>
            <polygon class="cls-12" points="313.43 275.77 299.49 271.39 308.12 254.98 318.58 261.48 313.43 275.77"/>
            <g class="cls-1">
              <polygon points="308.12 254.98 299.49 271.39 302.35 272.29 309.37 255.76 308.12 254.98"/>
            </g>
            <path class="cls-12" d="M298.51,258.76c-.2.45-7.16-2.25-15.54-6.04-8.39-3.79-15.01-7.22-14.81-7.68.2-.45,7.16,2.25,15.54,6.04,8.38,3.79,15.01,7.22,14.81,7.67Z"/>
            <path class="cls-12" d="M302.8,248.99c-.22.45-6.52-2.21-14.07-5.93-7.55-3.72-13.5-7.09-13.28-7.54.22-.44,6.51,2.21,14.07,5.93,7.55,3.72,13.49,7.09,13.28,7.53Z"/>
            <path class="cls-12" d="M293.1,269.01c-.07.24-1.73-.14-4.37-.96-1.32-.41-2.88-.92-4.62-1.52-1.72-.62-3.5-1.53-5.42-2.39-7.63-3.54-13.45-7.01-13.26-7.42.23-.49,6.45,2.29,14.01,5.79,1.9.86,3.65,1.81,5.31,2.5,1.66.67,3.16,1.3,4.4,1.85,2.49,1.11,4.01,1.92,3.94,2.15Z"/>
            <path class="cls-12" d="M129.96,158.24s-20.86-12.94-32.28,15.25c-11.41,28.19,10.54,32.82,10.54,32.82,8.98-13.93,16.28-29.89,21.74-48.07Z"/>
            <g class="cls-15">
              <path d="M152.15,124.65c.12.02-.17,1.94-.82,5.39-.66,3.44-1.59,8.44-2.93,14.58-.88,3.02-1.85,6.32-2.88,9.86-.52,1.77-1.06,3.61-1.62,5.49-.28.94-.56,1.9-.85,2.87-.31.96-.72,1.91-1.08,2.88-1.5,3.88-3.08,7.95-4.71,12.16-.41,1.05-.82,2.12-1.24,3.19-.41,1.08-.98,2.09-1.47,3.15-1.02,2.1-2.05,4.24-3.1,6.39-1.05,2.16-2.09,4.29-3.11,6.39-.53,1.04-.98,2.12-1.57,3.1-.59.99-1.16,1.97-1.74,2.95-2.3,3.89-4.53,7.65-6.65,11.23-.54.89-1.03,1.79-1.6,2.63-.59.83-1.16,1.65-1.73,2.45-1.14,1.61-2.25,3.17-3.32,4.68-2.15,3-4.15,5.81-5.98,8.37-3.99,4.83-7.33,8.65-9.63,11.29-2.31,2.64-3.64,4.05-3.73,3.98-.1-.08,1.05-1.65,3.19-4.42,2.23-2.82,5.35-6.79,9.19-11.65,1.76-2.59,3.69-5.41,5.76-8.44,1.04-1.51,2.11-3.08,3.22-4.69.55-.8,1.12-1.62,1.69-2.45.55-.84,1.03-1.75,1.55-2.63,2.08-3.57,4.26-7.32,6.51-11.2.57-.97,1.14-1.95,1.71-2.94.59-.98,1.02-2.05,1.55-3.09,1.01-2.09,2.04-4.21,3.08-6.35,1.04-2.14,2.07-4.26,3.09-6.34.49-1.05,1.06-2.06,1.47-3.12.42-1.06.83-2.12,1.25-3.16,1.66-4.17,3.25-8.2,4.78-12.04.37-.96.79-1.9,1.11-2.85.3-.96.59-1.91.88-2.84.58-1.87,1.15-3.68,1.7-5.43,1.1-3.5,2.13-6.76,3.07-9.75,1.45-6.01,2.63-10.91,3.47-14.4.85-3.4,1.38-5.27,1.5-5.25Z"/>
            </g>
          </g>
          <g class="cls-7">
            <path d="M191.19,320.07c1.9,3.45,3.85,6.96,6.66,9.72,2.82,2.76,6.68,4.72,10.61,4.32,3.92-.4,7.64-3.65,7.68-7.6,1.88,1.42,4.77.65,6.33-1.12s2.07-4.22,2.25-6.57c2.56,1.51,6.12.31,7.82-2.12,1.71-2.43,1.81-5.7.99-8.56-.83-2.85-2.48-5.38-4.11-7.87,1.97.16,4.06.3,5.82-.6,1.76-.89,2.95-3.22,1.92-4.91-.6-.99-1.76-1.48-2.87-1.83-3.09-.97-5.25-1.74-8.47-1.37-.75,0,1.29,8.48-18.88,20.06-11.91,6.84-15.77,8.42-15.77,8.42Z"/>
          </g>
        </g>
        <path class="cls-4" d="M236.61,332.31c-.01.09-1.36-.16-3.53-.11-2.16.05-5.19.52-8.18,1.96-2.99,1.43-5.25,3.49-6.65,5.15-1.41,1.66-2.05,2.87-2.13,2.82-.03-.02.1-.33.39-.88.29-.54.77-1.3,1.45-2.18,1.34-1.75,3.63-3.91,6.71-5.39,3.07-1.47,6.19-1.9,8.4-1.86,1.11.02,2,.12,2.61.23.61.11.94.21.93.24Z"/>
        <path class="cls-10" d="M192.5,314.7c3.25,3.12,5.47,6.57,8.88,9.71,1.55,1.43,3.95,4.13,6.03,4.49,2.08.36,3.41.08,4.23-1.86.67-1.57-.53-3.72-1.35-5.01-2.17-3.41-4.25-6.07-5.87-8.72-.76-1.24.22-1.5.58-.92,1.56,1.62,3.9,3.03,5.3,4.79,1.92,2.42,2.27,5.62,7.28,4.6.66-.13,1.33-.36,1.86-.77,1.89-1.45,1.97-3.96,1.17-5.97-.62-1.58-1.72-2.92-2.79-4.23,2.14,2.41,4.47,4.95,7.86,5.23,1.97.16,3.96-.76,4.76-2.57,1-2.28-.44-4.49-1.88-6.27-2.56-3.16-5.42-6.08-8.53-8.71-1.16-.98-2.63-1.53-4.15-1.54-1.76-.01-3.96.32-5.04,1.85-1.97,2.77-1.36,5.23-1.36,5.23,0,0-4.41-2.23-7.95.1-3.54,2.34-4.42,6.35-4.42,6.35l-4.61,4.22Z"/>
        <path class="cls-10" d="M215.95,295.98c-1.36-1.37-1.68-3.88-.62-5.96.75-1.47,1.69-2.9,2.65-3.22,4.19-1.41,22.5,1.75,22.34,5.82-.17,4.17-1.5,6.01-11.44,4.57-1.75-.25-4.49-.6-4.49-.6l-2.4,3.6-6.03-4.22Z"/>
      </g>
      <path class="cls-4" d="M219.23,313c-.15.09-1.54-2.75-4.38-5.3-2.82-2.58-5.78-3.69-5.71-3.84.02-.06.79.14,1.94.68,1.15.54,2.67,1.47,4.12,2.78,1.44,1.31,2.52,2.73,3.16,3.83.65,1.09.92,1.84.87,1.86Z"/>
      <path class="cls-4" d="M222.31,300.51c-.09.09-1.3-.9-2.95-1.91-.82-.5-1.58-.93-2.15-1.18-.57-.27-.94-.34-.94-.42,0-.07.43-.12,1.07.07.64.18,1.45.57,2.3,1.09,1.69,1.03,2.8,2.24,2.67,2.35Z"/>
      <path class="cls-4" d="M225.38,296.73c-.01.11-1.61.16-3.53-.4-.95-.29-1.76-.75-2.26-1.18-.5-.43-.71-.79-.66-.83.1-.09,1.23.99,3.07,1.51,1.82.53,3.4.72,3.37.89Z"/>
      <path class="cls-4" d="M207.59,318.03c-.06.04-.71-.78-1.67-2.17-.98-1.35-2.23-3.37-4.27-4.86-2.04-1.49-4.44-1.84-6.05-1.6-1.64.23-2.5.91-2.55.81-.02-.02.17-.21.58-.46.41-.26,1.06-.54,1.91-.71,1.68-.35,4.25-.03,6.42,1.54,2.16,1.58,3.37,3.68,4.28,5.08.88,1.44,1.42,2.33,1.36,2.37Z"/>
      <path class="cls-4" d="M221.6,358.53c.02.14-3.34.62-7.48,1.08-4.15.45-7.53.7-7.54.56-.02-.14,3.33-.62,7.48-1.08,4.15-.45,7.52-.7,7.54-.56Z"/>
    </g>
  </g>
  <g id="Stars">
    <g>
      <polygon class="cls-12" points="379.13 25.96 380.26 28.02 382.32 29.15 380.26 30.28 379.13 32.34 378 30.28 375.94 29.15 378 28.02 379.13 25.96"/>
      <polygon class="cls-12" points="402.73 77.13 403.86 79.19 405.93 80.32 403.86 81.45 402.73 83.51 401.6 81.45 399.54 80.32 401.6 79.19 402.73 77.13"/>
      <polygon class="cls-12" points="24.4 213.65 25.53 215.71 27.59 216.84 25.53 217.97 24.4 220.03 23.27 217.97 21.21 216.84 23.27 215.71 24.4 213.65"/>
      <polygon class="cls-12" points="348.16 38.68 350.77 43.44 355.53 46.05 350.77 48.66 348.16 53.42 345.55 48.66 340.79 46.05 345.55 43.44 348.16 38.68"/>
      <polygon class="cls-12" points="45.56 181.21 48.16 185.97 52.92 188.57 48.16 191.17 45.56 195.93 42.96 191.17 38.2 188.57 42.96 185.97 45.56 181.21"/>
      <polygon class="cls-12" points="409.15 294.68 411.76 299.44 416.51 302.04 411.76 304.64 409.15 309.39 406.55 304.64 401.8 302.04 406.55 299.44 409.15 294.68"/>
    </g>
  </g>
</svg>