<?xml version="1.0" encoding="UTF-8"?>
<svg id="Capa_2" xmlns="http://www.w3.org/2000/svg" viewBox="0 0 464.54 460.21">
  <defs>
    <style>
      .cls-1 {
        fill: #ffc051;
      }

      .cls-2 {
        stroke: #ff367c;
      }

      .cls-2, .cls-3, .cls-4, .cls-5, .cls-6, .cls-7 {
        fill: none;
      }

      .cls-2, .cls-3, .cls-4, .cls-5, .cls-6, .cls-7, .cls-8 {
        stroke-linecap: round;
        stroke-linejoin: round;
      }

      .cls-2, .cls-3, .cls-4, .cls-5, .cls-8 {
        stroke-width: 2px;
      }

      .cls-9 {
        fill: #263238;
      }

      .cls-10, .cls-8 {
        fill: #fff;
      }

      .cls-3 {
        stroke: #ffc051;
      }

      .cls-4 {
        stroke: #fff;
      }

      .cls-5, .cls-6, .cls-7, .cls-8 {
        stroke: #263238;
      }

      .cls-11 {
        fill: #ff367c;
      }

      .cls-6 {
        stroke-width: 2.29px;
      }
    </style>
  </defs>
  <g id="Shadows">
    <ellipse class="cls-11" cx="299.69" cy="410.8" rx="160.61" ry="20.87"/>
    <ellipse class="cls-11" cx="114.59" cy="435.5" rx="114.59" ry="24.71"/>
  </g>
  <g id="Floor">
    <g id="Layer-45">
      <path class="cls-5" d="M380.35,359.35h79.96"/>
      <path class="cls-5" d="M11.44,359.35h24.94"/>
    </g>
  </g>
  <g id="Sparkles">
    <g id="Layer-47">
      <g>
        <path class="cls-5" d="M363.09,61.34v3.41"/>
        <path class="cls-5" d="M363.09,68.6v3.41"/>
        <path class="cls-5" d="M368.42,66.67h-3.41"/>
        <path class="cls-5" d="M361.16,66.67h-3.41"/>
      </g>
      <g>
        <path class="cls-5" d="M432.88,431.45v3.41"/>
        <path class="cls-5" d="M432.88,438.71v3.41"/>
        <path class="cls-5" d="M438.22,436.79h-3.41"/>
        <path class="cls-5" d="M430.96,436.79h-3.41"/>
      </g>
      <g>
        <path class="cls-5" d="M34.65,52.81v3.41"/>
        <path class="cls-5" d="M34.65,60.07v3.41"/>
        <path class="cls-5" d="M39.99,58.15h-3.41"/>
        <path class="cls-5" d="M32.73,58.15h-3.41"/>
      </g>
      <g>
        <path class="cls-5" d="M22.02,266.38v3.41"/>
        <path class="cls-5" d="M22.02,273.64v3.41"/>
        <path class="cls-5" d="M27.35,271.71h-3.41"/>
        <path class="cls-5" d="M20.09,271.71h-3.41"/>
      </g>
    </g>
  </g>
  <g id="Tag">
    <g id="Layer-44">
      <g>
        <path class="cls-2" d="M436.22,241.14c-1.8-.35-28.59,18.1-29.57,21.22-.8,2.56-13.49,47-13.49,47-.38,1.34.45,2.73,1.81,3.04l35.4,7.92c1.24.28,2.5-.45,2.86-1.67,0,0,14.21-45.96,14.37-48.02.15-1.83-9.25-29.08-11.38-29.49ZM431.77,250.91c.41-.09.82-.09,1.23.03,1.64.46,2.52,2.48,1.96,4.5s-2.36,3.26-4,2.8c-1.64-.46-2.49-2.45-1.93-4.47.42-1.51,1.52-2.61,2.74-2.86Z"/>
        <g>
          <path class="cls-2" d="M409.82,278.18c-.25-2.89,1.89-5.43,4.77-5.68,2.89-.25,5.43,1.89,5.68,4.77s-1.89,5.43-4.77,5.68c-2.89.25-5.43-1.89-5.68-4.77Z"/>
          <path class="cls-2" d="M422.41,296.72c-.25-2.89,1.89-5.43,4.77-5.68,2.89-.25,5.43,1.89,5.68,4.77.25,2.89-1.89,5.43-4.77,5.68-2.89.25-5.43-1.89-5.68-4.77Z"/>
          <path class="cls-2" d="M436.22,277.59l-28.79,17.69"/>
        </g>
      </g>
    </g>
  </g>
  <g id="Like_icon">
    <g>
      <path class="cls-1" d="M382.2,200.03c0-15.25,12.36-27.6,27.6-27.6s27.6,12.36,27.6,27.6-12.36,27.6-27.6,27.6-27.6-12.36-27.6-27.6Z"/>
      <g>
        <path class="cls-4" d="M424.83,194.05v17.65s-26.76,1.68-28.77-2.02c-1.69-3.1-2.03-14.73.98-15.44,5.93-1.39,10.56-.92,10.56-.92,0,0,.53-12.61,5.7-11.71,1.57.27,2.74,11.71,2.74,11.71l8.79.72Z"/>
        <path class="cls-4" d="M419.92,193.63v18.29"/>
        <path class="cls-4" d="M403.07,199.6l-7.95.14"/>
        <path class="cls-4" d="M403.07,205.35l-7.95.14"/>
      </g>
    </g>
  </g>
  <g id="Stars">
    <g>
      <path class="cls-2" d="M262.32,25.37c0-5.99,4.85-10.84,10.84-10.84h135.38c5.99,0,10.84,4.85,10.84,10.84v2c0,5.99-4.85,10.84-10.84,10.84h-135.38c-5.99,0-10.84-4.85-10.84-10.84v-2Z"/>
      <path class="cls-1" d="M336.2,33.02l1.83-5.17-4.35-3.34,5.48.14,1.83-5.17,1.56,5.26,5.48.14-4.52,3.11,1.56,5.26-4.35-3.34-4.52,3.11Z"/>
      <path class="cls-1" d="M361.63,33.02l1.83-5.17-4.35-3.34,5.48.14,1.83-5.17,1.56,5.26,5.48.14-4.52,3.11,1.56,5.26-4.35-3.34-4.52,3.11Z"/>
      <path class="cls-1" d="M387.06,33.02l1.83-5.17-4.35-3.34,5.48.14,1.83-5.17,1.56,5.26,5.48.14-4.52,3.11,1.56,5.26-4.35-3.34-4.52,3.11Z"/>
      <path class="cls-11" d="M285.33,33.02l1.83-5.17-4.35-3.34,5.48.14,1.83-5.17,1.56,5.26,5.48.14-4.52,3.11,1.56,5.26-4.35-3.34-4.52,3.11Z"/>
      <path class="cls-11" d="M310.76,33.02l1.83-5.17-4.35-3.34,5.48.14,1.83-5.17,1.56,5.26,5.48.14-4.52,3.11,1.56,5.26-4.35-3.34-4.52,3.11Z"/>
    </g>
  </g>
  <g id="Heart">
    <g id="Layer-41">
      <path class="cls-11" d="M13.63,214.23c0-12.56,10.19-22.75,22.75-22.75s22.75,10.19,22.75,22.75-10.19,22.75-22.75,22.75-22.75-10.19-22.75-22.75Z"/>
      <path class="cls-10" d="M43.12,204c-3.8.11-6.94,7.24-6.94,7.24,0,0-2.55-7.92-7-7.06-.61.12-1.36.37-1.91,1.07-5.3,6.86,8.91,19.22,8.91,19.22,0,0,14.95-13.68,9.15-19.66-.68-.69-1.56-.82-2.2-.8Z"/>
    </g>
  </g>
  <g id="Credit_card">
    <g>
      <path class="cls-3" d="M59.63,26.97c-.58-4.75,2.8-9.07,7.54-9.65L199.74,1.07c4.75-.58,9.07,2.8,9.65,7.54l9.14,74.55c.58,4.75-2.8,9.07-7.54,9.65l-132.57,16.25c-4.75.58-9.07-2.8-9.65-7.54l-9.14-74.55Z"/>
      <path class="cls-1" d="M82.41,76.85c-.19-1.57.92-2.99,2.49-3.18l45.3-5.55c1.57-.19,2.99.92,3.18,2.49l.73,6c.19,1.57-.92,2.99-2.49,3.18l-45.3,5.55c-1.57.19-2.99-.92-3.18-2.49l-.74-6Z"/>
      <path class="cls-1" d="M84.31,91.14c-.1-.82.48-1.57,1.31-1.67l60.06-7.36c.82-.1,1.57.48,1.67,1.31l.04.36c.1.82-.48,1.57-1.31,1.67l-60.06,7.36c-.82.1-1.57-.48-1.67-1.31l-.04-.36Z"/>
      <g>
        <path class="cls-11" d="M78.3,45.78l-1.72-12.99,4.55-.6c1.58-.21,2.81-.06,3.71.43.89.5,1.42,1.33,1.57,2.49.08.64,0,1.22-.27,1.75-.26.53-.67.94-1.22,1.25.69.08,1.26.35,1.71.8.45.46.72,1.05.82,1.78.17,1.25-.11,2.25-.82,3-.71.75-1.81,1.23-3.28,1.43l-5.05.67ZM79.98,37.88l1.98-.26c1.35-.2,1.95-.83,1.81-1.88-.08-.59-.31-.99-.68-1.2-.38-.21-.93-.27-1.67-.17l-1.87.25.43,3.27ZM80.23,39.77l.46,3.51,2.29-.3c.63-.08,1.1-.3,1.42-.65.31-.35.44-.79.37-1.31-.16-1.19-.85-1.71-2.09-1.57l-2.45.32Z"/>
        <path class="cls-11" d="M96.94,40.6l-4.69.62-.54,2.79-2.85.38,3.12-13.63,2.48-.33,6.58,12.35-2.85.38-1.25-2.56ZM92.68,38.96l3.25-.43-2.28-4.65-.97,5.08Z"/>
        <path class="cls-11" d="M112.82,41.23l-2.68.35-6.34-7.86,1.13,8.55-2.68.35-1.72-12.99,2.68-.35,6.35,7.88-1.13-8.57,2.67-.35,1.72,12.99Z"/>
        <path class="cls-11" d="M118.54,35.17l-1.19,1.68.49,3.71-2.68.35-1.72-12.99,2.68-.35.78,5.89.96-1.77,2.75-4.71,3.29-.43-3.85,6.38,5.7,6.59-3.19.42-4.03-4.77Z"/>
      </g>
    </g>
  </g>
  <g id="Speech_bubble">
    <g>
      <g>
        <path class="cls-2" d="M86,160.89c8.18-5.91,13.5-15.53,13.5-26.38,0-17.97-14.56-32.53-32.53-32.53s-32.53,14.57-32.53,32.53,14.56,32.53,32.53,32.53c2.49,0,4.92-.28,7.25-.81"/>
        <path class="cls-2" d="M86.04,160.87s2.66,7.34,7.56,10.49c7.78,5,11.06,5.08,11.06,5.08,0,0-11.61,1.44-18.76-1.09-7.29-2.59-11.59-9.14-11.59-9.14"/>
      </g>
      <g>
        <path class="cls-6" d="M54.71,124.51h28.53l-5.77,19.9h-18.27l-4.5-19.9Z"/>
        <path class="cls-9" d="M58.95,151.42c0-2.13,1.47-3.86,3.29-3.86s3.29,1.73,3.29,3.86-1.47,3.86-3.29,3.86-3.29-1.73-3.29-3.86Z"/>
        <path class="cls-9" d="M71.44,151.42c0-2.13,1.47-3.86,3.29-3.86s3.29,1.73,3.29,3.86-1.47,3.86-3.29,3.86-3.29-1.73-3.29-3.86Z"/>
        <path class="cls-6" d="M55.3,127.01l-2.02-7.9-8.32-.06"/>
        <path class="cls-6" d="M61.41,124.51v19.9"/>
        <path class="cls-6" d="M68.22,124.51v19.9"/>
        <path class="cls-6" d="M75.04,124.51v19.9"/>
        <path class="cls-6" d="M56.67,131.07h24.7"/>
        <path class="cls-6" d="M58.34,138.41h20.87"/>
      </g>
    </g>
  </g>
  <g id="Character_2">
    <g>
      <g>
        <g id="Layer-6">
          <path class="cls-10" d="M150.68,79.12c0-9.8,8.56-17.75,19.11-17.75h149.54c10.56,0,19.11,7.95,19.11,17.75v312.57c0,9.8-8.56,17.75-19.11,17.75h-149.54c-10.56,0-19.11-7.95-19.11-17.75V79.12Z"/>
        </g>
        <g id="Layer-12">
          <path class="cls-11" d="M172.54,86.57c-3.31,0-6.03,2.68-6.03,6v8.12h156.09v-8.12c0-3.32-2.68-6-6-6h-144.06Z"/>
        </g>
        <g id="Layer-13">
          <g>
            <path class="cls-10" d="M306.79,94.5c0-.89.72-1.62,1.62-1.62s1.62.72,1.62,1.62-.72,1.62-1.62,1.62-1.62-.72-1.62-1.62Z"/>
            <path class="cls-10" d="M312.66,94.5c0-.89.72-1.62,1.62-1.62s1.62.72,1.62,1.62-.72,1.62-1.62,1.62-1.62-.72-1.62-1.62Z"/>
            <path class="cls-10" d="M300.91,94.5c0-.89.72-1.62,1.62-1.62s1.62.72,1.62,1.62-.72,1.62-1.62,1.62-1.62-.72-1.62-1.62Z"/>
          </g>
        </g>
        <g id="Layer-27">
          <path class="cls-11" d="M214.33,312.26c-4.17.09-8.31,2.12-9.22,5.75-2.17,8.62,9.38,27.25,9.38,27.25,0,0,11.35-19.74,9.37-27.09-1.12-4.16-5.35-5.99-9.53-5.91ZM214.64,317.23c2,0,3.62,1.59,3.62,3.59s-1.63,3.62-3.62,3.62-3.62-1.63-3.62-3.62,1.63-3.59,3.62-3.59Z"/>
        </g>
        <path class="cls-3" d="M185.41,171.56h58.32v45.07h-58.32v-45.07Z"/>
        <path class="cls-1" d="M185.75,191.55l22.2,10.21,35.51-14.15.14,28.74-58.27-.17.42-24.63Z"/>
        <path class="cls-1" d="M200.28,185.16c0-2.71,2.19-4.9,4.9-4.9s4.9,2.19,4.9,4.9-2.19,4.9-4.9,4.9-4.9-2.2-4.9-4.9Z"/>
        <path class="cls-3" d="M185.48,242.34h58.32v45.07h-58.32v-45.07Z"/>
        <path class="cls-1" d="M185.83,262.33l22.2,10.21,35.51-14.15.14,28.74-58.27-.17.42-24.63Z"/>
        <path class="cls-1" d="M200.35,255.95c0-2.71,2.19-4.9,4.9-4.9s4.9,2.19,4.9,4.9-2.19,4.9-4.9,4.9-4.9-2.19-4.9-4.9Z"/>
        <path class="cls-3" d="M185.56,306.21h58.32v45.07h-58.32v-45.07Z"/>
        <path class="cls-11" d="M234.48,116.95c0-2.23,1.81-4.05,4.04-4.05h61.58c2.23,0,4.05,1.81,4.05,4.05v2.43c0,2.23-1.81,4.05-4.05,4.05h-61.58c-2.23,0-4.04-1.81-4.04-4.05v-2.43Z"/>
        <path class="cls-1" d="M234.48,132.88c0-1.69,1.37-3.06,3.06-3.06h46.58c1.69,0,3.06,1.37,3.06,3.06v1.84c0,1.69-1.37,3.06-3.06,3.06h-46.58c-1.69,0-3.06-1.37-3.06-3.06v-1.84Z"/>
        <path class="cls-5" d="M184.98,118.53c0-3.11,2.52-5.62,5.62-5.62h26.48c3.11,0,5.62,2.52,5.62,5.62v26.48c0,3.11-2.52,5.62-5.62,5.62h-26.48c-3.1,0-5.62-2.52-5.62-5.62v-26.48Z"/>
        <path class="cls-3" d="M181.66,231.04h126.54"/>
        <path class="cls-3" d="M254.54,244.88h38.81"/>
        <path class="cls-3" d="M254.06,251.05h39.04"/>
        <path class="cls-3" d="M253.86,258.71h38.81"/>
        <path class="cls-3" d="M253.39,264.88h39.04"/>
        <path class="cls-3" d="M181.66,296.94h126.54"/>
        <path class="cls-3" d="M181.66,160.26h126.54"/>
        <path class="cls-5" d="M218.73,387.36c0-.98,1.08-1.77,2.42-1.77h46.84c1.33,0,2.42.79,2.42,1.77v4.84c0,.98-1.08,1.77-2.42,1.77h-46.84c-1.33,0-2.42-.79-2.42-1.77v-4.84Z"/>
        <path class="cls-5" d="M225.45,74.94c0-.72.8-1.31,1.79-1.31h34.64c.99,0,1.79.59,1.79,1.31v3.58c0,.72-.8,1.31-1.79,1.31h-34.64c-.99,0-1.79-.59-1.79-1.31v-3.58Z"/>
        <path class="cls-5" d="M150.68,79.12c0-9.8,8.56-17.75,19.11-17.75h149.54c10.56,0,19.11,7.95,19.11,17.75v312.57c0,9.8-8.56,17.75-19.11,17.75h-149.54c-10.56,0-19.11-7.95-19.11-17.75V79.12Z"/>
        <path class="cls-5" d="M166.53,92.56c0-3.32,2.69-6,6-6h144.06c3.31,0,6,2.69,6,6v276.95c0,3.32-2.69,6-6,6h-144.06c-3.32,0-6-2.69-6-6V92.56Z"/>
        <path class="cls-8" d="M181.66,76.73c0-2.03,1.64-3.67,3.67-3.67s3.67,1.64,3.67,3.67-1.64,3.67-3.67,3.67-3.67-1.64-3.67-3.67Z"/>
        <g>
          <path class="cls-7" d="M195.2,125.96h17.69l-3.58,12.34h-11.33l-2.79-12.34Z"/>
          <path class="cls-9" d="M197.83,142.64c0-1.32.91-2.39,2.04-2.39s2.04,1.07,2.04,2.39-.91,2.39-2.04,2.39-2.04-1.07-2.04-2.39Z"/>
          <path class="cls-9" d="M205.57,142.64c0-1.32.91-2.39,2.04-2.39s2.04,1.07,2.04,2.39-.91,2.39-2.04,2.39-2.04-1.07-2.04-2.39Z"/>
          <path class="cls-7" d="M195.56,127.51l-1.25-4.9-5.16-.04"/>
          <path class="cls-7" d="M199.35,125.96v12.34"/>
          <path class="cls-7" d="M203.57,125.96v12.34"/>
          <path class="cls-7" d="M207.8,125.96v12.34"/>
          <path class="cls-7" d="M196.51,130.02h15.21"/>
          <path class="cls-7" d="M197.45,134.57h12.94"/>
        </g>
        <g id="Layer-11">
          <path class="cls-11" d="M212.89,115.27c0-4.5,3.65-8.15,8.15-8.15s8.15,3.65,8.15,8.15-3.65,8.15-8.15,8.15-8.15-3.65-8.15-8.15Z"/>
        </g>
        <path class="cls-10" d="M223.5,118.83h-5.36v-1.06l2.53-2.7c.35-.38.6-.71.77-.99.17-.28.25-.55.25-.81,0-.35-.09-.62-.26-.82-.18-.2-.43-.3-.75-.3-.35,0-.63.12-.83.36-.2.24-.3.56-.3.95h-1.56c0-.48.11-.91.34-1.31.23-.39.55-.7.96-.93.42-.22.89-.34,1.41-.34.81,0,1.43.19,1.88.58.45.39.67.93.67,1.64,0,.39-.1.78-.3,1.18s-.54.87-1.03,1.4l-1.78,1.87h3.36v1.25Z"/>
      </g>
      <g>
        <path class="cls-9" d="M277.8,213.05s-6.72,8.51-6.72,19.06c0,9.51,9.49,14.69,9.49,14.69l-16.89,58.02-42.64,51.47,35.47,19.07,13.81.11s43.54-58.3,45.58-70.66c2.48-15.03,3.59-53.77,3.59-53.77l17.59,49.39-5.33,92.56,53.56-15.46s.71-83.89-4.7-100.95c-5.41-17.06-47.49-71.79-47.49-71.79l-55.32,8.24Z"/>
        <path class="cls-2" d="M311.16,242.34s-4.39,51.34-7.01,62.48c-2.62,11.13-43.32,65.27-43.32,65.27"/>
        <path class="cls-2" d="M342.45,231.94s25.54,36.75,28.32,47.26c2.78,10.5,4.65,96.33,4.65,96.33"/>
        <g id="Layer-8">
          <path class="cls-11" d="M334.21,207.23s-9.27,7.65-19.65,9.43c-12.91,2.21-21.59-1.42-21.59-1.42,0,0-18.73,11.35-36.61,7.08-17.89-4.27-33.06-21.78-12.44-52.03,17.21-25.26,52.22-29.13,52.22-29.13,0,0,11.28,12.35,23.4,12.35,10.08,0,18.66-7,18.66-7,0,0,8.37,7.17,11.47,13.75,3.03,6.43,3.76,11.3,3.76,11.3,0,0,4.8-24.29,16.73-26.53,11.92-2.24,28.69,3.3,24.38,22.01-4.32,18.71-19.34,52.46-36.48,52.46-14,0-23.84-12.27-23.84-12.27Z"/>
        </g>
        <g id="Layer-46">
          <path class="cls-4" d="M294.94,143.67l11.74,16.58,12.52-4.58,9.88,4.58,9.37-11.24"/>
        </g>
        <path class="cls-5" d="M350.05,389.97c1.42,5.08,5.73,20.58,5.73,20.58,0,0,4.88-1.04,11.97-2.63l-1.62-7.93,28.05-.21s25.11-5.14,26.72-6.58c3.44-3.07-7.14-6.1-17.3-8.79-9.66-2.56-20.43-3.39-20.43-3.39"/>
        <path class="cls-3" d="M387.35,388.04l7.87-10.64"/>
        <path class="cls-3" d="M392.93,388.63l7.87-10.64"/>
        <path class="cls-5" d="M226.83,357.45l-10.28,13.41,4.48,3.84"/>
        <g id="Layer-16">
          <path class="cls-4" d="M263.67,181.26s16.14-6.45,28.74-1c10.78,4.66,10.78,18.86,8.5,24.55-2.05,5.13-6.21,9.37-6.21,9.37"/>
          <path class="cls-4" d="M286.94,162.44l-6.95,15.7"/>
          <path class="cls-4" d="M340.1,166.27s3.86,9.6,2.35,22.44c-.9,7.69-7.35,16.1-7.35,16.1"/>
        </g>
        <g id="Layer-17">
          <path class="cls-5" d="M293.35,183.46s9.9-18.26,27.63-12.19c7.17,2.46,5.7,7.52,5.7,7.52,0,0-2.45-1.66-6.13-2.83s-9.05-.39-9.05-.39c0,0,7.07-.43,9.3.43,2.23.86,8.46,2.78,7.19,6.22-.87,2.37-5.17-.1-8.01-.31-2.84-.22-7.23,0-7.23,0,0,0,2.84.46,7.65,1.56,4.59,1.05,5.51,3.55,4.7,5.13-.8,1.56-12.85-.39-12.85-.39,0,0-5.87,9.62-14.8,6.59"/>
        </g>
        <g id="Layer-22">
          <path class="cls-5" d="M260.41,232.38l8.91,2.61-16.69,59.82-4.19-2.07-7.89,4-8.31-5.44"/>
          <path class="cls-5" d="M258.15,236.39l3.34,1.04,7.42-1.93"/>
          <path class="cls-5" d="M262.15,237.31l-21.83,59.63"/>
        </g>
        <g id="Layer-20">
          <path class="cls-5" d="M232.91,216.23l27.95,14.12-31.67,66.39-3.73-2.92-8.51,2.76-31.61-28.78,40.4-51.75,7.18.18Z"/>
        </g>
        <g id="Layer-21">
          <path class="cls-5" d="M225.66,217.17l27.05,14.27,7.65-.65"/>
          <path class="cls-5" d="M253.39,231.44l-36.7,65.29"/>
        </g>
        <g id="Layer-19">
          <path class="cls-5" d="M282.84,176.38c6.59,10.23-18.67,45.57-27.54,59.03"/>
          <path class="cls-5" d="M285.34,176.58c8.74,8.76-13.05,48.67-20.55,63.73"/>
          <path class="cls-5" d="M237,208.88c-4.4,2.51-6.87,4.71-9.54,6.79"/>
        </g>
        <g id="Layer-23">
          <path class="cls-10" d="M307.89,124.99c0-7.9,6.41-14.31,14.31-14.31s14.31,6.41,14.31,14.31-6.41,14.31-14.31,14.31-14.31-6.41-14.31-14.31Z"/>
        </g>
        <g id="Layer-10">
          <path class="cls-9" d="M278.68,109.83c-5.3.42-8.65,3.2-9.28,6.66-.84,4.61,5.74,17.11,23.72,14.31,5.88-.91,11.59-3.24,14.53-4.5.44,2.65,1.34,4.5,1.34,4.5,0,0,5.44,0,8.88-5.03,5.36-7.84,3.72-15.16,3.72-15.16,0,0-7.48-1.37-12.09,5.78-.65,1.01-1.08,2.03-1.41,3.06-2.41.04-6.97-.04-9.72-1.78-3.59-2.27-5.76-5.77-13.78-7.41-2.17-.44-4.14-.58-5.91-.44Z"/>
        </g>
        <path class="cls-11" d="M414.38,73.15c-.52.08-1.03.2-1.53.36-2.66.89-4.71,3.02-6.11,5.96-1.33,1.78-4.73,5.91-10.88,11.06-11.86,9.92-32.57,22.09-32.57,22.09l2.04,10.69s26.66-.36,42.62.45c7.17.36,11.75.8,15.02,1.18,1.99.84,3.98,1.18,5.87.88,0,0,1.02-.2,1.44-.35,8.04-2.69,10.66-16.51,5.85-30.86-4.51-13.46-13.95-22.6-21.73-21.48Z"/>
        <path class="cls-9" d="M365.62,115.56c-.6-1.53-2.48-2.08-3.8-1.12l-1.49,1.08c-.83.6-1.21,1.66-.96,2.66l.47,1.82c.27,1.05,1.18,1.8,2.25,1.88l2.21.15c1.83.13,3.18-1.7,2.51-3.41l-1.19-3.05Z"/>
        <path class="cls-5" d="M405.04,83.78s-1.24,9.79,1.32,19.12c3.5,12.75,13.14,20.24,13.14,20.24"/>
        <path class="cls-1" d="M379.92,102.12l-16.92,10.4c-.12.08-.19.22-.16.36l1.84,10.18c.03.17.17.29.34.29l7.5.09c.18,0,.33.14.35.31l2.11,18.9c.02.21.21.35.42.31l9.01-1.71c.15-.03.25-.18.22-.33l-4.04-17.25c-.03-.17.1-.33.28-.34l4.74-.04s-4.19-5.93-5.12-10.7c-.98-5.01-.55-10.49-.55-10.49Z"/>
        <path class="cls-9" d="M412.35,102.99c-3.95-11.79-2.37-22.95,3.52-24.93s13.87,5.98,17.83,17.77c3.95,11.79,2.37,22.95-3.52,24.93s-13.87-5.98-17.83-17.78Z"/>
        <path class="cls-11" d="M412.68,94.43l13.66-.13s1.23-.07,2.13,2.29c.88,2.3.06,3.56.06,3.56l-10.17,10.08s-2.36-3.71-3.78-7.66c-1.42-3.95-1.9-8.14-1.9-8.14Z"/>
        <path class="cls-5" d="M425.56,95.07s-.44,1.46,0,2.72c.61,1.74,1.95,2.22,1.95,2.22"/>
        <path class="cls-5" d="M369.2,150.42s-5.8-7.37-4.11-16.45c1.54-8.31,8.68-9.45,11.17-10.01,3.53-.78,12.29,0,9.61,4.47-1.4,2.32-10.84,2.17-10.84,2.17,0,0,3.41,5.4-1.64,12.11"/>
        <path class="cls-5" d="M381.99,130.16s6.59-1.26,5.41,3.31c-.39,1.5-7.6,3.81-9.76,2.3-2.32-1.62-1.08-4.84-1.08-4.84"/>
        <path class="cls-5" d="M387.58,132.77s1.96,4.42-2.19,5.91c-3.72,1.34-7.33,1.02-7.73-2.42"/>
        <path class="cls-5" d="M387.41,137.76c.92,2.04-.37,4.14-2.82,4.98-2.44.83-6.76-1-5.89-3.64"/>
        <path class="cls-5" d="M385.05,142.58s-.01,1.89-.65,3.45c-.81,2-1.47,3-1.47,3"/>
        <path class="cls-1" d="M444.08,98.16l18.27,1.8c.51.06.93.35,1.1.74l1.01,6.85c.38.87-.72,1.55-1.74,1.09-.6-.27-18.64-8.38-19.24-8.65-1.26-.57-.79-2.01.6-1.83Z"/>
        <path class="cls-1" d="M434.58,77.76l2.64-12.27c.09-.34.42-.61.86-.71l7.63-.4c.97-.22,1.69.55,1.15,1.22-.32.4-9.94,12.25-10.26,12.64-.67.83-2.25.45-2.01-.48Z"/>
        <path class="cls-1" d="M456.43,77.64c.49-.31,1.28-.19,1.81.27l5.03,6.28c.72.64.54,1.59-.35,1.75-.65.12-20.11,3.68-20.76,3.79-1.33.24-2.49-1.35-1.46-2.01l15.73-10.07Z"/>
        <path class="cls-9" d="M334.55,118.74c.03-.81-.59-1.49-1.4-1.53s-1.49.59-1.53,1.4c-.03.81.59,1.5,1.4,1.53.81.04,1.5-.59,1.53-1.4Z"/>
        <path class="cls-5" d="M325.23,130.38c-.28-1.22.49-2.43,1.7-2.7,1.22-.27,2.43.49,2.7,1.7.27,1.22-.49,2.43-1.7,2.7-1.22.27-2.43-.49-2.7-1.7Z"/>
        <path class="cls-11" d="M320.48,125.14c.04-.95.84-1.69,1.8-1.65s1.69.84,1.65,1.8-.85,1.69-1.8,1.65c-.95-.04-1.69-.85-1.65-1.8Z"/>
        <path class="cls-5" d="M337.03,125.63c.35-8.22-6.02-15.16-14.24-15.52-8.22-.35-15.16,6.02-15.52,14.24-.35,8.22,6.02,15.16,14.24,15.52,8.22.35,15.16-6.03,15.52-14.24Z"/>
        <path class="cls-9" d="M326.95,121.31c.03-.81-.59-1.49-1.41-1.53-.81-.03-1.49.59-1.53,1.41-.03.81.59,1.49,1.4,1.53.81.03,1.5-.59,1.53-1.4Z"/>
        <path class="cls-5" d="M329.22,118.9l3.96,6-2.96.4"/>
      </g>
    </g>
  </g>
  <g id="Character_1">
    <g>
      <g id="Layer-26">
        <path class="cls-10" d="M144.33,197.68c.35-8.22-6.02-15.16-14.24-15.52-8.22-.35-15.16,6.02-15.52,14.24-.35,8.22,6.02,15.16,14.24,15.52,8.22.35,15.16-6.02,15.52-14.24Z"/>
      </g>
      <g id="Layer-9">
        <path class="cls-11" d="M116.28,206.56s-7.92,3.26-9.56-2.49c-1.32-4.65,3.93-6.65,3.93-6.65,0,0-3.09-3.89-3.23-7.75-.13-3.53,2.73-8.09,6.55-8.92,1.81-.39,3.51-.36,3.51-.36,0,0-1.37-4.97,3.1-6.57,2.04-.73,5.24-.86,7.1.62,1.08.87,2.66,3.19,2.66,3.19,0,0,1.79-6.26,6.3-4.97,2.52.72,3.66,5.53,3.66,5.53,0,0,3.86-2.53,6.28-1.8,3.31.99,2.55,6.08,1.15,8.07,0,0,2.79-1.89,4.34-1.52,5.22,1.26,2.78,8.08.08,10.1-.17.13,8.2-1.93,7.99,5.08-.15,4.88-6.49,5.94-6.49,5.94,0,0,2.45,4.3.04,6.36-6.13,5.25-12.95-2.47-12.95-2.47,0,0,3.28-3.53,4.21-6.72.93-3.19,0-4.53,0-4.53,0,0-4.85.79-6.88-1.25-1.46-1.46-1.33-5.86-1.33-5.86,0,0-2.06,2.85-5.55.02-2.86-2.32-3.15-5.88-3.15-5.88,0,0-.86,2.46-4.49,6.48-1.93,2.14-9.57,3.9-9.57,3.9l2.32,12.42Z"/>
      </g>
      <path class="cls-5" d="M114.39,200.88c-1.98-8.32,3.15-16.67,11.47-18.66s16.67,3.15,18.66,11.47c1.98,8.32-3.15,16.67-11.47,18.66-8.32,1.98-16.67-3.15-18.66-11.47Z"/>
      <path class="cls-11" d="M129.46,200.37c-.09-.96.6-1.81,1.55-1.91.95-.09,1.8.61,1.89,1.57.09.96-.6,1.81-1.55,1.91-.95.09-1.8-.61-1.89-1.57Z"/>
      <path class="cls-9" d="M125.56,197.9c-.24-.88.29-1.79,1.17-2.03.88-.24,1.79.29,2.03,1.17.24.88-.29,1.79-1.17,2.03-.88.24-1.79-.29-2.03-1.17Z"/>
      <path class="cls-9" d="M115.83,198.8c-.24-.88.29-1.79,1.17-2.03.88-.24,1.79.29,2.03,1.17.24.88-.29,1.79-1.17,2.03-.88.24-1.79-.29-2.03-1.17Z"/>
      <path class="cls-5" d="M121.93,197.04l-1.87,5.97,3.47-.24"/>
      <path class="cls-5" d="M127.43,204.07s-.35,1.66-1.51,2.32c-.81.45-2.34-.07-2.34-.07"/>
      <g id="Layer-36">
        <path class="cls-10" d="M51.56,326.93l-20.53,23.03v93.94h129.16l20.53-24.44v-92.53H51.56Z"/>
        <path class="cls-10" d="M31.04,349.96l20.52-23.04"/>
        <path class="cls-10" d="M160.19,349.96l20.52-23.04"/>
        <path class="cls-10" d="M160.19,443.89l20.52-24.43"/>
      </g>
      <path class="cls-2" d="M52.51,443.89h-21.48v-93.92h129.15v93.92h-59.39"/>
      <path class="cls-2" d="M75.51,326.92h105.19v92.53"/>
      <path class="cls-2" d="M160.19,349.96l20.52-23.04"/>
      <path class="cls-2" d="M160.19,443.89l20.52-24.43"/>
      <path class="cls-2" d="M68.47,337h103.85"/>
      <path class="cls-11" d="M149.92,332.4l-10.27,10.42h8.21s9.19-10.45,9.19-10.45l-7.13.03Z"/>
      <g>
        <path class="cls-2" d="M114.6,363.67c0-3.11,2.52-5.62,5.62-5.62h26.2c3.11,0,5.62,2.52,5.62,5.62v26.2c0,3.11-2.52,5.62-5.62,5.62h-26.2c-3.11,0-5.62-2.52-5.62-5.62v-26.2Z"/>
        <g>
          <path class="cls-5" d="M124.74,371h17.56l-3.55,12.24h-11.24l-2.77-12.24Z"/>
          <path class="cls-9" d="M127.35,387.55c0-1.31.9-2.37,2.02-2.37s2.02,1.06,2.02,2.37-.9,2.37-2.02,2.37-2.02-1.06-2.02-2.37Z"/>
          <path class="cls-9" d="M135.04,387.55c0-1.31.9-2.37,2.02-2.37s2.02,1.06,2.02,2.37-.9,2.37-2.02,2.37-2.02-1.06-2.02-2.37Z"/>
          <path class="cls-5" d="M125.11,372.54l-1.24-4.86-5.12-.04"/>
          <path class="cls-5" d="M128.86,371v12.24"/>
          <path class="cls-5" d="M133.06,371v12.24"/>
          <path class="cls-5" d="M137.25,371v12.24"/>
          <path class="cls-5" d="M125.47,375.03h15.67"/>
          <path class="cls-5" d="M126.98,379.55h13.18"/>
        </g>
      </g>
      <g id="Layer-31">
        <path class="cls-1" d="M154.84,289.88s14.12,21.3,5.3,37.04c-10.03,17.91-53.64,25.79-53.64,25.79l7.46,81.32-57.37.58s-2.74-78.85,2.86-92.15c5.6-13.3,59.19-51.6,59.19-51.6l36.2-.99Z"/>
      </g>
      <g id="Layer-29">
        <path class="cls-11" d="M125.5,216.34c-26.75,0-53.13,20.75-53.13,47.5s29.69,47.34,56.44,47.34c.88,0,1.7-.18,2.56-.22.77,3.66,2.08,6.93,4.41,8.75,8.12,6.36,39.24,0,39.24,0,0,0,2.23-22.77,2.23-53.53,0-26.75-25-49.84-51.75-49.84Z"/>
      </g>
      <g id="Layer-32">
        <path class="cls-1" d="M119.08,314.6s-5.5-71.78-37.24-76.1c-39.04-5.32-49.89,88.4-49.89,88.4l43.83.03,43.3-12.32Z"/>
      </g>
      <path class="cls-5" d="M107.18,308.48s-8.98,3.75-16.64,7.67c-5.17,2.65-15.02,8.91-15.02,8.91"/>
      <path class="cls-5" d="M84.69,278.14s.48,7.29.29,22.01c-.08,6.21-1.33,19.56-1.33,19.56"/>
      <g id="Layer-33">
        <path class="cls-11" d="M139.64,238.49l-2.38,37.86s-19.84-7.94-30.76-1.78c-10.01,5.66-11.82,18.25-.63,29.61,10.26,10.42,41.66,10.23,54.31,2.17,18.45-11.75,12.13-56.56,12.13-56.56l-32.68-11.3Z"/>
      </g>
      <path class="cls-5" d="M114.56,271.71s6.89-1.91,13.5-.38c8.21,1.86,11.32,4.03,11.32,4.03v-15"/>
      <path class="cls-5" d="M170.45,256.86s2.92,12.58,2.69,23.36c-.11,5.48-2.01,19.16-16.09,26.14-11.82,5.86-22.38,5.86-22.38,5.86"/>
      <path class="cls-10" d="M117.66,219.64s4.33-.81,9.17-.64c7.38.26,10.37,2.25,10.37,2.25l-16.65,33.14-2.89-34.74Z"/>
      <path class="cls-5" d="M97.97,434.84l.22,16.14s-45.61,4.15-50.1,2.05c-3.03-1.42,3.55-6.6,9.86-10.47,7.42-4.55,15.68-7.94,15.68-7.94"/>
      <path class="cls-2" d="M72.37,441.5l-7.75-6.66"/>
      <path class="cls-2" d="M68.7,443.45l-7.75-6.66"/>
      <path class="cls-5" d="M56.86,345.98s-33.27,2.71-37.76.6c-3.03-1.42,3.55-6.6,9.86-10.47,7.42-4.55,15.68-7.94,15.68-7.94"/>
      <path class="cls-2" d="M42.41,334.8l-7.75-6.66"/>
      <path class="cls-2" d="M39.7,337l-7.75-6.66"/>
      <g>
        <path class="cls-10" d="M96.33,236.6c-.55-2.59-3.14-4.28-5.78-3.78l-17.45-.4c-2.64.5-4.34,3-3.79,5.59l7.26,34.17c.55,2.59,3.14,4.28,5.78,3.78l17.45.4c2.64-.5,4.34-3,3.79-5.59l-7.26-34.17Z"/>
        <path class="cls-5" d="M99.26,250.38l-2.93-13.79c-.55-2.59-3.14-4.28-5.78-3.78l-17.45-.4c-2.64.5-4.34,3-3.79,5.59l7.26,34.17c.55,2.59,3.14,4.28,5.78,3.78l14.37.33"/>
        <path class="cls-1" d="M77.6,239.08c0-1.15-.93-2.08-2.08-2.08s-2.08.93-2.08,2.08.93,2.08,2.08,2.08,2.08-.93,2.08-2.08Z"/>
      </g>
      <path class="cls-5" d="M114.56,275.8s-.59-13.84-7.39-20.54c-9.46-9.32-25.99-5.14-23.43,1.6.66,1.73,2.99-1,7.7-.43,4.31.51,8.49,2.56,8.49,2.56,0,0-7.88-3.56-12.45-2.4-7.5,1.9-5.36,7.48-5.36,7.48,0,0,4.18-.92,7.65-.83,3.47.09,8.25,1.82,8.25,1.82,0,0-5.96-1.84-9.75-1.71-3.84.14-6.63.64-5.93,3.68.96,4.19,13.43,5.85,13.43,5.85,0,0,.72,7.92,9.09,11.68"/>
    </g>
    <path class="cls-5" d="M49,250.03c-2.67,5.36,4.49,15.85,6.48,10.51,1.99-5.34-3.26-16.98-6.48-10.51Z"/>
    <path class="cls-5" d="M54.23,242.72c-3.15,6.34,5.31,18.75,7.67,12.43s-3.86-20.09-7.67-12.43Z"/>
    <path class="cls-5" d="M61.36,237.84c-3.15,6.82,5.31,20.18,7.67,13.38,2.35-6.8-3.86-21.63-7.67-13.38Z"/>
    <polyline class="cls-4" points="140.3 222.42 145.91 236.46 120.72 262.01"/>
    <polyline class="cls-4" points="113.23 220.71 103.7 234.5 114.97 260.85"/>
    <path class="cls-4" d="M129.38,326.92s-40.58,17.1-40.51,23.04c.07,5.94,2.48,72.84,2.48,72.84"/>
  </g>
</svg>