<?xml version="1.0" encoding="UTF-8"?>
<svg id="Capa_2" xmlns="http://www.w3.org/2000/svg" viewBox="0 0 430.7 438.51">
  <defs>
    <style>
      .cls-1 {
        fill: #ffc051;
      }

      .cls-2 {
        stroke: #ff367c;
      }

      .cls-2, .cls-3, .cls-4, .cls-5, .cls-6, .cls-7 {
        fill: none;
        stroke-linecap: round;
        stroke-linejoin: round;
        stroke-width: 2px;
      }

      .cls-8 {
        fill: #263238;
      }

      .cls-9 {
        fill: #fff;
      }

      .cls-3 {
        stroke: #ffc051;
      }

      .cls-4, .cls-7 {
        stroke: #fff;
      }

      .cls-5, .cls-6 {
        stroke: #263238;
      }

      .cls-10 {
        fill: #ff367c;
      }

      .cls-6 {
        stroke-dasharray: 5 6;
      }

      .cls-7 {
        stroke-dasharray: 4 6;
      }
    </style>
  </defs>
  <g id="Shadow">
    <g id="Layer-8">
      <path class="cls-1" d="M78.73,416.3c0-12.26,68.59-22.2,153.19-22.2s153.19,9.94,153.19,22.2-68.59,22.2-153.19,22.2-153.19-9.94-153.19-22.2Z"/>
    </g>
  </g>
  <g id="Floor">
    <g id="Layer-7">
      <path class="cls-5" d="M1,375.02h87.35"/>
      <path class="cls-5" d="M147.14,375.02h57.35"/>
      <path class="cls-5" d="M263.07,375.02h166.28"/>
    </g>
  </g>
  <g id="Sparkles">
    <g id="Layer-16">
      <g>
        <path class="cls-5" d="M406.14,144.97v3.92"/>
        <path class="cls-5" d="M406.14,153.3v3.92"/>
        <path class="cls-5" d="M400.02,151.1h3.92"/>
        <path class="cls-5" d="M408.35,151.1h3.92"/>
      </g>
      <g>
        <path class="cls-5" d="M26.02,320.92v3.92"/>
        <path class="cls-5" d="M26.02,329.25v3.92"/>
        <path class="cls-5" d="M19.89,327.04h3.92"/>
        <path class="cls-5" d="M28.22,327.04h3.92"/>
      </g>
      <g>
        <path class="cls-5" d="M242.4,8.8v3.92"/>
        <path class="cls-5" d="M242.4,17.13v3.92"/>
        <path class="cls-5" d="M236.28,14.92h3.92"/>
        <path class="cls-5" d="M244.61,14.92h3.92"/>
      </g>
    </g>
  </g>
  <g id="AI">
    <g>
      <path class="cls-5" d="M392.28,192.05h-28.7v29.16"/>
      <path class="cls-5" d="M427.17,274.56v-25.98h-42.05"/>
      <path class="cls-5" d="M422.44,203.24v30.15h-37.33"/>
      <path class="cls-5" d="M288.35,275.51v-26.93h42.05"/>
      <path class="cls-5" d="M293.19,211.06v23.9h37.33"/>
      <path class="cls-5" d="M317.89,201.4h28.7v29.16"/>
      <path class="cls-5" d="M356.59,263.8v23.88"/>
      <path class="cls-8" d="M391.69,192.05c0-1.95,1.58-3.53,3.53-3.53s3.53,1.58,3.53,3.53-1.58,3.53-3.53,3.53-3.53-1.58-3.53-3.53Z"/>
      <path class="cls-8" d="M314.36,201.4c0-1.95,1.58-3.53,3.53-3.53s3.53,1.58,3.53,3.53-1.58,3.53-3.53,3.53-3.53-1.58-3.53-3.53Z"/>
      <path class="cls-8" d="M289.66,211.06c0-1.95,1.58-3.53,3.53-3.53s3.53,1.58,3.53,3.53-1.58,3.53-3.53,3.53-3.53-1.58-3.53-3.53Z"/>
      <path class="cls-8" d="M284.9,274.56c0-1.95,1.58-3.53,3.53-3.53s3.53,1.58,3.53,3.53-1.58,3.53-3.53,3.53-3.53-1.58-3.53-3.53Z"/>
      <path class="cls-8" d="M423.64,274.56c0-1.95,1.58-3.53,3.53-3.53s3.53,1.58,3.53,3.53-1.58,3.53-3.53,3.53-3.53-1.58-3.53-3.53Z"/>
      <path class="cls-8" d="M418.93,203.1c0-1.95,1.58-3.53,3.53-3.53s3.53,1.58,3.53,3.53-1.58,3.53-3.53,3.53-3.53-1.58-3.53-3.53Z"/>
      <g id="Layer-11">
        <path class="cls-1" d="M324.01,224.6c0-3.47,2.81-6.29,6.29-6.29h52.59c3.47,0,6.29,2.82,6.29,6.29v38.62c0,3.47-2.82,6.29-6.29,6.29h-52.59c-3.47,0-6.29-2.81-6.29-6.29v-38.62Z"/>
      </g>
      <g>
        <path class="cls-10" d="M355.48,249.72h-8.31l-1.58,4.74h-5.04l8.56-22.99h4.39l8.61,22.99h-5.04l-1.6-4.74ZM348.46,245.88h5.75l-2.89-8.61-2.86,8.61Z"/>
        <path class="cls-10" d="M369.3,254.45h-4.74v-22.99h4.74v22.99Z"/>
      </g>
    </g>
  </g>
  <g id="Tab">
    <g id="Layer-14">
      <g>
        <path class="cls-8" d="M299.25,287.68c-3.39,0-6.14,2.75-6.14,6.14v5.65h126.96v-5.65c0-3.39-2.72-6.14-6.11-6.14h-114.71Z"/>
        <path class="cls-5" d="M293.1,293.54c0-3.23,2.62-5.86,5.86-5.86h115.26c3.23,0,5.86,2.62,5.86,5.86v54.77c0,3.23-2.62,5.86-5.86,5.86h-115.26c-3.23,0-5.86-2.62-5.86-5.86v-54.77Z"/>
        <path class="cls-2" d="M304.45,327.02l7.06-4.1,7.41,4.04,11.11-6.43,9.03,7.26v11.75l-34.61.16v-12.69Z"/>
        <path class="cls-10" d="M321.96,331.76l17.89-9.86.07,17.65-1.99,2.25h-32.05l-1.88-2.08v-16.23l17.96,8.28Z"/>
        <path class="cls-2" d="M337.01,310.18c1.61,0,2.91,1.43,2.91,3.19v25.23c0,1.76-1.31,3.19-2.91,3.19h-30.09c-1.61,0-2.91-1.43-2.91-3.19v-25.23c0-1.76,1.3-3.19,2.91-3.19h30.09Z"/>
        <path class="cls-10" d="M315.8,315.82c1.24,0,2.24,1.05,2.24,2.35s-1,2.35-2.24,2.35-2.24-1.05-2.24-2.35,1-2.35,2.24-2.35Z"/>
        <path class="cls-5" d="M350.6,317.21h55.31"/>
        <path class="cls-5" d="M350.6,325.99h55.31"/>
        <path class="cls-5" d="M350.6,334.77h55.31"/>
        <path class="cls-9" d="M308.25,293.41c0-.9.73-1.63,1.63-1.63s1.63.73,1.63,1.63-.73,1.63-1.63,1.63-1.63-.73-1.63-1.63Z"/>
        <path class="cls-9" d="M314.12,293.41c0-.9.73-1.63,1.63-1.63s1.63.73,1.63,1.63-.73,1.63-1.63,1.63-1.63-.73-1.63-1.63Z"/>
        <path class="cls-9" d="M302.37,293.41c0-.9.73-1.63,1.63-1.63s1.63.73,1.63,1.63-.73,1.63-1.63,1.63-1.63-.73-1.63-1.63Z"/>
      </g>
    </g>
  </g>
  <g id="Light_bulb">
    <g>
      <path class="cls-10" d="M288.6,39.36c0-21.74,17.62-39.36,39.36-39.36s39.36,17.62,39.36,39.36-17.62,39.36-39.36,39.36-39.36-17.62-39.36-39.36Z"/>
      <g id="Layer-10">
        <path class="cls-9" d="M328.17,25.48c-8.84,0-16.08,6.44-16.08,14.44,0,6.08,4.27,11.33,10.41,13.43v3.5c0,.58.47,1.05,1.05,1.05.04,0,.06-.03.1-.03.03,0,.04.03.06.03h9.2c.58,0,1.05-.47,1.05-1.05v-3.54c6.07-2.14,10.25-7.37,10.25-13.4,0-8.01-7.21-14.44-16.05-14.44Z"/>
      </g>
      <path class="cls-8" d="M331.92,64.18l-7.58.12c.77,1.01,1.92,1.79,3.72,1.84,1.84.04,3.05-.83,3.86-1.96Z"/>
      <path class="cls-8" d="M333.28,58.75l-10.32.06s.08.89.1,1.43l10.1-.08c.02-.52.12-1.41.12-1.41Z"/>
      <path class="cls-8" d="M333.08,61.3l-9.95.04c.01.08-.01.06,0,.14.1.55.28,1.13.53,1.69l8.96-.14c.21-.51.36-1.01.44-1.51.02-.12,0-.11.02-.22Z"/>
      <path class="cls-8" d="M334.48,40.7c-.21-.04-.43,0-.62.13l-5.8,4.31-5.66-4.05c-.19-.13-.41-.19-.62-.16-.21.03-.41.15-.54.34-.27.37-.19.9.18,1.17l5.81,4.12-.13,8.72c0,.46.37.83.83.83.46,0,.83-.35.83-.81l.13-8.75,5.9-4.37c.38-.26.49-.76.23-1.14-.13-.19-.34-.32-.55-.36Z"/>
      <path class="cls-1" d="M328.41,35.94c-1.01-.08-1.85.47-2.56,1.4-.48-.67-1.08-1.14-1.89-1.18-.95-.04-1.64.47-2.17,1.28-.27.41-.47.83-.56,1.12-.12.38.14.78.56.89.42.11.86-.1.98-.48.01-.04.02-.11.07-.22.08-.18.17-.37.28-.54.27-.41.54-.62.77-.61.24.01.51.22.77.64.11.18.2.37.28.57.05.12.09.21.1.26.19.67,1.19.74,1.47.1.02-.05.1-.15.17-.29.13-.24.26-.48.42-.7.42-.56.87-.85,1.16-.83.33.03.66.28.98.73.14.19.25.42.35.64.06.13.12.21.14.26.23.66,1.27.66,1.51,0,.01-.04.05-.11.1-.22.09-.19.19-.37.32-.54.31-.43.61-.66.88-.64.27.02.48.19.67.54.08.16.16.33.21.51.03.11.03.19.03.22.06.39.44.69.88.64.43-.05.76-.44.7-.83-.05-.31-.15-.74-.39-1.18-.41-.77-1.07-1.28-2-1.34-.89-.06-1.58.39-2.14,1.08-.55-.73-1.23-1.2-2.1-1.28Z"/>
      <path class="cls-4" d="M328.15,12.58v8.89"/>
      <path class="cls-4" d="M347,17.96l-5.44,7.03"/>
      <path class="cls-4" d="M357.08,31.81l-8.75,1.59"/>
      <path class="cls-4" d="M298.85,32.61l8.75,1.59"/>
      <path class="cls-4" d="M307.71,17.96l5.44,7.03"/>
    </g>
  </g>
  <g id="Chart">
    <g>
      <path class="cls-3" d="M11.21,50.59h174.68"/>
      <path class="cls-3" d="M11.37,92.57h174.68"/>
      <path class="cls-3" d="M129.09,9.73v122.21"/>
      <path class="cls-3" d="M69.77,10.33v122.21"/>
      <g id="Layer-3">
        <path class="cls-3" d="M11.37,10.33h174.53v122.21H11.37V10.33Z"/>
      </g>
      <g id="Layer-4">
        <path class="cls-6" d="M19.89,104.56l24.16-35.28,1.14,24.07,36.29-33.1,11.02,15.42,33.06-32.91,15.32,18.58,16.68-8.55,17.58-25.83"/>
      </g>
      <path class="cls-2" d="M19.89,110.22l35.56-41.28,17.86,13.3,30.78-48.64,11.02,33.06,33.82-33.63,26.22,6.08"/>
      <path class="cls-5" d="M19.89,113.51l32.58-17.92,22.56-2.2,26.03-36.93,17.63,21.8,29.69-34.09,26.76-.23"/>
    </g>
  </g>
  <g id="Gears">
    <g id="Layer-6">
      <path class="cls-10" d="M49.43,266.96l3.21,3.86c-.73,1.59-1.32,3.22-1.75,4.89l-5.02,1.05.74,14.46,4.83.62c.74,2.24,1.77,4.38,3.06,6.42l-2.68,4.39,11.04,9.35,3.79-3.13c1.93.9,3.92,1.58,5.97,2.02l1.3,4.82,14.43-1.21.33-4.71c1.87-.69,3.67-1.58,5.39-2.66l4.27,2.7,9.53-10.88-3.14-3.92c.8-1.71,1.44-3.47,1.88-5.27l4.98-1.16-.74-14.46-4.89-.5c-.75-2.23-1.79-4.38-3.1-6.4l2.55-4.41-11.04-9.35-3.73,3.23c-1.9-.87-3.86-1.53-5.87-1.96l-1.24-5.09-14.43,1.21-.49,5.07c-1.88.7-3.67,1.61-5.39,2.71l-4.27-2.57-9.53,10.88ZM74.66,279.28c1.97-2.25,5.4-2.48,7.66-.5,2.25,1.97,2.46,5.39.49,7.64-1.97,2.25-5.39,2.49-7.64.52s-2.48-5.4-.5-7.66Z"/>
      <path class="cls-5" d="M13.78,216.65l2.17,2.61c-.5,1.08-.9,2.18-1.18,3.31l-3.4.71.5,9.79,3.27.42c.5,1.52,1.2,2.97,2.07,4.34l-1.82,2.97,7.47,6.33,2.56-2.12c1.31.61,2.66,1.07,4.04,1.37l.88,3.26,9.77-.82.22-3.19c1.27-.47,2.49-1.07,3.65-1.8l2.89,1.83,6.46-7.37-2.12-2.65c.54-1.16.97-2.35,1.27-3.57l3.37-.79-.5-9.79-3.31-.34c-.51-1.51-1.21-2.96-2.1-4.33l1.72-2.99-7.47-6.33-2.52,2.19c-1.29-.59-2.61-1.04-3.97-1.33l-.84-3.45-9.77.82-.33,3.43c-1.27.48-2.49,1.09-3.65,1.84l-2.89-1.74-6.46,7.37ZM30.87,224.99c1.34-1.52,3.66-1.68,5.18-.34,1.52,1.34,1.67,3.65.33,5.18-1.34,1.53-3.65,1.69-5.18.35-1.53-1.34-1.68-3.66-.34-5.19Z"/>
    </g>
  </g>
  <g id="Robot">
    <g>
      <path class="cls-2" d="M167.23,79s-14.41,1.3-15.28,10.08c-.5,5.06,1.91,9.83,8.31,12.76,9.35,4.28,8.72,14.47,8.72,14.47l-4.51-.71s0-5.86-7.77-9.48c-9.17-4.28-13.3-7.71-13.3-15.55,0-18.2,23.98-18.4,23.98-18.4"/>
      <path class="cls-8" d="M137.53,122.42c0-5.04,4.08-9.12,9.12-9.12h30.09c5.04,0,9.12,4.08,9.12,9.12v21.45c0,5.04-4.08,9.12-9.12,9.12h-30.09c-5.04,0-9.12-4.08-9.12-9.12v-21.45Z"/>
      <path class="cls-8" d="M208.63,122.69c0-5.18,4.2-9.39,9.39-9.39h26.63c5.18,0,9.39,4.2,9.39,9.39v20.91c0,5.18-4.2,9.39-9.39,9.39h-26.63c-5.18,0-9.39-4.2-9.39-9.39v-20.91Z"/>
      <path class="cls-5" d="M301.21,145.14l7.33,32.42"/>
      <path class="cls-5" d="M291.21,137.77l-13.65,30.46"/>
      <path class="cls-5" d="M274.77,126.24l-12.39,29.64"/>
      <path class="cls-5" d="M319.56,121.31l30.87,27.17"/>
      <path class="cls-5" d="M308.54,135.56l27.83,30.66"/>
      <path class="cls-5" d="M248.43,115.6s5.61,0,11.8,2.92c12.84,6.06,41.05,26.96,41.05,26.96l27.25-35.74,34.76,22.83s-37.26,50.49-50.86,53.88c-12.94,3.22-63.99-42.06-63.99-42.06v-28.8Z"/>
      <path class="cls-8" d="M291.26,179.89c-.76-6.13,7.07-12.14,17.48-13.43,10.41-1.29,19.47,2.64,20.23,8.77.76,6.13-7.07,12.14-17.48,13.43-10.41,1.29-19.47-2.64-20.23-8.77Z"/>
      <path class="cls-8" d="M222.52,68.19c0-3.72,3.02-6.74,6.74-6.74h.64c3.72,0,6.74,3.02,6.74,6.74v14.15c0,3.72-3.02,6.74-6.74,6.74h-.64c-3.72,0-6.74-3.02-6.74-6.74v-14.15Z"/>
      <path class="cls-5" d="M204.3,31.88l-1.79,19.86"/>
      <path class="cls-8" d="M201.1,30.16c0-1.77,1.43-3.2,3.2-3.2s3.2,1.43,3.2,3.2-1.43,3.2-3.2,3.2-3.2-1.43-3.2-3.2Z"/>
      <path class="cls-5" d="M214.08,306.99l34.34-2.4"/>
      <path class="cls-5" d="M212.6,280.98l39.41-5.73"/>
      <path class="cls-5" d="M210.66,334.72l46.78-1.12"/>
      <path class="cls-5" d="M210.43,358.03l48.44-1.12"/>
      <path class="cls-5" d="M134.04,314.11l36.15,25.81"/>
      <path class="cls-5" d="M119.15,330.06l37.66,28.96"/>
      <path class="cls-5" d="M208.63,379.8l50.24.27"/>
      <path class="cls-5" d="M106.8,344.64l35.49,30.43"/>
      <path class="cls-5" d="M210.66,258.98l37.16-4.85"/>
      <path class="cls-5" d="M154.33,273.4l38.4,4.72"/>
      <path class="cls-5" d="M157.81,253.65l37.1,2.9"/>
      <path class="cls-5" d="M148.46,296.8l32.4,11.54"/>
      <path class="cls-8" d="M219.56,300.19c0-1.31,1.06-2.38,2.38-2.38s2.38,1.06,2.38,2.38-1.06,2.38-2.38,2.38-2.38-1.06-2.38-2.38Z"/>
      <path class="cls-8" d="M232.83,299.18c0-1.31,1.06-2.38,2.38-2.38s2.38,1.06,2.38,2.38-1.06,2.38-2.38,2.38-2.38-1.06-2.38-2.38Z"/>
      <path class="cls-8" d="M218.77,312.85c0-1.31,1.06-2.38,2.38-2.38s2.38,1.06,2.38,2.38-1.06,2.38-2.38,2.38-2.38-1.06-2.38-2.38Z"/>
      <path class="cls-8" d="M232.83,311.84c0-1.31,1.06-2.38,2.38-2.38s2.38,1.06,2.38,2.38-1.06,2.38-2.38,2.38-2.38-1.06-2.38-2.38Z"/>
      <path class="cls-8" d="M154.53,292.47c.53-1.2,1.94-1.74,3.14-1.21,1.2.53,1.74,1.94,1.21,3.14-.53,1.2-1.94,1.74-3.14,1.21-1.2-.53-1.74-1.94-1.21-3.14Z"/>
      <path class="cls-8" d="M165.06,295.82c.53-1.2,1.94-1.74,3.14-1.21,1.2.53,1.74,1.94,1.21,3.14-.53,1.2-1.94,1.74-3.14,1.21-1.2-.53-1.74-1.94-1.21-3.14Z"/>
      <path class="cls-8" d="M148.67,303.71c.53-1.2,1.94-1.74,3.14-1.21,1.2.53,1.74,1.94,1.21,3.14s-1.94,1.74-3.14,1.21c-1.2-.53-1.74-1.94-1.21-3.14Z"/>
      <path class="cls-8" d="M159.92,307.39c.53-1.2,1.94-1.74,3.14-1.21,1.2.53,1.74,1.94,1.21,3.14-.53,1.2-1.94,1.74-3.14,1.21-1.2-.53-1.74-1.94-1.21-3.14Z"/>
      <path class="cls-5" d="M161.7,232.86s-9.31,57.07-12.94,63.93c-6.36,12.02-63.4,69.05-63.4,69.05,0,0,61.97,64.39,67.45,60.58,5.48-3.81-15.28-45.51-15.28-45.51,0,0,42-48.55,48.19-68.58,9.1-29.44,9.18-79.46,9.18-79.46h-33.21Z"/>
      <path class="cls-5" d="M207.51,227.5s7.65,71.81,6.57,79.49c-1.88,13.47-7.61,106.76-7.61,106.76,0,0,95.53,5.79,99.38.34,3.85-5.45-46.17-25.68-46.17-25.68,0,0-2.67-69.07-3.67-90.02-1.47-30.78-20.2-81.05-20.2-81.05l-28.31,10.15Z"/>
      <path class="cls-10" d="M269.33,385.34c.7-.64,1.79-.6,2.43.11l2.09,2.28c.64.7.59,1.79-.11,2.43l-13.23,12.13c-.7.64-1.79.59-2.43-.11l-2.09-2.28c-.64-.7-.59-1.79.11-2.43l13.23-12.13Z"/>
      <path class="cls-10" d="M279.43,389.11c.7-.64,1.79-.6,2.43.11l2.09,2.28c.64.7.6,1.79-.11,2.43l-13.23,12.13c-.7.64-1.79.59-2.43-.11l-2.09-2.28c-.64-.7-.59-1.79.11-2.43l13.23-12.13Z"/>
      <path class="cls-10" d="M148.3,384.32c.95.06,1.67.88,1.61,1.83l-.2,3.09c-.06.95-.88,1.67-1.83,1.61l-17.91-1.15c-.95-.06-1.67-.88-1.61-1.83l.2-3.09c.06-.95.88-1.67,1.83-1.61l17.91,1.15Z"/>
      <path class="cls-10" d="M152.57,394.22c.95.06,1.67.88,1.61,1.83l-.2,3.09c-.06.95-.88,1.67-1.83,1.61l-17.91-1.15c-.95-.06-1.67-.88-1.61-1.83l.2-3.09c.06-.95.88-1.67,1.83-1.61l17.91,1.15Z"/>
      <path class="cls-8" d="M239.8,306.99c0-12.74,6.37-23.07,14.24-23.07s14.24,10.33,14.24,23.07-6.37,23.07-14.24,23.07-14.24-10.33-14.24-23.07Z"/>
      <path class="cls-8" d="M169.74,302.68c4.77-11.81,14.55-19,21.84-16.06,7.29,2.95,9.33,14.91,4.56,26.73-4.77,11.81-14.55,19-21.84,16.06-7.29-2.95-9.33-14.91-4.56-26.73Z"/>
      <path class="cls-2" d="M248.43,305.79c0-7.03,3.52-12.73,7.85-12.73s7.85,5.7,7.85,12.73-3.52,12.73-7.85,12.73-7.85-5.7-7.85-12.73Z"/>
      <path class="cls-2" d="M178.89,305.39c2.52-6.24,7.69-10.04,11.55-8.49,3.85,1.56,4.93,7.88,2.41,14.12-2.52,6.24-7.69,10.04-11.54,8.49-3.85-1.56-4.93-7.88-2.41-14.12Z"/>
      <path class="cls-10" d="M200.19,106.16c-36.27,0-53.58,36.52-55.82,82.75h111.64c-2.24-46.22-15.3-84.01-55.82-82.75Z"/>
      <path class="cls-10" d="M200.19,194.72c-31.34,0-46.3,19.99-48.24,45.28h96.47c-1.94-25.29-13.22-45.97-48.24-45.28Z"/>
      <path class="cls-5" d="M218.77,158.21s.85,6.21,1.27,13.27c.42,7.06.3,14.97.3,14.97"/>
      <path class="cls-5" d="M206.56,109.75s2.43,3.63,3.9,8.05c1.47,4.42,2.48,9.51,2.48,9.51"/>
      <path class="cls-8" d="M189.33,127.3c0-2.01,1.63-3.65,3.65-3.65s3.65,1.63,3.65,3.65-1.63,3.65-3.65,3.65-3.65-1.63-3.65-3.65Z"/>
      <path class="cls-7" d="M178.47,203.55s-5.99,8.18-9.66,17.84c-3.65,9.61-3.95,17.6-3.95,17.6"/>
      <path class="cls-9" d="M205.41,142.76c0-5.65,4.58-10.24,10.24-10.24s10.24,4.58,10.24,10.24-4.58,10.24-10.24,10.24-10.24-4.58-10.24-10.24Z"/>
      <path class="cls-4" d="M200.19,142.76c0-8.54,6.92-15.46,15.46-15.46s15.46,6.92,15.46,15.46-6.92,15.46-15.46,15.46-15.46-6.92-15.46-15.46Z"/>
      <path class="cls-9" d="M173.99,125.74c0-.76.62-1.38,1.38-1.38h6.19c.76,0,1.38.62,1.38,1.38v3.82c0,.76-.62,1.38-1.38,1.38h-6.19c-.76,0-1.38-.62-1.38-1.38v-3.82Z"/>
      <path class="cls-9" d="M173.99,135.86c0-.76.62-1.38,1.38-1.38h6.19c.76,0,1.38.62,1.38,1.38v3.82c0,.76-.62,1.38-1.38,1.38h-6.19c-.76,0-1.38-.62-1.38-1.38v-3.82Z"/>
      <path class="cls-10" d="M200.91,46.4c-20.74,0-30.64,22.93-31.93,51.95h63.85c-1.28-29.02-8.75-52.74-31.93-51.95Z"/>
      <path class="cls-8" d="M198.98,64.19c-2.25,0-4.07,1.83-4.07,4.07v8.21c0,2.25,1.83,4.07,4.07,4.07h31.99c-1.04-6.08-2.56-11.57-4.63-16.35h-27.36Z"/>
      <path class="cls-9" d="M204.3,72.36c0-1.19.97-2.16,2.16-2.16s2.16.97,2.16,2.16-.97,2.16-2.16,2.16-2.16-.97-2.16-2.16Z"/>
      <path class="cls-9" d="M220.36,72.36c0-1.19.97-2.16,2.16-2.16s2.16.97,2.16,2.16-.97,2.16-2.16,2.16-2.16-.97-2.16-2.16Z"/>
      <path class="cls-5" d="M210.43,84.64s.97,2.95,3.58,3.11c2.45.14,3.71-2.49,3.71-2.49"/>
      <path class="cls-8" d="M164.66,68.19c0-3.72,3.02-6.74,6.74-6.74h1.4c3.72,0,6.74,3.02,6.74,6.74v15.64c0,3.72-3.02,6.74-6.74,6.74h-1.4c-3.72,0-6.74-3.02-6.74-6.74v-15.64Z"/>
      <path class="cls-4" d="M174.08,64.93s2.64.43,2.56,10.77c-.08,10.34-2.64,11.4-2.64,11.4"/>
      <path class="cls-5" d="M346.75,107.69s-2.44-14.84,5.18-21.15c7.62-6.31,20.03-1.98,20.03-1.98,0,0,2.3-5.66,3.57-10.4,1.28-4.75,2.46-9.16,5.24-9.22,2.78-.06,4.76,9.57,2.89,14.81-1.87,5.24-3.23,8.3-3.23,8.3,0,0,2.74-5.76,3.59-8.76,2.71-9.47,1.35-10.97,3.36-14.88,1.74-3.39,5.59-2.26,7,4.48.99,4.76.47,8.9-2.02,14.9-2.04,4.93-3.3,8.19-3.3,8.19,0,0,5.12-1.31,8.96-7.38,2.82-4.46,2.54-10.88,5.15-10.68,2.61.19,5.42,5.08,2.34,13.77-3.08,8.69-7.91,13.95-14.69,16.25-6.77,2.29-17.78,3.24-24.74,11.65"/>
      <path class="cls-8" d="M331.74,93.93c1.09-1.47,3.17-1.78,4.64-.69l39.6,29.41c1.47,1.09,1.78,3.17.69,4.64l-9.5,12.79c-1.09,1.47-3.17,1.78-4.65.69l-39.6-29.41c-1.47-1.09-1.78-3.17-.69-4.64l9.5-12.79Z"/>
      <path class="cls-5" d="M112.62,166.22l-35.7,1.6"/>
      <path class="cls-5" d="M117.26,163.12l-21.18-25.36"/>
      <path class="cls-5" d="M132.41,154.01l-13.26-29.27"/>
      <path class="cls-5" d="M132.26,191.07l-25.17,32.52"/>
      <path class="cls-5" d="M117.26,172.34l-31.89,22.42"/>
      <path class="cls-5" d="M126.06,181.44l-29.98,29.28"/>
      <path class="cls-5" d="M144.37,147.51l-32.61,18.7,27.42,30.44-23.79,36.2s-44.32-51.23-46.04-64.63c-3.45-26.95,75.01-51.92,75.01-51.92v31.2Z"/>
      <path class="cls-8" d="M75.81,149.27c6.17-.36,11.66,7.84,12.27,18.31.61,10.48-3.89,19.26-10.06,19.62-6.17.36-11.66-7.84-12.27-18.32-.61-10.48,3.89-19.26,10.06-19.62Z"/>
      <path class="cls-5" d="M139.63,203.55s10.82,1.89,16.23,9.44c3.7,5.16,6.21,9.48,4.63,19.82-1.57,10.34-13.87,18.77-17.65,18.64-2.23-.08-4.64-1.14-4.06-2.07.68-1.09,1.62-1.62,4.24-4.23,3.15-3.14,5.5-6.9,5.49-6.91,0-.01-1.88,3.33-5.64,7.03-3.4,3.34-4.75,5.56-8.94,5.25-4.04-.29-5.01-2.93-5.01-2.93,0,0,5.23-3.73,8.34-6.77,3.17-3.1,4.85-7.14,4.85-7.14,0,0-1.5,4.5-5.41,7.72-3.91,3.23-6.82,6.24-8.15,5.06-1.34-1.19-1.06-3.4,1.16-8.63,2.22-5.24,2.53-7.17,2.52-9.42-.01-3.06-3.03-7.8-3.03-7.8"/>
      <path class="cls-8" d="M150.33,196.34c1.37,1.22,1.49,3.32.27,4.69l-32.79,36.85c-1.22,1.37-3.32,1.49-4.69.27l-11.9-10.59c-1.37-1.22-1.49-3.32-.27-4.69l32.79-36.85c1.22-1.37,3.32-1.49,4.69-.27l11.9,10.59Z"/>
    </g>
  </g>
</svg>