<?xml version="1.0" encoding="UTF-8"?>
<svg id="Capa_2" xmlns="http://www.w3.org/2000/svg" viewBox="0 0 453.83 448.81">
  <defs>
    <style>
      .cls-1 {
        fill: #ffc051;
      }

      .cls-2 {
        fill: #263238;
      }

      .cls-3, .cls-4 {
        fill: #fff;
      }

      .cls-5 {
        stroke: #fff;
      }

      .cls-5, .cls-6, .cls-4, .cls-7 {
        stroke-linecap: round;
        stroke-linejoin: round;
        stroke-width: 2px;
      }

      .cls-5, .cls-6, .cls-7 {
        fill: none;
      }

      .cls-6, .cls-4 {
        stroke: #263238;
      }

      .cls-8 {
        fill: #ff367c;
      }

      .cls-7 {
        stroke: #ff367c;
      }
    </style>
  </defs>
  <g id="Floor">
    <g id="Layer-29">
      <path class="cls-6" d="M394.55,421.96h58.29"/>
      <path class="cls-6" d="M247.95,422.03l76.88-.07"/>
      <path class="cls-6" d="M1,421.96h62.44"/>
    </g>
  </g>
  <g id="Sparkles">
    <g id="Layer-32">
      <g>
        <path class="cls-6" d="M53.68,365.63v3.92"/>
        <path class="cls-6" d="M53.68,373.97v3.92"/>
        <path class="cls-6" d="M47.55,371.76h3.92"/>
        <path class="cls-6" d="M55.88,371.76h3.92"/>
      </g>
      <g>
        <path class="cls-6" d="M235.16,34.58v3.92"/>
        <path class="cls-6" d="M235.16,42.91v3.92"/>
        <path class="cls-6" d="M229.03,40.7h3.92"/>
        <path class="cls-6" d="M237.37,40.7h3.92"/>
      </g>
      <g>
        <path class="cls-6" d="M26.1,108.35v3.92"/>
        <path class="cls-6" d="M26.1,116.69v3.92"/>
        <path class="cls-6" d="M19.97,114.48h3.92"/>
        <path class="cls-6" d="M28.31,114.48h3.92"/>
      </g>
    </g>
  </g>
  <g id="Windows">
    <g>
      <g id="Layer-26">
        <path class="cls-8" d="M360.05,117.07h63.68s.37-2.04-.32-4.34c-.69-2.3-2.42-3.27-2.42-3.27l-58.29-.25s-1.78,1.16-2.44,3.52c-.66,2.36-.21,4.34-.21,4.34Z"/>
        <path class="cls-7" d="M359.9,122.62v-9.45c0-2.18,1.77-3.96,3.96-3.96h56.02c2.18,0,3.96,1.77,3.96,3.96v37.97c0,2.18-1.77,3.96-3.96,3.96h-56.02c-2.18,0-3.96-1.77-3.96-3.96v-28.52"/>
      </g>
      <path class="cls-3" d="M364.71,112.96c0-.51.41-.92.92-.92s.92.41.92.92-.41.92-.92.92-.92-.41-.92-.92Z"/>
      <path class="cls-3" d="M368.24,112.96c0-.51.41-.92.92-.92s.92.41.92.92-.41.92-.92.92-.92-.41-.92-.92Z"/>
      <path class="cls-3" d="M371.76,112.96c0-.51.41-.92.92-.92s.92.41.92.92-.41.92-.92.92-.92-.41-.92-.92Z"/>
      <path class="cls-2" d="M388.42,70.71h47.78s.27-1.53-.24-3.25c-.51-1.72-1.82-2.45-1.82-2.45l-43.73-.19s-1.34.87-1.83,2.64c-.5,1.77-.16,3.25-.16,3.25Z"/>
      <path class="cls-6" d="M388.3,74.88v-7.09c0-1.64,1.33-2.97,2.97-2.97h42.03c1.64,0,2.97,1.33,2.97,2.97v28.49c0,1.64-1.33,2.97-2.97,2.97h-42.03c-1.64,0-2.97-1.33-2.97-2.97v-21.4"/>
      <path class="cls-3" d="M391.91,67.63c0-.38.31-.69.69-.69s.69.31.69.69-.31.69-.69.69-.69-.31-.69-.69Z"/>
      <path class="cls-3" d="M394.56,67.63c0-.38.31-.69.69-.69s.69.31.69.69-.31.69-.69.69-.69-.31-.69-.69Z"/>
      <path class="cls-3" d="M397.21,67.63c0-.38.31-.69.69-.69s.69.31.69.69-.31.69-.69.69-.69-.31-.69-.69Z"/>
      <g>
        <path class="cls-8" d="M377.29,136.96v4.71h-3.35v-13.89h5.54c1.06,0,2,.2,2.82.59.82.39,1.45.95,1.9,1.67.45.72.67,1.54.67,2.46,0,1.35-.49,2.44-1.45,3.25-.97.81-2.3,1.22-3.99,1.22h-2.14ZM377.29,134.37h2.19c.65,0,1.14-.16,1.48-.49.34-.32.51-.78.51-1.37,0-.65-.18-1.17-.52-1.55-.35-.39-.83-.59-1.43-.59h-2.23v4.01Z"/>
        <path class="cls-8" d="M398.26,141.67h-3.33v-5.8h-4.93v5.8h-3.35v-13.89h3.35v5.51h4.93v-5.51h3.33v13.89Z"/>
        <path class="cls-8" d="M403.73,136.96v4.71h-3.35v-13.89h5.54c1.06,0,2,.2,2.82.59.82.39,1.45.95,1.9,1.67.45.72.67,1.54.67,2.46,0,1.35-.49,2.44-1.45,3.25-.97.81-2.3,1.22-3.99,1.22h-2.14ZM403.73,134.37h2.19c.65,0,1.14-.16,1.48-.49.34-.32.51-.78.51-1.37,0-.65-.18-1.17-.52-1.55-.35-.39-.83-.59-1.43-.59h-2.23v4.01Z"/>
      </g>
      <g>
        <path class="cls-8" d="M406.75,86.04c-.03.71-.22,1.33-.57,1.87-.35.54-.84.96-1.47,1.26-.63.3-1.35.45-2.16.45-1.33,0-2.38-.43-3.15-1.3-.77-.87-1.15-2.09-1.15-3.68v-.5c0-.99.17-1.86.52-2.61.35-.75.84-1.32,1.49-1.73.65-.41,1.4-.61,2.26-.61,1.23,0,2.22.32,2.97.97.75.65,1.17,1.54,1.27,2.68h-2.44c-.02-.62-.17-1.06-.47-1.33-.29-.27-.74-.4-1.34-.4s-1.05.23-1.34.68c-.28.46-.43,1.18-.45,2.18v.72c0,1.08.14,1.86.41,2.32.27.46.74.7,1.4.7.56,0,.99-.13,1.29-.4.3-.26.45-.68.47-1.26h2.43Z"/>
        <path class="cls-8" d="M413.14,86.78c0-.36-.13-.64-.38-.84-.25-.2-.7-.41-1.33-.62-.64-.21-1.16-.42-1.56-.62-1.31-.65-1.97-1.53-1.97-2.66,0-.56.16-1.06.49-1.49.33-.43.79-.76,1.39-1,.6-.24,1.27-.36,2.02-.36s1.38.13,1.96.39c.58.26,1.03.63,1.35,1.11.32.48.48,1.03.48,1.65h-2.44c0-.41-.13-.73-.38-.96-.25-.23-.6-.34-1.03-.34s-.78.1-1.03.29c-.25.19-.38.44-.38.74,0,.26.14.5.42.71.28.21.77.43,1.47.65.7.23,1.28.47,1.73.73,1.1.63,1.64,1.5,1.64,2.61,0,.89-.33,1.58-1,2.09-.67.51-1.59.76-2.75.76-.82,0-1.57-.15-2.23-.44-.67-.29-1.17-.7-1.5-1.21-.34-.51-.5-1.1-.5-1.77h2.45c0,.54.14.94.42,1.2.28.26.74.39,1.37.39.4,0,.72-.09.96-.26.23-.17.35-.42.35-.73Z"/>
        <path class="cls-8" d="M422.07,86.78c0-.36-.13-.64-.38-.84-.25-.2-.7-.41-1.33-.62-.64-.21-1.16-.42-1.56-.62-1.31-.65-1.97-1.53-1.97-2.66,0-.56.16-1.06.49-1.49.33-.43.79-.76,1.39-1,.6-.24,1.27-.36,2.02-.36s1.38.13,1.96.39c.58.26,1.03.63,1.35,1.11.32.48.48,1.03.48,1.65h-2.44c0-.41-.13-.73-.38-.96-.25-.23-.6-.34-1.03-.34s-.78.1-1.03.29c-.25.19-.38.44-.38.74,0,.26.14.5.42.71.28.21.77.43,1.47.65.7.23,1.28.47,1.73.73,1.1.63,1.64,1.5,1.64,2.61,0,.89-.33,1.58-1,2.09-.67.51-1.59.76-2.75.76-.82,0-1.57-.15-2.23-.44-.67-.29-1.17-.7-1.5-1.21-.34-.51-.5-1.1-.5-1.77h2.45c0,.54.14.94.42,1.2.28.26.74.39,1.37.39.4,0,.72-.09.96-.26.23-.17.35-.42.35-.73Z"/>
      </g>
    </g>
    <g id="Layer-26-2" data-name="Layer-26">
      <path class="cls-8" d="M149.15,42.03h49.22s.28-1.58-.25-3.35c-.53-1.78-1.87-2.53-1.87-2.53l-45.05-.19s-1.38.89-1.89,2.72c-.51,1.82-.16,3.35-.16,3.35Z"/>
      <path class="cls-7" d="M149.04,46.32v-7.31c0-1.69,1.37-3.06,3.06-3.06h43.3c1.69,0,3.06,1.37,3.06,3.06v29.35c0,1.69-1.37,3.06-3.06,3.06h-43.3c-1.69,0-3.06-1.37-3.06-3.06v-22.04"/>
    </g>
    <path class="cls-3" d="M152.75,38.86c0-.39.32-.71.71-.71s.71.32.71.71-.32.71-.71.71-.71-.32-.71-.71Z"/>
    <path class="cls-3" d="M155.48,38.86c0-.39.32-.71.71-.71s.71.32.71.71-.32.71-.71.71-.71-.32-.71-.71Z"/>
    <path class="cls-3" d="M158.21,38.86c0-.39.32-.71.71-.71s.71.32.71.71-.32.71-.71.71-.71-.32-.71-.71Z"/>
    <path class="cls-2" d="M171.08,6.2h36.92s.21-1.18-.18-2.51c-.4-1.33-1.4-1.9-1.4-1.9l-33.79-.14s-1.03.67-1.42,2.04c-.39,1.37-.12,2.51-.12,2.51Z"/>
    <path class="cls-6" d="M170.99,9.42V3.94c0-1.27,1.03-2.29,2.29-2.29h32.48c1.27,0,2.29,1.03,2.29,2.29v22.02c0,1.27-1.03,2.29-2.29,2.29h-32.48c-1.27,0-2.29-1.03-2.29-2.29V9.42"/>
    <path class="cls-3" d="M173.78,3.82c0-.29.24-.53.53-.53s.53.24.53.53-.24.53-.53.53-.53-.24-.53-.53Z"/>
    <path class="cls-3" d="M175.82,3.82c0-.29.24-.53.53-.53s.53.24.53.53-.24.53-.53.53-.53-.24-.53-.53Z"/>
    <path class="cls-3" d="M177.87,3.82c0-.29.24-.53.53-.53s.53.24.53.53-.24.53-.53.53-.53-.24-.53-.53Z"/>
    <g>
      <path class="cls-8" d="M158.5,57.72h2.52v3.2c0,.21.13.32.4.32s.4-.11.4-.32v-10.97h2.85v10.76c0,1.56-1.08,2.33-3.23,2.33-.77,0-1.45-.19-2.04-.56s-.89-.87-.89-1.48v-3.29Z"/>
      <path class="cls-8" d="M172.95,62.93h-2.83l-.48-3.48h-1.27l-.49,3.48h-2.83l2.13-12.98h3.61l2.14,12.98ZM169.42,57.64l-.41-3.87-.39,3.87h.8Z"/>
      <path class="cls-8" d="M180.68,49.95l-1.75,12.98h-4.03l-1.75-12.98h2.78l.99,9.07.98-9.07h2.79Z"/>
      <path class="cls-8" d="M188.76,62.93h-2.83l-.48-3.48h-1.27l-.49,3.48h-2.83l2.13-12.98h3.61l2.14,12.98ZM185.23,57.64l-.41-3.87-.39,3.87h.8Z"/>
    </g>
    <g id="Layer-26-3" data-name="Layer-26">
      <path class="cls-8" d="M335.49,9.95h49.22s.28-1.58-.25-3.35c-.53-1.78-1.87-2.53-1.87-2.53l-45.05-.19s-1.38.89-1.89,2.72c-.51,1.82-.16,3.35-.16,3.35Z"/>
      <path class="cls-7" d="M335.37,14.24v-7.31c0-1.69,1.37-3.06,3.06-3.06h43.3c1.69,0,3.06,1.37,3.06,3.06v29.35c0,1.69-1.37,3.06-3.06,3.06h-43.3c-1.69,0-3.06-1.37-3.06-3.06V14.24"/>
    </g>
    <path class="cls-3" d="M325.67.71c0-.39.32-.71.71-.71s.71.32.71.71-.32.71-.71.71-.71-.32-.71-.71Z"/>
    <path class="cls-3" d="M328.39.71c0-.39.32-.71.71-.71s.71.32.71.71-.32.71-.71.71-.71-.32-.71-.71Z"/>
    <path class="cls-3" d="M331.12.71c0-.39.32-.71.71-.71s.71.32.71.71-.32.71-.71.71-.71-.32-.71-.71Z"/>
    <g>
      <path class="cls-8" d="M183.64,17.69h2.05v2.61c0,.17.11.26.32.26s.32-.09.32-.26v-8.93h2.32v8.76c0,1.27-.88,1.9-2.63,1.9-.62,0-1.18-.15-1.66-.46-.48-.3-.73-.7-.73-1.2v-2.68Z"/>
      <path class="cls-8" d="M189.13,17.71h2.11v2.42c0,.24.15.36.44.36s.42-.12.42-.36v-1.25c0-.38-.26-.83-.77-1.35-.99-.96-1.6-1.6-1.84-1.93s-.36-.69-.36-1.08v-1.19c0-1.37.9-2.06,2.69-2.06,1.6,0,2.4.62,2.4,1.87v1.83h-2.11v-1.94c0-.21-.12-.32-.35-.32-.28,0-.41.2-.41.61l.04.69c0,.39.26.85.78,1.37.97.93,1.59,1.58,1.85,1.94.26.37.4.79.4,1.25v1.35c0,1.4-.9,2.11-2.69,2.11s-2.6-.64-2.6-1.92v-2.41Z"/>
    </g>
    <path class="cls-2" d="M264.89,44.59h46.92s.27-1.5-.23-3.2c-.5-1.69-1.78-2.41-1.78-2.41l-42.95-.18s-1.31.85-1.8,2.59c-.49,1.74-.16,3.2-.16,3.2Z"/>
    <path class="cls-6" d="M264.78,48.68v-6.97c0-1.61,1.3-2.91,2.91-2.91h41.28c1.61,0,2.91,1.3,2.91,2.91v27.98c0,1.61-1.3,2.91-2.91,2.91h-41.28c-1.61,0-2.91-1.3-2.91-2.91v-21.01"/>
    <path class="cls-3" d="M272.56,33.71c0-.37.3-.68.67-.68s.67.3.67.68-.3.68-.67.68-.67-.3-.67-.68Z"/>
    <path class="cls-3" d="M275.16,33.71c0-.37.3-.68.67-.68s.67.3.67.68-.3.68-.67.68-.67-.3-.67-.68Z"/>
    <path class="cls-3" d="M277.76,33.71c0-.37.3-.68.68-.68s.67.3.67.68-.3.68-.67.68-.68-.3-.68-.68Z"/>
    <g>
      <path class="cls-8" d="M283.52,55.85h-2.68v-2.66c0-.22-.14-.33-.41-.33-.28,0-.43.11-.43.33v9.32c0,.22.14.33.43.33s.41-.11.41-.33v-3.31h2.68v3.41c0,.64-.31,1.15-.94,1.53-.62.38-1.33.58-2.12.58-2.27,0-3.41-.8-3.41-2.42v-8.64c0-1.74,1.14-2.61,3.41-2.61,2.04,0,3.05.79,3.05,2.38v2.43Z"/>
      <path class="cls-8" d="M298.97,53.81l-.46,2.67h-2.67l-.48,2.8h2.64l-.48,2.67h-2.65l-.45,2.64h-2.66l.45-2.64h-2.79l-.46,2.64h-2.67l.45-2.64h-2.64l.49-2.67h2.63l.5-2.8h-2.63l.46-2.67h2.65l.46-2.65h2.67l-.47,2.65h2.79l.47-2.65h2.66l-.46,2.65h2.65ZM293.17,56.47h-2.79l-.48,2.8h2.77l.5-2.8Z"/>
    </g>
    <g>
      <path class="cls-8" d="M345.14,25.76v3.89h-2.26v-10.56h2.44c.97,0,1.69.12,2.16.37.47.25.7.75.7,1.5v2.93c0,.69-.19,1.18-.57,1.47-.38.29-1.2.42-2.46.4ZM345.91,23.69v-2.53c0-.37-.26-.56-.77-.56v3.65c.52,0,.77-.19.77-.56Z"/>
      <path class="cls-8" d="M354.93,19.09l-1.52,4.26-.76,2.13v4.18h-2.32v-4.1c-.04-.37-.24-1.1-.6-2.19-.3-.92-.75-2.35-1.34-4.28h2.21l1.04,3.75,1.19-3.75h2.09Z"/>
      <path class="cls-8" d="M360.07,20.47h-1.3v9.19h-2.32v-9.19h-1.3v-1.38h4.91v1.38Z"/>
      <path class="cls-8" d="M365.76,29.65h-2.32v-5.07h-.65v5.07h-2.32v-10.56h2.32v4.21h.65v-4.21h2.32v10.56Z"/>
      <path class="cls-8" d="M366.22,27.85v-6.8c0-1.37.89-2.06,2.66-2.06s2.63.68,2.63,2.04v6.8c0,.61-.24,1.09-.73,1.42-.49.33-1.12.5-1.91.5-1.77,0-2.65-.63-2.65-1.9ZM369.25,27.96v-7.2c0-.21-.12-.32-.38-.32s-.39.11-.39.32v7.2c0,.21.13.32.39.32s.38-.11.38-.32Z"/>
      <path class="cls-8" d="M377.91,29.65h-2.39l-1.58-5.63v5.63h-1.94v-10.56h2.64l1.33,4.82v-4.82h1.94v10.56Z"/>
    </g>
  </g>
  <g id="Speech_bubble">
    <g>
      <g id="Layer-27">
        <path class="cls-6" d="M52.41,76.02c6.18-4.75,10.06-12.31,9.81-20.69-.42-13.88-12.01-24.79-25.88-24.37-13.88.42-24.79,12.01-24.37,25.88.42,13.88,12.01,24.79,25.88,24.37,1.92-.06,3.79-.33,5.58-.79"/>
        <path class="cls-6" d="M52.44,76s2.22,5.6,6.08,7.92c6.12,3.68,8.66,3.67,8.66,3.67,0,0-8.94,1.38-14.51-.41-5.69-1.83-9.17-6.79-9.17-6.79"/>
      </g>
      <g id="Layer-28">
        <path class="cls-8" d="M34.15,40.71c-.24,0-.57-.01-.93.02-.55.06-1.09.17-1.61.35-1.06.37-1.89,1-2.4,1.93-.56,1.02-.74,2.53-.79,5.36,0,.28,0,.47,0,1-.03,2.23-.08,3.14-.23,3.59-.11.33-.59.73-1.35,1.07-.39.18-.81.32-1.23.44-.25.07-.44.12-.54.14-1.18.23-1.22,1.91-.05,2.19.1.02.3.06.56.14.43.13.84.31,1.23.49.78.37,1.26.77,1.35,1.05.11.34.15,1.14.12,3.29-.01.7-.02,1.06-.02,1.49,0,3.15.22,4.9,1.1,5.89.53.6,1.19,1.04,1.96,1.33.98.37,1.96.48,2.8.44.06,0,.1,0,.14,0,.62-.05,1.08-.6,1.03-1.21-.05-.62-.6-1.08-1.21-1.03,0,0-.02,0-.05,0-.2,0-.46,0-.75-.02-.41-.04-.8-.14-1.16-.28-.45-.17-.8-.39-1.07-.7-.34-.39-.54-1.93-.54-4.4,0-.41.01-.77.02-1.47.04-2.58.01-3.33-.21-4.03-.28-.87-1.04-1.5-2.03-2.05.97-.54,1.73-1.18,2.03-2.07.26-.78.31-1.68.35-4.26,0-.53,0-.71,0-.98.04-2.39.21-3.78.51-4.33.22-.39.61-.68,1.19-.89.6-.21,1.25-.29,1.72-.28.02,0,.03,0,.02,0,.62.03,1.14-.43,1.16-1.05.03-.62-.45-1.14-1.07-1.16-.02,0,0,0-.05,0Z"/>
        <path class="cls-8" d="M40,40.71c-.62.03-1.1.55-1.07,1.16.03.62.55,1.1,1.16,1.07,0,0,0,0,.02,0,.48-.01,1.12.05,1.72.26.58.2.97.49,1.19.89.31.56.47,1.94.51,4.33,0,.27.02.45.02.98.03,2.58.07,3.48.33,4.26.3.89,1.06,1.54,2.03,2.07-.99.55-1.75,1.18-2.03,2.05-.22.7-.25,1.46-.21,4.03.01.69.02,1.05.02,1.47,0,2.48-.19,4.01-.54,4.4-.27.31-.63.53-1.07.7-.36.14-.76.24-1.16.28-.29.03-.55.03-.75.02-.03,0-.05,0-.05,0-.62-.05-1.16.41-1.21,1.03-.05.62.41,1.16,1.03,1.21.04,0,.08,0,.14,0,.84.04,1.82-.07,2.8-.44.77-.29,1.43-.72,1.96-1.33.88-1,1.1-2.72,1.1-5.87,0-.43-.01-.81-.02-1.51-.03-2.14,0-2.95.12-3.29.09-.27.57-.68,1.35-1.05.39-.18.81-.36,1.23-.49.26-.08.46-.12.56-.14,1.17-.28,1.13-1.96-.05-2.19-.1-.02-.28-.07-.54-.14-.42-.12-.85-.27-1.23-.44-.76-.35-1.24-.74-1.35-1.07-.15-.45-.2-1.36-.23-3.59,0-.53,0-.72,0-1-.05-2.83-.23-4.34-.79-5.36-.51-.93-1.34-1.57-2.4-1.93-.52-.18-1.06-.29-1.61-.35-.36-.04-.69-.03-.93-.02-.04,0-.03,0-.05,0Z"/>
      </g>
    </g>
  </g>
  <g id="Table">
    <g id="Layer-12">
      <path class="cls-6" d="M423.9,250.91v190.51"/>
      <path class="cls-6" d="M76.32,250.91h364.97"/>
    </g>
  </g>
  <g id="Device_2">
    <g>
      <path class="cls-2" d="M322.47,322.73h6.63v13.24h-6.63v-13.24Z"/>
      <path class="cls-2" d="M322.47,353.84h6.63v13.24h-6.63v-13.24Z"/>
      <path class="cls-6" d="M257,250.58s2.67,1.57,3.3,12.75c.64,11.18.03,22.73-.75,32.8-1.84,23.99-5.23,81.39,16.07,99.14,12.24,10.2,25.02,5.31,30.14-7.09,8.71-21.1,0-56.87,18.11-58.83"/>
      <path class="cls-6" d="M290.43,251.1c6.63,5.78,4.88,27.52,4.42,35.86-1.66,30.35-1.6,61.23-1.6,91.67,0,9.57-.45,40.06,12.54,37.63,16.82-3.14,2.34-56.02,19.03-56.02"/>
      <g id="Layer-22">
        <path class="cls-8" d="M328.95,293.29c0-2.14,1.73-3.87,3.87-3.87h53.21c2.14,0,3.87,1.73,3.87,3.87v133.93c0,2.14-1.73,3.87-3.87,3.87h-53.21c-2.14,0-3.87-1.73-3.87-3.87v-133.93Z"/>
      </g>
      <path class="cls-5" d="M339.75,315.15h39.61v61.49h-39.61v-61.49Z"/>
      <path class="cls-2" d="M339.62,300.94h39.87v7.07h-39.87v-7.07Z"/>
      <path class="cls-6" d="M345,409.68h29.11v16.16h-29.11v-16.16Z"/>
      <path class="cls-3" d="M354.74,394.13c0-2.66,2.16-4.82,4.82-4.82s4.82,2.16,4.82,4.82-2.16,4.82-4.82,4.82-4.82-2.16-4.82-4.82Z"/>
      <path class="cls-2" d="M339.75,391.13h10.91v6h-10.91v-6Z"/>
      <path class="cls-2" d="M369.15,391.13h10.91v6h-10.91v-6Z"/>
      <path class="cls-5" d="M339.89,322.34h39.35"/>
      <path class="cls-5" d="M339.89,368.69h39.35"/>
      <path class="cls-5" d="M339.89,331.61h39.35"/>
      <path class="cls-5" d="M339.89,359.42h39.35"/>
      <path class="cls-5" d="M339.89,340.88h39.35"/>
      <path class="cls-5" d="M339.89,350.15h39.35"/>
      <path class="cls-2" d="M348.17,414.84c0-.98.79-1.77,1.77-1.77s1.77.79,1.77,1.77-.79,1.77-1.77,1.77-1.77-.79-1.77-1.77Z"/>
      <path class="cls-2" d="M354.58,414.84c0-.98.79-1.77,1.77-1.77s1.77.79,1.77,1.77-.79,1.77-1.77,1.77-1.77-.79-1.77-1.77Z"/>
      <path class="cls-2" d="M360.99,414.84c0-.98.79-1.77,1.77-1.77s1.77.79,1.77,1.77-.79,1.77-1.77,1.77-1.77-.79-1.77-1.77Z"/>
      <path class="cls-2" d="M367.4,414.84c0-.98.79-1.77,1.77-1.77s1.77.79,1.77,1.77-.79,1.77-1.77,1.77-1.77-.79-1.77-1.77Z"/>
      <path class="cls-2" d="M348.17,420.22c0-.98.79-1.77,1.77-1.77s1.77.79,1.77,1.77-.79,1.77-1.77,1.77-1.77-.79-1.77-1.77Z"/>
      <path class="cls-2" d="M354.58,420.22c0-.98.79-1.77,1.77-1.77s1.77.79,1.77,1.77-.79,1.77-1.77,1.77-1.77-.79-1.77-1.77Z"/>
      <path class="cls-2" d="M360.99,420.22c0-.98.79-1.77,1.77-1.77s1.77.79,1.77,1.77-.79,1.77-1.77,1.77-1.77-.79-1.77-1.77Z"/>
      <path class="cls-2" d="M367.4,420.22c0-.98.79-1.77,1.77-1.77s1.77.79,1.77,1.77-.79,1.77-1.77,1.77-1.77-.79-1.77-1.77Z"/>
    </g>
  </g>
  <g id="Devices_1">
    <g>
      <path class="cls-8" d="M178.55,108.05h18.2v5.89h-18.2v-5.89Z"/>
      <path class="cls-8" d="M191.49,120.1h18.2v5.89h-18.2v-5.89Z"/>
      <path class="cls-1" d="M191.49,132.16h18.2v5.89h-18.2v-5.89Z"/>
      <path class="cls-8" d="M178.55,144.21h18.2v5.89h-18.2v-5.89Z"/>
      <path class="cls-8" d="M201.18,156.26h18.2v5.89h-18.2v-5.89Z"/>
      <path class="cls-6" d="M204.07,110.39h67.15"/>
      <path class="cls-6" d="M278.1,110.39h35.14"/>
      <path class="cls-6" d="M214.99,115.72h42.44"/>
      <path class="cls-6" d="M265.67,115.72h47.57"/>
      <path class="cls-6" d="M215.57,123.05h27.01"/>
      <path class="cls-6" d="M251.92,123.05h47.22"/>
      <path class="cls-6" d="M215.86,135.1h41.57"/>
      <path class="cls-6" d="M265.67,135.1h44.32"/>
      <path class="cls-6" d="M226.31,159.21h83.68"/>
      <path class="cls-6" d="M204.07,146.05h44.48"/>
      <path class="cls-6" d="M254.72,146.05h42.5"/>
      <path class="cls-6" d="M214.99,151.39h42.44"/>
      <path class="cls-6" d="M265.67,151.39h50.16"/>
      <path class="cls-1" d="M191.49,167.4h18.2v5.89h-18.2v-5.89Z"/>
      <path class="cls-6" d="M215.57,167.95h39.9"/>
      <path class="cls-6" d="M261.01,167.95h36.21"/>
      <path class="cls-6" d="M220,173.29h38.07"/>
      <path class="cls-6" d="M265.46,173.29h44.99"/>
      <path class="cls-6" d="M159.04,86.13h179.09c1.66,0,3,1.34,3,3v106.4c0,1.66-1.34,3-3,3h-179.09c-1.66,0-3-1.34-3-3v-106.4c0-1.66,1.34-3,3-3Z"/>
      <rect class="cls-6" x="165.04" y="95.13" width="167.09" height="94.4"/>
      <path class="cls-6" d="M231.97,204.98h27.81s2.2,11.66,5.42,19.57c3.22,7.9,19.53,17.01,19.53,17.01v9.17l-81.67-.29v-8.88s16.18-7.05,21.3-17.01c5.12-9.95,7.6-19.57,7.6-19.57Z"/>
      <g>
        <g id="Layer-20">
          <path class="cls-3" d="M326.45,166.79c-2.02,0-3.73,1.47-4.05,3.45l-11.05,69.36-32.8-.06v11.18h146.5v-10.44l10.66-68.76c.39-2.48-1.54-4.73-4.05-4.73h-105.22Z"/>
        </g>
        <g id="Layer-19">
          <path class="cls-6" d="M278.55,240.3h146.5v10.41h-146.5v-10.41Z"/>
        </g>
        <path class="cls-6" d="M311.23,240.3l11.17-70.06c.32-1.99,2.03-3.46,4.05-3.46h105.24c2.51,0,4.44,2.24,4.05,4.73l-10.67,68.77"/>
        <polyline class="cls-6" points="418.99 240.3 429.46 172.79 328.06 172.79 317.15 240.3"/>
        <path class="cls-1" d="M333.72,192.73s0,0,0,0h11.41s0,0,0,0v3.68s0,0,0,0h-11.41s0,0,0,0v-3.68Z"/>
        <path class="cls-8" d="M341.84,200.29s0,0,0,0h11.41s0,0,0,0v3.68s0,0,0,0h-11.41s0,0,0,0v-3.68Z"/>
        <path class="cls-8" d="M341.84,207.85s0,0,0,0h11.41s0,0,0,0v3.68s0,0,0,0h-11.41s0,0,0,0v-3.68Z"/>
        <path class="cls-1" d="M333.72,215.41s0,0,0,0h11.41s0,0,0,0v3.68s0,0,0,0h-11.41s0,0,0,0v-3.68Z"/>
        <path class="cls-8" d="M341.84,222.98s0,0,0,0h11.41s0,0,0,0v3.68s0,0,0,0h-11.41s0,0,0,0v-3.68Z"/>
        <path class="cls-6" d="M349.73,194.19h42.13"/>
        <path class="cls-6" d="M396.18,194.19h12"/>
        <path class="cls-6" d="M356.59,197.54h26.63"/>
        <path class="cls-6" d="M388.38,197.54h23.9"/>
        <path class="cls-6" d="M356.95,202.13h16.94"/>
        <path class="cls-6" d="M379.76,202.13h22.42"/>
        <path class="cls-6" d="M357.13,209.69h26.08"/>
        <path class="cls-6" d="M388.38,209.69h19.8"/>
        <path class="cls-6" d="M357.61,224.82h34.25"/>
        <path class="cls-6" d="M349.73,216.56h27.91"/>
        <path class="cls-6" d="M381.51,216.56h26.67"/>
        <path class="cls-6" d="M356.59,219.91h26.63"/>
        <path class="cls-6" d="M388.38,219.91h13.8"/>
        <path class="cls-8" d="M345.35,179.47c-.19-.03-.39,0-.56.13l-5.04,3.61c-.41.29-.42.89-.03,1.21l5.03,4.17c.32.27.8.23,1.07-.1.27-.32.23-.82-.1-1.09l-4.26-3.53,4.21-3.03c.34-.25.44-.73.19-1.07-.12-.17-.32-.27-.51-.3Z"/>
        <path class="cls-8" d="M356.03,179.47c-.19.03-.37.13-.5.3-.25.34-.17.82.18,1.07l4.21,3.03-4.26,3.53c-.32.27-.37.76-.1,1.09.27.33.74.37,1.07.1l5.04-4.17c.39-.32.36-.92-.05-1.21l-5.03-3.61c-.17-.12-.38-.16-.57-.13Z"/>
        <path class="cls-8" d="M353.23,179.47c-.19.04-.37.14-.49.32l-5.3,7.77c-.24.35-.16.83.19,1.07.35.24.83.14,1.07-.21l5.3-7.77c.24-.35.16-.82-.19-1.05-.17-.12-.38-.16-.57-.13Z"/>
      </g>
    </g>
  </g>
  <g id="Character">
    <g>
      <path class="cls-4" d="M187.52,222.63s28.38-6.06,43.91-4.35c15.54,1.71,27.32,6.67,30.78,12.83,3.47,6.16,3.59,13.21.75,14.28-.42.16-2.67-.08-3.08-.22l-27.17-4.43c-4.61-.42-9.1-1.5-9.1-1.5l-57.62,13.87,21.52-30.49Z"/>
      <path class="cls-2" d="M133.53,96.7s-2.56,9.41-8.51,13.41c-7.13,4.81-13.58,4.71-13.58,4.71l2.49,4.19s-4.8,5.17-17.14,3.21c-11.25-1.79-11.74-13.72-5.74-19.14,6.01-5.41,14.49-3.75,14.49-3.75,0,0,3.91-5.09,10.16-8.55,7.55-4.18,18.01-1.31,23.28,3.19,4.03,3.44,4.76,6.76,4.74,10.49-.02,3.73-3.39,5.51-3.39,5.51,0,0-1.29-7.86-3.42-10.43-2.13-2.58-3.38-2.85-3.38-2.85Z"/>
      <path class="cls-6" d="M138.19,116.55c4.33-7.19,2.02-16.53-5.17-20.86-7.19-4.33-16.53-2.02-20.86,5.17-4.33,7.19-2.02,16.53,5.17,20.86,7.19,4.33,16.53,2.02,20.86-5.17Z"/>
      <path class="cls-8" d="M127.52,113.31c.5-.83.23-1.91-.6-2.42-.83-.5-1.91-.23-2.42.6-.5.83-.23,1.91.6,2.42.83.5,1.91.23,2.42-.6Z"/>
      <path class="cls-2" d="M131.54,110.14c.35-.77.02-1.68-.75-2.03-.77-.35-1.68-.02-2.03.75-.35.77-.02,1.68.75,2.03.77.35,1.68.02,2.03-.75Z"/>
      <path class="cls-2" d="M140.2,110.46c.35-.77.02-1.68-.75-2.03-.77-.35-1.68-.02-2.03.75-.35.77-.02,1.68.75,2.03.77.35,1.68.02,2.03-.75Z"/>
      <path class="cls-6" d="M134.74,109.5l1.7,4.98-3.14-.18"/>
      <path class="cls-6" d="M128.34,116.13s.81,1.78,2.04,2.33c1.24.55,2.87.31,2.87.31"/>
      <path class="cls-2" d="M108.38,84.25c.04-5.57-4.44-10.12-10.01-10.17-5.57-.04-10.12,4.44-10.17,10.01-.04,5.57,4.44,10.12,10.01,10.17,5.57.04,10.12-4.44,10.17-10.01Z"/>
      <path class="cls-2" d="M88.77,71.09c.03-3.44-2.74-6.25-6.18-6.28-3.44-.03-6.25,2.74-6.28,6.18-.03,3.44,2.74,6.25,6.18,6.28,3.44.03,6.25-2.74,6.28-6.18Z"/>
      <g id="Layer-9">
        <path class="cls-1" d="M105.49,303.28l44.33.63-33.96,59.78,54.37,28.86v10.69l61.61-1.33s-.14-116.52-7.95-132.83c-7.81-16.31-62.92-15.96-62.92-15.96l-59.29,2.66,3.8,47.5Z"/>
      </g>
      <path class="cls-6" d="M122.22,368.69l-17.2,18.64s44.37,48.67,51.5,48.75c5.65.07,2.17-11.16-2.01-22.05-3.88-10.12-6.53-19.04-6.53-19.04l6.19-8.46"/>
      <path class="cls-7" d="M145.57,407.7l13.9,1.33"/>
      <path class="cls-7" d="M143.72,401.91l13.9,1.33"/>
      <path class="cls-6" d="M110.73,386.01l43.78,44.38"/>
      <path class="cls-6" d="M179.06,406.04l.37,29.43s67.82,3.29,73.12-1.47c4.2-3.77-6.48-9.09-17.43-13.71-10.17-4.3-18.57-8.6-18.57-8.6l-.14-4.46"/>
      <path class="cls-7" d="M223.98,422l11.18-8.47"/>
      <path class="cls-7" d="M218.44,419.29l11.18-8.47"/>
      <path class="cls-6" d="M182.68,430.71l64.29.75"/>
      <path class="cls-6" d="M188.15,416.61c0-2.59,2.1-4.7,4.7-4.7s4.7,2.1,4.7,4.7-2.1,4.7-4.7,4.7-4.7-2.1-4.7-4.7Z"/>
      <path class="cls-6" d="M122.85,381.98c0-2.59,2.1-4.7,4.7-4.7s4.7,2.1,4.7,4.7-2.1,4.7-4.7,4.7-4.7-2.1-4.7-4.7Z"/>
      <g id="Layer-10">
        <path class="cls-7" d="M168.9,316.59l1.95,86.65"/>
        <path class="cls-7" d="M124.79,353.84l45.44,24.64"/>
        <path class="cls-7" d="M170.23,389.35l59.34-1.17"/>
      </g>
      <g id="Layer-16">
        <path class="cls-8" d="M225.32,250.58s3.91-12.97,18.41-13.26c14.5-.29,19.23,13.26,19.23,13.26h-37.64Z"/>
      </g>
      <g id="Layer-15">
        <path class="cls-6" d="M225.32,250.58s3.91-12.97,18.41-13.26c14.5-.29,19.23,13.26,19.23,13.26h-37.64Z"/>
      </g>
      <path class="cls-6" d="M253.49,232.37s2.99,2.01,5.26,4.94c2.27,2.93,4.2,7.7,4.2,7.7"/>
      <path class="cls-6" d="M255.65,228.96s2.95,1.68,5.69,5c2.73,3.32,3.63,6.53,3.63,6.53"/>
      <g id="Layer-6">
        <path class="cls-8" d="M166.36,254.06s-13.56,10.38-24.57,2.72c-21.96,0-94.52.85-94.52.85,0,0,.99-71.05,15.32-95.15,14.33-24.1,31.03-27.75,31.03-27.75l.56-4.75,17.73-.8,19.47,10.82s10.06,2.69,23.8,17.94c13.74,15.25,16.52,53.67,16.52,53.67,0,0,4.34-3.1,6.54-.9,2.2,2.2-.71,8.22-.71,8.22,0,0,7.98-4.72,9.58-1.71,1.6,3-1.8,12.49-6.99,21.7-5.19,9.21-13.77,15.15-13.77,15.15Z"/>
      </g>
      <g>
        <path class="cls-4" d="M107.94,315.15c0,8.71-8.87,15.77-19.81,15.77s-19.81-7.06-19.81-15.77"/>
        <path class="cls-2" d="M84.77,330.92h6.73v81.69h-6.73v-81.69Z"/>
        <path class="cls-6" d="M86.77,410.93l-31.3,26.08"/>
        <path class="cls-6" d="M89.53,410.93l33.3,26.96"/>
        <path class="cls-6" d="M86.77,408.2l12.7,27.94"/>
        <path class="cls-2" d="M50.48,434.02c-4.09,0-7.41,3.29-7.41,7.38s3.33,7.41,7.41,7.41,7.41-3.33,7.41-7.41-3.33-7.38-7.41-7.38ZM50.48,438.2c1.77,0,3.2,1.43,3.2,3.2s-1.43,3.2-3.2,3.2-3.2-1.43-3.2-3.2,1.43-3.2,3.2-3.2Z"/>
        <path class="cls-2" d="M99.48,434.02c-4.09,0-7.41,3.29-7.41,7.38s3.32,7.41,7.41,7.41,7.38-3.33,7.38-7.41-3.29-7.38-7.38-7.38ZM99.48,438.2c1.77,0,3.2,1.43,3.2,3.2s-1.43,3.2-3.2,3.2-3.2-1.43-3.2-3.2,1.43-3.2,3.2-3.2Z"/>
        <path class="cls-2" d="M125.83,434.02c-4.09,0-7.41,3.29-7.41,7.38s3.33,7.41,7.41,7.41,7.38-3.33,7.38-7.41-3.29-7.38-7.38-7.38ZM125.83,438.2c1.77,0,3.2,1.43,3.2,3.2s-1.43,3.2-3.2,3.2-3.2-1.43-3.2-3.2,1.43-3.2,3.2-3.2Z"/>
      </g>
      <g id="Layer-4">
        <path class="cls-2" d="M25.83,157.95c-5.12,0-9.17,4.35-8.79,9.46l10.73,143.66c.34,4.6,4.18,8.15,8.79,8.15h131.32c1.3,0,2.35-1.05,2.35-2.35v-14.35c0-1.3-1.05-2.35-2.35-2.35h-53.44l-13.53-134.08c-.34-4.6-4.18-8.15-8.79-8.15H25.83Z"/>
      </g>
      <g id="Layer-5">
        <path class="cls-5" d="M91.5,166.98l13.57,133.96"/>
      </g>
      <path class="cls-6" d="M93.62,134.74l.56-4.75,17.73-.8,19.47,10.82s-18.21-5.27-37.76-5.27Z"/>
      <path class="cls-6" d="M127.78,187.05c1.14,1.05,1.26,3.77,1.5,5.16.63,3.62,1.05,7.28,1.48,10.93,1.15,9.74,2.14,19.49,3.59,29.19,1.1,7.35,1.41,16,6.04,22.25,5.83,7.88,16.02,5.71,23.29,1.23,5.71-3.52,9.99-8.79,13.66-14.32,2.65-3.99,5.24-8.04,7.47-12.29,1.5-2.86,5.38-8.93,2.33-11.97-3.41-3.4-10.22,2.12-12.87,4.33-5.37,4.46-8.06,11.24-13.14,15.9-1,.91-4.12,3.14-4.59.79-.39-1.89,2.37-3.64,3.78-4.27"/>
      <line class="cls-6" x1="124.26" y1="192.16" x2="130.15" y2="198.16"/>
      <path class="cls-6" d="M156.04,227.59c4.09-8.68,18.63-19.96,22.21-16.88"/>
    </g>
  </g>
</svg>