<?xml version="1.0" encoding="UTF-8"?>
<svg id="Capa_2" xmlns="http://www.w3.org/2000/svg" viewBox="0 0 444.72 428.01">
  <defs>
    <style>
      .cls-1 {
        stroke-width: 2.5px;
      }

      .cls-1, .cls-2, .cls-3, .cls-4, .cls-5, .cls-6 {
        fill: none;
        stroke-linecap: round;
        stroke-linejoin: round;
      }

      .cls-1, .cls-4, .cls-5 {
        stroke: #263238;
      }

      .cls-7 {
        fill: #ffc051;
      }

      .cls-8 {
        fill: #263238;
      }

      .cls-2 {
        stroke: #ffc051;
      }

      .cls-2, .cls-3, .cls-4, .cls-5, .cls-6 {
        stroke-width: 2px;
      }

      .cls-3 {
        stroke: #fff;
      }

      .cls-9 {
        fill: #ff367c;
      }

      .cls-5 {
        isolation: isolate;
        opacity: 1;
      }

      .cls-6 {
        stroke: #ff367c;
      }
    </style>
  </defs>
  <g id="Sparkles">
    <path class="cls-8" d="M36.68,167.13c0-.09-.06-.16-.13-.16s-.13.07-.13.16.06.16.13.16.13-.07.13-.16Z"/>
    <g>
      <path class="cls-4" d="M395.6,59.57v4.33"/>
      <path class="cls-4" d="M395.6,68.79v4.34"/>
      <path class="cls-4" d="M388.82,66.34h4.34"/>
      <path class="cls-4" d="M398.04,66.34h4.34"/>
    </g>
    <g>
      <path class="cls-4" d="M59.28,21.81v4.34"/>
      <path class="cls-4" d="M59.28,31.03v4.34"/>
      <path class="cls-4" d="M52.5,28.59h4.34"/>
      <path class="cls-4" d="M61.72,28.59h4.34"/>
    </g>
    <g>
      <path class="cls-4" d="M54.67,304.42v4.33"/>
      <path class="cls-4" d="M54.67,313.64v4.34"/>
      <path class="cls-4" d="M47.89,311.2h4.34"/>
      <path class="cls-4" d="M57.11,311.2h4.34"/>
    </g>
  </g>
  <g id="Gears">
    <g>
      <g id="Layer-11">
        <path class="cls-2" d="M87.32,80.01l-5.84,3.15c-1.87-1.37-3.82-2.56-5.87-3.54l-.04-6.78-18.92-2.83-2.07,6.09c-3.1.37-6.14,1.14-9.11,2.28l-4.99-4.62-15.01,11.85,3.06,5.72c-1.67,2.27-3.07,4.67-4.18,7.2l-6.59.42-2.21,19.01,6.02,1.66c.4,2.61,1.08,5.17,2.04,7.69l-4.62,4.83,11.59,15.2,5.9-3.04c2,1.49,4.11,2.77,6.33,3.82l.2,6.75,18.92,2.83,1.93-6.2c3.09-.39,6.14-1.17,9.1-2.34l5.05,4.46,15.01-11.85-3.21-5.67c1.62-2.24,2.99-4.6,4.08-7.09l6.92-.27,2.21-19.01-6.44-1.96c-.42-2.61-1.13-5.18-2.1-7.7l4.45-4.85-11.59-15.2ZM64.75,109.47c2.4,3.15,1.79,7.65-1.36,10.05-3.15,2.4-7.63,1.78-10.03-1.37-2.4-3.15-1.81-7.64,1.34-10.04s7.65-1.79,10.05,1.35Z"/>
      </g>
      <path class="cls-9" d="M300.95,11.47l-2.95,1.59c-.95-.69-1.93-1.29-2.97-1.79l-.02-3.43-9.57-1.43-1.05,3.08c-1.57.19-3.11.58-4.61,1.16l-2.52-2.34-7.59,5.99,1.55,2.9c-.84,1.15-1.55,2.36-2.12,3.64l-3.33.21-1.12,9.62,3.05.84c.2,1.32.55,2.62,1.03,3.89l-2.34,2.44,5.87,7.69,2.98-1.54c1.01.75,2.08,1.4,3.2,1.93l.1,3.41,9.57,1.43.98-3.14c1.56-.2,3.11-.59,4.61-1.18l2.55,2.25,7.59-5.99-1.62-2.87c.82-1.13,1.51-2.33,2.06-3.59l3.5-.14,1.12-9.62-3.26-.99c-.21-1.32-.57-2.62-1.06-3.89l2.25-2.46-5.87-7.69ZM289.53,26.38c1.21,1.59.91,3.87-.69,5.09-1.59,1.21-3.86.9-5.08-.69-1.21-1.59-.92-3.86.68-5.08,1.59-1.21,3.87-.91,5.09.68Z"/>
    </g>
  </g>
  <g id="Arrow">
    <g id="Layer-20">
      <path class="cls-7" d="M407.72,104.63l-92.11,5.94,1.34,21.7,54.12-3.5-238.08,148.49-16.51-67.54L12.31,274.59l3.89,13.34,85.7-43.2,19.19,70.19,265.66-169.21-18.41,54.12,20.11,7,29.93-87.78c2.5-7.31-3.06-14.9-10.66-14.41Z"/>
    </g>
  </g>
  <g id="Bars">
    <g id="Layer-8">
      <path class="cls-7" d="M363.13,263.19h27.86v163.53h-27.86v-163.53Z"/>
      <path class="cls-9" d="M400.75,238.13h28.48v188.59h-28.48v-188.59Z"/>
      <path class="cls-9" d="M325.19,350.92h27.86v75.8h-27.86v-75.8Z"/>
      <path class="cls-7" d="M52.65,350.92h27.86v75.84h-27.86v-75.84Z"/>
      <path class="cls-9" d="M14.72,380.26h27.86v46.49H14.72v-46.49Z"/>
    </g>
  </g>
  <g id="Hand">
    <path class="cls-1" d="M117.57,426.76h-10.52M127.39,426.76h42.6s1.82-13.02,9.64-20.21c20.52-10.97,56.25-3.41,81.37-2.44,25.12.97,47.09-8.59,67.04-29.76,19.94-21.18,16.03-38.08,7.55-41.5-8.48-3.42-14.69,15.03-29.06,24.53-19.56,12.94-38.07,11-38.07,11,0,0,7.8-7.84,20.11-19.53,14.99-14.23,21.33-25.36,23.34-39.92,2.84-20.61-8.71-28.06-18.3-20.38-11.05,8.84-8.21,14.59-27.77,38.39-6.19,7.53-21.72,20.8-21.72,20.8,0,0,7.93-7.17,20-19.92,12.08-12.76,16.2-42.18,6.88-45.07-9.33-2.89-18.2,8.28-27.74,20.29-9.54,12.01-23.5,25.48-23.5,25.48,0,0-36.52-25.9-68.93-16.46-32.41,9.44-54.55,55.68-54.55,55.68l-26.35,59.03h26.56"/>
  </g>
  <g id="Floor">
    <line class="cls-4" x1="62.87" y1="426.76" x2="1" y2="426.76"/>
    <line class="cls-4" x1="176.77" y1="426.76" x2="443.72" y2="426.76"/>
  </g>
  <g id="Speech_bubble">
    <g id="Layer-12">
      <g>
        <g>
          <path class="cls-4" d="M163.13,47.06c6.39-4.62,10.55-12.14,10.55-20.63,0-14.05-11.39-25.43-25.43-25.43s-25.43,11.39-25.43,25.43,11.39,25.43,25.43,25.43c1.95,0,3.84-.22,5.66-.63"/>
          <path class="cls-4" d="M163.16,47.05s2.08,5.74,5.91,8.2c6.08,3.91,8.65,3.97,8.65,3.97,0,0-9.08,1.13-14.66-.85-5.7-2.02-9.06-7.15-9.06-7.15"/>
        </g>
        <path class="cls-8" d="M145.69,42.93l5.26.09c-.53.7-1.33,1.24-2.58,1.27-1.27.03-2.11-.58-2.68-1.36Z"/>
        <path class="cls-8" d="M144.74,39.16l7.16.04s-.06.62-.07.99l-7.01-.06c-.02-.36-.08-.98-.08-.98Z"/>
        <path class="cls-8" d="M144.88,40.94l6.91.03c0,.06,0,.04,0,.1-.07.38-.2.78-.37,1.18l-6.22-.1c-.15-.35-.25-.7-.3-1.05-.01-.09,0-.07-.02-.16Z"/>
        <path class="cls-8" d="M143.77,26.56c.15-.03.31,0,.45.09l4.14,3.08,4.04-2.89c.13-.1.3-.14.45-.11.15.02.29.11.39.24.19.27.14.64-.13.83l-4.15,2.94.09,6.23c0,.33-.27.59-.59.59-.33,0-.59-.25-.59-.57l-.09-6.24-4.21-3.12c-.27-.18-.35-.54-.17-.82.09-.14.24-.23.39-.26Z"/>
        <path class="cls-7" d="M148.12,23.58c.7-.06,1.28.36,1.78,1.07.33-.51.75-.87,1.31-.9.66-.03,1.13.36,1.51.97.19.32.32.63.39.85.08.29-.1.6-.39.68-.29.08-.6-.07-.68-.36,0-.03-.02-.09-.05-.17-.06-.14-.12-.29-.19-.41-.19-.31-.38-.47-.54-.46-.17,0-.36.17-.54.49-.08.14-.14.28-.19.44-.03.09-.06.16-.07.19-.13.51-.82.56-1.02.07-.02-.04-.07-.11-.12-.22-.09-.18-.18-.37-.29-.54-.29-.43-.6-.65-.8-.63-.23.02-.46.22-.68.56-.1.15-.17.32-.24.49-.04.1-.09.16-.1.19-.16.51-.88.5-1.05,0,0-.03-.04-.08-.07-.17-.06-.14-.13-.28-.22-.41-.21-.33-.42-.5-.61-.49s-.33.14-.46.41c-.06.12-.11.25-.15.39-.02.08-.02.14-.02.17-.04.3-.31.53-.61.49-.3-.04-.53-.33-.49-.63.03-.24.1-.56.27-.9.29-.59.74-.98,1.39-1.02.62-.04,1.09.29,1.48.83.38-.56.85-.92,1.46-.97Z"/>
        <path class="cls-6" d="M151.1,35.07c3.58-1.04,6.17-4.05,6.17-7.6,0-4.41-4.01-7.99-8.95-7.99s-8.95,3.58-8.95,7.99c0,3.49,2.5,6.45,5.98,7.54"/>
        <path class="cls-6" d="M151.06,35.07v2.5"/>
        <path class="cls-6" d="M145.47,35.07v2.5"/>
        <path class="cls-2" d="M148.32,11.15v5.3"/>
        <path class="cls-2" d="M137.07,14.36l3.25,4.19"/>
        <path class="cls-2" d="M131.06,22.62l5.22.95"/>
        <path class="cls-2" d="M165.8,23.1l-5.22.95"/>
        <path class="cls-2" d="M160.51,14.36l-3.25,4.19"/>
      </g>
    </g>
  </g>
  <g id="Character">
    <g>
      <g id="Layer-2">
        <path class="cls-8" d="M214.69,56.99c-1.19.34-2.53.9-3.99,1.81-6.02,3.73-5.73,5.78-10.95,9.5-3.26,2.32-5.74.73-11.09,3.82-5.35,3.1-4.46,11.16-.22,13.6,4.92,2.83,14.08,4.51,19.89-2.61,4.18-5.12,1.29-9.42,2.32-12.42,1.03-3,3.65-3.98,7.2-6.92,2.03-1.69,2.51-3.45,2.63-4.83.64.7,1.52,1.47,2.87,1.94,2.13.73,5.67.83,5.67.83,0,0-2.17-3.03-4.6-4.14-1.54-.7-2.93-.65-3.93-.51,0,0,0-.03,0-.03,0,0-2.23-1.03-5.79-.02Z"/>
      </g>
      <g id="Layer-1">
        <path class="cls-9" d="M217.54,70.36c.07-.83.8-1.45,1.64-1.38s1.45.8,1.38,1.64c-.07.83-.8,1.45-1.64,1.38-.83-.07-1.45-.8-1.38-1.64Z"/>
        <path class="cls-4" d="M232.39,71.6c.6-7.2-4.75-13.53-11.95-14.13-7.2-.6-13.53,4.75-14.13,11.95-.6,7.2,4.75,13.53,11.95,14.13,7.2.6,13.53-4.75,14.13-11.95Z"/>
        <path class="cls-4" d="M222.85,71.95s1.03,2.32,2.39,2.87c1.36.55,3.06-.68,3.06-.68"/>
        <path class="cls-8" d="M223.52,67.28c.06-.66-.44-1.24-1.1-1.3-.66-.06-1.24.44-1.3,1.1-.05.66.44,1.24,1.1,1.3.66.06,1.24-.44,1.3-1.1Z"/>
        <path class="cls-8" d="M231.15,65.24c.06-.66-.44-1.24-1.1-1.3-.66-.06-1.24.44-1.3,1.1-.05.66.44,1.24,1.1,1.3.66.06,1.24-.44,1.3-1.1Z"/>
        <path class="cls-4" d="M226.26,64.83l3.26,5.41-2.81-.23"/>
      </g>
      <g id="Layer-3">
        <path class="cls-8" d="M196.92,170.42l34.06-28.51,128.11,75.58-26.55,43.12-135.63-90.2Z"/>
      </g>
      <g id="Layer-4">
        <path class="cls-9" d="M194.48,149.48s-10.12,10.85-9.22,21.93c.9,11.09,10.38,18.36,10.38,18.36l-2.47,14.23-46.06,36.56,28.2,41.25s54.63-52.59,57.74-63.29c3.11-10.69-.14-69.59-.14-69.59l-38.44.55Z"/>
      </g>
      <g id="Layer-5">
        <path class="cls-7" d="M184.97,136.41s1.57,28.16,32.94,22.61c30.02-5.31,31.75-23.53,31.75-23.53,0,0,15.52,19.7,37.14,9.61,17.73-8.27,26.17-26.14,23.93-34.11-2.24-7.97-8.81-16.72-20.35-12.52-11.54,4.2-18.9,12.61-18.9,12.61,0,0-19.92-24.17-44.71-23.14-37.51,1.57-55.27,11.8-71.54,24.46-16.28,12.66-31.44,31.39-33.92,43.63s-1.28,23.85,8.33,27.01c9.61,3.17,19.44,4.61,30.11-14.35,10.68-18.96,25.22-32.28,25.22-32.28Z"/>
      </g>
      <g id="Layer-7">
        <path class="cls-9" d="M218.56,102.41l2.75,4.35s-7.98,21.47-7.94,27.4c.02,3.09,6.06,13.73,8.68,13.03,2.62-.7,8.97-8.54,9.21-13,.39-7.29-5.62-27.97-5.62-27.97l2.5-4.64-5.73-5.89-3.86,6.72Z"/>
      </g>
      <g id="Layer-6">
        <path class="cls-4" d="M244.01,108.36s6.64,12.3,5.77,23.4c-.87,11.09-9.36,19.34-9.36,19.34"/>
        <path class="cls-4" d="M194.56,128.01s-4.32,2.88-9.82,8.08c-5.5,5.2-7.51,7-13.5,14.55-6,7.55-7.58,9.97-11.68,17.67-3.42,6.42-12.54,20.12-26.69,15.1"/>
        <path class="cls-3" d="M209.02,93.96l6.9,12.99,6.45-12.11,8.69,9.02,3.24-11.52"/>
        <path class="cls-4" d="M342.33,250.79c3.42,2.09,16.4,10.03,16.4,10.03,0,0,27.05-38.75,27.56-43.99.34-3.53-7.16.35-14.25,4.2-6.74,3.66-13.22,8.86-13.22,8.86l-2.74-1.68"/>
        <path class="cls-6" d="M365.5,232.23l-1.45-10.55"/>
        <path class="cls-6" d="M369.09,229.53l-1.76-10.5"/>
        <path class="cls-4" d="M150.66,250.1c-3.33,2.25-15.93,10.76-15.93,10.76,0,0,24.03,40.7,28.58,43.33,3.07,1.77,2.65-6.66,2.09-14.71-.53-7.65-2.58-15.7-2.58-15.7l2.66-1.8"/>
        <path class="cls-6" d="M157.93,278.88l10.2,3.06"/>
        <path class="cls-6" d="M158.9,283.27l10.28,2.76"/>
      </g>
      <g id="Layer-15">
        <path class="cls-4" d="M137.09,226.62s-3.56,29.14-8.68,32.63c-4.04,2.76-15.19,0-15.19,0l23.87-32.63Z"/>
      </g>
      <g id="Layer-16">
        <path class="cls-4" d="M126.98,194.32c12.48,11.73,3.01,30.89,3.01,30.89"/>
        <path class="cls-4" d="M80.5,200.57s9.99-16.98,28.59-14.56"/>
      </g>
      <path class="cls-8" d="M68.08,199.69c2.16-4.82,7.45-7.14,11.81-5.19l53.48,23.97c4.36,1.96,6.15,7.45,3.99,12.27l-14.85,23.83c-2.16,4.82-7.45,7.14-11.81,5.19l-53.48-23.97c-4.36-1.96-6.15-7.45-3.99-12.27l14.85-23.83Z"/>
      <path class="cls-4" d="M124.06,169.33s-11.08,3.76-14.35,11.56c-2.5,5.97,2,10.23,2,10.23l3.5-6.79s-6.29,8.8-1.54,10.76c3.6,1.49,7.48-6.06,7.48-6.06,0,0-4.9,6.45-.71,8.38,4.19,1.94,9.59-8.42,9.59-8.42"/>
      <path class="cls-5" d="M140.06,179.61s-1.73,7.35-3.9,11.54c-3.22,6.23-9.16,3.3-9.16,3.3"/>
      <path class="cls-2" d="M223.08,163.88s2.67,30.72-.42,49.46c-1.6,9.7-49.77,54.65-49.77,54.65"/>
      <path class="cls-6" d="M74.71,199.05l12.27,30.59,44.91-5.15"/>
      <g>
        <path class="cls-4" d="M292.2,100.75s-1.35-8.77,2.79-13.82c4.13-5.04,9.4-7.03,11.69-5.72,2.29,1.31,7.78,6.24,4.11,8.14-2.48,1.29-7.31-2.89-7.31-2.89,0,0,1.36,3.25,1.08,5.78-.28,2.53-2.18,4.34-2.18,4.34"/>
        <path class="cls-4" d="M309.64,83.32s3.3-1.5,4.11.71c.81,2.21-2.62,12.47-5.61,12.25-3.22-.24-2.1-7.7-2.1-7.7"/>
        <path class="cls-4" d="M314.52,85.83s4.39,1.67,2,6.24c-2.39,4.56-4.66,6.67-7.2,4.14"/>
        <path class="cls-4" d="M317.96,90.9c1.84,1.05,2.16,3.43.93,5.5-1.24,2.06-4.37,3.1-5.3.54"/>
        <path class="cls-4" d="M316.16,98.68s-1.41,2.87-3.6,4.67c-2.19,1.8-5.16,2.54-5.16,2.54"/>
      </g>
      <path class="cls-8" d="M45.93,200.78c-.02-.09-.09-.15-.16-.13-.07.01-.12.1-.1.18.02.09.09.15.16.13.07-.01.12-.1.1-.18Z"/>
    </g>
  </g>
</svg>