<?xml version="1.0" encoding="UTF-8"?>
<svg id="Capa_2" xmlns="http://www.w3.org/2000/svg" viewBox="0 0 696.3 443.21">
  <defs>
    <style>
      .cls-1 {
        stroke: #263238;
      }

      .cls-1, .cls-2 {
        fill: #263238;
      }

      .cls-1, .cls-3, .cls-4, .cls-5 {
        stroke-linecap: round;
      }

      .cls-1, .cls-3, .cls-4, .cls-5, .cls-6 {
        stroke-linejoin: round;
        stroke-width: 2px;
      }

      .cls-3 {
        stroke: #ff367c;
      }

      .cls-3, .cls-4, .cls-5, .cls-6 {
        fill: none;
      }

      .cls-7, .cls-8, .cls-9 {
        fill: #fff;
      }

      .cls-4, .cls-6 {
        stroke: #263238;
      }

      .cls-8 {
        opacity: .3;
      }

      .cls-8, .cls-9 {
        isolation: isolate;
      }

      .cls-5 {
        stroke: #fff;
      }

      .cls-9 {
        opacity: .3;
      }

      .cls-10 {
        fill: #ff367c;
      }

      .cls-11 {
        fill: #ffc051;
      }
    </style>
  </defs>
  <g id="Shadows">
    <path class="cls-11" d="M408.51,358.97c0-13.96-32.58-25.28-72.76-25.28s-72.77,11.32-72.77,25.28,32.58,25.28,72.77,25.28,72.76-11.32,72.76-25.28Z"/>
    <g id="Layer-32">
      <path class="cls-10" d="M591.81,144.68c0-3.42,12.88-6.19,28.77-6.19s28.77,2.77,28.77,6.19-12.88,6.19-28.77,6.19-28.77-2.77-28.77-6.19Z"/>
    </g>
  </g>
  <g id="Sparkles">
    <g>
      <g>
        <path class="cls-4" d="M153.61,116.13v3.87"/>
        <path class="cls-4" d="M153.61,124.35v3.87"/>
        <path class="cls-4" d="M159.66,122.17h-3.87"/>
        <path class="cls-4" d="M151.43,122.17h-3.87"/>
      </g>
      <g>
        <path class="cls-4" d="M14.12,7.75v3.87"/>
        <path class="cls-4" d="M14.12,15.98v3.87"/>
        <path class="cls-4" d="M20.17,13.8h-3.87"/>
        <path class="cls-4" d="M11.94,13.8h-3.87"/>
      </g>
      <g>
        <path class="cls-4" d="M16.3,187.24v3.87"/>
        <path class="cls-4" d="M16.3,195.46v3.87"/>
        <path class="cls-4" d="M22.35,193.28h-3.87"/>
        <path class="cls-4" d="M14.12,193.28h-3.87"/>
      </g>
      <g>
        <path class="cls-4" d="M689.25,174.89v3.87"/>
        <path class="cls-4" d="M689.25,183.11v3.87"/>
        <path class="cls-4" d="M695.3,180.93h-3.87"/>
        <path class="cls-4" d="M687.07,180.93h-3.87"/>
      </g>
      <g>
        <path class="cls-4" d="M660.54,7.75v3.87"/>
        <path class="cls-4" d="M660.54,15.98v3.87"/>
        <path class="cls-4" d="M666.58,13.8h-3.87"/>
        <path class="cls-4" d="M658.36,13.8h-3.87"/>
      </g>
      <g>
        <path class="cls-4" d="M367.55,18.02v3.87"/>
        <path class="cls-4" d="M367.55,26.24v3.87"/>
        <path class="cls-4" d="M373.6,24.06h-3.87"/>
        <path class="cls-4" d="M365.38,24.06h-3.87"/>
      </g>
      <g>
        <path class="cls-4" d="M84.71,410.05v3.87"/>
        <path class="cls-4" d="M84.71,418.28v3.87"/>
        <path class="cls-4" d="M90.75,416.1h-3.87"/>
        <path class="cls-4" d="M82.53,416.1h-3.87"/>
      </g>
      <g>
        <path class="cls-4" d="M241.29,278.39v3.87"/>
        <path class="cls-4" d="M241.29,286.62v3.87"/>
        <path class="cls-4" d="M247.33,284.44h-3.87"/>
        <path class="cls-4" d="M239.11,284.44h-3.87"/>
      </g>
      <g>
        <path class="cls-4" d="M433.35,315.86v3.87"/>
        <path class="cls-4" d="M433.35,324.08v3.87"/>
        <path class="cls-4" d="M439.4,321.9h-3.87"/>
        <path class="cls-4" d="M431.17,321.9h-3.87"/>
      </g>
    </g>
  </g>
  <g id="Picture">
    <g id="Layer-28">
      <g>
        <path class="cls-3" d="M147.06,5.66c0-2.57-2.18-4.66-4.87-4.66h-38.47c-2.69,0-4.87,2.09-4.87,4.66v48.09c0,2.57,2.18,4.66,4.87,4.66h38.47c2.69,0,4.87-2.09,4.87-4.66V5.66Z"/>
        <path class="cls-11" d="M140.95,27.03l-13.8,8.97-22.24-13.1-.09,30.15,36.39-.18-.26-25.84Z"/>
        <path class="cls-11" d="M133.55,17.43c0-1.98-1.61-3.59-3.59-3.59s-3.59,1.61-3.59,3.59,1.61,3.59,3.59,3.59,3.59-1.61,3.59-3.59Z"/>
        <path class="cls-3" d="M141.17,6.07h-36.42v47.28h36.42V6.07Z"/>
      </g>
    </g>
  </g>
  <g id="Speech_bubbles">
    <g>
      <g>
        <path class="cls-3" d="M74.99,144.42c7.34-5.3,12.11-13.93,12.11-23.68,0-16.12-13.07-29.19-29.19-29.19s-29.19,13.07-29.19,29.19,13.07,29.19,29.19,29.19c2.23,0,4.41-.25,6.5-.73"/>
        <path class="cls-3" d="M75.03,144.4s2.39,6.58,6.78,9.41c6.98,4.49,9.93,4.56,9.93,4.56,0,0-10.42,1.29-16.83-.98-6.54-2.32-10.4-8.2-10.4-8.2"/>
      </g>
      <path class="cls-2" d="M54.59,122.27c.53-.53,1.16-.79,1.95-.79,2,0,3.59-.47,4.8-1.42s1.85-2.37,1.85-4.38c0-1.53-.53-2.8-1.64-3.8-1.11-1-2.48-1.48-4.11-1.48s-3.17.58-4.43,1.69c-.74.69-1.48,1-2.27,1-.58,0-1.11-.16-1.53-.53-.79-.58-1.16-1.32-1.16-2.16,0-.69.26-1.32.84-1.9,1.11-1.11,2.37-2,3.85-2.64,1.48-.63,3.06-.95,4.7-.95,2.06,0,3.96.47,5.65,1.42,1.69.95,3.06,2.22,4.06,3.9,1,1.64,1.48,3.48,1.48,5.43,0,2.9-.84,5.22-2.48,6.91-1.69,1.69-3.9,2.74-6.65,3.17-.16.05-.21.16-.21.21v1.69c0,.79-.26,1.42-.79,2-.53.53-1.16.79-1.95.79s-1.43-.26-1.95-.79c-.53-.53-.79-1.21-.79-2v-3.48c0-.69.26-1.32.79-1.9ZM54.28,137.93c-.47-.47-.69-1.16-.69-2v-.79c0-.9.21-1.53.69-2,.48-.47,1.16-.69,2-.69h.58c.9,0,1.53.21,2.01.69.47.47.69,1.16.69,2v.79c0,.9-.21,1.53-.69,2-.48.47-1.16.69-2.01.69h-.58c-.84.05-1.53-.21-2-.69Z"/>
      <g>
        <path class="cls-4" d="M537.47,45.99h-21.94c-6.02,0-10.91-5.16-10.91-11.52v-14.17c0-6.36,4.88-11.52,10.91-11.52h35.07c6.02,0,10.91,5.16,10.91,11.52v14.17c0,6.36-5.33,11.52-11.35,11.52"/>
        <path class="cls-4" d="M537.59,46.2s.71,3.35-2.97,6.98c-3.68,3.63-9.17,4.83-9.17,4.83,0,0,11.83-.11,15.93-1.7,8.81-3.41,8.77-10.32,8.77-10.32"/>
      </g>
      <path class="cls-10" d="M516.56,27.75c0-1.73,1.4-3.14,3.13-3.14s3.14,1.4,3.14,3.14-1.4,3.14-3.14,3.14-3.13-1.4-3.13-3.14Z"/>
      <path class="cls-10" d="M529.93,27.75c0-1.73,1.4-3.14,3.14-3.14s3.13,1.4,3.13,3.14-1.4,3.14-3.13,3.14-3.14-1.4-3.14-3.14Z"/>
      <path class="cls-10" d="M543.29,27.75c0-1.73,1.4-3.14,3.14-3.14s3.13,1.4,3.13,3.14-1.4,3.14-3.13,3.14-3.14-1.4-3.14-3.14Z"/>
    </g>
  </g>
  <g id="Plant">
    <g>
      <path class="cls-11" d="M649.35,101.29c-.43,17.81-7.53,32.95-17.53,39.53v1.98c0,.84-.86,1.54-1.92,1.54h-18.43c-1.07,0-1.95-.7-1.95-1.54v-1.98c-10-6.58-17.07-21.72-17.5-39.53h57.32Z"/>
      <path class="cls-2" d="M596.31,105.28h49.19s-7.44,9.62-24.82,9.29c-16.69-.32-24.38-9.29-24.38-9.29Z"/>
      <path class="cls-10" d="M624.73,24.17c-2.7,3.27-4.66,9.3-5.46,14.41-.29,1.82-.22,4.88-.07,6.66.37,4.44,1.94,9.38,2.46,9.52,1.1.31,3.44-6.29,3.91-8.16,1.31-5.21,2.26-9.75,1.52-15.08-.14-1.02-1.48-8.41-2.35-7.35Z"/>
      <path class="cls-10" d="M641.99,43.65c-3.29.61-7.51,3.27-10.58,5.96-1.09.96-2.6,2.84-3.41,3.99-2.01,2.87-3.56,6.65-3.32,7,.51.74,5.25-2.07,6.49-2.96,3.42-2.49,6.29-4.76,8.54-8.36.43-.69,3.36-5.84,2.29-5.64Z"/>
      <path class="cls-10" d="M643.96,59.71c-3.88.7-8.89,3.81-12.53,6.95-1.3,1.12-3.09,3.34-4.05,4.68-2.4,3.37-4.25,7.82-3.97,8.24.59.88,6.22-2.4,7.68-3.45,4.06-2.91,7.46-5.57,10.14-9.79.51-.81,4.01-6.86,2.74-6.63Z"/>
      <path class="cls-10" d="M646.67,77.82c-3.94.11-9.36,2.44-13.43,5.02-1.45.92-3.55,2.84-4.7,4.03-2.87,2.98-5.37,7.11-5.15,7.56.45.96,6.5-1.45,8.1-2.27,4.44-2.27,8.21-4.4,11.48-8.18.63-.73,4.98-6.19,3.7-6.15Z"/>
      <path class="cls-10" d="M607.4,44.26c-.04,3.08,1.58,7.36,3.42,10.6.66,1.15,2.07,2.84,2.95,3.76,2.2,2.31,5.29,4.35,5.65,4.19.75-.33-.91-5.11-1.48-6.38-1.61-3.52-3.12-6.51-5.92-9.15-.54-.51-4.6-4.02-4.61-3.02Z"/>
      <path class="cls-10" d="M604.52,59.5c.08,3.37,2.08,8.04,4.3,11.57.79,1.26,2.46,3.09,3.49,4.1,2.58,2.52,6.17,4.73,6.56,4.56.84-.37-1.23-5.58-1.94-6.97-1.96-3.84-3.79-7.1-7.07-9.98-.63-.55-5.37-4.38-5.34-3.28Z"/>
      <path class="cls-10" d="M599.64,75.37c.68,3.34,3.63,7.71,6.61,10.91,1.06,1.14,3.15,2.74,4.42,3.6,3.18,2.15,7.36,3.85,7.75,3.63.82-.48-2.3-5.38-3.29-6.66-2.76-3.55-5.27-6.54-9.25-8.94-.76-.46-6.46-3.62-6.23-2.53Z"/>
      <path class="cls-4" d="M622.5,57.59l-1.81,52.34"/>
    </g>
  </g>
  <g id="Books">
    <g>
      <path class="cls-10" d="M383.23,237.98s20.71,5.58,29.08,9.51c1.12.53,1.71,1.92,1.37,5.5-.35,3.63-2.07,5.98-2.07,5.98l-28.51,30.18c-.07.08-.64-.41-.64-.41,0,0,1.11-2.68,1.19-3.81.15-2.04-.33-3.41-.91-3.9-2.05-1.74-32.9-14.36-32.9-14.36l33.38-28.7Z"/>
      <path class="cls-3" d="M353.25,271.39l27.79,12.62"/>
      <path class="cls-3" d="M382.41,288.71l-34.39-15.81s1.87-1.92,2.32-2.61c.45-.7.36-3.23.36-3.23"/>
      <path class="cls-5" d="M383.23,279.12l27.22-28.73"/>
      <path class="cls-10" d="M398.51,333.72l-1.3,2.41,1.59.84-18.71,47.01c-.79-.34-13.74-8.95-26.8-11.84-7.02-1.55-32.69-1.79-32.69-1.79,0,0-13.82-6.37-29.93-7.6-8.84-.68-20.55,1.09-20.55,1.09l.94-2.04-1.68-.02s-2.14,3.23-2.06,3.81.61.98,1.18.91c.07,0,1.21-.14,1.67-.19,1.34-.14,12.93-.73,19.35-.23,6.58.51,11.41,1.97,15.61,3.1,1.69.45,9.26,3.36,9.26,3.36,0,0,0,1.17.77,1.4,2.51.72,5.26,1.16,8.87,1.76.81.13,2.11-1.5,2.11-1.5,0,0,2.92-.49,5.23-.46,7.24.1,15.82.64,20.73,1.8,13.11,3.09,27.76,12.12,27.8,12.14.54.24,1.17,0,1.4-.55l20.86-50.84c.21-.52-.02-1.12-.53-1.36l-3.12-1.18Z"/>
      <path class="cls-4" d="M287.74,349.92s10.78-.58,15.72.85c8.67,2.52,14.17,6.46,14.17,6.46"/>
      <path class="cls-4" d="M290.79,342.41s10.78-.58,15.72.85c8.67,2.52,14.17,6.46,14.17,6.46"/>
      <path class="cls-4" d="M295.11,334.88s10.83-.91,15.97.52c9.04,2.52,14.78,6.46,14.78,6.46"/>
      <path class="cls-4" d="M298.97,327.47s10.14-1,15.29.43c9.04,2.52,14.78,6.46,14.78,6.46"/>
      <path class="cls-4" d="M338.49,357.97s11.16-1.78,16.85-.67c10,1.95,16.83,4.51,16.83,4.51"/>
      <path class="cls-4" d="M341.49,350.12s11.16-1.78,16.85-.67c10,1.95,16.83,4.51,16.83,4.51"/>
      <path class="cls-4" d="M345.14,341.87s11.16-1.78,16.85-.67c10,1.95,16.83,4.51,16.83,4.51"/>
      <path class="cls-4" d="M348.81,334s10.94-1.78,16.52-.66c9.81,1.95,16.5,4.52,16.5,4.52"/>
      <path class="cls-4" d="M341.4,328.84l-20.72,40.81"/>
      <path class="cls-4" d="M320.46,370.34s-13.88-6.56-28.35-7.48c-13.1-.83-22,.94-22,.94l2.05-3.06"/>
      <path class="cls-4" d="M320.46,370.35s18.74-3.65,32.86-.7c13.33,2.78,26.44,11.67,26.44,11.67l19.87-49.43-1.81-.7"/>
      <path class="cls-4" d="M341.44,328.28s-9.39-5.99-21.57-9.8c-11.46-3.58-22.97,0-22.97,0l-28.18,41.89s17.04-4.01,34.32.7c10.48,2.86,17.6,9,17.6,9,0,0,14.03-4.66,29.07-2.98,15.04,1.68,28.73,9.75,28.73,9.75l19.24-47.14s-11.75-8.32-26.22-8.47c-14.47-.16-30.04,7.06-30.04,7.06Z"/>
    </g>
  </g>
  <g id="Character_4">
    <g>
      <path class="cls-10" d="M375,167.55c1.36-15.5,163.1-12.46,163.1-12.46,15.5,3.46,36.47,25.19,37.61,38.31h0c.06.74.07,1.45,0,2.12v6.63c.06.73.07,1.44,0,2.12v1.04l-.17.05c-.41,1.9-1.43,3.49-3.17,4.66-13.16,8.83-113.49,27-146.04,24.28-32.55-2.72-22.46-10.3-31.48-24.28-9.03-13.97-21.19-26.96-19.83-42.47Z"/>
      <path class="cls-2" d="M465.1,185.04s8.11,3.47,23.92-3.59c9.23-4.12,23.18-16.18,23.18-16.18l-8.71,49.47,55.51,11.83s8.19-89.99-8.86-104.47c-18.16-15.42-126.24,30.93-126.24,30.93l41.2,32.01Z"/>
      <path class="cls-11" d="M495.88,201.91l-36.05,43.93s-84.88-66.41-73.38-90.56c18.94-39.76,109.43,46.64,109.43,46.64Z"/>
      <path class="cls-3" d="M461.67,237.69s-33.71-26.7-51.02-46.98c-22.57-26.45-18.03-35.28-18.03-35.28"/>
      <path class="cls-4" d="M513.82,218.51c-.81,4.17-4.17,21.5-4.17,21.5,0,0,24.29,4.71,41.93,8.13,4.48.87,9.33,2.05,11.06,2.14,3.64.2-1.61-7.78-9.13-13.33-6.63-4.9-13.52-9.94-13.52-9.94l.65-3.34"/>
      <path class="cls-3" d="M540.31,234.38l9.57-5.67"/>
      <path class="cls-3" d="M544.03,237.02l9.57-5.67"/>
      <path class="cls-4" d="M485.65,212.36c3.14,2.48,19.93,14.67,19.93,14.67,0,0-28.02,40.02-32.85,42.43-3.26,1.62-2.04-6.94-.72-15.1,1.26-7.76,4.07-15.83,4.07-15.83l-6.91-5.49"/>
      <path class="cls-3" d="M480.33,244.05l-10.62,2.2"/>
      <path class="cls-3" d="M479.14,248.41l-10.62,2.2"/>
      <path class="cls-3" d="M543.18,125.46s6.67,1.93,9.3,25.63c2.62,23.7-.8,68.34-.8,68.34"/>
      <g id="Layer-3">
        <path class="cls-10" d="M416.69,78.82c-18.85,13.48-31.87,36.39-29.82,64.4,1.16,15.87,18.12,30.53,43.56,33.48,15.96,1.85,24-13.69,24-13.69,0,0,10.49-1.21,19.81-4.67,6.2-2.3,11.18-6.02,14.74-9.52,17.14-.03,45.81-7.58,44.82-37.79-.76-23.32-22.77-44.27-59.58-45.96-11.86-.54-39.71,1.02-57.52,13.76Z"/>
      </g>
      <g id="Layer-35">
        <path class="cls-8" d="M475.45,65.2c-2.1,1.5-3.57,3.82-3.57,6.59,0,4.55,3.68,8.23,8.23,8.23s8.26-3.68,8.26-8.23c0-2.06-.83-3.9-2.09-5.35-3.44-.61-7.06-1.02-10.83-1.24ZM457.91,65.6c-3.82.36-7.85.93-12.04,1.75-.86,1.3-1.48,2.77-1.48,4.45,0,4.55,3.68,8.23,8.23,8.23s8.23-3.68,8.23-8.23c0-2.5-1.17-4.68-2.93-6.2ZM499.76,70.04c-.13.58-.36,1.13-.36,1.75,0,4.55,3.68,8.23,8.23,8.23,2.41,0,4.52-1.08,6.02-2.72-4.1-2.82-8.64-5.33-13.88-7.26ZM433.14,70.74c-4.96,1.69-9.71,3.88-14.03,6.62,1.5,1.62,3.6,2.66,5.99,2.66,4.55,0,8.26-3.68,8.26-8.23,0-.37-.16-.7-.21-1.06ZM412.06,86.31c-4.55,0-8.23,3.68-8.23,8.23,0,4.55,3.68,8.23,8.23,8.23s8.26-3.68,8.26-8.23-3.71-8.23-8.26-8.23ZM439.58,86.31c-4.55,0-8.26,3.68-8.26,8.23s3.71,8.23,8.26,8.23,8.23-3.68,8.23-8.23-3.68-8.23-8.23-8.23ZM467.07,86.31c-4.55,0-8.23,3.68-8.23,8.23s3.68,8.23,8.23,8.23,8.26-3.68,8.26-8.23-3.71-8.23-8.26-8.23ZM494.59,86.31c-4.55,0-8.26,3.68-8.26,8.23,0,4.55,3.71,8.23,8.26,8.23s8.23-3.68,8.23-8.23-3.68-8.23-8.23-8.23ZM522.08,86.31c-4.55,0-8.23,3.68-8.23,8.23s3.68,8.23,8.23,8.23c4.1,0,7.35-3.04,7.98-6.96-1.48-3.17-3.36-6.2-5.69-9.04-.74-.22-1.48-.45-2.3-.45ZM397.61,109.05c-2.74,0-5.04,1.43-6.53,3.48-.62,1.69-1.11,3.44-1.6,5.2.25,4.33,3.75,7.8,8.13,7.8s8.23-3.71,8.23-8.26-3.68-8.23-8.23-8.23ZM425.1,109.05c-4.55,0-8.23,3.68-8.23,8.23s3.68,8.26,8.23,8.26,8.26-3.71,8.26-8.26c0-4.55-3.71-8.23-8.26-8.23ZM452.61,109.05c-4.55,0-8.23,3.68-8.23,8.23s3.68,8.26,8.23,8.26,8.23-3.71,8.23-8.26-3.68-8.23-8.23-8.23ZM480.1,109.05c-4.55,0-8.23,3.68-8.23,8.23s3.68,8.26,8.23,8.26,8.26-3.71,8.26-8.26-3.71-8.23-8.26-8.23ZM507.62,109.05c-4.55,0-8.23,3.68-8.23,8.23,0,4.55,3.68,8.26,8.23,8.26s8.23-3.71,8.23-8.26c0-4.55-3.68-8.23-8.23-8.23ZM533.63,109.35c-3.81.72-6.74,3.9-6.74,7.92,0,3.36,2.02,6.21,4.9,7.5,1.41-3.97,2.17-8.5,2-13.76-.02-.56-.11-1.11-.15-1.66ZM412.06,131.79c-4.55,0-8.23,3.71-8.23,8.26,0,4.55,3.68,8.23,8.23,8.23s8.26-3.68,8.26-8.23-3.71-8.26-8.26-8.26ZM439.58,131.79c-4.55,0-8.26,3.71-8.26,8.26s3.71,8.23,8.26,8.23,8.23-3.68,8.23-8.23-3.68-8.26-8.23-8.26ZM467.07,131.79c-4.55,0-8.23,3.71-8.23,8.26s3.68,8.23,8.23,8.23,8.26-3.68,8.26-8.23-3.71-8.26-8.26-8.26ZM494.59,131.79c-4.55,0-8.26,3.71-8.26,8.26,0,4.55,3.71,8.23,8.26,8.23s8.23-3.68,8.23-8.23-3.68-8.26-8.23-8.26ZM522.08,131.79c-4.55,0-8.23,3.71-8.23,8.26,0,1.07.23,2.08.6,3.02,4.72-2.31,9.13-5.29,12.49-9.5-1.38-1.05-3-1.78-4.87-1.78ZM386.87,132.28c-.24,3.56-.27,7.2,0,10.95.11,1.49.49,2.95.88,4.42,2.97-1.24,5.05-4.17,5.05-7.59,0-3.73-2.52-6.76-5.93-7.77ZM397.61,154.53c-2.16,0-4.07.88-5.53,2.24,2.89,4.13,6.9,7.87,11.92,11.01,1.09-1.4,1.84-3.08,1.84-4.99,0-4.55-3.68-8.26-8.23-8.26ZM425.1,154.53c-4.55,0-8.23,3.71-8.23,8.26s3.68,8.23,8.23,8.23,8.26-3.68,8.26-8.23c0-4.55-3.71-8.26-8.26-8.26ZM452.61,154.53c-4.55,0-8.23,3.71-8.23,8.26,0,3.18,1.85,5.86,4.48,7.23,3.61-3.48,5.56-7.02,5.56-7.02,0,0,2.62-.3,6.26-1-.41-4.16-3.8-7.47-8.07-7.47ZM480.1,154.53c-3.02,0-5.56,1.71-6.99,4.14.37-.13.75-.2,1.12-.33,2.6-.97,4.92-2.23,7.08-3.57-.41-.06-.78-.24-1.21-.24Z"/>
      </g>
      <path class="cls-4" d="M423.54,99.38s-9.48,20.81-4.28,32.45c2.92,6.53,22.67,4.05,31.47,12.74,6.44,6.36,3.76,16.48,3.76,16.48"/>
      <path class="cls-4" d="M503.5,110.91s-28.74-5.55-35.72,1.53c-8.33,8.45-7.16,26.41,2.63,31.61,7.04,3.73,15.5,4.66,15.5,4.66"/>
      <path class="cls-4" d="M487.89,92.38s3.32,4.04,5.34,8.09c2.03,4.05,3.62,9.18,3.62,9.18"/>
      <path class="cls-5" d="M438.96,170.04s.33,4.53,4.43,8.1c4.1,3.57,11.08,3.76,11.08,3.76,0,0,1.55,3.56,2.45,6.55.89,2.99,1.72,5.78,3.49,5.77,1.77,0,2.87-6.16,1.59-9.46-1.28-3.3-2.19-5.22-2.19-5.22,0,0,1.84,3.61,2.43,5.5,1.88,5.97,1.04,6.95,2.38,9.4,1.16,2.13,3.59,1.34,4.37-2.97.55-3.04.15-5.66-1.53-9.44-1.38-3.1-2.23-5.15-2.23-5.15,0,0,3.28.75,5.82,4.54,1.87,2.79,1.8,6.87,3.45,6.7,1.66-.17,3.36-3.32,1.25-8.79-2.1-5.47-6.55-10.52-10.81-12.83-11.31-6.14-18.01-5.44-18.01-5.44"/>
      <path class="cls-5" d="M467.64,127.3s-3.04,3.37-8.47,3.66c-5.43.29-11.05-3.85-11.05-3.85,0,0-3.41,1.85-5.96,3.66-2.54,1.81-4.91,3.5-6.3,2.4-1.39-1.09,1.53-6.62,4.57-8.44,3.04-1.82,4.94-2.77,4.94-2.77,0,0-3.67,1.72-5.3,2.84-5.15,3.55-5.1,4.84-7.66,5.95-2.23.96-3.66-1.15-1.62-5.03,1.44-2.74,3.37-4.56,7.02-6.5,3-1.59,4.93-2.69,4.93-2.69,0,0-3.04-1.43-7.38,0-3.19,1.05-5.64,4.31-6.84,3.16-1.2-1.15-.61-4.68,4.42-7.7,5.02-3.02,11.64-4.27,16.42-3.47,12.7,2.12,17.54,6.79,17.54,6.79"/>
      <path class="cls-11" d="M444.14,27.77c-7.18,0-10.16,2.23-13.72,4.19-5.69,3.13-8.31,1.74-10.36,5.19-3.04,5.14,3.47,9.32,3.47,9.32,0,0-6.41,8.63,0,11.43,4.01,1.75,7.41-.91,7.41-.91l-2.8-5.61-.32-5.89s4.55-2,6.19-3.36c1.8-1.5,3.58-3.54,4.91-5.67.17,2.13,2.38,7.53,8.01,10.01,3.15,1.39,6.48,1.49,9.03,1.24-.57,3.87-2.44,9.18-2.44,9.18,0,0,6.6,4.99,13.33,2.29,6.49-2.6,1.76-10.98,1.76-10.98,0,0,6.04-3.82,2.62-8.25-1.76-2.28-3.86-1.63-6.83-3.08-2.05-1-2.77-5.07-7.04-5.78-3.34-.55-6.08.54-6.08.54,0,0-2.02-3.88-7.16-3.88Z"/>
      <path class="cls-6" d="M429.5,54.44c-3.67-6.87-1.09-15.41,5.78-19.08,6.87-3.67,15.41-1.09,19.08,5.78,3.67,6.87,1.08,15.41-5.78,19.08-6.87,3.67-15.41,1.09-19.08-5.78Z"/>
      <path class="cls-10" d="M441.01,51.7c-.11-.87.49-1.67,1.35-1.78.86-.11,1.65.5,1.77,1.37.11.87-.49,1.67-1.35,1.78-.86.11-1.65-.5-1.77-1.37Z"/>
      <path class="cls-2" d="M437.04,48.39c-.12-.88.51-1.69,1.39-1.8.88-.12,1.69.51,1.8,1.39.12.88-.51,1.69-1.39,1.8-.88.12-1.69-.51-1.8-1.39Z"/>
      <path class="cls-2" d="M429.2,48.29c-.12-.88.5-1.69,1.39-1.8.88-.12,1.69.5,1.8,1.39.12.88-.51,1.69-1.39,1.8-.88.12-1.69-.5-1.8-1.39Z"/>
      <path class="cls-4" d="M439.63,53.66s-.35,1.63-1.39,2.29c-1.54.98-3.29.46-3.29.46"/>
      <path class="cls-4" d="M434.7,48.22l-3.06,5.07h3.24"/>
      <path class="cls-11" d="M453.2,27.7c-1.23-.9,1.18-15.7,6.7-19.65,4.68-3.36,13.2.79,9.68,6.9-3.51,6.11-15.1,13.68-16.38,12.75Z"/>
    </g>
  </g>
  <g id="Character_3">
    <g>
      <path class="cls-11" d="M363.51,177.02c-1.36-15.5-163.1-12.46-163.1-12.46-15.5,3.46-36.47,25.19-37.61,38.31h0c-.06.74-.07,1.45,0,2.12v6.63c-.06.73-.07,1.44,0,2.11v1.04l.17.05c.41,1.9,1.43,3.49,3.17,4.66,13.16,8.83,113.49,27,146.04,24.28,32.55-2.72,22.46-10.31,31.48-24.28,9.03-13.97,21.19-26.96,19.83-42.47Z"/>
      <path class="cls-4" d="M343.68,148.22c3.57-1.4,16.89-1.13,19.54,1.64s-13.85,17.97-13.85,17.97"/>
      <g id="Layer-8">
        <path class="cls-10" d="M230.78,67.48c-13.81,2.44-28.43,6.74-36.79,17.61-14.22,18.49-11.82,36.57-.73,58.97,3.79,13.63,1.62,32.38,1.62,32.38,0,0,28.26,5.7,40.07,2.21,4.61-1.36,6.89-7.1,7.74-9.96,16.68,2.33,42.35-26.03,42.35-26.03,0,0,24.46,16.45,36.52,2.82,12.07-13.62,13.18-33.89,16.61-54.67,4.24-25.7-19.81-28.61-25.97-26.89-14.07,3.92-18.42,31-18.42,31,0,0-5.4-9.67-12.61-15.8-7.22-6.12-16.25-8.69-16.25-8.69,0,0-6,3.59-10.48,3.86-7.99.47-18.15-2.4-23.67-6.82Z"/>
      </g>
      <g>
        <path class="cls-11" d="M332.68,195.45l24.48.11s-8.65-85.71-43.53-99.47c-2.69-1.06-5.42-1.33-8.16-1.03-19.17,2.1-38.22,33.22-38.22,33.22l3.3,32.38c10.64,2.08,36.57,7.47,46.75,12.49,10.1,4.98,13.68,16.94,15.39,22.31Z"/>
        <path class="cls-2" d="M317.29,173.14c-10.18-5.02-36.11-10.41-46.75-12.49l.82,8.04c-8.58-.45-29.39,1.72-29.39,1.72,0,0-1.38,9.38-14.5,9.41-10.94.03-29.29-2.75-29.29-2.75,0,0-5.47,19.63,7.71,29.49,15.38,11.5,121.59,27.44,126.54-4.58.35-2.28.39-4.45.25-6.54h0c-1.71-5.36-5.3-17.33-15.39-22.31Z"/>
      </g>
      <line class="cls-4" x1="298.94" y1="169.16" x2="296.86" y2="155.27"/>
      <g id="Layer-47">
        <path class="cls-4" d="M322.34,211.94s52.52,7.31,57.7,4.7c3.49-1.76-4.27-7-11.77-11.84-7.13-4.61-13.89-7.31-13.89-7.31"/>
        <path class="cls-3" d="M354.37,204.74l8.85-8.03"/>
        <path class="cls-3" d="M358.7,206.88l8.85-8.03"/>
      </g>
      <path class="cls-4" d="M273.66,92.58c4.71,4.23,9.52,15.62,9.52,15.62"/>
      <g id="Layer-46">
        <path class="cls-10" d="M217.46,92.58s8.12,4.87,14.3,13.18c6.18,8.31,10.43,20.05,10.43,20.05,0,0,35.57-17.71,45.52-14.34,9.95,3.37,16.21,3.72,20.1,18.47,5.35,20.3-16.09,35.1-31.13,38.76-49.41,12.04-76.79-23.57-76.79-23.57l17.56-52.54Z"/>
      </g>
      <g>
        <path class="cls-2" d="M253.77,31.4c-3.63-.72-8.9-1.65-15.55,3.31-3.67,2.73-5.28,6.32-9.11,8.82-6.06,3.96-9.97,2.34-12.71,5.71-5.2,6.41.03,14.89,10.08,15.2,11.03.34,14.11-5.85,14.11-5.85l-2.15-7.11s6.6-.38,11.04-4.3c3.67-3.24,6.11-6.51,7.74-9.03,1,1.2,2.52,2.24,4.17,3.3,2.55,1.64,4.95,1.78,4.95,1.78,0,0-1.53-5.63-5.86-8.73-1.28-.91-3.24-2.41-6.71-3.1Z"/>
        <path class="cls-2" d="M265.53,46.46c.23-.76-.2-1.55-.96-1.78-.76-.23-1.55.2-1.78.96-.23.76.2,1.55.96,1.78.76.23,1.55-.2,1.78-.96Z"/>
        <path class="cls-6" d="M254.27,55.25c.03-1.35,1.16-2.42,2.51-2.39,1.35.03,2.42,1.16,2.39,2.51-.03,1.35-1.16,2.42-2.51,2.39-1.35-.03-2.42-1.16-2.39-2.51Z"/>
        <path class="cls-10" d="M250.72,49.14c.27-.89,1.2-1.39,2.09-1.13.89.27,1.39,1.2,1.13,2.09-.27.89-1.2,1.39-2.09,1.13-.89-.27-1.39-1.2-1.13-2.09Z"/>
        <path class="cls-6" d="M266.23,53.55c2.29-7.67-2.07-15.75-9.74-18.04-7.67-2.29-15.75,2.07-18.04,9.74-2.29,7.67,2.07,15.75,9.74,18.04,7.67,2.29,15.75-2.07,18.04-9.74Z"/>
        <path class="cls-2" d="M257.75,47.07c.23-.76-.2-1.55-.96-1.78-.76-.23-1.55.2-1.78.96-.23.76.2,1.55.96,1.78.76.23,1.55-.2,1.78-.96Z"/>
        <path class="cls-4" d="M260.73,45.99l2.01,5.64-2.89-.33"/>
      </g>
      <g>
        <path class="cls-4" d="M316.77,72.02s-3.93-5.28-3.22-11.01c.71-5.73,2.95-17.06,5.89-21.23,2.33-3.3,4.98.82,4.44,6.98-.3,3.46-1.72,7.37-1.72,7.37,0,0,3.57-.78,6.23.49,2.67,1.27,4.43,4.6,4.43,4.6"/>
        <path class="cls-4" d="M323.11,51.08s1.43-4.24,4.76-9.3c2.89-4.39,7.23-7.63,9.05-6.19,1.82,1.44-1.59,6.03-3.27,8.52-1.68,2.5-4.45,8.27-4.45,8.27,0,0,2.71-5.67,4.89-8.71,2.96-4.12,6.47-6.9,8.77-6.15,2.3.76-.36,5.25-2.98,8.8-2.83,3.83-5.09,7.86-5.09,7.86l5.31-7.92s3.99-4.74,5.76-3.03c2.14,2.07-2.66,8.57-4.51,12.32-1.38,2.8-2.36,7.15-4.42,10.74-1.74,3.03-6.74,6.74-6.74,6.74"/>
      </g>
      <path class="cls-4" d="M319.89,115.09s7.89-2.32,12.72-1.23c7.93,1.78,6.59,5.09,4.68,6.16-.84.47-3.98,1.32-7.8,1.64-3.82.32-7.35,1.45-7.35,1.45,0,0,3.4-1.1,7.52-1.43,4.19-.33,8.65-.74,8.15,2.18-.41,2.42-3.82,3.02-11.97,6.19-8.3,3.23-9.69,9-21.92,6.93"/>
      <path class="cls-4" d="M308.66,112.14c8.78-9.32,25.22-6.53,27.04.86.2.82-.28,1.35-1.24,1.35"/>
      <path class="cls-4" d="M296.86,122.17s1.84-4.62,6.34-11.31c5.12-7.62,9.25-13.99,11.11-9.81,1.78,4.02-.21,7.15-.21,7.15"/>
      <path class="cls-4" d="M295.75,114.16c-12.57-5.96-36.14-2.23-53.55,11.64-8.03-9.79-17.07-27.32-17.07-27.32"/>
      <line class="cls-4" x1="233.28" y1="100.7" x2="231.21" y2="109.42"/>
      <path class="cls-4" d="M200.42,147.4s19.24,17.75,36.09,20.73"/>
      <path class="cls-1" d="M234.59,69.93c-.8,1.25-2.21,2.07-3.8,2.07-2.22,0-4.06-1.58-4.45-3.68,1.49-.31,2.97-.59,4.45-.85,1.1.88,2.39,1.7,3.8,2.46Z"/>
      <path class="cls-1" d="M243.57,73.22c-.53,1.92-2.28,3.32-4.36,3.32-2.51,0-4.53-2.03-4.53-4.54,0-.65.14-1.27.38-1.83,2.54,1.28,5.48,2.32,8.51,3.04Z"/>
      <path class="cls-1" d="M252.97,74.35c-.11,2.39-2.09,4.28-4.51,4.28s-4.53-2.03-4.53-4.53c0-.27.03-.53.08-.79,3.01.69,6.09,1.06,8.96,1.03Z"/>
      <path class="cls-1" d="M269.31,72.05c-.8,1.23-2.19,2.05-3.79,2.05s-2.85-.74-3.66-1.88c.26.57.41,1.21.41,1.88,0,2.5-2.03,4.53-4.53,4.53s-4.4-1.9-4.51-4.29c.41,0,.81-.02,1.21-.04,2.39-.14,5.21-1.22,7.32-2.21,0,0,.02,0,.03,0,1.84-.86,3.14-1.64,3.14-1.64,0,0,1.77.51,4.39,1.61Z"/>
      <path class="cls-4" d="M225.13,219.79c-7.92-15.99-24.26-25.09-38.87-23.03"/>
      <path class="cls-4" d="M343.68,136.14c2.82,8.25,11.97,34.66,13.47,59.42-10.1-.04-29.15,0-29.15,0"/>
    </g>
  </g>
  <g id="Character_2">
    <g>
      <path class="cls-11" d="M655.75,362.54c17.13,9.77,25.85,39.21,15.13,46.33-10.72,7.11-215.57,23.21-228.95-.13-13.38-23.34,4.02-49.78,11.22-56.4,7.2-6.62,202.6,10.2,202.6,10.2"/>
      <g id="Layer-41">
        <path class="cls-2" d="M558.39,384.55s-77.07,10.15-96.03-9.97c-14.38-15.26-3.48-51.81,72.92-58.52,63.31-5.56,80.15-4.12,83.63,35.53,2.48,28.26-60.51,32.97-60.51,32.97Z"/>
      </g>
      <g id="Layer-14">
        <path class="cls-10" d="M567.37,402.86c-28.07,3.6-93.02,11.88-102.59-1.67-16.15-22.85.35-54.07,76.31-64.63,36.92-5.13,86.99-5.82,86.99-5.82,0,0,7.92,35.45-9.8,57.42-11.75,14.57-27.8,11.74-50.91,14.7Z"/>
      </g>
      <g id="Layer-20">
        <path class="cls-4" d="M559.04,344.52s-46.21,6.14-65.11,16.57c-15.61,8.61-25.45,20.54-25.45,20.54"/>
      </g>
      <g id="Layer-16">
        <path class="cls-11" d="M495.26,310.27c.64,10.43,5.25,22.45,20.18,26.29,14.93,3.84,34.63-6.19,34.63-6.19,0,0,16.29,12.39,39.59,12.39,6.93,0,24.95,0,36.59-10.08.76,12.56-2.19,37.95-1.04,44.5,3.22,18.36,13.14,29.92,25.12,30.33,10.99.37,27.13-4.14,25.6-41.54-1.63-39.66-3.85-70.51-13.2-101.75-9.85-32.89-41.78-24.14-41.78-24.14-6.13-1.54-18.12-3.07-24.44-3.04,0,0-22.85-3.7-46.45,5.21-8.74,3.3-20.44,11.36-30.8,21.63-13.65,13.55-24.95,30.95-24.01,46.39Z"/>
      </g>
      <g id="Layer-43">
        <path class="cls-9" d="M582.13,236.3c-2.47.05-5.23.23-8.11.52l5.52,6.27c1.2,1.36,3.26,1.49,4.62.29,1.36-1.2,1.52-3.26.32-4.62l-2.17-2.45c-.08,0-.11,0-.19,0ZM604.78,237.66c-1.07,1.22-1.14,3.08-.03,4.33l8.17,9.27c1.2,1.36,3.29,1.49,4.65.29,1.36-1.2,1.49-3.26.29-4.62l-7.66-8.72c-2-.27-3.47-.36-5.43-.55ZM566.88,237.79c-3.52.6-7.2,1.5-10.95,2.62l-2.26,2.29c-1.27,1.3-1.23,3.39.07,4.65,1.3,1.27,3.35,1.26,4.62-.03l7.98-8.17c.37-.38.4-.88.55-1.36ZM630.95,239.08c-4.7-.07-7.44.5-8.63.78.01.83.35,1.66,1,2.29,1.3,1.27,3.39,1.26,4.65-.03l2.97-3.04ZM597.35,241.73c-.84,0-1.69.32-2.33.97l-7.98,8.17c-1.27,1.3-1.23,3.39.07,4.65,1.3,1.27,3.39,1.23,4.65-.06l7.98-8.14c1.27-1.3,1.23-3.39-.07-4.65-.65-.63-1.49-.95-2.33-.94ZM542.68,245.8c-1.81,1.02-3.71,2.28-5.62,3.55l6.27,7.11c1.2,1.36,3.26,1.49,4.62.29s1.52-3.26.32-4.62l-5.59-6.33ZM639.65,245.83c-.84-.05-1.68.21-2.36.81-1.36,1.2-1.49,3.26-.29,4.62l8.17,9.27c1.2,1.36,3.26,1.52,4.62.32,1.36-1.2,1.49-3.29.29-4.65l-8.17-9.27c-.6-.68-1.42-1.05-2.26-1.1ZM570.05,251c-.84-.05-1.68.24-2.36.84-1.36,1.2-1.49,3.26-.29,4.62l8.14,9.27c1.2,1.36,3.29,1.52,4.65.32,1.36-1.2,1.49-3.29.29-4.65l-8.18-9.27c-.6-.68-1.42-1.08-2.26-1.13ZM629.57,251c-.84.01-1.66.35-2.29,1l-7.98,8.17c-1.27,1.3-1.26,3.35.03,4.62,1.3,1.27,3.39,1.26,4.65-.03l7.98-8.18c1.27-1.3,1.23-3.39-.06-4.65-.65-.63-1.49-.95-2.33-.94ZM559.96,256.21c-.84,0-1.66.35-2.29,1l-8.01,8.17c-1.27,1.3-1.23,3.35.07,4.62,1.3,1.27,3.39,1.26,4.65-.03l7.98-8.17c1.27-1.3,1.23-3.39-.07-4.65-.65-.63-1.49-.95-2.33-.94ZM607.43,259.18c-.84-.05-1.71.21-2.39.81-1.36,1.2-1.49,3.29-.29,4.65l8.17,9.27c1.2,1.36,3.29,1.49,4.65.29s1.49-3.26.29-4.62l-8.17-9.27c-.6-.68-1.42-1.08-2.26-1.13ZM661.04,259.57l-7.69,7.85c-1.27,1.3-1.23,3.39.06,4.65,1.3,1.27,3.39,1.23,4.65-.06l5.3-5.43c-.23-.79-.41-1.57-.65-2.36-.5-1.68-1.07-3.18-1.68-4.65ZM535.8,261.8c-.84-.05-1.71.21-2.39.81-1.36,1.2-1.49,3.26-.29,4.62l8.17,9.31c1.2,1.36,3.26,1.49,4.62.29,1.36-1.2,1.49-3.29.29-4.65l-8.17-9.27c-.6-.68-1.39-1.05-2.23-1.1ZM597.35,264.38c-.84,0-1.69.35-2.33,1l-7.98,8.14c-1.27,1.3-1.23,3.39.07,4.65,1.3,1.27,3.39,1.26,4.65-.03l7.98-8.17c1.27-1.3,1.23-3.39-.07-4.65-.65-.63-1.49-.95-2.33-.94ZM637.61,266.42c-.84-.05-1.71.24-2.39.84-1.36,1.2-1.49,3.26-.29,4.62l8.17,9.27c1.2,1.36,3.26,1.49,4.62.29,1.36-1.2,1.52-3.26.32-4.62l-8.17-9.27c-.6-.68-1.42-1.08-2.26-1.13ZM525.68,266.97c-.84,0-1.66.35-2.29,1l-7.98,8.18c-1.27,1.3-1.26,3.39.03,4.65,1.3,1.27,3.39,1.23,4.65-.07l7.98-8.17c1.27-1.3,1.27-3.39-.03-4.65-.65-.63-1.52-.95-2.36-.94ZM627.53,271.62c-.84,0-1.69.35-2.33,1l-7.98,8.18c-1.27,1.3-1.23,3.35.06,4.62,1.3,1.27,3.35,1.26,4.62-.03l8.01-8.17c1.27-1.3,1.23-3.39-.06-4.65-.65-.63-1.49-.95-2.33-.94ZM569.04,272.56c-.84-.05-1.71.21-2.39.81-1.36,1.2-1.49,3.29-.29,4.65l8.18,9.27c1.2,1.36,3.26,1.49,4.62.29,1.36-1.2,1.49-3.26.29-4.62l-8.14-9.31c-.6-.68-1.42-1.04-2.26-1.1ZM558.93,277.76c-.84.01-1.66.32-2.29.97l-7.98,8.17c-1.27,1.3-1.27,3.39.03,4.65,1.3,1.27,3.39,1.23,4.65-.07l7.98-8.17c1.27-1.3,1.26-3.35-.03-4.62-.65-.63-1.52-.95-2.36-.94ZM663.65,279.79c-.84,0-1.69.35-2.33,1l-7.98,8.14c-1.27,1.3-1.23,3.39.06,4.65,1.3,1.27,3.39,1.26,4.65-.03l7.98-8.17c1.27-1.3,1.23-3.39-.07-4.65-.65-.63-1.49-.95-2.33-.94ZM603.42,281.83c-.84-.05-1.68.24-2.36.84-1.36,1.2-1.49,3.26-.29,4.62l8.17,9.27c1.2,1.36,3.26,1.49,4.62.29,1.36-1.2,1.49-3.26.29-4.62l-8.17-9.27c-.6-.68-1.42-1.08-2.26-1.13ZM504.29,282.28c-1.26,1.99-2.42,3.99-3.46,6.01l3.2,3.65c1.2,1.36,3.29,1.49,4.65.29,1.36-1.2,1.49-3.29.29-4.65l-4.68-5.3ZM531.69,284.45c-.84-.05-1.68.21-2.36.81-1.36,1.2-1.52,3.26-.32,4.62l8.17,9.31c1.2,1.36,3.29,1.49,4.65.29,1.36-1.2,1.49-3.29.29-4.65l-8.17-9.27c-.6-.68-1.42-1.04-2.26-1.1ZM593.34,287.03c-.84,0-1.66.35-2.29,1l-7.98,8.17c-1.27,1.3-1.27,3.35.03,4.62,1.3,1.27,3.39,1.26,4.65-.03l7.98-8.17c1.27-1.3,1.23-3.39-.07-4.65-.65-.63-1.49-.95-2.33-.94ZM637.51,287.97c-.84-.05-1.71.21-2.39.81-1.36,1.2-1.49,3.29-.29,4.65l8.18,9.27c1.2,1.36,3.29,1.49,4.65.29,1.36-1.2,1.49-3.26.29-4.62l-8.18-9.31c-.6-.68-1.42-1.05-2.26-1.1ZM521.61,289.65c-.84.01-1.69.32-2.33.97l-7.98,8.17c-1.27,1.3-1.23,3.39.07,4.65,1.3,1.27,3.39,1.23,4.65-.07l7.98-8.17c1.27-1.3,1.23-3.35-.07-4.62-.65-.63-1.49-.95-2.33-.94ZM627.43,293.17c-.84,0-1.69.32-2.33.97l-7.98,8.17c-1.27,1.3-1.23,3.39.07,4.65,1.3,1.27,3.39,1.23,4.65-.06l7.98-8.18c1.27-1.3,1.23-3.35-.07-4.62-.65-.63-1.49-.95-2.33-.94ZM565.98,295.21c-.84-.05-1.71.21-2.39.81-1.36,1.2-1.49,3.29-.29,4.65l8.17,9.27c1.2,1.36,3.26,1.49,4.62.29,1.36-1.2,1.52-3.26.32-4.62l-8.17-9.31c-.6-.68-1.42-1.05-2.26-1.1ZM669.73,297.24c-.84-.05-1.68.24-2.36.84-1.36,1.2-1.49,3.26-.29,4.62l4.49,5.11c-.45-3.53-1.03-6.98-1.58-10.44-.1-.01-.16-.12-.26-.13ZM496.76,298.21c-.78,2.69-1.17,5.38-1.36,8.01l5.56,6.33c1.2,1.36,3.29,1.49,4.65.29,1.36-1.2,1.49-3.29.29-4.65l-8.17-9.27c-.28-.32-.62-.53-.97-.71ZM555.89,300.41c-.84,0-1.69.32-2.33.97l-7.98,8.17c-1.27,1.3-1.23,3.39.06,4.65,1.3,1.27,3.35,1.23,4.62-.06l8.01-8.14c1.27-1.3,1.23-3.39-.06-4.65-.65-.63-1.49-.95-2.33-.94ZM601.13,302.44c-.84-.05-1.71.21-2.39.81-1.36,1.2-1.49,3.29-.29,4.65l8.17,9.27c1.2,1.36,3.26,1.49,4.62.29,1.36-1.2,1.49-3.26.29-4.62l-8.17-9.27c-.6-.68-1.39-1.08-2.23-1.13ZM659.65,302.44c-.84.01-1.66.35-2.29,1l-7.98,8.17c-1.27,1.3-1.27,3.35.03,4.62,1.3,1.27,3.39,1.26,4.65-.03l7.98-8.18c1.27-1.3,1.23-3.39-.07-4.65-.65-.63-1.49-.95-2.33-.94ZM527.72,307.1c-.84-.05-1.71.21-2.39.81-1.36,1.2-1.49,3.29-.29,4.65l8.17,9.27c1.2,1.36,3.26,1.49,4.62.29,1.36-1.2,1.49-3.26.29-4.62l-8.17-9.31c-.6-.68-1.39-1.05-2.23-1.1ZM591.02,307.65c-.84,0-1.66.35-2.29,1l-7.98,8.14c-1.27,1.3-1.27,3.39.03,4.65,1.3,1.27,3.39,1.26,4.65-.03l7.98-8.17c1.27-1.3,1.26-3.39-.03-4.65-.65-.63-1.52-.95-2.36-.94ZM637.51,310.62c-.84-.05-1.71.21-2.39.81-1.36,1.2-1.49,3.29-.29,4.65l8.18,9.27c1.2,1.36,3.29,1.49,4.65.29,1.36-1.2,1.49-3.26.29-4.62l-8.18-9.31c-.6-.68-1.42-1.05-2.26-1.1ZM517.6,312.3c-.84,0-1.66.32-2.29.97l-7.98,8.17c-1.27,1.3-1.27,3.39.03,4.65,1.3,1.27,3.39,1.23,4.65-.06l7.98-8.18c1.27-1.3,1.26-3.35-.03-4.62-.65-.63-1.52-.95-2.36-.94ZM564.91,315.82c-.84-.05-1.71.21-2.39.81-1.36,1.2-1.49,3.29-.29,4.65l8.18,9.27c1.2,1.36,3.26,1.49,4.62.29,1.36-1.2,1.49-3.26.29-4.62l-8.18-9.31c-.6-.68-1.39-1.05-2.23-1.1ZM627.43,315.82c-.84,0-1.69.32-2.33.97l-7.98,8.18c-1.27,1.3-1.23,3.39.07,4.65,1.3,1.27,3.39,1.23,4.65-.07l7.98-8.14c1.27-1.3,1.23-3.39-.07-4.65-.65-.63-1.49-.95-2.33-.94ZM669.57,316.37c-.84-.05-1.71.21-2.39.81-1.36,1.2-1.49,3.29-.29,4.65l6.88,7.82c-.29-3.74-.61-7.44-.97-11.05l-.97-1.1c-.6-.68-1.42-1.08-2.26-1.13ZM554.79,321.02c-.84,0-1.66.32-2.29.97l-7.98,8.18c-.76.77-.99,1.82-.84,2.81,3.62-1.39,6.4-2.62,6.4-2.62,0,0,1.09.74,2.07,1.39l5.04-5.17c1.27-1.3,1.26-3.35-.03-4.62-.65-.63-1.52-.95-2.36-.94ZM659.49,321.57c-.84.01-1.69.35-2.33,1l-7.98,8.14c-1.27,1.3-1.23,3.39.07,4.65,1.3,1.27,3.35,1.26,4.62-.03l7.98-8.18c1.27-1.3,1.26-3.39-.03-4.65-.65-.63-1.49-.95-2.33-.94ZM597.12,325.09c-.84-.05-1.71.24-2.39.84-1.36,1.2-1.49,3.26-.29,4.62l8.17,9.27c1.2,1.36,3.29,1.49,4.65.29,1.36-1.2,1.49-3.26.29-4.62l-8.17-9.27c-.6-.68-1.42-1.08-2.26-1.13ZM526.72,329.2c-.84-.05-1.68.21-2.36.81-1.36,1.2-1.49,3.26-.29,4.62l2.29,2.62c2.63-.22,5.19-.66,7.66-1.23l-5.04-5.72c-.6-.68-1.42-1.05-2.26-1.1ZM587.04,330.3c-.84,0-1.69.35-2.33,1l-7.98,8.18c-.49.5-.74,1.14-.84,1.78,2.3.48,4.71.85,7.24,1.1l6.3-6.46c1.27-1.3,1.23-3.39-.07-4.65-.65-.63-1.49-.95-2.33-.94ZM633.51,333.27c-.84-.05-1.68.21-2.36.81-1.36,1.2-1.49,3.29-.29,4.65l8.17,9.27c1.2,1.36,3.26,1.49,4.62.29,1.36-1.2,1.49-3.26.29-4.62l-8.17-9.27c-.6-.68-1.42-1.08-2.26-1.13ZM516.63,334.4c-.84.01-1.66.32-2.29.97l-.58.61c.57.18,1.07.42,1.68.58,1.4.36,2.87.48,4.33.61-.11-.66-.29-1.33-.81-1.84-.65-.63-1.49-.95-2.33-.94ZM665.56,339.02c-.84-.05-1.68.24-2.36.84-1.36,1.2-1.52,3.26-.32,4.62l8.17,9.27c1.09,1.24,2.92,1.43,4.27.55-.1-2.01-.19-4.01-.29-5.98l-7.2-8.17c-.6-.68-1.42-1.08-2.26-1.13ZM626.24,340.12c-.02,1.16.04,2.07,0,3.3.61-1.03.6-2.27,0-3.3ZM655.48,344.22c-.84.01-1.69.35-2.33,1l-7.98,8.18c-1.27,1.3-1.23,3.35.07,4.62,1.3,1.27,3.39,1.26,4.65-.03l7.98-8.17c1.27-1.3,1.23-3.39-.06-4.65-.65-.63-1.49-.95-2.33-.94ZM631.41,355.56c-.84-.05-1.71.21-2.39.81-1.36,1.2-1.49,3.26-.29,4.62l8.17,9.31c1.2,1.36,3.26,1.49,4.62.29,1.36-1.2,1.49-3.26.29-4.62l-8.14-9.31c-.6-.68-1.42-1.05-2.26-1.1ZM666.3,361.12c-.84-.05-1.68.21-2.36.81-1.36,1.2-1.52,3.29-.32,4.65l8.17,9.27c1.01,1.15,2.64,1.37,3.94.71.12-1.85.1-3.97.1-6.04l-7.27-8.27c-.6-.68-1.42-1.08-2.26-1.13ZM656.22,366.33c-.84,0-1.69.35-2.33,1l-7.98,8.14c-1.27,1.3-1.23,3.39.06,4.65,1.3,1.27,3.39,1.26,4.65-.03l7.98-8.17c1.27-1.3,1.23-3.39-.06-4.65-.65-.63-1.49-.95-2.33-.94ZM629.34,376.18c-.84-.05-1.68.21-2.36.81-1.36,1.2-1.52,3.26-.32,4.62l8.17,9.31c1.2,1.36,3.29,1.49,4.65.29,1.36-1.2,1.49-3.29.29-4.65l-8.17-9.27c-.6-.68-1.42-1.04-2.26-1.1ZM665.46,383.22c-.84-.05-1.68.21-2.36.81-1.36,1.2-1.49,3.29-.29,4.65l7.5,8.56c1.13-1.85,2.1-4.07,2.94-6.62l-5.53-6.3c-.6-.68-1.42-1.05-2.26-1.1ZM655.38,388.43c-.84.01-1.66.32-2.29.97l-8.01,8.17c-1.27,1.3-1.23,3.39.06,4.65,1.3,1.27,3.39,1.23,4.65-.06l7.98-8.14c1.27-1.3,1.23-3.39-.07-4.65-.65-.63-1.49-.95-2.33-.94Z"/>
      </g>
      <g id="Layer-19">
        <path class="cls-2" d="M591.31,243.62c.58-1.14,1.97-1.59,3.11-1,1.14.58,1.58,1.97,1,3.11-.58,1.14-1.97,1.59-3.11,1-1.14-.58-1.58-1.97-1-3.11Z"/>
        <path class="cls-5" d="M593.25,244.64c-1.98,3.03.78,6.94-2.28,9.68-3,2.69-8.39,1.73-11.77,4.12-2.23,1.58-3.21,4.9-4.31,7.28"/>
        <path class="cls-2" d="M600.24,244.36c.58-1.14,1.97-1.58,3.11-1,1.14.58,1.59,1.97,1,3.11-.58,1.14-1.97,1.58-3.11,1-1.14-.58-1.59-1.97-1-3.11Z"/>
        <path class="cls-5" d="M601.76,245.8c-2.54,2.58-1.71,7.79-.31,11.87,1.31,3.81.99,11.73-3.11,17.4"/>
        <path class="cls-4" d="M556.3,260.94s-6.48,6.04-9.82,15.75c-2.36,6.86-3.39,13.56-3.39,13.56"/>
        <path class="cls-4" d="M524.05,297.52s20.7-9.51,28.98-5.75c10.91,4.96,15.69,20.24,11.67,27.82-3.45,6.5-11.38,10.53-11.38,10.53"/>
      </g>
      <g id="Layer-17">
        <path class="cls-4" d="M667.76,390.2s13.97,5.2,20.41,10.41c6.44,5.2,8.97,12.79,5.68,15.7-.25.22-3.05-5.02-8.22-8.14s-8.95-3.91-8.95-3.91c0,0,3.27.42,9.16,4.31,5.41,3.58,9.37,7.92,7.99,11.88-1.36,3.92-8.57-3.65-12.57-6.02s-8.95-4.15-8.95-4.15c0,0,5.5,1.26,11.78,6.26,4.91,3.91,6,5.87,4.73,9.29-1.41,3.82-6.58-.26-12.94-4.07-6.77-4.06-16.97-9.81-20.32-7.52-2.67,1.81.64,6.12,1.4,11.11.75,5-.68,8.07-3.52,7.66-2.84-.41-7.62-11.34-9.54-17.21-1.93-5.87-1.23-20.46-1.23-20.46"/>
      </g>
      <g id="Layer-42">
        <path class="cls-4" d="M553.89,303.96s-2.08-5.11.25-10.46,12.24-18.8,15.65-18.8c3.41,0,2.09,4.86-.77,9.21-2.86,4.34-6.12,6.55-3.81,7.95,2.3,1.4,29.62-4.3,31.35-1.12,1.73,3.18-6.64,6.74-11.07,7.28-4.43.54-7.82.52-7.82.52,0,0,2.93.36,7.77-.57,6.4-1.24,8.36-2.63,8.36-2.63,0,0,1.87,3.89-4.08,6.99-5.95,3.1-9.58,3.36-13.83,4.98-5.48,2.1-12,6.39-12,6.39"/>
      </g>
      <path class="cls-10" d="M611.65,214.38c-.15-1.04-1.11-1.76-2.14-1.61-1.04.15-1.76,1.11-1.61,2.14.15,1.04,1.11,1.76,2.14,1.61,1.04-.15,1.76-1.11,1.61-2.14Z"/>
      <path class="cls-6" d="M593.89,218.65c-1.92-8.83,3.68-17.55,12.51-19.47,8.83-1.92,17.55,3.68,19.47,12.51,1.92,8.83-3.68,17.55-12.51,19.47-8.83,1.92-17.55-3.68-19.47-12.51Z"/>
      <path class="cls-2" d="M603.31,211.97c-.13-.94.52-1.82,1.47-1.95.94-.13,1.82.52,1.95,1.46.14.94-.52,1.82-1.46,1.95-.94.13-1.82-.52-1.95-1.47Z"/>
      <path class="cls-4" d="M600.44,221.78c-.21-1.44.8-2.78,2.24-2.99,1.44-.21,2.78.8,2.99,2.24.21,1.44-.8,2.78-2.24,2.99-1.44.21-2.78-.8-2.99-2.24Z"/>
      <path class="cls-2" d="M594.82,210.1c-.13-.92.51-1.77,1.43-1.9.92-.13,1.77.51,1.9,1.43.13.92-.51,1.77-1.43,1.91-.92.13-1.77-.51-1.91-1.43Z"/>
      <path class="cls-4" d="M600.55,209.72l-3.36,6.32,3.57.56"/>
      <path class="cls-2" d="M652.79,198.97c10.03,2.87,16,12.48,18.04,18.22,2.03,5.74-8.95,16.36-16.08,15.6-7.13-.77-5.91-11.03-12.42-18.68-4.8-5.63-11.24-6.84-14.32-7.1.52,1.49.85,3.13.83,4.99-.11,9.21-4.76,12.89-4.76,12.89,0,0-3.64-1.2-8.52-7.42-6.64-8.46-7.98-17.24-7.98-17.24,0,0-6.01,1.88-10.7-1.69-4.89-3.72-2.7-11.05,3.9-11.23,7.94-.22,12.42,8.01,12.42,8.01,0,0,3.25.26,7.83,3.18,1.39.89,3.04,2.3,4.49,4.12,1.92-1.9,10.01-8.59,27.28-3.65Z"/>
      <path class="cls-4" d="M559.81,403.82s58.23-8.99,63.76-8.03"/>
      <g id="Layer-16-2" data-name="Layer-16">
        <path class="cls-4" d="M652.42,407.51c-.71.02-1.41.02-2.09,0-11.98-.41-21.9-11.97-25.12-30.33-1.15-6.55,1.8-31.94,1.04-44.5l-.63-44.12"/>
      </g>
    </g>
  </g>
  <g id="Character_1">
    <g>
      <path class="cls-10" d="M10.81,300.29c-3.12,5.7-16.85,59.76-7.74,81.22,9.1,21.46,191.4-1.41,204.42-11.8s-20.12-72.2-29.21-76.53c-9.09-4.33-162.95-1.13-167.47,7.12Z"/>
      <g id="Layer-21">
        <path class="cls-4" d="M171.11,357.16l17.61,11.48s-26.64,46.34-31.6,49.27c-3.34,1.97-2.74-7.73-1.99-16.99.71-8.8,3.06-18.03,3.06-18.03l-2.84-1.84"/>
        <path class="cls-11" d="M17.77,345.48c14.85,14.09,61.77,23.98,61.77,23.98l-9.7,6.34,34.44,47.15s65.09-42.76,93.07-70.13c9.9-9.68,26.6-27.4,12.52-47.46-13.48-19.2-98.2-14.09-98.2-14.09,0,0-69.99,3.37-88.25,15.71-13.17,8.9-17.55,27.18-5.64,38.49Z"/>
        <path class="cls-4" d="M82.84,366.66l64.6-39.89"/>
        <path class="cls-4" d="M130.98,336.81l-8.81-3.34"/>
        <path class="cls-4" d="M72.65,381.33l-17.52,11.62s26.98,46.12,31.96,49.01c3.36,1.95,2.68-7.75,1.87-17-.78-8.8-3.19-18-3.19-18l2.82-1.86"/>
      </g>
      <g id="Layer-22">
        <path class="cls-10" d="M114.35,214.82c-.89,8.58-3.11,25.46-3.11,25.46,0,0-9.45-20.69-11.3-25.39-27.81,1.67-44.75,12.5-59.13,26.19-13.64,12.98-28.79,43.32-23.39,63.42,5.4,20.09,43.24,25.74,61.79,24.67,5.87-.34,9.27-4.76,11.1-8.17,8.12,2.39,21.38,1.26,24.83.81,10.97-1.44,21.75-7.52,29.67-15.66,5.59,5.51,17.38,9.96,26.82,7.67,16.43-3.99,19.77-18.94,18.42-37.25-2.34-31.71-16.91-52.75-30.36-55.45-11.43-2.29-18.83-.02-18.83-.02,0,0-11.65-5.58-26.51-6.27Z"/>
      </g>
      <g id="Layer-22-2" data-name="Layer-22">
        <path class="cls-10" d="M114.35,214.82c-.89,8.58-3.11,25.46-3.11,25.46,0,0-9.45-20.69-11.3-25.39-27.81,1.67-44.75,12.5-59.13,26.19-13.64,12.98-28.79,43.32-23.39,63.42,5.4,20.09,43.24,25.74,61.79,24.67,5.87-.34,9.27-4.76,11.1-8.17,8.12,2.39,21.38,1.26,24.83.81,10.97-1.44,21.75-7.52,29.67-15.66,5.59,5.51,17.38,9.96,26.82,7.67,16.43-3.99,19.77-18.94,18.42-37.25-2.34-31.71-16.91-52.75-30.36-55.45-11.43-2.29-18.83-.02-18.83-.02,0,0-11.65-5.58-26.51-6.27Z"/>
      </g>
      <g id="Layer-25">
        <path class="cls-4" d="M74.48,247.94s-7.18,9.42-9.71,14.5c-2.53,5.08-6.27,15.55-6.27,15.55"/>
        <path class="cls-4" d="M54.8,279.2s26.49,0,37.5,11.47c2.64,2.76,3.78,6.16,4.01,9.74"/>
        <path class="cls-4" d="M129.25,241.87c-.14,4.77.23,10.76,1.56,18.15,5.48,30.53,13.29,42.71,13.29,42.71"/>
      </g>
      <path class="cls-4" d="M135.89,228.23s-1.58-11.37,2.55-16.16c4.12-4.79,11.48-4.53,11.48-4.53,0,0,.84-3.81,1.14-6.93.3-3.13.57-6.03,2.32-6.37,1.74-.33,4.03,5.52,3.41,9.02-.62,3.5-1.14,5.57-1.14,5.57,0,0,1.11-3.92,1.32-5.9.69-6.25-.32-7.06.52-9.73.73-2.32,3.28-2.02,4.89,2.07,1.13,2.89,1.25,5.56.32,9.6-.76,3.32-1.2,5.51-1.2,5.51,0,0,3.08-1.37,4.85-5.61,1.3-3.11.43-7.12,2.1-7.28,1.67-.16,3.96,2.62,2.95,8.42s-3.49,9.64-7.51,11.81c-4.02,2.17-9.28,1.05-12.76,7.09"/>
      <path class="cls-4" d="M83.01,307.94s7.38-4.29,23.64,1.34c15.83,5.49,19.98,25.39,11.17,24.64-2.26-.19-.31-2.97-3.27-7.97-2.71-4.57-5.47-6.88-5.47-6.88,0,0,6.28,5.9,7.25,11.28,1.59,8.83-5.72,8.19-5.72,8.19,0,0-1.03-4.87-2.86-8.66-1.82-3.79-6.12-8.51-6.12-8.51,0,0,5.01,5.98,6.74,10.18,1.75,4.26,2.62,7.83-1.19,7.65-3.26-.16-9.13-8.35-9.13-8.35,0,0-11.82,3.86-20.52-7.32"/>
      <path class="cls-2" d="M121.52,187.57s10.02-2.62,8.75-9.91c-.85-4.86-8.11-3.97-8.11-3.97,0,0,.81-5.21-5.52-5.55-7.06-.38-14.34,7.2-14.34,7.2,0,0-5.97-3.07-10.98,2.41-5.77,6.31-.81,16.01-.81,16.01,0,0,5.31,0,8.85-3.48,3.64-3.58,8.03-11.65,8.03-11.65,0,0,1.14,1.76,4.92,4.88,4.33,3.57,9.2,4.07,9.2,4.07Z"/>
      <path class="cls-6" d="M121.11,197.43c3.08-7.94-.86-16.87-8.8-19.94-7.94-3.08-16.87.86-19.94,8.8-3.08,7.94.86,16.87,8.8,19.94,7.94,3.08,16.87-.86,19.94-8.8Z"/>
      <path class="cls-10" d="M107.02,192.05c.02-.96-.73-1.76-1.68-1.78-.95-.02-1.74.74-1.76,1.7-.02.96.73,1.76,1.68,1.78.95.02,1.74-.74,1.76-1.7Z"/>
      <path class="cls-2" d="M111.13,189.78c.33-.91-.14-1.92-1.05-2.26-.91-.33-1.92.14-2.26,1.05-.33.91.14,1.92,1.05,2.26.91.33,1.92-.14,2.26-1.05Z"/>
      <path class="cls-2" d="M111.11,197.86c.33-.91-.14-1.92-1.05-2.26-.91-.33-1.92.14-2.26,1.05-.33.91.14,1.92,1.05,2.26.91.33,1.92-.14,2.26-1.05Z"/>
      <path class="cls-2" d="M119.84,190.6c.33-.91-.14-1.92-1.05-2.26-.91-.33-1.92.14-2.26,1.05-.33.91.14,1.92,1.05,2.26.91.33,1.92-.14,2.26-1.05Z"/>
      <path class="cls-4" d="M113.69,189.19l1.39,5.11-3.38-.66"/>
      <path class="cls-3" d="M150.95,392.77l11.81-3.03"/>
      <path class="cls-3" d="M149.81,396.55l11.81-3.03"/>
      <path class="cls-3" d="M93.41,418.79l-11.97-2.31"/>
      <path class="cls-3" d="M91.45,414.08l-11.97-2.31"/>
      <polyline class="cls-5" points="97.7 218.46 93.11 229.98 80.09 220.36"/>
      <polyline class="cls-5" points="116.69 217.44 122.36 226.2 129.23 220.36"/>
      <circle class="cls-7" cx="111.7" cy="250.87" r="3.52"/>
      <circle class="cls-7" cx="113.05" cy="267.81" r="3.52"/>
      <g id="Layer-22-3" data-name="Layer-22">
        <path class="cls-4" d="M40.81,241.08c-13.64,12.98-28.79,43.32-23.39,63.42,4.73,17.58,34.29,24.1,54.03,24.74"/>
      </g>
    </g>
  </g>
</svg>