<?xml version="1.0" encoding="iso-8859-1"?>
<!-- Generator: Adobe Illustrator 28.7.3, SVG Export Plug-In . SVG Version: 9.03 Build 54978)  -->
<svg version="1.1" xmlns="http://www.w3.org/2000/svg" xmlns:xlink="http://www.w3.org/1999/xlink" x="0px" y="0px"
	 viewBox="0 0 500 500" style="enable-background:new 0 0 500 500;" xml:space="preserve">
<g id="Sparkles">
	<g id="Layer-15_2_">
		<g>
			<path style="fill:none;stroke:#263238;stroke-width:2;stroke-linecap:round;stroke-linejoin:round;stroke-miterlimit:10;" d="
				M255.759,428.799v4.085"/>
			<path style="fill:none;stroke:#263238;stroke-width:2;stroke-linecap:round;stroke-linejoin:round;stroke-miterlimit:10;" d="
				M255.759,437.489v4.085"/>
			<path style="fill:none;stroke:#263238;stroke-width:2;stroke-linecap:round;stroke-linejoin:round;stroke-miterlimit:10;" d="
				M262.146,435.186h-4.085"/>
			<path style="fill:none;stroke:#263238;stroke-width:2;stroke-linecap:round;stroke-linejoin:round;stroke-miterlimit:10;" d="
				M253.456,435.186h-4.085"/>
		</g>
		<g>
			<path style="fill:none;stroke:#263238;stroke-width:2;stroke-linecap:round;stroke-linejoin:round;stroke-miterlimit:10;" d="
				M471.983,42.971v4.085"/>
			<path style="fill:none;stroke:#263238;stroke-width:2;stroke-linecap:round;stroke-linejoin:round;stroke-miterlimit:10;" d="
				M471.983,51.662v4.085"/>
			<path style="fill:none;stroke:#263238;stroke-width:2;stroke-linecap:round;stroke-linejoin:round;stroke-miterlimit:10;" d="
				M478.371,49.359h-4.085"/>
			<path style="fill:none;stroke:#263238;stroke-width:2;stroke-linecap:round;stroke-linejoin:round;stroke-miterlimit:10;" d="
				M469.681,49.359h-4.085"/>
		</g>
		<g>
			<path style="fill:none;stroke:#263238;stroke-width:2;stroke-linecap:round;stroke-linejoin:round;stroke-miterlimit:10;" d="
				M327.706,208.556v4.085"/>
			<path style="fill:none;stroke:#263238;stroke-width:2;stroke-linecap:round;stroke-linejoin:round;stroke-miterlimit:10;" d="
				M327.706,217.247v4.085"/>
			<path style="fill:none;stroke:#263238;stroke-width:2;stroke-linecap:round;stroke-linejoin:round;stroke-miterlimit:10;" d="
				M334.093,214.944h-4.085"/>
			<path style="fill:none;stroke:#263238;stroke-width:2;stroke-linecap:round;stroke-linejoin:round;stroke-miterlimit:10;" d="
				M325.403,214.944h-4.085"/>
		</g>
		<g>
			<path style="fill:none;stroke:#263238;stroke-width:2;stroke-linecap:round;stroke-linejoin:round;stroke-miterlimit:10;" d="
				M64.68,65.201v4.085"/>
			<path style="fill:none;stroke:#263238;stroke-width:2;stroke-linecap:round;stroke-linejoin:round;stroke-miterlimit:10;" d="
				M64.68,73.891v4.085"/>
			<path style="fill:none;stroke:#263238;stroke-width:2;stroke-linecap:round;stroke-linejoin:round;stroke-miterlimit:10;" d="
				M71.068,71.589h-4.085"/>
			<path style="fill:none;stroke:#263238;stroke-width:2;stroke-linecap:round;stroke-linejoin:round;stroke-miterlimit:10;" d="
				M62.377,71.589h-4.085"/>
		</g>
	</g>
</g>
<g id="Moon">
	<g>
		<path style="fill:#FFC051;" d="M245.93,148.243c-0.994-9.742,6.098-18.446,15.841-19.44c9.742-0.994,18.445,6.098,19.44,15.841
			c0.993,9.742-6.099,18.446-15.841,19.44C255.627,165.078,246.924,157.986,245.93,148.243z"/>
		<path style="fill:#FFFFFF;" d="M261.757,128.793c-0.617,0.063-1.18,0.239-1.774,0.362c-0.336,0.906-0.533,1.872-0.429,2.896
			c0.362,3.547,3.514,6.116,7.061,5.754c3.325-0.339,5.685-3.151,5.684-6.42c-0.647-0.374-1.274-0.776-1.966-1.067
			c0.052,0.21,0.176,0.393,0.199,0.614c0.256,2.518-1.592,4.735-4.109,4.992c-2.517,0.257-4.776-1.542-5.032-4.059
			c-0.117-1.142,0.248-2.203,0.863-3.076C262.087,128.8,261.925,128.776,261.757,128.793z M278.761,137.472
			c-1.929,0.517-3.352,2.209-3.143,4.26c0.232,2.275,2.268,3.934,4.543,3.702c0.436-0.044,0.694-0.397,1.075-0.562
			c-0.007-0.076-0.015-0.148-0.023-0.224c-0.054-0.54-0.237-1.027-0.339-1.55c-0.293,0.189-0.535,0.462-0.9,0.499
			c-1.246,0.127-2.347-0.811-2.474-2.057c-0.127-1.246,0.766-2.342,2.012-2.469c0.036-0.004,0.059,0.038,0.094,0.036
			C279.348,138.541,279.075,138.002,278.761,137.472z M267.258,149.874c-2.683,0.274-4.619,2.65-4.346,5.333
			c0.274,2.683,2.651,4.619,5.333,4.346c2.683-0.274,4.664-2.655,4.39-5.338C272.363,151.533,269.941,149.6,267.258,149.874z
			 M267.445,151.711c1.653-0.169,3.14,1.043,3.309,2.696c0.169,1.653-1.043,3.14-2.696,3.309c-1.653,0.169-3.095-1.048-3.263-2.701
			C264.626,153.362,265.793,151.88,267.445,151.711z M254.347,155.13c-1.736,0.177-3.132,1.209-3.993,2.581
			c0.482,0.564,0.85,1.216,1.397,1.714c0.466-1.242,1.379-2.269,2.787-2.412c1.979-0.202,3.748,1.24,3.95,3.219
			c0.108,1.061-0.273,2.036-0.94,2.767c0.61,0.223,1.193,0.473,1.83,0.628c0.701-1.022,1.128-2.257,0.992-3.588
			C260.065,157.031,257.356,154.823,254.347,155.13z"/>
	</g>
</g>
<g id="Tab_2">
	<g id="Layer-16_1_">
		<path style="fill:none;stroke:#263238;stroke-width:2;stroke-linecap:round;stroke-linejoin:round;stroke-miterlimit:10;" d="
			M307.674,109.038v-22.27c0-3.282,2.661-5.943,5.943-5.943h127.869c3.282,0,5.943,2.66,5.943,5.943v84.655
			c0,3.282-2.661,5.943-5.943,5.943H313.616c-3.282,0-5.943-2.66-5.943-5.943V109.038"/>
		<path style="fill:none;stroke:#263238;stroke-width:2;stroke-linecap:round;stroke-linejoin:round;stroke-miterlimit:10;" d="
			M307.674,89.869h139.755"/>
		<path style="fill:#263238;" d="M314.568,85.822c0-0.594,0.481-1.075,1.074-1.075c0.594,0,1.075,0.481,1.075,1.075
			c0,0.594-0.481,1.075-1.075,1.075C315.049,86.896,314.568,86.415,314.568,85.822z"/>
		<path style="fill:#263238;" d="M318.708,85.822c0-0.594,0.481-1.075,1.075-1.075c0.593,0,1.074,0.481,1.074,1.075
			c0,0.594-0.481,1.075-1.074,1.075C319.189,86.896,318.708,86.415,318.708,85.822z"/>
		<path style="fill:#263238;" d="M322.848,85.822c0-0.594,0.481-1.075,1.075-1.075c0.594,0,1.074,0.481,1.074,1.075
			c0,0.594-0.481,1.075-1.074,1.075C323.329,86.896,322.848,86.415,322.848,85.822z"/>
		<path style="fill:none;stroke:#FFC051;stroke-width:2;stroke-linecap:round;stroke-linejoin:round;stroke-miterlimit:10;" d="
			M318.868,99.396v66.968h116.715"/>
		<path style="fill:none;stroke:#FFC051;stroke-width:2;stroke-linecap:round;stroke-linejoin:round;stroke-miterlimit:10;" d="
			M318.708,146.444h116.875"/>
		<path style="fill:none;stroke:#FFC051;stroke-width:2;stroke-linecap:round;stroke-linejoin:round;stroke-miterlimit:10;" d="
			M318.708,126.377h116.875"/>
		<path style="fill:none;stroke:#FFC051;stroke-width:2;stroke-linecap:round;stroke-linejoin:round;stroke-miterlimit:10;" d="
			M318.708,106.31h116.875"/>
		<path style="fill:none;stroke:#FFC051;stroke-width:2;stroke-linecap:round;stroke-linejoin:round;stroke-miterlimit:10;" d="
			M341.324,99.396v66.968"/>
		<path style="fill:none;stroke:#FFC051;stroke-width:2;stroke-linecap:round;stroke-linejoin:round;stroke-miterlimit:10;" d="
			M366.353,99.396v66.968"/>
		<path style="fill:none;stroke:#FFC051;stroke-width:2;stroke-linecap:round;stroke-linejoin:round;stroke-miterlimit:10;" d="
			M391.382,99.396v66.968"/>
		<path style="fill:none;stroke:#FFC051;stroke-width:2;stroke-linecap:round;stroke-linejoin:round;stroke-miterlimit:10;" d="
			M416.411,99.396v66.968"/>
		<path style="fill:none;stroke:#FF367C;stroke-width:2;stroke-linecap:round;stroke-linejoin:round;stroke-miterlimit:10;" d="
			M320.123,152.16c0.734-2.828,5.43-13.364,6.913-15.839c12.127-20.248,16.516,8.321,25.801,6.994
			c10.675-1.525,9.584-22.399,20.972-22.399c10.119,0,10.702,14.11,17.817,15.533c6.27,1.254,12.202-7.318,19.479-6.408
			c6.631,0.829,9.427,9.892,15.507,11.919c2.737,0.912,6.171,0.403,8.971,0.256"/>
	</g>
</g>
<g id="Tab_1">
	<g>
		<path style="fill:#FF367C;" d="M137.293,39.199h99.584c0,0,0.574-4.695-0.497-7.672c-1.072-2.977-3.787-4.238-3.787-4.238
			l-91.145-0.319c0,0-2.785,1.5-3.824,4.557C136.585,34.585,137.293,39.199,137.293,39.199z"/>
		<path style="fill:none;stroke:#FF367C;stroke-width:2;stroke-linecap:round;stroke-linejoin:round;stroke-miterlimit:10;" d="
			M210.436,98.465h20.913c3.206,0,5.806-2.599,5.806-5.807V32.776c0-3.206-2.599-5.806-5.806-5.806h-88.528
			c-3.207,0-5.807,2.599-5.807,5.806v59.883c0,3.207,2.599,5.807,5.807,5.807h56.987c0,0,0.928,2.028-2.191,6.407
			c-3.119,4.379-9.342,6.729-9.342,6.729s10.516,0.099,16.057-3.185C209.873,105.132,210.436,98.465,210.436,98.465z"/>
		<path style="fill:#FFFFFF;" d="M144.081,33.085c0-0.928,0.685-1.68,1.531-1.68c0.846,0,1.532,0.752,1.532,1.68
			c0,0.928-0.686,1.68-1.532,1.68C144.766,34.765,144.081,34.013,144.081,33.085z"/>
		<path style="fill:#FFFFFF;" d="M149.98,33.085c0-0.928,0.686-1.68,1.532-1.68c0.846,0,1.532,0.752,1.532,1.68
			c0,0.928-0.686,1.68-1.532,1.68C150.666,34.765,149.98,34.013,149.98,33.085z"/>
		<path style="fill:#FFFFFF;" d="M155.88,33.085c0-0.928,0.686-1.68,1.532-1.68c0.846,0,1.532,0.752,1.532,1.68
			c0,0.928-0.686,1.68-1.532,1.68C156.566,34.765,155.88,34.013,155.88,33.085z"/>
		<path style="fill:#FF367C;" d="M146.107,58.985c0-0.53,0.43-0.96,0.96-0.96h10.916c0.53,0,0.96,0.43,0.96,0.96v2.412
			c0,0.53-0.43,0.96-0.96,0.96h-10.916c-0.53,0-0.96-0.43-0.96-0.96V58.985z"/>
		<path style="fill:#FF367C;" d="M155.236,67.845c0-0.53,0.43-0.96,0.96-0.96h10.916c0.53,0,0.961,0.43,0.961,0.96v2.411
			c0,0.53-0.431,0.961-0.961,0.961h-10.916c-0.53,0-0.96-0.431-0.96-0.961V67.845z"/>
		<path style="fill:#FF367C;" d="M155.236,76.705c0-0.53,0.43-0.961,0.96-0.961h10.916c0.53,0,0.961,0.431,0.961,0.961v2.411
			c0,0.53-0.431,0.96-0.961,0.96h-10.916c-0.53,0-0.96-0.43-0.96-0.96V76.705z"/>
		<path style="fill:#FF367C;" d="M146.107,85.564c0-0.53,0.43-0.96,0.96-0.96h10.916c0.53,0,0.96,0.43,0.96,0.96v2.412
			c0,0.53-0.43,0.96-0.96,0.96h-10.916c-0.53,0-0.96-0.43-0.96-0.96V85.564z"/>
		<path style="fill:none;stroke:#263238;stroke-width:2;stroke-linecap:round;stroke-linejoin:round;stroke-miterlimit:10;" d="
			M164.105,59.742h40.631"/>
		<path style="fill:none;stroke:#263238;stroke-width:2;stroke-linecap:round;stroke-linejoin:round;stroke-miterlimit:10;" d="
			M208.791,59.742h11.491"/>
		<path style="fill:none;stroke:#FFC051;stroke-width:2;stroke-linecap:round;stroke-linejoin:round;stroke-miterlimit:10;" d="
			M170.716,63.664h25.678"/>
		<path style="fill:none;stroke:#FFC051;stroke-width:2;stroke-linecap:round;stroke-linejoin:round;stroke-miterlimit:10;" d="
			M201.321,63.664h28.585"/>
		<path style="fill:none;stroke:#263238;stroke-width:2;stroke-linecap:round;stroke-linejoin:round;stroke-miterlimit:10;" d="
			M171.066,69.051h16.341"/>
		<path style="fill:none;stroke:#263238;stroke-width:2;stroke-linecap:round;stroke-linejoin:round;stroke-miterlimit:10;" d="
			M193.061,69.051h21.476"/>
		<path style="fill:none;stroke:#FFC051;stroke-width:2;stroke-linecap:round;stroke-linejoin:round;stroke-miterlimit:10;" d="
			M171.241,77.911h25.153"/>
		<path style="fill:none;stroke:#FFC051;stroke-width:2;stroke-linecap:round;stroke-linejoin:round;stroke-miterlimit:10;" d="
			M201.321,77.911h16.652"/>
		<path style="fill:none;stroke:#263238;stroke-width:2;stroke-linecap:round;stroke-linejoin:round;stroke-miterlimit:10;" d="
			M164.105,85.958h26.915"/>
		<path style="fill:none;stroke:#263238;stroke-width:2;stroke-linecap:round;stroke-linejoin:round;stroke-miterlimit:10;" d="
			M194.742,85.958h25.539"/>
		<path style="fill:none;stroke:#FFC051;stroke-width:2;stroke-linecap:round;stroke-linejoin:round;stroke-miterlimit:10;" d="
			M170.716,89.881h25.678"/>
		<path style="fill:none;stroke:#FFC051;stroke-width:2;stroke-linecap:round;stroke-linejoin:round;stroke-miterlimit:10;" d="
			M201.321,89.881h25.294"/>
		<path style="fill:none;stroke:#FF367C;stroke-width:2;stroke-linecap:round;stroke-linejoin:round;stroke-miterlimit:10;" d="
			M151.844,45.625l-4.639,3.456l4.639,4.012"/>
		<path style="fill:none;stroke:#FF367C;stroke-width:2;stroke-linecap:round;stroke-linejoin:round;stroke-miterlimit:10;" d="
			M161.919,45.625l4.639,3.456l-4.639,4.012"/>
		<path style="fill:none;stroke:#FF367C;stroke-width:2;stroke-linecap:round;stroke-linejoin:round;stroke-miterlimit:10;" d="
			M159.354,45.625l-4.889,7.468"/>
	</g>
</g>
<g id="Rocket">
	<g>
		<path style="fill:#FF367C;" d="M231.025,193.829c-0.922-0.002-1.859,0.383-2.411,1.168l-10.638,13.874h25.992l-10.55-13.874
			C232.87,194.21,231.948,193.83,231.025,193.829z"/>
		<path style="fill:none;stroke:#FFC051;stroke-width:2;stroke-linecap:round;stroke-linejoin:round;stroke-miterlimit:10;" d="
			M138.567,427.225c0,0-2.263-8.213,3.84-12.083c6.103-3.871,11.294-1.307,11.294-1.307s-0.295-8.877,5.927-12.272
			c6.221-3.395,12.837,0.176,12.837,0.176s-0.102-4.784,3.841-6.025c3.943-1.241,6.332,2.397,6.332,2.397l5.077-27.974h6.131
			l5.843,28.068c0,0,1.424-5.917,9.855-7.066c8.432-1.149,13.611,5.632,13.611,5.632l3.139-22.724h9.105l2.91,21.804
			c0,0,4.662-5.738,13.06-5.618c8.398,0.12,11.002,6.827,11.002,6.827l5.924-26.239h6.55l3.56,26.214c0,0,4.4-2.958,9.204-0.797
			c4.804,2.163,3.89,8.143,3.89,8.143s7.084-4.398,12.961-1.495c5.878,2.903,5.45,12.158,5.45,12.158s5.468-1.459,9.043,1.452
			c3.575,2.91,3.458,10.731,3.458,10.731"/>
		<path style="fill:none;stroke:#FF367C;stroke-width:2;stroke-linecap:round;stroke-linejoin:round;stroke-miterlimit:10;" d="
			M264.494,240.801c0-0.369,0.046-0.731,0.132-1.046l7.961-16.16c0.344-1.258,1.155-1.255,1.498,0.006l7.895,16.156
			c0.084,0.312,0.13,0.673,0.13,1.04v94.31c0,1.098-0.394,1.988-0.88,1.988h-15.857c-0.486,0-0.88-0.89-0.88-1.988V240.801z"/>
		<path style="fill:none;stroke:#FF367C;stroke-width:2;stroke-linecap:round;stroke-linejoin:round;stroke-miterlimit:10;" d="
			M265.371,240.743h15.863"/>
		<path style="fill:none;stroke:#FF367C;stroke-width:2;stroke-linecap:round;stroke-linejoin:round;stroke-miterlimit:10;" d="
			M273.302,240.743v69.253"/>
		<path style="fill:none;stroke:#FF367C;stroke-width:2;stroke-linecap:round;stroke-linejoin:round;stroke-miterlimit:10;" d="
			M265.371,260.929h15.863"/>
		<path style="fill:none;stroke:#FF367C;stroke-width:2;stroke-linecap:round;stroke-linejoin:round;stroke-miterlimit:10;" d="
			M265.371,281.115h15.863"/>
		<path style="fill:none;stroke:#FF367C;stroke-width:2;stroke-linecap:round;stroke-linejoin:round;stroke-miterlimit:10;" d="
			M265.371,301.3h15.863"/>
		<path style="fill:none;stroke:#FF367C;stroke-width:2;stroke-linecap:round;stroke-linejoin:round;stroke-miterlimit:10;" d="
			M179.949,240.801c0-0.369,0.046-0.731,0.132-1.046l7.961-16.16c0.345-1.258,1.156-1.255,1.499,0.006l7.895,16.156
			c0.085,0.312,0.13,0.673,0.13,1.04v94.31c0,1.098-0.394,1.988-0.88,1.988h-15.857c-0.486,0-0.88-0.89-0.88-1.988V240.801z"/>
		<path style="fill:#FFC051;stroke:#FF367C;stroke-width:2;stroke-linecap:round;stroke-linejoin:round;stroke-miterlimit:10;" d="
			M180.826,240.743h15.863"/>
		<path style="fill:#FFC051;stroke:#FF367C;stroke-width:2;stroke-linecap:round;stroke-linejoin:round;stroke-miterlimit:10;" d="
			M188.757,240.743v69.637"/>
		<path style="fill:#FFC051;stroke:#FF367C;stroke-width:2;stroke-linecap:round;stroke-linejoin:round;stroke-miterlimit:10;" d="
			M180.826,260.929h15.863"/>
		<path style="fill:#FFC051;stroke:#FF367C;stroke-width:2;stroke-linecap:round;stroke-linejoin:round;stroke-miterlimit:10;" d="
			M180.826,281.115h15.863"/>
		<path style="fill:#FFC051;stroke:#FF367C;stroke-width:2;stroke-linecap:round;stroke-linejoin:round;stroke-miterlimit:10;" d="
			M180.826,301.3h15.863"/>
		<path style="fill:none;stroke:#FF367C;stroke-width:2;stroke-linecap:round;stroke-linejoin:round;stroke-miterlimit:10;" d="
			M249.708,221.817h-37.602"/>
		<path style="fill:none;stroke:#FFC051;stroke-width:2;stroke-linecap:round;stroke-linejoin:round;stroke-miterlimit:10;" d="
			M206.036,247.281v39.555"/>
		<path style="fill:none;stroke:#FFC051;stroke-width:2;stroke-linecap:round;stroke-linejoin:round;stroke-miterlimit:10;" d="
			M209.544,247.281v39.555"/>
		<path style="fill:none;stroke:#FFC051;stroke-width:2;stroke-linecap:round;stroke-linejoin:round;stroke-miterlimit:10;" d="
			M213.053,247.281v39.555"/>
		<path style="fill:none;stroke:#FFC051;stroke-width:2;stroke-linecap:round;stroke-linejoin:round;stroke-miterlimit:10;" d="
			M216.562,247.281v39.555"/>
		<path style="fill:none;stroke:#FFC051;stroke-width:2;stroke-linecap:round;stroke-linejoin:round;stroke-miterlimit:10;" d="
			M245.233,247.281v39.555"/>
		<path style="fill:none;stroke:#FFC051;stroke-width:2;stroke-linecap:round;stroke-linejoin:round;stroke-miterlimit:10;" d="
			M248.742,247.281v39.555"/>
		<path style="fill:none;stroke:#FFC051;stroke-width:2;stroke-linecap:round;stroke-linejoin:round;stroke-miterlimit:10;" d="
			M252.251,247.281v39.555"/>
		<path style="fill:none;stroke:#FFC051;stroke-width:2;stroke-linecap:round;stroke-linejoin:round;stroke-miterlimit:10;" d="
			M255.759,247.281v39.555"/>
		<path style="fill:#FF367C;" d="M247.748,225.376c0.514,0,0.931,0.422,0.931,0.943c0,0.521-0.417,0.944-0.931,0.944
			c-0.515,0-0.931-0.422-0.931-0.944C246.817,225.799,247.234,225.376,247.748,225.376z"/>
		<path style="fill:#FF367C;" d="M239.24,225.376c0.514,0,0.931,0.422,0.931,0.943c0,0.521-0.417,0.944-0.931,0.944
			c-0.514,0-0.931-0.422-0.931-0.944C238.309,225.799,238.726,225.376,239.24,225.376z"/>
		<path style="fill:#FF367C;" d="M230.732,225.376c0.515,0,0.931,0.422,0.931,0.943c0,0.521-0.417,0.944-0.931,0.944
			c-0.514,0-0.931-0.422-0.931-0.944C229.801,225.799,230.218,225.376,230.732,225.376z"/>
		<path style="fill:#FF367C;" d="M222.224,225.376c0.514,0,0.931,0.422,0.931,0.943c0,0.521-0.417,0.944-0.931,0.944
			c-0.514,0-0.931-0.422-0.931-0.944C221.293,225.799,221.71,225.376,222.224,225.376z"/>
		<path style="fill:#FF367C;" d="M213.648,225.592c0.514,0,0.932,0.422,0.932,0.944c0,0.52-0.417,0.944-0.932,0.944
			s-0.931-0.423-0.931-0.944C212.716,226.014,213.133,225.592,213.648,225.592z"/>
		<path style="fill:#FF367C;" d="M267.141,355.905c0,0-4.408,3.554-7.31,7.763c-2.902,4.209-4.072,9.074-4.072,9.074h30.09
			c0,0-0.549-4.865-3.373-9.074c-2.824-4.209-7.25-7.763-7.25-7.763H267.141z"/>
		<path style="fill:#263238;" d="M259.767,353.736c0-0.645,0.517-1.169,1.153-1.169h21.552c0.637,0,1.153,0.523,1.153,1.169v4.34
			c0,0.645-0.516,1.169-1.153,1.169h-21.552c-0.637,0-1.153-0.523-1.153-1.169V353.736z"/>
		<path style="fill:#FF367C;" d="M186.812,355.905c0,0-4.415,3.554-7.323,7.763c-2.908,4.209-4.079,9.074-4.079,9.074h30.141
			c0,0-0.55-4.865-3.379-9.074c-2.829-4.209-7.262-7.763-7.262-7.763H186.812z"/>
		<path style="fill:#263238;" d="M178.552,353.736c0-0.645,0.516-1.169,1.153-1.169h21.553c0.637,0,1.153,0.523,1.153,1.169v4.34
			c0,0.645-0.516,1.169-1.153,1.169h-21.553c-0.637,0-1.153-0.523-1.153-1.169V353.736z"/>
		<path style="fill:#263238;" d="M224.338,365.316c0,0-3.467,4.302-5.087,6.848c-2.548,4.004-4.095,8.004-4.095,8.004h30.256
			c0,0-0.727-3.178-3.392-8.004c-2.664-4.826-4.488-6.848-4.488-6.848H224.338z"/>
		<path style="fill:none;stroke:#263238;stroke-width:2;stroke-linecap:round;stroke-linejoin:round;stroke-miterlimit:10;" d="
			M220.836,360.412c0-0.645,0.517-1.168,1.153-1.168h18.293c0.637,0,1.153,0.523,1.153,1.168v3.735c0,0.645-0.516,1.168-1.153,1.168
			h-18.293c-0.637,0-1.153-0.523-1.153-1.168V360.412z"/>
		<path style="fill:none;stroke:#FF367C;stroke-width:2;stroke-linecap:round;stroke-linejoin:round;stroke-miterlimit:10;" d="
			M202.748,229.484c0-0.461,0.145-0.913,0.42-1.304l25.452-33.184c1.102-1.57,3.694-1.566,4.789,0.008l25.241,33.179
			c0,0,0.416,0.839,0.416,1.297v117.635c0,1.37-1.259,2.479-2.813,2.479h-50.692c-1.554,0-2.813-1.11-2.813-2.479V229.484z"/>
		<path style="fill:none;stroke:#FF367C;stroke-width:2;stroke-linecap:round;stroke-linejoin:round;stroke-miterlimit:10;" d="
			M202.748,247.198h56.318"/>
		<path style="fill:#FFFFFF;stroke:#263238;stroke-width:2;stroke-linecap:round;stroke-linejoin:round;stroke-miterlimit:10;" d="
			M212.16,268.192c0,0-3.036,11.598-11.334,25.442c-8.299,13.845-15,17.296-23.348,31.283c-8.348,13.987-7.264,27.482-7.264,27.482
			l44.905,0.169l0.334-84.375H212.16z"/>
		<path style="fill:#FFFFFF;stroke:#263238;stroke-width:2;stroke-linecap:round;stroke-linejoin:round;stroke-miterlimit:10;" d="
			M249.644,268.192c0,0,3.036,11.598,11.335,25.442c8.298,13.845,15,17.296,23.347,31.283c8.348,13.987,7.265,27.482,7.265,27.482
			l-44.905,0.169l-0.334-84.375H249.644z"/>
		<path style="fill:#FFC051;" d="M184.494,341.084c0-2.203,1.763-3.989,3.937-3.989c2.175,0,3.938,1.786,3.938,3.989
			c0,2.203-1.763,3.99-3.938,3.99C186.256,345.073,184.494,343.287,184.494,341.084z"/>
		<path style="fill:#FF367C;" d="M194.977,341.084c0-1.715,1.373-3.106,3.065-3.106s3.065,1.391,3.065,3.106
			c0,1.716-1.373,3.106-3.065,3.106S194.977,342.799,194.977,341.084z"/>
		<path style="fill:#FF367C;" d="M257.444,337.978h16.353v6.211h-16.353V337.978z"/>
		<path style="fill:#FF367C;" d="M211.194,260.508c0-0.379,0.102-0.75,0.294-1.073l17.751-27.279
			c0.768-1.291,2.576-1.287,3.341,0.006l17.604,27.274c0.189,0.321,0.29,0.69,0.29,1.066v96.702c0,1.126-0.879,2.039-1.962,2.039
			h-35.354c-1.084,0-1.963-0.913-1.963-2.039V260.508z"/>
		<path style="fill:none;stroke:#263238;stroke-width:2;stroke-linecap:round;stroke-linejoin:round;stroke-miterlimit:10;" d="
			M213.648,260.338h34.518"/>
		<path style="fill:none;stroke:#263238;stroke-width:2;stroke-linecap:round;stroke-linejoin:round;stroke-miterlimit:10;" d="
			M230.833,260.338v64.579"/>
		<path style="fill:none;stroke:#263238;stroke-width:2;stroke-linecap:round;stroke-linejoin:round;stroke-miterlimit:10;" d="
			M213.574,305.568h34.518"/>
		<path style="fill:none;stroke:#263238;stroke-width:2;stroke-linecap:round;stroke-linejoin:round;stroke-miterlimit:10;" d="
			M213.574,282.953h34.518"/>
		<path style="fill:#263238;" d="M223.497,247.198h6.348v6.584h-7.102L223.497,247.198z"/>
		<path style="fill:#263238;" d="M231.848,247.198h6.426l0.676,6.584h-7.102V247.198z"/>
		<path style="fill:#263238;" d="M230.902,231.187c-0.643-0.001-1.275,0.309-1.66,0.938l-5.746,8.618h14.777l-5.694-8.601
			C232.198,231.512,231.546,231.188,230.902,231.187z"/>
		<path style="fill:#263238;" d="M211.194,324.917h39.279v6.728h-39.279V324.917z"/>
	</g>
</g>
<g id="Character_2">
	<g>
		<path style="fill:none;stroke:#FF367C;stroke-width:2;stroke-linecap:round;stroke-linejoin:round;stroke-miterlimit:10;" d="
			M362.698,341.458h86.809v124.475h-86.809V341.458z"/>
		<g id="Layer-8_00000077284808398039145700000000307843206339746739_">
			<path style="fill:#263238;" d="M337.046,307.954c0,0-41.529-3.775-36.096,29.925c5.433,33.699,71.186,95.089,71.186,95.089
				l35.249-35.26l-50.151-62.991l59.26-28.822L337.046,307.954z"/>
		</g>
		<path style="fill:#FF367C;" d="M406.199,308.474c0,0-69.095-7.176-89.243,11.9c-14.246,13.488-8.699,119.204-8.699,119.204
			l54.441-0.043l2.954-83.624c0,0,59.189-2.267,68.678-14.453c9.488-12.187,3.836-35.442,3.836-35.442L406.199,308.474z"/>
		<path style="fill:none;stroke:#FFFFFF;stroke-width:2;stroke-linecap:round;stroke-linejoin:round;stroke-miterlimit:10;" d="
			M374.427,311.914c0,0-46.532,4.007-51.426,15.294c-10.608,24.46-6.94,104.033-6.94,104.033"/>
		<path style="fill:none;stroke:#263238;stroke-width:2;stroke-linecap:round;stroke-linejoin:round;stroke-miterlimit:10;" d="
			M353.284,443.771c0,5.271,0.416,19.745,0.416,19.745s-61.965,3.762-68.177,0.739c-4.186-2.037,5.301-7.782,14.478-13.09
			c8.722-5.046,18.99-8.734,18.99-8.734"/>
		<path style="fill:none;stroke:#FF367C;stroke-width:2;stroke-linecap:round;stroke-linejoin:round;stroke-miterlimit:10;" d="
			M316.823,451.351l-10.564-9.168"/>
		<path style="fill:none;stroke:#FF367C;stroke-width:2;stroke-linecap:round;stroke-linejoin:round;stroke-miterlimit:10;" d="
			M311.54,453.683l-10.564-9.168"/>
		<g id="Layer-9_00000150824453453005632600000009759791961382738824_">
			<path style="fill:#FFC051;" d="M347.509,242.489c11.605-12.745,26.21-22.027,60.661-21.255
				c22.259,0.498,48.058,7.422,66.279,33.189c16.949,23.971,17.35,44.185,7.983,56.696c-10.338,13.81-31.107,13.422-46.969,7.595
				c-7.999-2.938-12.751-9.148-12.751-9.148s-18.005,3.107-37.827-2.374c-27.466-7.595-46.677-7.26-46.677-7.26
				S330.596,261.062,347.509,242.489z"/>
		</g>
		<g id="Layer-10_00000080890824144742461440000006934492209385330349_">
			<path style="fill:#FF367C;" d="M424.11,222.401l-4.203,22.867l-46.392-1.381l3.754-20.641l-7.418,2.116
				c0,0-3.127,17.115-5.901,26.047c-2.775,8.933-4.442,6.318-5.199,9.683c-4.791,21.306-8.064,49.491-8.064,49.491
				s34.001,3.18,51.078,1.331c17.077-1.849,20.948-2.348,20.948-2.348s-2.612-4.629-1.927-20.549
				c0.684-15.921,13.543-16.161,13.543-16.161s-5.818-11.516-5.497-23.766c0.321-12.25,3.402-25.666,3.402-25.666L424.11,222.401z"
				/>
		</g>
		<g id="Layer-14_00000049928314337159216630000016245186359852063678_">
			<path style="fill:#FFFFFF;" d="M378.657,195.003c0-8.132,6.593-14.725,14.726-14.725c8.133,0,14.725,6.593,14.725,14.725
				c0,8.133-6.592,14.726-14.725,14.726C385.25,209.729,378.657,203.135,378.657,195.003z"/>
		</g>
		<path style="fill:none;stroke:#263238;stroke-width:2;stroke-linecap:round;stroke-linejoin:round;stroke-miterlimit:10;" d="
			M407.661,404.672c3.656,3.632,13.982,13.316,13.982,13.316s-40.084,45.574-46.462,47.801c-4.298,1.5-1.745-9.039,0.896-19.062
			c2.509-9.526,7.026-19.19,7.026-19.19"/>
		<path style="fill:none;stroke:#FF367C;stroke-width:2;stroke-linecap:round;stroke-linejoin:round;stroke-miterlimit:10;" d="
			M387.796,435.187l-13.638,1.011"/>
		<path style="fill:none;stroke:#FF367C;stroke-width:2;stroke-linecap:round;stroke-linejoin:round;stroke-miterlimit:10;" d="
			M385.774,440.458l-13.638,1.01"/>
		<path style="fill:#FFFFFF;stroke:#263238;stroke-width:2;stroke-linecap:round;stroke-linejoin:round;stroke-miterlimit:10;" d="
			M299.382,257.006c-3.476,0-6.301,2.986-6.301,6.694l6.811,40.902c0,3.707,2.824,6.732,6.301,6.732c0.014,0,0.026,0,0.039,0
			l93.761,0.472c1.515,0,2.779-1.263,2.779-2.779v-1.956c0-1.515-1.263-2.74-2.779-2.74l-18.649-0.473l-6.654-40.158
			c-0.001-3.708-2.826-6.694-6.302-6.694H299.382z"/>
		<path style="fill:#FF367C;" d="M329.509,286.104c0-2.349,1.905-4.254,4.254-4.254c2.349,0,4.254,1.904,4.254,4.254
			c0,2.349-1.905,4.254-4.254,4.254C331.414,290.358,329.509,288.454,329.509,286.104z"/>
		<path style="fill:#263238;" d="M411.014,180.62c4.264,4.653,1.805,12.739,1.805,12.739s8.299,4.101,6.938,12.86
			c-0.936,6.02-7.781,9.694-13.417,8.294c-5.637-1.399-6.911-7.804-6.911-7.804l5.255-4.288c0,0-4.07-2.274-9.593-8.204
			c-5.857-6.287-7.654-12.95-7.654-12.95s-3.306,0.653-5.07,3.123c-2.889,4.044-4.163,11.435-4.163,11.435s-6.608-1.987-5.523-6.748
			c0.695-3.047,4.315-5.352,4.315-5.352s-1.28-8.689,7.705-10.632c8.337-1.804,13.466,4.718,13.466,4.718
			S405.037,174.1,411.014,180.62z"/>
		<path style="fill:#263238;" d="M414.558,182.076c-0.694-1.675,8.507-18.476,16.657-17.472c7.859,0.968,11.071,10.122,5.182,14.389
			C430.948,182.942,415.046,183.255,414.558,182.076z"/>
		<path style="fill:none;stroke:#263238;stroke-width:2;stroke-linecap:round;stroke-linejoin:round;stroke-miterlimit:10;" d="
			M379.85,200.599c-3.122-7.282,0.251-15.715,7.533-18.837c7.283-3.122,15.716,0.251,18.838,7.534
			c3.122,7.282-0.252,15.715-7.534,18.837C391.405,211.255,382.971,207.882,379.85,200.599z"/>
		<path style="fill:#FF367C;" d="M390.361,196.434c-0.068-0.89,0.59-1.667,1.472-1.735c0.881-0.067,1.651,0.6,1.72,1.49
			c0.068,0.891-0.591,1.667-1.473,1.736C391.199,197.992,390.429,197.325,390.361,196.434z"/>
		<path style="fill:#263238;" d="M387.379,192.506c-0.062-0.821,0.551-1.537,1.373-1.6c0.821-0.063,1.537,0.551,1.6,1.372
			c0.063,0.822-0.551,1.538-1.372,1.601C388.158,193.941,387.442,193.327,387.379,192.506z"/>
		<path style="fill:#263238;" d="M379.987,191.015c-0.063-0.821,0.551-1.538,1.372-1.6c0.822-0.063,1.538,0.551,1.601,1.372
			c0.062,0.821-0.551,1.538-1.373,1.6C380.767,192.451,380.05,191.836,379.987,191.015z"/>
		<path style="fill:none;stroke:#263238;stroke-width:2;stroke-linecap:round;stroke-linejoin:round;stroke-miterlimit:10;" d="
			M388.98,198.957c0,0-0.515,1.382-1.493,1.817c-1.448,0.645-2.877-0.043-2.877-0.043"/>
		<path style="fill:none;stroke:#263238;stroke-width:2;stroke-linecap:round;stroke-linejoin:round;stroke-miterlimit:10;" d="
			M385.134,191.655l-3.653,5.138l3.411,0.346"/>
		<path style="fill:#FFFFFF;stroke:#263238;stroke-width:2;stroke-linecap:round;stroke-linejoin:round;stroke-miterlimit:10;" d="
			M424.161,287.789c-2.437-6.679-12.12-11.385-20.735-10.483c-13.93,1.458-24.561,10.585-21.523,14.384
			c1.457,1.821,6.252-1.791,10.257-3.643c3.702-1.714,5.341-1.846,5.341-1.846s-5.577,1.234-8.466,4.632
			c-5.273,6.207,1.571,8.058,1.571,8.058s0.765-1.717,3.349-3.72c2.584-2.002,6.318-3.138,6.318-3.138s-4.593,1.571-7.286,3.918
			c-2.729,2.378-3.332,4.068-1.202,5.781c2.932,2.356,12.888-4.89,12.888-4.89s6.801,7.007,15.66,3.968"/>
		<g id="Layer-6_00000056394846547527816010000003111755259261565340_">
			<path style="fill:#FFFFFF;stroke:#263238;stroke-width:2;stroke-linecap:round;stroke-linejoin:round;stroke-miterlimit:10;" d="
				M300.092,306.099c0,0,0.344-3.977,3.87-6.747c3.527-2.772,5.209-2.305,7.676-2.732c2.981-0.516,2.659-3.525,1.346-4.402
				c-0.43-0.286-1.797-1.034-4.417-1.007c-5.46,0.057-9.909,1.427-9.909,1.427s3.31-0.839,7.256-1.342
				c3.947-0.503,7.28,0.892,7.28,0.892s3.221-3.279-0.068-5.545c-2.508-1.728-6.155-2.065-9.766-1.813
				c-3.611,0.251-5.76,0.827-5.76,0.827s2.055-0.693,6.026-0.944c7.103-0.448,9.988,2.174,9.988,2.174s0.905-3.199-2.46-6.038
				c-2.747-2.318-10.213-3.121-15.48-1.544c-5.827,1.744-12.324,10.122-7.906,18.618
				C291.478,305.054,300.092,306.099,300.092,306.099z"/>
		</g>
		<circle style="fill:#FFFFFF;" cx="422.613" cy="252.416" r="2.809"/>
		<circle style="fill:#FFFFFF;" cx="370.706" cy="250.374" r="2.808"/>
		<path style="fill:#FFC051;" d="M463.294,284.405c-8.737-5.488-22.055-13.874-32.965-10.422
			c-12.001,3.797-15.054,22.508-10.284,32.524c4.253,8.93,13.533,12.425,22.628,14.378"/>
		<path style="fill:none;stroke:#263238;stroke-width:2;stroke-linecap:round;stroke-linejoin:round;stroke-miterlimit:10;" d="
			M463.294,284.405c-8.737-5.488-22.055-13.874-32.965-10.422c-12.001,3.797-15.054,22.508-10.284,32.524
			c4.253,8.93,13.533,12.425,22.628,14.378"/>
	</g>
</g>
<g id="Character_1">
	<g>
		<g>
			<path style="fill:#FF367C;" d="M176.777,160.184c-13.25,7.887-18.778,19.497-18.778,19.497s-6.283-15.546-12.507-23.973
				c-3.615-4.894-8.336-8.973-13.553-12.083c-1.479-0.882-3.096-1.547-4.787-2.065c0.455-2.172,0.511-4.95,0.077-6.389
				c-0.719-2.383-20.558-2.894-24.91-2.043c-3.946,0.772-3.177,3.638-2.999,6.414c-25.686,1.879-52.608,13.923-65.496,36.411
				c-15.855,27.666-14.44,47.931-8.27,55.089c13.236,15.354,34.27,12.282,46.871,1.308c6.822,3.99,50.532,4.171,60.204,1.033
				c5.194-1.686,6.248-6.841,6.71-12.049c5.601,3.39,12.971,8.947,21.133,7.728c19.299-2.882,40.402-40.358,42.712-50.465
				C206.719,163.124,187.294,153.923,176.777,160.184z"/>
			<path style="fill:none;stroke:#263238;stroke-width:2;stroke-linecap:round;stroke-linejoin:round;stroke-miterlimit:10;" d="
				M140.038,222.32c5.721,3.259,11.711,8.046,20.433,6.743c19.299-2.882,40.402-40.358,42.712-50.465
				c3.536-15.473-15.888-24.675-26.406-18.413c-13.25,7.887-18.778,19.497-18.778,19.497s-6.283-15.546-12.507-23.973
				c-2.857-3.868-6.404-7.226-10.341-9.999"/>
			<path style="fill:none;stroke:#263238;stroke-width:2;stroke-linecap:round;stroke-linejoin:round;stroke-miterlimit:10;" d="
				M137.735,166.15c6.128,8.426,9.048,14.575,5.928,27.585c-3.12,13.011-3.406,37.351-8.992,39.053"/>
			<path style="fill:#FFC051;" d="M121.316,102.227c0,0-0.72,6.071-10.09,10.931c-5.072,2.631-9.204,2.724-9.204,2.724l3.946,9.683
				l-22.298,0.003c0,0,6.657-15.878,12.146-22.988c5.489-7.109,9.681-8.849,14.885-9.327c5.209-0.479,9.768,4.53,9.768,4.53
				s3.948-1.944,8.805,0.038c4.856,1.981,6.341,9.542,7.133,15.366c0.738,5.429,4.01,13.582,4.01,13.582l-15.344,0.002
				c0,0,5.464-6.011,4.945-12.904C129.267,103.878,121.316,102.227,121.316,102.227z"/>
			<path style="fill:#263238;" d="M117.616,113.265c-0.759-0.285-1.605,0.081-1.882,0.846c-0.278,0.764,0.119,1.63,0.88,1.914
				c0.76,0.285,1.587-0.12,1.864-0.885C118.756,114.376,118.376,113.55,117.616,113.265z"/>
			<path style="fill:#263238;" d="M126.276,113.997c-0.759-0.285-1.605,0.081-1.882,0.846c-0.278,0.764,0.119,1.63,0.88,1.914
				c0.759,0.285,1.587-0.122,1.864-0.886C127.416,115.107,127.035,114.282,126.276,113.997z"/>
			<path style="fill:none;stroke:#263238;stroke-width:2;stroke-linecap:round;stroke-linejoin:round;stroke-miterlimit:10;" d="
				M126.549,124.662c5.148-5.875,4.611-14.85-1.199-20.047c-5.81-5.198-14.694-4.648-19.842,1.226
				c-5.148,5.874-4.611,14.85,1.198,20.047C112.516,131.085,121.4,130.537,126.549,124.662z"/>
			<path style="fill:#FF367C;" d="M111.75,117.926c-0.302-0.873,0.153-1.824,1.016-2.123c0.864-0.299,1.81,0.165,2.113,1.039
				c0.302,0.873-0.153,1.824-1.016,2.123C112.999,119.264,112.053,118.8,111.75,117.926z"/>
			<path style="fill:none;stroke:#263238;stroke-width:2;stroke-linecap:round;stroke-linejoin:round;stroke-miterlimit:10;" d="
				M122.081,114.645l1.412,5.935l-3.024-0.717"/>
			<path style="fill:none;stroke:#263238;stroke-width:2;stroke-linecap:round;stroke-linejoin:round;stroke-miterlimit:10;" d="
				M115.478,120.58c0,0-0.457,2.003,1.055,2.948c1.512,0.945,3.702-0.111,3.702-0.111"/>
			<g id="Layer-22_2_">
				<path style="fill:#FFFFFF;" d="M106.219,170.029c0.45-1.801,2.156-2.997,4.003-2.808l32.438,3.325
					c2.262,0.232,3.793,2.415,3.241,4.621l-12.659,50.582c-0.451,1.8-2.156,2.997-4.003,2.808l-32.438-3.325
					c-2.262-0.233-3.794-2.415-3.241-4.622L106.219,170.029z"/>
			</g>
			<g id="Layer-23_2_">
				<path style="fill:#FFC051;" d="M119.126,202.326c-3.174-4.177,1.534-8.885,5.71-5.715
					C128.012,200.783,123.303,205.501,119.126,202.326z"/>
			</g>
			<g>
				
					<path style="opacity:0.9985;fill:none;stroke:#263238;stroke-width:2;stroke-linecap:round;stroke-linejoin:round;stroke-miterlimit:10;enable-background:new    ;" d="
					M197.96,170.941c0,0,7.403-2.356,10.591-5.302c4.122-3.809,12.618-9.419,10.615-16.271c-0.815-2.791-4.561-2.984-4.561-2.984
					c1.017-2.281-0.356-5.853-3.269-5.784c-2.805,0.066-6.041,4.052-6.041,4.052s12.431-11.997,8.158-15.105
					c-4.272-3.108-13.636,10.837-13.644,10.847c-3.053,0.578-7.633,1.328-9.238,3.288c-2.583,5.19-6.431,19.474-6.431,19.474"/>
				
					<path style="opacity:0.9985;fill:none;stroke:#263238;stroke-width:2;stroke-linecap:round;stroke-linejoin:round;stroke-miterlimit:10;enable-background:new    ;" d="
					M190.571,143.682c3.574-3.06,12.102-3.993,13.869-2.76c4.039,2.818-9.784,9.099-9.784,9.099s4.247,1.753,7.386,3.765"/>
				
					<path style="opacity:0.9985;fill:none;stroke:#263238;stroke-width:2;stroke-linecap:round;stroke-linejoin:round;stroke-miterlimit:10;enable-background:new    ;" d="
					M214.605,146.384c0,0-7.686,11.324-10.955,9.418c-3.269-1.905-0.293-7.876,1.641-11.302"/>
				
					<path style="opacity:0.9985;fill:none;stroke:#263238;stroke-width:2;stroke-linecap:round;stroke-linejoin:round;stroke-miterlimit:10;enable-background:new    ;" d="
					M210.399,151.755c0,0-3.084,6.078-1.181,7.883c1.902,1.805,7.055-6.255,7.055-6.255"/>
			</g>
			<path style="fill:#FFFFFF;stroke:#263238;stroke-width:2;stroke-linecap:round;stroke-linejoin:round;stroke-miterlimit:10;" d="
				M82.595,214.708c10.561,2.068,13.836-10.101,13.836-10.101s1.856-0.607,6.379,0.342c3.547,0.744,6.925,2.161,8.028,0.67
				c1.104-1.491-0.864-4.616-4.549-5.975c-3.685-1.359-7.124-1.746-7.124-1.746s5.494,0.858,7.52,1.752
				c6.397,2.825,10.745,1.035,7.381-2.72c-1.762-1.966-3.248-2.866-6.009-4.146c-2.987-1.384-7.649-1.647-7.649-1.647
				s2.553-0.206,7.346,0.785c3.48,0.719,6.545,1.676,7.565,0.364c1.389-1.788,1.393-4.935-6.545-7.094
				c-6.373-1.734-15.244-1.026-21.249,3.086c-7.38,5.054-10.402,14.16-10.402,14.16"/>
			<g>
				<path style="fill:#263238;" d="M70.585,241.088c-8.935,5.619-18.383,20.551-13.92,47.99c-9.83,57.1-9.391,158.047-9.391,158.047
					s38.851,8.017,53.836,0c3.33-19.042,8.517-143.333,8.517-143.333s22.009,135.606,24.784,139.971
					c2.775,4.364,51.616-2.651,53.281-9.666c-2.22-19.041-43.229-182.476-51.986-191.384c1.48-3.007,1.11-10.244-0.247-11.469
					c-3.947,1.782-54.895,2.283-61.555-1.392C69.958,230.965,70.339,236.234,70.585,241.088z"/>
				<path style="fill:none;stroke:#FFFFFF;stroke-width:2;stroke-linecap:round;stroke-linejoin:round;stroke-miterlimit:10;" d="
					M71.509,270.61c-6.567,22.111-12.695,142.53-13.659,170.082"/>
				
					<polyline style="fill:none;stroke:#FFFFFF;stroke-width:2;stroke-linecap:round;stroke-linejoin:round;stroke-miterlimit:10;" points="
					110.166,298.405 110.166,244.383 115.901,244.383 115.901,287.143 110.166,293.061 				"/>
				<path style="fill:none;stroke:#FFFFFF;stroke-width:2;stroke-linecap:round;stroke-linejoin:round;stroke-miterlimit:10;" d="
					M75.211,242.005c9.376,1.212,29.23,2.378,29.23,2.378h5.735c0,0,14.401-0.542,21.745-1.189"/>
				<path style="fill:#FFFFFF;" d="M115.623,238.036c0,1.291-1.16,2.338-2.59,2.338c-1.43,0-2.59-1.047-2.59-2.338
					c0-1.291,1.16-2.339,2.59-2.339C114.464,235.697,115.623,236.745,115.623,238.036z"/>
			</g>
			<path style="fill:none;stroke:#263238;stroke-width:2;stroke-linecap:round;stroke-linejoin:round;stroke-miterlimit:10;" d="
				M99.181,141.358c7.11,2.895,22.347,3.151,26.585,1.84"/>
			<path style="fill:none;stroke:#263238;stroke-width:2;stroke-linecap:round;stroke-linejoin:round;stroke-miterlimit:10;" d="
				M103.947,135.001c-1.447,3.149-1.743,6.838-0.999,7.504"/>
			<path style="fill:none;stroke:#263238;stroke-width:2;stroke-linecap:round;stroke-linejoin:round;stroke-miterlimit:10;" d="
				M108.543,135.001c-1.447,2.723-0.816,7.55-0.578,8.371"/>
			<path style="fill:none;stroke:#263238;stroke-width:2;stroke-linecap:round;stroke-linejoin:round;stroke-miterlimit:10;" d="
				M113.107,135.706c-0.517,1.702-0.382,7.275,0.208,8.136"/>
			
				<line style="fill:none;stroke:#263238;stroke-width:2;stroke-linecap:round;stroke-linejoin:round;stroke-miterlimit:10;" x1="118.569" y1="135.341" x2="118.569" y2="143.947"/>
			<path style="fill:none;stroke:#263238;stroke-width:2;stroke-linecap:round;stroke-linejoin:round;stroke-miterlimit:10;" d="
				M123.182,136.277c0.766,2.553,0.368,5.364,0.311,7.363"/>
			<path style="fill:#FF367C;" d="M25.553,231.042c16.692,19.363,45.798,9.435,54.734-8.708
				c8.936-18.143-3.319-25.641-12.511-24.445"/>
			<path style="fill:none;stroke:#263238;stroke-width:2;stroke-linecap:round;stroke-linejoin:round;stroke-miterlimit:10;" d="
				M25.553,231.042c16.692,19.363,45.798,9.435,54.734-8.708c3.577-7.262,5.265-17.506-2.668-22.58
				c-7.726-4.942-21.207-1.089-28.031,4.058"/>
			<path style="fill:none;stroke:#263238;stroke-width:2;stroke-linecap:round;stroke-linejoin:round;stroke-miterlimit:10;" d="
				M145.341,444.612c0,5.271-0.416,19.745-0.416,19.745s61.965,3.761,68.177,0.739c4.186-2.036-5.301-7.782-14.478-13.09
				c-8.722-5.046-18.99-8.734-18.99-8.734"/>
			<path style="fill:none;stroke:#FF367C;stroke-width:2;stroke-linecap:round;stroke-linejoin:round;stroke-miterlimit:10;" d="
				M181.802,452.192l10.564-9.168"/>
			<path style="fill:none;stroke:#FF367C;stroke-width:2;stroke-linecap:round;stroke-linejoin:round;stroke-miterlimit:10;" d="
				M187.085,454.524l10.564-9.168"/>
			<path style="fill:none;stroke:#263238;stroke-width:2;stroke-linecap:round;stroke-linejoin:round;stroke-miterlimit:10;" d="
				M56.175,449.32c0,5.271-0.416,19.745-0.416,19.745s61.965,3.761,68.177,0.739c4.186-2.036-5.301-7.782-14.478-13.09
				c-8.722-5.046-18.99-8.734-18.99-8.734"/>
			<path style="fill:none;stroke:#FF367C;stroke-width:2;stroke-linecap:round;stroke-linejoin:round;stroke-miterlimit:10;" d="
				M92.636,456.9l10.564-9.168"/>
			<path style="fill:none;stroke:#FF367C;stroke-width:2;stroke-linecap:round;stroke-linejoin:round;stroke-miterlimit:10;" d="
				M97.918,459.232l10.564-9.168"/>
		</g>
		<path style="fill:none;stroke:#FFFFFF;stroke-width:2;stroke-linecap:round;stroke-linejoin:round;stroke-miterlimit:10;" d="
			M62.014,271.318c11.492,2.51,18.171-6.882,21.765-13.982"/>
		
			<line style="fill:none;stroke:#263238;stroke-width:2;stroke-linecap:round;stroke-linejoin:round;stroke-miterlimit:10;" x1="75.211" y1="178.293" x2="70.014" y2="196.651"/>
	</g>
</g>
</svg>
