<?xml version="1.0" encoding="UTF-8"?>
<svg id="Capa_2" xmlns="http://www.w3.org/2000/svg" viewBox="0 0 690.94 415.4">
  <defs>
    <style>
      .cls-1 {
        fill: #ffc051;
      }

      .cls-2 {
        stroke: #ff367c;
      }

      .cls-2, .cls-3, .cls-4, .cls-5 {
        fill: none;
      }

      .cls-2, .cls-3, .cls-4, .cls-5, .cls-6, .cls-7 {
        stroke-linecap: round;
        stroke-linejoin: round;
        stroke-width: 2px;
      }

      .cls-8 {
        fill: #263238;
      }

      .cls-9, .cls-10, .cls-11, .cls-7 {
        fill: #fff;
      }

      .cls-3 {
        stroke: #ffc051;
      }

      .cls-10 {
        opacity: .3;
      }

      .cls-10, .cls-11 {
        isolation: isolate;
      }

      .cls-4 {
        stroke: #fff;
      }

      .cls-5, .cls-6, .cls-7 {
        stroke: #263238;
      }

      .cls-11 {
        opacity: .3;
      }

      .cls-12, .cls-6 {
        fill: #ff367c;
      }
    </style>
  </defs>
  <g id="Line">
    <g id="Layer-9">
      <path class="cls-5" d="M1.6,414.4h688.34"/>
    </g>
  </g>
  <g id="Sparkles">
    <g>
      <g>
        <path class="cls-5" d="M361.27,9.21v3.93"/>
        <path class="cls-5" d="M361.27,17.58v3.93"/>
        <path class="cls-5" d="M355.12,15.36h3.93"/>
        <path class="cls-5" d="M363.49,15.36h3.93"/>
      </g>
      <g>
        <path class="cls-5" d="M7.75,235.48v3.93"/>
        <path class="cls-5" d="M7.75,243.85v3.93"/>
        <path class="cls-5" d="M1.6,241.63h3.93"/>
        <path class="cls-5" d="M9.97,241.63h3.93"/>
      </g>
      <g>
        <path class="cls-5" d="M660.89,151.14v3.93"/>
        <path class="cls-5" d="M660.89,159.51v3.93"/>
        <path class="cls-5" d="M654.74,157.3h3.93"/>
        <path class="cls-5" d="M663.11,157.3h3.93"/>
      </g>
    </g>
  </g>
  <g id="Code_tab_2">
    <g>
      <path class="cls-5" d="M553.18,84.61h-30.29l.02,80.95"/>
      <path class="cls-8" d="M522.88,168.77c-1.78,0-3.22-1.45-3.22-3.23,0-1.78,1.45-3.22,3.23-3.22,1.78,0,3.23,1.45,3.22,3.23,0,1.78-1.45,3.23-3.23,3.22Z"/>
      <g>
        <path class="cls-12" d="M555.94,28.42h111.32s.64-5.53-.56-9.03c-1.2-3.51-4.23-4.99-4.23-4.99l-101.88-.38s-3.11,1.77-4.27,5.37c-1.16,3.6-.37,9.03-.37,9.03Z"/>
        <path class="cls-2" d="M555.62,23.32c0-5.14,3.23-9.31,7.21-9.31h97.51c3.98,0,7.21,4.17,7.21,9.31v65.56c0,5.14-3.23,9.31-7.21,9.31h-97.51c-3.98,0-7.21-4.17-7.21-9.31V23.32Z"/>
      </g>
      <g>
        <path class="cls-9" d="M567.19,21.53c0-1,.78-1.82,1.74-1.82s1.74.81,1.74,1.82-.78,1.82-1.74,1.82-1.74-.81-1.74-1.82Z"/>
        <path class="cls-9" d="M573.89,21.53c0-1,.78-1.82,1.74-1.82s1.74.81,1.74,1.82-.78,1.82-1.74,1.82-1.74-.81-1.74-1.82Z"/>
        <path class="cls-9" d="M580.58,21.53c0-1,.78-1.82,1.74-1.82s1.74.81,1.74,1.82-.78,1.82-1.74,1.82-1.74-.81-1.74-1.82Z"/>
      </g>
      <path class="cls-1" d="M565.94,48.6c0-.54.44-.98.97-.98h12.62c.54,0,.97.44.97.98v2.72c0,.54-.44.98-.97.98h-12.62c-.54,0-.97-.44-.97-.98v-2.72Z"/>
      <path class="cls-1" d="M576.31,58.19c0-.54.44-.98.97-.98h12.62c.54,0,.97.44.97.98v2.72c0,.54-.44.98-.97.98h-12.62c-.54,0-.97-.44-.97-.98v-2.72Z"/>
      <path class="cls-1" d="M576.31,67.78c0-.54.44-.98.97-.98h12.62c.54,0,.97.44.97.98v2.72c0,.54-.44.98-.97.98h-12.62c-.54,0-.97-.44-.97-.98v-2.72Z"/>
      <path class="cls-1" d="M565.94,77.37c0-.54.44-.98.97-.98h12.62c.54,0,.97.44.97.98v2.72c0,.54-.44.98-.97.98h-12.62c-.54,0-.97-.44-.97-.98v-2.72Z"/>
      <path class="cls-1" d="M584.06,86.95c0-.54.44-.98.97-.98h12.62c.54,0,.97.44.97.98v2.72c0,.54-.44.98-.97.98h-12.62c-.54,0-.97-.44-.97-.98v-2.72Z"/>
      <path class="cls-3" d="M586.37,49.48h71.5"/>
      <path class="cls-3" d="M595.12,53.72h33.98"/>
      <path class="cls-3" d="M595.58,59.55h21.62"/>
      <path class="cls-3" d="M624.68,59.55h33.19"/>
      <path class="cls-3" d="M595.81,69.14h33.28"/>
      <path class="cls-3" d="M635.69,69.14h22.18"/>
      <path class="cls-3" d="M604.18,88.32h53.7"/>
      <path class="cls-3" d="M586.37,77.85h35.61"/>
      <path class="cls-3" d="M626.92,77.85h30.95"/>
      <path class="cls-3" d="M595.12,82.09h33.98"/>
      <path class="cls-3" d="M572.46,34.2l-5.27,3.74,5.27,4.34"/>
      <path class="cls-3" d="M583.89,34.2l5.27,3.74-5.27,4.34"/>
      <path class="cls-3" d="M580.98,34.2l-5.55,8.08"/>
    </g>
  </g>
  <g id="Image">
    <g>
      <path class="cls-8" d="M415.1,8.81h72.65s.42-3-.36-4.9c-.78-1.9-2.76-2.71-2.76-2.71l-66.5-.2s-2.03.96-2.79,2.91c-.76,1.95-.24,4.9-.24,4.9Z"/>
      <path class="cls-5" d="M414.89,7.54c0-3.61,2.93-6.54,6.54-6.54h59.9c3.61,0,6.54,2.93,6.54,6.54v48.16c0,3.61-2.93,6.54-6.54,6.54h-59.9c-3.61,0-6.54-2.93-6.54-6.54V7.54Z"/>
      <g>
        <path class="cls-9" d="M421.43,4.91c0-.73.57-1.32,1.26-1.32s1.26.59,1.26,1.32-.57,1.32-1.26,1.32-1.26-.59-1.26-1.32Z"/>
        <path class="cls-9" d="M426.3,4.91c0-.73.57-1.32,1.26-1.32s1.26.59,1.26,1.32-.57,1.32-1.26,1.32-1.26-.59-1.26-1.32Z"/>
        <path class="cls-9" d="M431.17,4.91c0-.73.57-1.32,1.26-1.32s1.26.59,1.26,1.32-.57,1.32-1.26,1.32-1.26-.59-1.26-1.32Z"/>
      </g>
      <g>
        <path class="cls-1" d="M428.82,13.74c-1.96,0-3.55,1.59-3.55,3.55v36.4c-.01,1.96,1.58,3.55,3.54,3.55l45.17.02c1.96,0,3.55-1.59,3.55-3.55V17.31c.01-1.96-1.58-3.55-3.54-3.55l-45.17-.02Z"/>
        <path class="cls-12" d="M455.23,40.61l-15.05-10.76-14.92,10.92v13c0,1.81,1.46,3.27,3.27,3.27h45.74c1.81,0,3.27-1.46,3.27-3.27v-13.04s-10.09-6.88-10.09-6.88l-12.21,6.75Z"/>
        <path class="cls-12" d="M462.95,24.69c0-1.87-1.52-3.39-3.39-3.39-1.87,0-3.39,1.52-3.39,3.39,0,1.87,1.51,3.39,3.39,3.39,1.87,0,3.39-1.52,3.39-3.39Z"/>
      </g>
    </g>
  </g>
  <g id="Code_tab_1">
    <g>
      <path class="cls-5" d="M9.32,140.55c0-2.18,1.77-3.95,3.94-3.95h43.84c2.18,0,3.94,1.77,3.94,3.95v60.86c0,2.18-1.77,3.94-3.94,3.94H13.27c-2.18,0-3.94-1.77-3.94-3.94v-60.86Z"/>
      <path class="cls-5" d="M8.63,201.08c-6.83.09-7.63-3.21-7.63-5.39v-60.86c0-2.18,1.77-3.94,3.94-3.94h43.84c2.18,0,3.87,1.7,3.87,5.1"/>
      <path class="cls-6" d="M9.32,150.86h51.73H9.32Z"/>
      <path class="cls-6" d="M21.49,176.71h27.39-27.39Z"/>
      <path class="cls-6" d="M21.49,185.41h27.39-27.39Z"/>
      <path class="cls-6" d="M21.49,193.51h27.39-27.39Z"/>
      <g>
        <path class="cls-3" d="M28.61,158.75l-6.06,4.68,6.06,5.43"/>
        <path class="cls-3" d="M41.77,158.75l6.06,4.68-6.06,5.43"/>
        <path class="cls-3" d="M38.42,158.75l-6.38,10.11"/>
      </g>
      <path class="cls-8" d="M15.72,144.37c0-.88.71-1.6,1.6-1.6s1.6.71,1.6,1.6-.71,1.6-1.6,1.6-1.6-.71-1.6-1.6Z"/>
      <path class="cls-8" d="M25.27,144.37c0-.88.71-1.6,1.6-1.6s1.6.71,1.6,1.6-.71,1.6-1.6,1.6-1.6-.71-1.6-1.6Z"/>
      <path class="cls-8" d="M20.5,144.37c0-.88.71-1.6,1.6-1.6s1.6.71,1.6,1.6-.71,1.6-1.6,1.6-1.6-.71-1.6-1.6Z"/>
    </g>
  </g>
  <g id="Chart">
    <g>
      <path class="cls-5" d="M217.4,78.36h24.82l-.84,83.13"/>
      <path class="cls-8" d="M241.1,163.89c-1.78,0-3.23-1.45-3.22-3.23,0-1.78,1.45-3.22,3.23-3.22,1.78,0,3.23,1.45,3.22,3.23,0,1.78-1.45,3.23-3.23,3.22Z"/>
      <g>
        <path class="cls-12" d="M34.37,61.93h12.12v24.44h-12.12v-24.44Z"/>
        <path class="cls-1" d="M56.87,43.49h12.12v42.88h-12.12v-42.88Z"/>
        <path class="cls-12" d="M79.36,46.31h12.12v40.06h-12.12v-40.06Z"/>
        <path class="cls-1" d="M101.86,35.27h12.12v51.1h-12.12v-51.1Z"/>
        <path class="cls-12" d="M124.36,52.64h12.12v33.73h-12.12v-33.73Z"/>
        <path class="cls-1" d="M146.85,67.91h12.11v18.46h-12.11v-18.46Z"/>
        <path class="cls-12" d="M169.35,46.31h12.12v40.06h-12.12v-40.06Z"/>
        <path class="cls-1" d="M191.85,28.59h12.12v57.36h-12.12V28.59Z"/>
        <path class="cls-2" d="M40.13,48.13l22.28-20.62,22.28,12.7,23.01-23.2,21.54,26.51,23.93,8.84,21.73-21.36,22.69-17.68"/>
        <path class="cls-12" d="M38.51,47.7c0-1.39,1.13-2.52,2.52-2.52s2.52,1.13,2.52,2.52-1.13,2.52-2.52,2.52-2.52-1.13-2.52-2.52Z"/>
        <path class="cls-12" d="M60.15,27.57c0-1.39,1.13-2.52,2.52-2.52s2.52,1.13,2.52,2.52-1.13,2.52-2.52,2.52-2.52-1.13-2.52-2.52Z"/>
        <path class="cls-12" d="M82.31,39.94c0-1.39,1.13-2.52,2.52-2.52s2.52,1.13,2.52,2.52-1.13,2.52-2.52,2.52-2.52-1.13-2.52-2.52Z"/>
        <path class="cls-12" d="M105.3,17.4c0-1.39,1.13-2.52,2.52-2.52s2.52,1.13,2.52,2.52-1.13,2.52-2.52,2.52-2.52-1.13-2.52-2.52Z"/>
        <path class="cls-12" d="M126.26,43.45c0-1.39,1.13-2.52,2.52-2.52s2.52,1.13,2.52,2.52-1.13,2.52-2.52,2.52-2.52-1.13-2.52-2.52Z"/>
        <path class="cls-12" d="M149.82,52.36c0-1.39,1.13-2.52,2.52-2.52s2.52,1.13,2.52,2.52-1.13,2.52-2.52,2.52-2.52-1.13-2.52-2.52Z"/>
        <path class="cls-12" d="M172.38,31c0-1.39,1.13-2.52,2.52-2.52s2.52,1.13,2.52,2.52-1.13,2.52-2.52,2.52-2.52-1.13-2.52-2.52Z"/>
        <path class="cls-12" d="M195.07,13.33c0-1.39,1.13-2.52,2.52-2.52s2.52,1.13,2.52,2.52-1.13,2.52-2.52,2.52-2.52-1.13-2.52-2.52Z"/>
        <path class="cls-5" d="M20.93,1.68h196.47v95.07H20.93V1.68Z"/>
      </g>
    </g>
  </g>
  <g id="Tab">
    <g>
      <path class="cls-7" d="M177.03,414.4v-221.4c0-6.95,5.63-12.58,12.58-12.58h333.71c6.95,0,12.58,5.63,12.58,12.58v221.4H177.03Z"/>
      <g id="Layer-21">
        <path class="cls-1" d="M177.03,203.63h358.88v38.2H177.03v-38.2Z"/>
      </g>
      <g id="Layer-22">
        <path class="cls-9" d="M214.6,218.84c0-2.07,1.68-3.74,3.74-3.74h292.31c2.07,0,3.74,1.68,3.74,3.74v6.57c0,2.07-1.68,3.74-3.74,3.74H218.35c-2.07,0-3.74-1.68-3.74-3.74v-6.57Z"/>
      </g>
      <g id="Layer-23">
        <g>
          <path class="cls-3" d="M502.83,221.04c-.15-1.33.8-2.52,2.12-2.67,1.33-.15,2.52.8,2.67,2.12.15,1.33-.8,2.52-2.12,2.67-1.33.15-2.52-.8-2.67-2.12Z"/>
          <path class="cls-3" d="M503.87,222.62l-3.99,4.5"/>
        </g>
      </g>
      <path class="cls-5" d="M177.03,203.63h358.88"/>
      <g>
        <path class="cls-5" d="M192.75,218h9.59"/>
        <path class="cls-5" d="M192.75,222.12h9.59"/>
        <path class="cls-5" d="M192.75,226.24h9.59"/>
      </g>
      <path class="cls-8" d="M493.13,192.4c0-1.52,1.24-2.76,2.76-2.76s2.76,1.24,2.76,2.76-1.24,2.76-2.76,2.76-2.76-1.23-2.76-2.76Z"/>
      <path class="cls-8" d="M503.76,192.4c0-1.52,1.24-2.76,2.76-2.76s2.76,1.24,2.76,2.76-1.24,2.76-2.76,2.76-2.76-1.23-2.76-2.76Z"/>
      <path class="cls-8" d="M514.4,192.4c0-1.52,1.24-2.76,2.76-2.76s2.76,1.24,2.76,2.76-1.24,2.76-2.76,2.76-2.76-1.23-2.76-2.76Z"/>
      <path class="cls-5" d="M177.03,414.4v-221.4c0-6.95,5.63-12.58,12.58-12.58h333.71c6.95,0,12.58,5.63,12.58,12.58v221.4H177.03Z"/>
    </g>
  </g>
  <g id="Speech_bubble">
    <g>
      <path class="cls-2" d="M303.17,60.47c7.27-5.25,12-13.8,12-23.46,0-15.97-12.95-28.92-28.92-28.92s-28.92,12.95-28.92,28.92,12.95,28.92,28.92,28.92c2.21,0,4.37-.25,6.44-.72"/>
      <path class="cls-2" d="M303.21,60.46s2.36,6.52,6.72,9.32c6.91,4.45,9.84,4.52,9.84,4.52,0,0-10.33,1.28-16.68-.97-6.48-2.3-10.31-8.13-10.31-8.13"/>
      <path class="cls-12" d="M298.03,24.93c-.53.07-1.05.36-1.4.82l-14.44,18.59-7.38-9.15c-.73-.9-2.04-1.02-2.94-.29-.9.73-1.05,2.04-.33,2.94l9.05,11.17c.85,1.05,2.47,1.07,3.3,0l16.04-20.71c.71-.91.55-2.23-.36-2.94-.46-.35-1-.49-1.54-.42Z"/>
    </g>
  </g>
  <g id="Character_2">
    <g>
      <g id="Layer-18">
        <path class="cls-12" d="M485.42,179.41s18.47-42.73-12.62-49.03c-7.28-1.48-14.19.1-20.46,3.3-18.86,9.62-31.95,33.89-31.95,33.89,0,0-1.7-42.21-53.57-46.11-43.43-3.26-68.87,7.61-87.58,24.58-18.7,16.96-19.36,33.28-19.36,33.28l225.54.1Z"/>
      </g>
      <g id="Layer-19">
        <path class="cls-9" d="M334.85,126.25s10.69-2.1,21.62-1.75c10.93.35,19.43,1.58,19.43,1.58l-8.48,27.62-14.22,4.59-18.36-32.04Z"/>
        <path class="cls-12" d="M355.12,130.88c0-1.24,1.01-2.25,2.25-2.25s2.25,1.01,2.25,2.25-1.01,2.25-2.25,2.25-2.25-1.01-2.25-2.25Z"/>
        <path class="cls-12" d="M355.62,138.18c0-1.11.9-2,2-2s2,.9,2,2-.9,2-2,2-2-.9-2-2Z"/>
        <path class="cls-4" d="M293.48,168.64s35.89-20.84,54.09-12.7c13.65,6.1,7.8,23.47,7.8,23.47"/>
      </g>
      <path class="cls-5" d="M341.51,98.44c-2.28-9.9,3.9-19.76,13.8-22.04,9.9-2.28,19.76,3.9,22.04,13.8,2.28,9.9-3.9,19.76-13.8,22.04-9.9,2.28-19.76-3.9-22.04-13.8Z"/>
      <path class="cls-8" d="M383.15,69.83c3.59,4.75-.61,10.68-.61,10.68,0,0,4.2,1.63,4.78,8.37.75,8.64-9.34,10.59-9.34,10.59,0,0,1.38-4.87-.15-9.72-1.43-4.55-5.94-7.84-5.94-7.84,0,0-7.14,4.72-16.1,6.72-7.41,1.65-12.97.02-13,.06-4.4,6.55.22,13.45.22,13.45,0,0-12.19-.15-13.64-7.1-1.74-8.34,5.53-11.28,5.53-11.28,0,0-4.69-8.21,1.34-13.92,4.81-4.56,11.9-2.11,11.9-2.11,0,0,3.39-7.5,10.96-7.67,9.44-.22,11.23,7.64,11.23,7.64,0,0,8.56-3.5,12.83,2.15Z"/>
      <path class="cls-12" d="M359,96.86c.61-1,.29-2.31-.71-2.93-1-.61-2.31-.29-2.93.71-.61,1.01-.29,2.32.71,2.93,1,.61,2.31.29,2.93-.71Z"/>
      <path class="cls-8" d="M364.36,94.07c.58-.95.28-2.18-.67-2.76-.95-.58-2.18-.28-2.76.67s-.28,2.18.67,2.76c.95.58,2.18.28,2.76-.67Z"/>
      <path class="cls-8" d="M374.67,96.18c.53-.87.25-2-.62-2.53-.87-.53-2-.25-2.53.62-.53.87-.25,2,.62,2.53.87.53,2,.25,2.53-.62Z"/>
      <path class="cls-5" d="M368.63,93.43l1.04,8.83-4.74-1.89"/>
      <path class="cls-5" d="M360.14,100.8s.19,2.88,1.46,4.03c1.27,1.16,3.62.59,3.62.59"/>
      <g>
        <path class="cls-5" d="M460.1,133.45c-1.47-5.26-3.06-12.89-2.6-19.71.9-13.19,8.26-17.51,13.45-25.34,3.3-7.31,7.88,4.2,6.21,9.51-1.57,4.99-2.38,9.64-2.38,9.64,0,0,1.24,2.19.94,6.23-.3,4.04-3.64,8.76-3.64,8.76"/>
        <path class="cls-5" d="M477.4,112.83s-2.15-1.83-1.56-4.34c1.03-4.38,4.72-6.11,9.15-6.5,4.44-.39,8.09,1.56,9.91,4.55,1.34,2.2.95,6.2.95,6.2,0,0-4.13-4.28-7.72-4.23-7.02.09-10.73,4.32-10.73,4.32Z"/>
        <path class="cls-5" d="M480,117.94s-2.73-.39-2.85-3.01c-.12-2.62,4.61-5.81,9.05-6.2,4.44-.39,9.1,2.32,10.98,6.05,1.88,3.73-2.5,7.37-2.5,7.37,0,0-3.05-2.78-6.54-3.74-3.46-.95-8.14-.48-8.14-.48Z"/>
        <path class="cls-5" d="M487.61,126.82s-11.96-.02-11.87-3.74c.09-3.72,4.31-5.29,8.61-5.21,4.3.08,10.39,2.7,10.15,6-.49,6.73-9.73,14.59-13.76,15.52"/>
      </g>
      <polyline class="cls-4" points="380.27 128.63 394.91 157.43 393.28 162.33"/>
    </g>
    <g>
      <path class="cls-7" d="M177.03,414.4v-221.4c0-6.95,5.63-12.58,12.58-12.58h333.71c6.95,0,12.58,5.63,12.58,12.58v221.4H177.03Z"/>
      <g id="Layer-21-2" data-name="Layer-21">
        <path class="cls-1" d="M177.03,203.63h358.88v38.2H177.03v-38.2Z"/>
      </g>
      <g id="Layer-22-2" data-name="Layer-22">
        <path class="cls-9" d="M214.6,218.84c0-2.07,1.68-3.74,3.74-3.74h292.31c2.07,0,3.74,1.68,3.74,3.74v6.57c0,2.07-1.68,3.74-3.74,3.74H218.35c-2.07,0-3.74-1.68-3.74-3.74v-6.57Z"/>
      </g>
      <g id="Layer-23-2" data-name="Layer-23">
        <g>
          <path class="cls-3" d="M502.83,221.04c-.15-1.33.8-2.52,2.12-2.67,1.33-.15,2.52.8,2.67,2.12.15,1.33-.8,2.52-2.12,2.67-1.33.15-2.52-.8-2.67-2.12Z"/>
          <path class="cls-3" d="M503.87,222.62l-3.99,4.5"/>
        </g>
      </g>
      <path class="cls-5" d="M177.03,203.63h358.88"/>
      <g>
        <path class="cls-5" d="M192.75,218h9.59"/>
        <path class="cls-5" d="M192.75,222.12h9.59"/>
        <path class="cls-5" d="M192.75,226.24h9.59"/>
      </g>
      <path class="cls-8" d="M493.13,192.4c0-1.52,1.24-2.76,2.76-2.76s2.76,1.24,2.76,2.76-1.24,2.76-2.76,2.76-2.76-1.23-2.76-2.76Z"/>
      <path class="cls-8" d="M503.76,192.4c0-1.52,1.24-2.76,2.76-2.76s2.76,1.24,2.76,2.76-1.24,2.76-2.76,2.76-2.76-1.23-2.76-2.76Z"/>
      <path class="cls-8" d="M514.4,192.4c0-1.52,1.24-2.76,2.76-2.76s2.76,1.24,2.76,2.76-1.24,2.76-2.76,2.76-2.76-1.23-2.76-2.76Z"/>
      <path class="cls-5" d="M177.03,414.4v-221.4c0-6.95,5.63-12.58,12.58-12.58h333.71c6.95,0,12.58,5.63,12.58,12.58v221.4H177.03Z"/>
    </g>
    <path class="cls-5" d="M351.4,158.88s27.09-15.25,44.72,6.57c7.13,8.82,1.23,14.06,1.23,14.06,0,0-1.79-4.05-5.51-8.47-3.72-4.42-11.15-7.7-11.15-7.7,0,0,9.29,5.09,11.44,7.96,2.14,2.87,8.51,10.26,4.16,13.61-2.99,2.3-7.2-1.92-10.62-4.46-3.06-3.77-8.44-8.07-8.44-8.07,0,0,3.23,2.85,8.44,8.07,4.98,4.99,4.15,8.88,1.87,10.25-2.25,1.35-15.52-7.5-15.52-7.5,0,0-15.54,4.29-24.44-6.67"/>
    <line class="cls-4" x1="329.09" y1="127.34" x2="318.92" y2="157.43"/>
  </g>
  <g id="Character_1">
    <g>
      <path class="cls-12" d="M143.71,223.02c22.78,4.08,49.42,34.42,52.05,46.35,2.39,10.81,6.63-64.02,43.31-61.72,36.67,2.3,23.13,131.58-36.72,134.24-59.86,2.66-58.64-118.87-58.64-118.87Z"/>
      <g id="Layer-20">
        <path class="cls-1" d="M104.23,211.37c-34.82,1.35-64.01,30.98-66.72,69.31-1.55,21.93,5.96,42.2,19.03,56.75l-1.48-.16s-6.85,20.61-13.17,39.65c-6.32,19.04-5.19,36.38-5.19,36.38l118.38.04-8.32-55.59c18.82-12.09,26.02-42.14,27.81-67.4,2.89-40.88-25.45-76.18-63.29-78.85-2.36-.17-4.71-.22-7.03-.13Z"/>
      </g>
      <path class="cls-5" d="M116.72,229.65c4.22,7.49,17.84,4.76,20.9-3.41.34,7.83,6.6,12.49,14.33,9.53"/>
      <circle class="cls-8" cx="136.57" cy="243.85" r="3.93"/>
      <circle class="cls-8" cx="136.57" cy="259.95" r="3.93"/>
      <path class="cls-12" d="M165.26,176.61c.3,8.47-7.05,11.47-7.05,11.47,0,0-3.02-3.44-5.24-9.29-1.77-4.68-2.14-6.79-2.14-6.79,0,0-3.9,4.86-12.93,8.59-8.97,3.71-15.45,2.44-17.81,2.44-.79,6.7,3.79,14.04,3.79,14.04,0,0-7.17,7.52-15.94,7.42-9.15-.1-19.26-3.99-18.54-13.84.47-6.43,10.37-4.91,14.37-11.81,4-6.9,4.5-13.88,19.14-22.2,33.11-14.03,42.08,12.55,42.35,19.97Z"/>
      <path class="cls-5" d="M157.19,190.83c3.64-10.01-1.52-21.07-11.52-24.72-10.01-3.64-21.07,1.52-24.72,11.52-3.64,10.01,1.52,21.07,11.52,24.71,10.01,3.64,21.07-1.52,24.71-11.52Z"/>
      <path class="cls-12" d="M138.67,187.52c.42-1.16-.17-2.44-1.33-2.86-1.16-.42-2.44.18-2.86,1.34-.42,1.16.18,2.44,1.34,2.86s2.44-.18,2.86-1.33Z"/>
      <path class="cls-8" d="M145.24,186.52c.72-.76.68-1.96-.09-2.68-.76-.72-1.96-.68-2.68.09-.72.76-.68,1.96.09,2.68.76.72,1.96.68,2.68-.09Z"/>
      <path class="cls-8" d="M154.88,190.22c.72-.76.68-1.96-.09-2.68-.76-.72-1.96-.68-2.68.09-.72.76-.68,1.96.09,2.68.76.72,1.96.68,2.68-.09Z"/>
      <path class="cls-5" d="M148.98,186.41l-.25,9.02-4.22-1.93"/>
      <path class="cls-5" d="M139,191.56s-.15,3.22,1.2,4.82c1.34,1.6,4.17,1.59,4.17,1.59"/>
      <path class="cls-12" d="M175.43,296.56c-.12,1.65-.27,3.27-.46,4.86-.99,8.31-2.91,15.76-5.22,22.24-1.12,3.15-2.32,6.06-3.56,8.74-1.01,2.2-2.04,4.23-3.06,6.09-.99,1.81-1.96,3.46-2.88,4.94-3.77,6.06-6.75,9.32-6.75,9.32l1.83,4.24,4.83,11.23,4.6,10.69,1.39,3.22,1.7,3.95-4.42,2.47-5.05,2.82-7.32,4.1s-1.7-7.57-3.58-15.89c-.18-.79-.36-1.6-.55-2.4-.3-1.34-.6-2.69-.9-4.01-1.39-6.11-2.67-11.69-3.23-14,.16-.54.33-1.07.48-1.61.94-3.1,1.81-6.15,2.63-9.14,2.12-7.8,3.86-15.22,5.26-22.28.28-1.42.55-2.81.8-4.19.63-3.42,1.18-6.75,1.65-9.98.22-1.49.42-2.96.61-4.41.82-6.43,1.36-12.5,1.64-18.21h0c.12-2.4.2-4.71.23-6.97.11-6.64-.12-12.73-.61-18.3-.19-2.26-.43-4.43-.71-6.52h-.01c-1.57-12.02-4.33-21.13-7.13-27.41-.89-2.03-1.8-3.76-2.67-5.2-.43-.71-.85-1.36-1.26-1.93,0,0,.79.33,2.11,1.09,1.18.69,2.8,1.73,4.67,3.19,1.78,1.38,3.79,3.16,5.87,5.38.01,0,.01,0,.01,0,2.59,2.75,5.29,6.19,7.83,10.44,1.36,2.27,2.68,4.78,3.9,7.54.78,1.77,1.53,3.64,2.23,5.63,1.55,4.39,2.86,9.3,3.8,14.81.31,1.76.57,3.58.8,5.47.11.94.21,1.89.3,2.86.56,6.01.58,11.73.2,17.12Z"/>
      <g>
        <path class="cls-7" d="M177.03,414.4v-221.4c0-6.95,5.63-12.58,12.58-12.58h333.71c6.95,0,12.58,5.63,12.58,12.58v221.4H177.03Z"/>
        <g id="Layer-21-3" data-name="Layer-21">
          <path class="cls-1" d="M177.03,203.63h358.88v38.2H177.03v-38.2Z"/>
        </g>
        <g id="Layer-22-3" data-name="Layer-22">
          <path class="cls-9" d="M214.6,218.84c0-2.07,1.68-3.74,3.74-3.74h292.31c2.07,0,3.74,1.68,3.74,3.74v6.57c0,2.07-1.68,3.74-3.74,3.74H218.35c-2.07,0-3.74-1.68-3.74-3.74v-6.57Z"/>
        </g>
        <g id="Layer-23-3" data-name="Layer-23">
          <g>
            <path class="cls-3" d="M502.83,221.04c-.15-1.33.8-2.52,2.12-2.67,1.33-.15,2.52.8,2.67,2.12.15,1.33-.8,2.52-2.12,2.67-1.33.15-2.52-.8-2.67-2.12Z"/>
            <path class="cls-3" d="M503.87,222.62l-3.99,4.5"/>
          </g>
        </g>
        <path class="cls-5" d="M177.03,203.63h358.88"/>
        <g>
          <path class="cls-5" d="M192.75,218h9.59"/>
          <path class="cls-5" d="M192.75,222.12h9.59"/>
          <path class="cls-5" d="M192.75,226.24h9.59"/>
        </g>
        <path class="cls-8" d="M493.13,192.4c0-1.52,1.24-2.76,2.76-2.76s2.76,1.24,2.76,2.76-1.24,2.76-2.76,2.76-2.76-1.23-2.76-2.76Z"/>
        <path class="cls-8" d="M503.76,192.4c0-1.52,1.24-2.76,2.76-2.76s2.76,1.24,2.76,2.76-1.24,2.76-2.76,2.76-2.76-1.23-2.76-2.76Z"/>
        <path class="cls-8" d="M514.4,192.4c0-1.52,1.24-2.76,2.76-2.76s2.76,1.24,2.76,2.76-1.24,2.76-2.76,2.76-2.76-1.23-2.76-2.76Z"/>
        <path class="cls-5" d="M177.03,414.4v-221.4c0-6.95,5.63-12.58,12.58-12.58h333.71c6.95,0,12.58,5.63,12.58,12.58v221.4H177.03Z"/>
      </g>
      <path class="cls-12" d="M125.01,286.03c-6.91,1.96-12.65,4.33-12.65,4.33,0,0,6.08-69.96,7.42-79.04-2.32-1.24-5.39-1.74-9.27-1.61-38.31,1.29-104.68,31.69-96.61,123.09,1.63,18.41,9.59,30.37,21.25,37.41l-6.59,19.01,64.38,10.24s0-22.33.32-23.31c.35-1.09,14.09-3.32,15.87-3.84,5.99-1.74,11.9-3.79,17.69-6.12,11.42-4.6,23.34-10.01,33.6-17.36,9.68-6.94,24-18.59,23.08-31.93-.05-.74-.15-1.44-.27-2.12.17-1.59.25-3.11.27-4.55.15-13.3-7.13-20.58-7.43-20.87-2.72-2.66-16.31-13.18-51.06-3.34Z"/>
      <g>
        <path class="cls-10" d="M55.87,346.54c-1.09-1.09-2.85-1.09-3.93,0l-6.29,6.29c-1.09,1.09-1.09,2.85,0,3.93.54.54,1.25.81,1.97.81s1.42-.27,1.97-.81l6.29-6.29c1.09-1.09,1.09-2.85,0-3.93Z"/>
        <path class="cls-10" d="M47.62,382.46c.71,0,1.42-.27,1.97-.81l6.29-6.29c1.09-1.09,1.09-2.85,0-3.93-1.09-1.09-2.85-1.09-3.93,0l-6.29,6.29c-1.09,1.09-1.09,2.85,0,3.93.54.54,1.25.81,1.97.81Z"/>
        <path class="cls-10" d="M55.87,321.66c-1.09-1.09-2.85-1.09-3.93,0l-6.29,6.29c-1.09,1.09-1.09,2.85,0,3.93.54.54,1.25.81,1.97.81s1.42-.27,1.97-.81l6.29-6.29c1.09-1.09,1.09-2.85,0-3.93Z"/>
        <path class="cls-10" d="M33.8,311.96l6.29,6.29c.54.54,1.26.81,1.97.81s1.42-.27,1.97-.81c1.09-1.09,1.09-2.85,0-3.93l-6.29-6.29c-1.09-1.09-2.85-1.09-3.93,0-1.09,1.09-1.09,2.85,0,3.93Z"/>
        <path class="cls-10" d="M40.09,268.49c.54.54,1.26.81,1.97.81s1.42-.27,1.97-.81c1.09-1.09,1.09-2.85,0-3.93l-6.29-6.29c-1.09-1.09-2.85-1.09-3.93,0-1.09,1.09-1.09,2.85,0,3.93l6.29,6.29Z"/>
        <path class="cls-10" d="M33.8,336.84l6.29,6.29c.54.54,1.26.81,1.97.81s1.42-.27,1.97-.81c1.09-1.09,1.09-2.85,0-3.93l-6.29-6.29c-1.09-1.09-2.85-1.09-3.93,0-1.09,1.09-1.09,2.85,0,3.93Z"/>
        <path class="cls-10" d="M18.1,343.94c.71,0,1.42-.27,1.97-.81,1.09-1.09,1.09-2.85,0-3.93l-6.13-6.13c.31,3.34.82,6.47,1.53,9.39l.67.67c.54.54,1.26.81,1.97.81Z"/>
        <path class="cls-10" d="M18.1,319.06c.71,0,1.42-.27,1.97-.81,1.09-1.09,1.09-2.85,0-3.93l-6.29-6.29c-.06-.06-.13-.11-.2-.16-.17,2.45-.27,4.96-.31,7.52l2.87,2.87c.54.54,1.26.81,1.97.81Z"/>
        <path class="cls-10" d="M16.13,293.37c.54.54,1.26.81,1.97.81s1.42-.27,1.97-.81c1.09-1.09,1.09-2.85,0-3.93l-3.18-3.18c-.52,2.1-.98,4.26-1.4,6.47l.65.65Z"/>
        <path class="cls-10" d="M55.87,296.78c-1.09-1.09-2.85-1.09-3.93,0l-6.29,6.29c-1.09,1.09-1.09,2.85,0,3.93.54.54,1.25.81,1.97.81s1.42-.27,1.97-.81l6.29-6.29c1.09-1.09,1.09-2.85,0-3.93Z"/>
        <path class="cls-10" d="M33.8,287.08l6.29,6.29c.54.54,1.26.81,1.97.81s1.42-.27,1.97-.81c1.09-1.09,1.09-2.85,0-3.93l-6.29-6.29c-1.09-1.09-2.85-1.09-3.93,0-1.09,1.09-1.09,2.85,0,3.93Z"/>
        <path class="cls-10" d="M55.87,271.9c-1.09-1.09-2.85-1.09-3.93,0l-6.29,6.29c-1.09,1.09-1.09,2.85,0,3.93.54.54,1.25.81,1.97.81s1.42-.27,1.97-.81l6.29-6.29c1.09-1.09,1.09-2.85,0-3.93Z"/>
        <path class="cls-10" d="M55.87,247.02c-1.09-1.09-2.85-1.09-3.93,0l-6.29,6.29c-1.09,1.09-1.09,2.85,0,3.93.54.54,1.25.81,1.97.81s1.42-.27,1.97-.81l6.29-6.29c1.09-1.09,1.09-2.85,0-3.93Z"/>
        <path class="cls-10" d="M42.06,244.43c.71,0,1.42-.27,1.97-.81,1.09-1.09,1.09-2.85,0-3.93l-.73-.73c-1.31,1.29-2.6,2.63-3.85,4.01l.65.65c.54.54,1.26.81,1.97.81Z"/>
        <path class="cls-10" d="M57.76,336.84l6.29,6.29c.54.54,1.26.81,1.97.81s1.42-.27,1.97-.81c1.09-1.09,1.09-2.85,0-3.93l-6.29-6.29c-1.09-1.09-2.85-1.09-3.93,0-1.09,1.09-1.09,2.85,0,3.93Z"/>
        <path class="cls-10" d="M79.83,271.9c-1.09-1.09-2.85-1.09-3.93,0l-6.29,6.29c-1.09,1.09-1.09,2.85,0,3.93.54.54,1.25.81,1.97.81s1.42-.27,1.97-.81l6.29-6.29c1.09-1.09,1.09-2.85,0-3.93Z"/>
        <path class="cls-10" d="M79.83,346.54c-1.09-1.09-2.85-1.09-3.93,0l-6.29,6.29c-1.09,1.09-1.09,2.85,0,3.93.54.54,1.25.81,1.97.81s1.42-.27,1.97-.81l6.29-6.29c1.09-1.09,1.09-2.85,0-3.93Z"/>
        <path class="cls-10" d="M79.83,296.78c-1.09-1.09-2.85-1.09-3.93,0l-6.29,6.29c-1.09,1.09-1.09,2.85,0,3.93.54.54,1.25.81,1.97.81s1.42-.27,1.97-.81l6.29-6.29c1.09-1.09,1.09-2.85,0-3.93Z"/>
        <path class="cls-10" d="M79.83,321.66c-1.09-1.09-2.85-1.09-3.93,0l-6.29,6.29c-1.09,1.09-1.09,2.85,0,3.93.54.54,1.25.81,1.97.81s1.42-.27,1.97-.81l6.29-6.29c1.09-1.09,1.09-2.85,0-3.93Z"/>
        <path class="cls-10" d="M57.76,311.96l6.29,6.29c.54.54,1.26.81,1.97.81s1.42-.27,1.97-.81c1.09-1.09,1.09-2.85,0-3.93l-6.29-6.29c-1.09-1.09-2.85-1.09-3.93,0-1.09,1.09-1.09,2.85,0,3.93Z"/>
        <path class="cls-10" d="M44.02,388.96l-6.29-6.29c-1.09-1.09-2.85-1.09-3.93,0-1.09,1.09-1.09,2.85,0,3.93l4.12,4.12,6.77,1.08c.32-.97.11-2.07-.66-2.84Z"/>
        <path class="cls-10" d="M71.58,382.46c.71,0,1.42-.27,1.97-.81l6.29-6.29c1.09-1.09,1.09-2.85,0-3.93-1.09-1.09-2.85-1.09-3.93,0l-6.29,6.29c-1.09,1.09-1.09,2.85,0,3.93.54.54,1.25.81,1.97.81Z"/>
        <path class="cls-10" d="M21.69,307c.54.54,1.26.81,1.97.81s1.42-.27,1.97-.81l6.29-6.29c1.09-1.09,1.09-2.85,0-3.93-1.09-1.09-2.85-1.09-3.93,0l-6.29,6.29c-1.09,1.09-1.09,2.85,0,3.93Z"/>
        <path class="cls-10" d="M21.69,331.88c.54.54,1.26.81,1.97.81s1.42-.27,1.97-.81l6.29-6.29c1.09-1.09,1.09-2.85,0-3.93-1.09-1.09-2.85-1.09-3.93,0l-6.29,6.29c-1.09,1.09-1.09,2.85,0,3.93Z"/>
        <path class="cls-10" d="M23.66,282.94c.71,0,1.42-.27,1.97-.81l6.29-6.29c1.09-1.09,1.09-2.85,0-3.93-1.09-1.09-2.85-1.09-3.93,0l-6.29,6.29c-1.09,1.09-1.09,2.85,0,3.93.54.54,1.26.81,1.97.81Z"/>
        <path class="cls-10" d="M57.76,287.08l6.29,6.29c.54.54,1.26.81,1.97.81s1.42-.27,1.97-.81c1.09-1.09,1.09-2.85,0-3.93l-6.29-6.29c-1.09-1.09-2.85-1.09-3.93,0-1.09,1.09-1.09,2.85,0,3.93Z"/>
        <path class="cls-10" d="M79.83,247.02c-1.09-1.09-2.85-1.09-3.93,0l-6.29,6.29c-1.09,1.09-1.09,2.85,0,3.93.54.54,1.25.81,1.97.81s1.42-.27,1.97-.81l6.29-6.29c1.09-1.09,1.09-2.85,0-3.93Z"/>
        <path class="cls-10" d="M79.83,222.14c-1.09-1.09-2.85-1.09-3.93,0l-6.29,6.29c-1.09,1.09-1.09,2.85,0,3.93.54.54,1.25.81,1.97.81s1.42-.27,1.97-.81l6.29-6.29c1.09-1.09,1.09-2.85,0-3.93Z"/>
        <path class="cls-10" d="M42.06,368.82c.71,0,1.42-.27,1.97-.81,1.09-1.09,1.09-2.85,0-3.93l-6.29-6.29c-1.09-1.09-2.85-1.09-3.93,0-1.09,1.09-1.09,2.85,0,3.93l6.29,6.29c.54.54,1.26.81,1.97.81Z"/>
        <path class="cls-10" d="M21.69,356.76c.54.54,1.26.81,1.97.81s1.42-.27,1.97-.81l6.29-6.29c1.09-1.09,1.09-2.85,0-3.93-1.09-1.09-2.85-1.09-3.93,0l-6.29,6.29c-1.09,1.09-1.09,2.85,0,3.93Z"/>
        <path class="cls-10" d="M201.52,311.96l6.29,6.29c.54.54,1.25.81,1.97.81s1.42-.27,1.97-.81c1.09-1.09,1.09-2.85,0-3.93l-6.29-6.29c-1.09-1.09-2.85-1.09-3.93,0-1.09,1.09-1.09,2.85,0,3.93Z"/>
        <path class="cls-10" d="M207.81,268.49c.54.54,1.25.81,1.97.81s1.42-.27,1.97-.81c1.09-1.09,1.09-2.85,0-3.93l-6.29-6.29c-1.09-1.09-2.85-1.09-3.93,0-1.09,1.09-1.09,2.85,0,3.93l6.29,6.29Z"/>
        <path class="cls-10" d="M215.34,332.7c.71,0,1.42-.27,1.97-.81l6.29-6.29c1.09-1.09,1.09-2.85,0-3.93-1.09-1.09-2.85-1.09-3.93,0l-6.29,6.29c-1.09,1.09-1.09,2.85,0,3.93.54.54,1.25.81,1.97.81Z"/>
        <path class="cls-10" d="M223.59,296.78c-1.09-1.09-2.85-1.09-3.93,0l-6.29,6.29c-1.09,1.09-1.09,2.85,0,3.93.54.54,1.25.81,1.97.81s1.42-.27,1.97-.81l6.29-6.29c1.09-1.09,1.09-2.85,0-3.93Z"/>
        <path class="cls-10" d="M240.19,207.78c.48.34,1.04.51,1.6.51.19,0,.39-.02.58-.06-.7-.21-1.43-.35-2.18-.45Z"/>
        <path class="cls-10" d="M227.97,212.44l6.29,6.29c.54.54,1.25.81,1.97.81s1.42-.27,1.97-.81c1.09-1.09,1.09-2.85,0-3.93l-6.29-6.29c-.08-.08-.17-.14-.25-.21-1.54.38-3.02.91-4.42,1.58-.2.89.05,1.87.74,2.56Z"/>
        <path class="cls-10" d="M201.52,287.08l6.29,6.29c.54.54,1.25.81,1.97.81s1.42-.27,1.97-.81c1.09-1.09,1.09-2.85,0-3.93l-6.29-6.29c-1.09-1.09-2.85-1.09-3.93,0-1.09,1.09-1.09,2.85,0,3.93Z"/>
        <path class="cls-10" d="M209.78,244.43c.71,0,1.42-.27,1.97-.81,1.09-1.09,1.09-2.85,0-3.93l-4.64-4.64c-.79,1.88-1.52,3.78-2.19,5.67l2.9,2.9c.54.54,1.25.81,1.97.81Z"/>
        <path class="cls-10" d="M250.04,222.14c-1.09-1.09-2.85-1.09-3.93,0l-6.29,6.29c-1.09,1.09-1.09,2.85,0,3.93.54.54,1.25.81,1.97.81s1.42-.27,1.97-.81l6.29-6.29c1.09-1.09,1.09-2.85,0-3.93Z"/>
        <path class="cls-10" d="M250.04,296.78c-1.09-1.09-2.85-1.09-3.93,0l-6.29,6.29c-1.09,1.09-1.09,2.85,0,3.93.54.54,1.25.81,1.97.81s1.42-.27,1.97-.81l4.78-4.78c.69-1.59,1.34-3.2,1.96-4.83-.12-.22-.26-.43-.45-.61Z"/>
        <path class="cls-10" d="M223.59,271.9c-1.09-1.09-2.85-1.09-3.93,0l-6.29,6.29c-1.09,1.09-1.09,2.85,0,3.93.54.54,1.25.81,1.97.81s1.42-.27,1.97-.81l6.29-6.29c1.09-1.09,1.09-2.85,0-3.93Z"/>
        <path class="cls-10" d="M251.93,283.15c-1.09,1.09-1.09,2.85,0,3.93l1.54,1.54c.6-1.98,1.15-3.98,1.65-5.99-1.04-.52-2.33-.35-3.2.51Z"/>
        <path class="cls-10" d="M223.59,222.14c-1.09-1.09-2.85-1.09-3.93,0l-6.29,6.29c-1.09,1.09-1.09,2.85,0,3.93.54.54,1.25.81,1.97.81s1.42-.27,1.97-.81l6.29-6.29c1.09-1.09,1.09-2.85,0-3.93Z"/>
        <path class="cls-10" d="M223.59,247.02c-1.09-1.09-2.85-1.09-3.93,0l-6.29,6.29c-1.09,1.09-1.09,2.85,0,3.93.54.54,1.25.81,1.97.81s1.42-.27,1.97-.81l6.29-6.29c1.09-1.09,1.09-2.85,0-3.93Z"/>
        <path class="cls-10" d="M157.53,382.67c-1.09-1.09-2.85-1.09-3.93,0-1.09,1.09-1.09,2.85,0,3.93l4.78,4.78,5.04-2.82-5.89-5.89Z"/>
        <path class="cls-10" d="M181.49,332.91c-1.09-1.09-2.85-1.09-3.93,0-.36.36-.59.79-.71,1.25.07-.09.15-.18.23-.27,3.4,2.65,7.14,4.74,11.26,6.12-.13-.29-.31-.57-.55-.81l-6.29-6.29Z"/>
        <path class="cls-10" d="M195.7,271.9l-6.29,6.29c-1.09,1.09-1.09,2.85,0,3.93.54.54,1.25.81,1.97.81s1.42-.27,1.97-.81l6.29-6.29c1.09-1.09,1.09-2.85,0-3.93-1.09-1.09-2.85-1.09-3.93,0Z"/>
        <path class="cls-10" d="M251.93,258.27c-1.09,1.09-1.09,2.85,0,3.93l6.04,6.04c.34-2.36.61-4.71.82-7.04l-2.93-2.93c-1.09-1.09-2.85-1.09-3.93,0Z"/>
        <path class="cls-10" d="M79.83,396.3c-1.09-1.09-2.85-1.09-3.93,0l-.39.4,5.02.8c-.13-.44-.35-.85-.69-1.19Z"/>
        <path class="cls-10" d="M133.57,357.79c-1.09-1.09-2.85-1.09-3.93,0-1.09,1.09-1.09,2.85,0,3.93l2.35,2.35c1.82-.77,3.65-1.57,5.47-2.4l-3.88-3.88Z"/>
        <path class="cls-10" d="M103.79,371.42c-1.09-1.09-2.85-1.09-3.93,0l-3.59,3.59c2.34-.6,5.63-1.24,8.32-1.76-.03-.66-.29-1.32-.8-1.83Z"/>
        <path class="cls-10" d="M241.79,282.94c.71,0,1.42-.27,1.97-.81l6.29-6.29c1.09-1.09,1.09-2.85,0-3.93-1.09-1.09-2.85-1.09-3.93,0l-6.29,6.29c-1.09,1.09-1.09,2.85,0,3.93.54.54,1.25.81,1.97.81Z"/>
        <path class="cls-10" d="M251.93,233.39c-1.09,1.09-1.09,2.85,0,3.93l6.29,6.29c.29.29.63.5,1,.63-.14-2.86-.39-5.62-.76-8.26l-2.6-2.6c-1.09-1.09-2.85-1.09-3.93,0Z"/>
        <path class="cls-10" d="M238.19,264.56l-6.29-6.29c-1.09-1.09-2.85-1.09-3.93,0-1.09,1.09-1.09,2.85,0,3.93l6.29,6.29c.54.54,1.25.81,1.97.81s1.42-.27,1.97-.81c1.09-1.09,1.09-2.85,0-3.93Z"/>
        <path class="cls-10" d="M250.04,247.02c-1.09-1.09-2.85-1.09-3.93,0l-6.29,6.29c-1.09,1.09-1.09,2.85,0,3.93.54.54,1.25.81,1.97.81s1.42-.27,1.97-.81l6.29-6.29c1.09-1.09,1.09-2.85,0-3.93Z"/>
        <path class="cls-10" d="M234.26,243.61c.54.54,1.25.81,1.97.81s1.42-.27,1.97-.81c1.09-1.09,1.09-2.85,0-3.93l-6.29-6.29c-1.09-1.09-2.85-1.09-3.93,0-1.09,1.09-1.09,2.85,0,3.93l6.29,6.29Z"/>
        <path class="cls-10" d="M238.19,289.44l-6.29-6.29c-1.09-1.09-2.85-1.09-3.93,0-1.09,1.09-1.09,2.85,0,3.93l6.29,6.29c.54.54,1.25.81,1.97.81s1.42-.27,1.97-.81c1.09-1.09,1.09-2.85,0-3.93Z"/>
        <path class="cls-10" d="M231.9,308.03c-1.09-1.09-2.85-1.09-3.93,0-1.09,1.09-1.09,2.85,0,3.93l6.29,6.29c.54.54,1.25.81,1.97.81s1.42-.27,1.97-.81c1.09-1.09,1.09-2.85,0-3.93l-6.29-6.29Z"/>
        <path class="cls-10" d="M151.71,371.42c-1.09-1.09-2.85-1.09-3.93,0l-1.76,1.76c.48,2.11.97,4.29,1.45,6.41l4.24-4.24c1.09-1.09,1.09-2.85,0-3.93Z"/>
        <path class="cls-10" d="M129.64,336.84l6.29,6.29c.54.54,1.25.81,1.97.81s1.42-.27,1.97-.81c1.09-1.09,1.09-2.85,0-3.93l-6.29-6.29c-1.09-1.09-2.85-1.09-3.93,0-1.09,1.09-1.09,2.85,0,3.93Z"/>
        <path class="cls-10" d="M135.93,318.25c.54.54,1.25.81,1.97.81s1.42-.27,1.97-.81c1.09-1.09,1.09-2.85,0-3.93l-6.29-6.29c-1.09-1.09-2.85-1.09-3.93,0-1.09,1.09-1.09,2.85,0,3.93l6.29,6.29Z"/>
        <path class="cls-10" d="M151.71,346.54c-1.09-1.09-2.85-1.09-3.93,0l-6.29,6.29c-1.09,1.09-1.09,2.85,0,3.93.54.54,1.25.81,1.97.81s1.42-.27,1.97-.81l6.29-6.29c1.09-1.09,1.09-2.85,0-3.93Z"/>
        <path class="cls-10" d="M151.71,321.66c-1.09-1.09-2.85-1.09-3.93,0l-6.29,6.29c-1.09,1.09-1.09,2.85,0,3.93.54.54,1.25.81,1.97.81s1.42-.27,1.97-.81l6.29-6.29c1.09-1.09,1.09-2.85,0-3.93Z"/>
        <path class="cls-10" d="M175.67,296.78c-1.09-1.09-2.85-1.09-3.93,0l-6.29,6.29c-1.09,1.09-1.09,2.85,0,3.93.54.54,1.25.81,1.97.81s1.42-.27,1.97-.81l6.29-6.29c1.09-1.09,1.09-2.85,0-3.93Z"/>
        <path class="cls-10" d="M175.67,247.02c-1.09-1.09-2.85-1.09-3.93,0l-6.29,6.29c-1.09,1.09-1.09,2.85,0,3.93.54.54,1.25.81,1.97.81s1.42-.27,1.97-.81l6.29-6.29c1.09-1.09,1.09-2.85,0-3.93Z"/>
        <path class="cls-10" d="M112.72,286.26l-3.11-3.11c-1.09-1.09-2.85-1.09-3.93,0-1.09,1.09-1.09,2.85,0,3.93l6.29,6.29c.54.54,1.25.81,1.97.81s1.42-.27,1.97-.81c1.09-1.09,1.09-2.85,0-3.93l-.32-.32c-1.99.74-3.22,1.24-3.22,1.24,0,0,.13-1.51.36-4.11Z"/>
        <path class="cls-10" d="M151.71,296.78c-1.09-1.09-2.85-1.09-3.93,0l-6.29,6.29c-1.09,1.09-1.09,2.85,0,3.93.54.54,1.25.81,1.97.81s1.42-.27,1.97-.81l6.29-6.29c1.09-1.09,1.09-2.85,0-3.93Z"/>
        <path class="cls-10" d="M152.1,225.58c-.11.18-.23.34-.38.49l-1.23,1.23-2.85,2.85c-.89-2.03-1.8-3.76-2.67-5.2l.85-.84.5-.5c1.91.5,3.84,1.16,5.78,1.97Z"/>
        <path class="cls-10" d="M175.67,321.66c-1.09-1.09-2.85-1.09-3.93,0l-6.29,6.29c-1.09,1.09-1.09,2.85,0,3.93.54.54,1.25.81,1.97.81s1.42-.27,1.97-.81l6.29-6.29c1.09-1.09,1.09-2.85,0-3.93Z"/>
        <path class="cls-10" d="M129.64,287.08l6.29,6.29c.54.54,1.25.81,1.97.81s1.42-.27,1.97-.81c1.09-1.09,1.09-2.85,0-3.93l-5.64-5.64c-1.74.35-3.52.75-5.39,1.22-.03.75.24,1.5.8,2.07Z"/>
        <path class="cls-10" d="M145.36,282.17c-1.09.09-2.21.2-3.37.34.45.28.96.42,1.47.42.69,0,1.37-.26,1.9-.76Z"/>
        <path class="cls-10" d="M175.67,271.9c-1.09-1.09-2.85-1.09-3.93,0l-6.29,6.29c-1.09,1.09-1.09,2.85,0,3.93.54.54,1.25.81,1.97.81s1.42-.27,1.97-.81l6.29-6.29c1.09-1.09,1.09-2.85,0-3.93Z"/>
        <path class="cls-10" d="M181.49,283.15c-1.09-1.09-2.85-1.09-3.93,0-1.09,1.09-1.09,2.85,0,3.93l6.29,6.29c.54.54,1.25.81,1.97.81s1.42-.27,1.97-.81c1.09-1.09,1.09-2.85,0-3.93l-6.29-6.29Z"/>
        <path class="cls-10" d="M187.78,264.56l-6.29-6.29c-1.09-1.09-2.85-1.09-3.93,0-1.09,1.09-1.09,2.85,0,3.93l6.29,6.29c.54.54,1.25.81,1.97.81s1.42-.27,1.97-.81c1.09-1.09,1.09-2.85,0-3.93Z"/>
        <path class="cls-10" d="M199.63,296.78c-1.09-1.09-2.85-1.09-3.93,0l-6.29,6.29c-1.09,1.09-1.09,2.85,0,3.93.54.54,1.25.81,1.97.81s1.42-.27,1.97-.81l6.29-6.29c1.09-1.09,1.09-2.85,0-3.93Z"/>
        <path class="cls-10" d="M64.05,243.61c.54.54,1.26.81,1.97.81s1.42-.27,1.97-.81c1.09-1.09,1.09-2.85,0-3.93l-6.29-6.29c-1.09-1.09-2.85-1.09-3.93,0-1.09,1.09-1.09,2.85,0,3.93l6.29,6.29Z"/>
        <path class="cls-10" d="M205.45,332.91c-1.09-1.09-2.85-1.09-3.93,0-1.09,1.09-1.09,2.85,0,3.93l4.67,4.68c2.12-.3,4.18-.75,6.17-1.36-.14-.35-.34-.68-.62-.96l-6.29-6.29Z"/>
        <path class="cls-10" d="M191.38,332.7c.71,0,1.42-.27,1.97-.81l6.29-6.29c1.09-1.09,1.09-2.85,0-3.93-1.09-1.09-2.85-1.09-3.93,0l-6.29,6.29c-1.09,1.09-1.09,2.85,0,3.93.54.54,1.25.81,1.97.81Z"/>
        <path class="cls-10" d="M188.96,256.63c.11.19.23.37.39.54-.13-.18-.26-.36-.39-.54Z"/>
        <path class="cls-10" d="M153.6,311.96l6.29,6.29c.54.54,1.25.81,1.97.81s1.42-.27,1.97-.81c1.09-1.09,1.09-2.85,0-3.93l-6.29-6.29c-1.09-1.09-2.85-1.09-3.93,0-1.09,1.09-1.09,2.85,0,3.93Z"/>
        <path class="cls-10" d="M153.6,336.84l6.29,6.29c.54.54,1.25.81,1.97.81s1.42-.27,1.97-.81c1.09-1.09,1.09-2.85,0-3.93l-6.29-6.29c-1.09-1.09-2.85-1.09-3.93,0-1.09,1.09-1.09,2.85,0,3.93Z"/>
        <path class="cls-10" d="M153.6,361.72l6.29,6.29c.08.08.18.15.27.22l-4.83-11.23c-.63.05-1.24.31-1.72.79-1.09,1.09-1.09,2.85,0,3.93Z"/>
        <path class="cls-10" d="M166.14,382.13l-1.39-3.22c-.27.94-.04,1.99.69,2.73.21.21.44.36.69.49Z"/>
        <path class="cls-10" d="M153.6,287.08l6.29,6.29c.54.54,1.25.81,1.97.81s1.42-.27,1.97-.81c1.09-1.09,1.09-2.85,0-3.93l-6.29-6.29c-1.09-1.09-2.85-1.09-3.93,0-1.09,1.09-1.09,2.85,0,3.93Z"/>
        <path class="cls-10" d="M159.89,243.61c.54.54,1.25.81,1.97.81s1.42-.27,1.97-.81c1.09-1.09,1.09-2.85,0-3.93l-6.29-6.29c-1.09-1.09-2.85-1.09-3.93,0-1.09,1.09-1.09,2.85,0,3.93l6.29,6.29Z"/>
        <path class="cls-10" d="M163.83,268.49c-.55.54-1.26.81-1.97.81s-1.42-.27-1.97-.81l-4.4-4.41c-.19-2.26-.43-4.43-.71-6.52.94-.27,2.01-.04,2.76.7l6.29,6.29c1.08,1.09,1.08,2.85,0,3.94Z"/>
        <path class="cls-10" d="M181.49,308.03c-1.09-1.09-2.85-1.09-3.93,0-1.09,1.09-1.09,2.85,0,3.93l6.29,6.29c.54.54,1.25.81,1.97.81s1.42-.27,1.97-.81c1.09-1.09,1.09-2.85,0-3.93l-6.29-6.29Z"/>
        <path class="cls-10" d="M103.79,321.66c-1.09-1.09-2.85-1.09-3.93,0l-6.29,6.29c-1.09,1.09-1.09,2.85,0,3.93.54.54,1.25.81,1.97.81s1.42-.27,1.97-.81l6.29-6.29c1.09-1.09,1.09-2.85,0-3.93Z"/>
        <path class="cls-10" d="M103.79,350.47c1.09-1.09,1.09-2.85,0-3.93-1.09-1.09-2.85-1.09-3.93,0l-6.29,6.29c-1.09,1.09-1.09,2.85,0,3.93.54.54,1.25.81,1.97.81s1.42-.27,1.97-.81l6.29-6.29Z"/>
        <path class="cls-10" d="M103.79,271.9c-1.09-1.09-2.85-1.09-3.93,0l-6.29,6.29c-1.09,1.09-1.09,2.85,0,3.93.54.54,1.25.81,1.97.81s1.42-.27,1.97-.81l6.29-6.29c1.09-1.09,1.09-2.85,0-3.93Z"/>
        <path class="cls-10" d="M103.79,296.78c-1.09-1.09-2.85-1.09-3.93,0l-6.29,6.29c-1.09,1.09-1.09,2.85,0,3.93.54.54,1.25.81,1.97.81s1.42-.27,1.97-.81l6.29-6.29c1.09-1.09,1.09-2.85,0-3.93Z"/>
        <path class="cls-10" d="M81.72,311.96l6.29,6.29c.54.54,1.25.81,1.97.81s1.42-.27,1.97-.81c1.09-1.09,1.09-2.85,0-3.93l-6.29-6.29c-1.09-1.09-2.85-1.09-3.93,0-1.09,1.09-1.09,2.85,0,3.93Z"/>
        <path class="cls-10" d="M81.72,287.08l6.29,6.29c.54.54,1.25.81,1.97.81s1.42-.27,1.97-.81c1.09-1.09,1.09-2.85,0-3.93l-6.29-6.29c-1.09-1.09-2.85-1.09-3.93,0-1.09,1.09-1.09,2.85,0,3.93Z"/>
        <path class="cls-10" d="M81.72,336.84l6.29,6.29c.54.54,1.25.81,1.97.81s1.42-.27,1.97-.81c1.09-1.09,1.09-2.85,0-3.93l-6.29-6.29c-1.09-1.09-2.85-1.09-3.93,0-1.09,1.09-1.09,2.85,0,3.93Z"/>
        <path class="cls-10" d="M93.14,378.29c-.47.82-.49,1.82-.06,2.66.02-1.01.04-1.91.06-2.66Z"/>
        <path class="cls-10" d="M61.69,382.67c-1.09-1.09-2.85-1.09-3.93,0-1.09,1.09-1.09,2.85,0,3.93l6.29,6.29c.54.54,1.26.81,1.97.81s1.42-.27,1.97-.81c1.09-1.09,1.09-2.85,0-3.93l-6.29-6.29Z"/>
        <path class="cls-10" d="M67.98,364.08l-6.29-6.29c-1.09-1.09-2.85-1.09-3.93,0-1.09,1.09-1.09,2.85,0,3.93l6.29,6.29c.54.54,1.26.81,1.97.81s1.42-.27,1.97-.81c1.09-1.09,1.09-2.85,0-3.93Z"/>
        <path class="cls-10" d="M57.76,262.2l6.29,6.29c.54.54,1.26.81,1.97.81s1.42-.27,1.97-.81c1.09-1.09,1.09-2.85,0-3.93l-6.29-6.29c-1.09-1.09-2.85-1.09-3.93,0-1.09,1.09-1.09,2.85,0,3.93Z"/>
        <path class="cls-10" d="M103.79,247.02c-1.09-1.09-2.85-1.09-3.93,0l-6.29,6.29c-1.09,1.09-1.09,2.85,0,3.93.54.54,1.25.81,1.97.81s1.42-.27,1.97-.81l6.29-6.29c1.09-1.09,1.09-2.85,0-3.93Z"/>
        <path class="cls-10" d="M89.98,219.55c.71,0,1.42-.27,1.97-.81,1.09-1.09,1.09-2.85,0-3.93l-1.98-1.98c-2.01.52-4.04,1.11-6.09,1.78l4.13,4.13c.54.54,1.25.81,1.97.81Z"/>
        <path class="cls-10" d="M115.9,339.2l-6.29-6.29c-1.09-1.09-2.85-1.09-3.93,0-1.09,1.09-1.09,2.85,0,3.93l6.29,6.29c.54.54,1.25.81,1.97.81s1.42-.27,1.97-.81c1.09-1.09,1.09-2.85,0-3.93Z"/>
        <path class="cls-10" d="M103.79,222.14c-1.09-1.09-2.85-1.09-3.93,0l-6.29,6.29c-1.09,1.09-1.09,2.85,0,3.93.54.54,1.25.81,1.97.81s1.42-.27,1.97-.81l6.29-6.29c1.09-1.09,1.09-2.85,0-3.93Z"/>
        <path class="cls-10" d="M117.53,228.43c-1.09,1.09-1.09,2.85,0,3.93.02.02.04.03.06.05.15-1.54.29-3.03.43-4.46l-.48.48Z"/>
        <path class="cls-10" d="M109.61,233.39c-1.09-1.09-2.85-1.09-3.93,0-1.09,1.09-1.09,2.85,0,3.93l6.29,6.29c.54.54,1.25.81,1.97.81s1.42-.27,1.97-.81c1.09-1.09,1.09-2.85,0-3.93l-6.29-6.29Z"/>
        <path class="cls-10" d="M105.68,262.2l6.29,6.29c.54.54,1.25.81,1.97.81.1,0,.19-.02.28-.03.17-1.89.34-3.86.52-5.88l-5.13-5.13c-1.09-1.09-2.85-1.09-3.93,0-1.09,1.09-1.09,2.85,0,3.93Z"/>
        <path class="cls-10" d="M115.9,314.32l-6.29-6.29c-1.09-1.09-2.85-1.09-3.93,0-1.09,1.09-1.09,2.85,0,3.93l6.29,6.29c.54.54,1.25.81,1.97.81s1.42-.27,1.97-.81c1.09-1.09,1.09-2.85,0-3.93Z"/>
        <path class="cls-10" d="M127.75,321.66c-1.09-1.09-2.85-1.09-3.93,0l-6.29,6.29c-1.09,1.09-1.09,2.85,0,3.93.54.54,1.25.81,1.97.81s1.42-.27,1.97-.81l6.29-6.29c1.09-1.09,1.09-2.85,0-3.93Z"/>
        <path class="cls-10" d="M88.01,243.61c.54.54,1.25.81,1.97.81s1.42-.27,1.97-.81c1.09-1.09,1.09-2.85,0-3.93l-6.29-6.29c-1.09-1.09-2.85-1.09-3.93,0-1.09,1.09-1.09,2.85,0,3.93l6.29,6.29Z"/>
        <path class="cls-10" d="M109.61,357.79c-1.09-1.09-2.85-1.09-3.93,0-1.09,1.09-1.09,2.85,0,3.93l6.29,6.29c.54.54,1.25.81,1.97.81s1.42-.27,1.97-.81c1.09-1.09,1.09-2.85,0-3.93l-6.29-6.29Z"/>
        <path class="cls-10" d="M123.82,346.54l-6.29,6.29c-1.09,1.09-1.09,2.85,0,3.93.54.54,1.25.81,1.97.81s1.42-.27,1.97-.81l6.29-6.29c1.09-1.09,1.09-2.85,0-3.93-1.09-1.09-2.85-1.09-3.93,0Z"/>
        <path class="cls-10" d="M85.65,382.67c-1.09-1.09-2.85-1.09-3.93,0-1.09,1.09-1.09,2.85,0,3.93l6.29,6.29c.54.54,1.25.81,1.97.81s1.42-.27,1.97-.81c1.09-1.09,1.09-2.85,0-3.93l-6.29-6.29Z"/>
        <path class="cls-10" d="M81.72,262.2l6.29,6.29c.54.54,1.25.81,1.97.81s1.42-.27,1.97-.81c1.09-1.09,1.09-2.85,0-3.93l-6.29-6.29c-1.09-1.09-2.85-1.09-3.93,0-1.09,1.09-1.09,2.85,0,3.93Z"/>
        <path class="cls-10" d="M91.94,364.08l-6.29-6.29c-1.09-1.09-2.85-1.09-3.93,0-1.09,1.09-1.09,2.85,0,3.93l6.29,6.29c.54.54,1.25.81,1.97.81s1.42-.27,1.97-.81c1.09-1.09,1.09-2.85,0-3.93Z"/>
        <path class="cls-10" d="M105.68,212.44l6.29,6.29c.54.54,1.25.81,1.97.81s1.42-.27,1.97-.81c1.09-1.09,1.09-2.85,0-3.93l-5.08-5.08c-.1,0-.2,0-.31,0-1.81.06-3.69.19-5.61.38-.11.83.14,1.7.78,2.34Z"/>
        <path class="cls-10" d="M127.75,296.78c-1.09-1.09-2.85-1.09-3.93,0l-6.29,6.29c-1.09,1.09-1.09,2.85,0,3.93.54.54,1.25.81,1.97.81s1.42-.27,1.97-.81l6.29-6.29c1.09-1.09,1.09-2.85,0-3.93Z"/>
      </g>
      <path class="cls-5" d="M71.58,306.09c4.16-3.23,40.78-15.73,40.78-15.73,0,0,5.74-2.37,12.65-4.33,34.74-9.84,48.34.67,51.06,3.34,8.4,8.23,9.07,21.57,6.88,32.44-2.47,12.28-12.88,20.11-22.53,27.03-10.25,7.35-22.17,12.76-33.6,17.36-5.79,2.33-11.69,4.38-17.69,6.12-1.78.52-14.74,3.64-15.87,3.84-17.69,3.12-55.94,8.96-75.37-26.13"/>
      <path class="cls-5" d="M207.86,229.38c4.62-22.64,26.71-37.24,49.35-32.63,22.64,4.62,37.24,26.71,32.63,49.35-4.62,22.64-26.71,37.24-49.35,32.63-22.64-4.62-37.24-26.71-32.63-49.35Z"/>
      <path class="cls-5" d="M215,230.83c3.81-18.7,22.06-30.76,40.76-26.95,18.7,3.81,30.76,22.06,26.95,40.76-3.81,18.7-22.06,30.76-40.76,26.95-18.7-3.81-30.76-22.06-26.94-40.76Z"/>
      <path class="cls-5" d="M211.35,289.25l11.89-18.43"/>
      <path class="cls-5" d="M203.74,320.7l-7.97,13.06c-.94,1.46-2.88,1.89-4.34.95l-2.68-1.72c-1.46-.94-1.88-2.88-.95-4.34l8.37-13.43"/>
      <path class="cls-5" d="M230.64,276.22l-12.27,18.01"/>
      <path class="cls-5" d="M169.96,301.5s16.07-13.9,28.88-14.65c17.82-1.04,31.76,18.95,23.12,23.94-2.22,1.28-2.06-4.08-7.25-8.14-4.74-3.7-10.75-5.56-10.75-5.56,0,0,11.04,3.84,14.53,9.68,5.73,9.58-1.45,13.7-1.45,13.7,0,0-3.31-5.18-6.84-8.53-3.53-3.35-9.83-6.16-9.83-6.16,0,0,7.58,3.86,11.22,7.77,3.69,3.96,6.38,6.65,2.93,9.35-3.73,2.92-18.57-7.98-18.57-7.98,0,0-13.6,14.6-22.88,4.55"/>
      <line class="cls-5" x1="91.42" y1="256.02" x2="88.02" y2="299.06"/>
      <path class="cls-5" d="M112.7,215.1c-1.7-.92-19.53,19.59-18.62,24.82s11.61,25.63,11.61,25.63c0,0-12.53,16.51-11.61,19.67.92,3.16,7.22,9.01,7.22,9.01"/>
      <path class="cls-5" d="M156.57,232.91c5.2,6.46,12.98,18.66,13.66,23.11.68,4.45-8.66,18.75-8.66,18.75l6.06,9.69"/>
      <g>
        <path class="cls-9" d="M257.37,171.79c-2.61.21-3.77,1.87-3.97,4.16-1.79-2.59-4.1-4.35-6.58-4.16-2.68.21-3.96,1.85-4.26,4.12l.06.19c-1.81-2.67-4.16-4.51-6.69-4.31-4.24.34-11.57,4.98-12.26,8.61,2.55,0,8.37,0,8.37,0,1.62,6.57,7.31,14.22,11.29,12.62,1.87-.76,2.73-2.82,2.81-5.39l.02.07c2.41,3.71,5.57,6.32,8.06,5.32,2.06-.83,2.88-3.25,2.81-6.17,2.18,3.2,4.95,5.39,7.16,4.5,6.12-2.47.45-20.14-6.82-19.57Z"/>
        <path class="cls-5" d="M232.04,180.41c1.62,6.57,7.31,14.22,11.29,12.62,6.64-2.68.49-21.86-7.4-21.23-4.24.34-11.57,4.98-12.26,8.61,2.55,0,8.37,0,8.37,0Z"/>
        <path class="cls-5" d="M242.56,175.92c.3-2.28,1.58-3.91,4.26-4.12,7.89-.63,14.04,18.55,7.4,21.23-2.49,1-5.64-1.61-8.06-5.32"/>
        <path class="cls-5" d="M253.4,175.96c.19-2.29,1.36-3.96,3.97-4.16,7.27-.58,12.94,17.1,6.82,19.57-2.22.9-5.01-1.33-7.2-4.57"/>
      </g>
    </g>
  </g>
  <g id="SEO">
    <g>
      <path class="cls-12" d="M390.7,310.23c0-23.15,18.77-41.91,41.91-41.91s41.91,18.77,41.91,41.91-18.77,41.91-41.91,41.91-41.91-18.77-41.91-41.91Z"/>
      <path class="cls-8" d="M473.18,298.51l-42.75,12.78,29.35,31.09c13.4-11.19,17.01-28.61,13.41-43.87Z"/>
      <path class="cls-9" d="M462.51,280.94l-32.08,30.36,42.75-12.79c-2.73-8.34-6.55-13.82-10.66-17.57Z"/>
    </g>
    <path class="cls-8" d="M380.19,361.59l-.12,3.15c-1.01.44-1.97.95-2.86,1.55l-2.78-1.62-5.71,7.06,1.99,2.31c-.59,1.35-1.01,2.79-1.26,4.28l-3.09.93,1.23,8.99,3.08.13c.53,1.23,1.17,2.38,1.94,3.44l-1.41,2.79,7.24,5.48,2.13-2.06c1.16.46,2.38.8,3.63,1.02l.86,3.05,9.01-1.08.18-3.14c1.09-.46,2.12-1.02,3.09-1.67l2.81,1.54,5.72-7.06-2.07-2.28c.59-1.36,1-2.79,1.24-4.28l3.04-.99-1.23-8.99-3.09-.05c-.53-1.2-1.16-2.33-1.92-3.38l1.56-2.89-7.24-5.48-2.35,2.16c-1.17-.46-2.39-.79-3.65-.99l-.91-2.99-9.01,1.08ZM386.8,377.92c1.87-.22,3.56,1.11,3.78,2.97.22,1.87-1.11,3.55-2.98,3.77-1.87.22-3.56-1.1-3.78-2.96-.22-1.86,1.11-3.56,2.97-3.78Z"/>
    <path class="cls-1" d="M282.11,331.43l-.18,4.64c-1.49.64-2.9,1.4-4.23,2.29l-4.11-2.39-8.43,10.41,2.94,3.42c-.88,2-1.49,4.11-1.86,6.31l-4.56,1.37,1.82,13.27,4.54.19c.78,1.81,1.73,3.51,2.86,5.08l-2.09,4.12,10.68,8.09,3.14-3.05c1.72.69,3.51,1.19,5.36,1.5l1.27,4.5,13.29-1.59.26-4.64c1.61-.68,3.13-1.5,4.55-2.46l4.15,2.28,8.43-10.41-3.06-3.37c.86-2.01,1.47-4.12,1.82-6.32l4.48-1.46-1.82-13.27-4.56-.08c-.77-1.78-1.71-3.44-2.83-4.98l2.3-4.27-10.68-8.09-3.47,3.19c-1.73-.68-3.53-1.16-5.39-1.46l-1.35-4.41-13.29,1.59ZM291.87,355.52c2.75-.33,5.25,1.64,5.58,4.39.33,2.75-1.64,5.24-4.39,5.57-2.75.33-5.25-1.62-5.58-4.37-.33-2.75,1.64-5.26,4.39-5.58Z"/>
    <path class="cls-12" d="M291.22,330.07c0-2.78-.98-4.95-2.95-6.5-1.97-1.55-5.43-3.16-10.38-4.82-4.95-1.66-9-3.27-12.14-4.82-10.23-5.02-15.34-11.92-15.34-20.7,0-4.37,1.27-8.23,3.82-11.57,2.55-3.34,6.15-5.94,10.81-7.8,4.66-1.86,9.9-2.79,15.72-2.79s10.76,1.01,15.26,3.04c4.5,2.02,7.99,4.91,10.49,8.64,2.49,3.74,3.74,8.01,3.74,12.82h-18.97c0-3.22-.98-5.71-2.95-7.48-1.97-1.77-4.63-2.66-7.99-2.66s-6.08.75-8.05,2.25c-1.97,1.5-2.95,3.41-2.95,5.72,0,2.02,1.08,3.86,3.25,5.5,2.17,1.64,5.98,3.34,11.44,5.09,5.46,1.75,9.94,3.64,13.44,5.66,8.53,4.91,12.79,11.69,12.79,20.32,0,6.9-2.6,12.32-7.8,16.26-5.2,3.94-12.34,5.91-21.41,5.91-6.4,0-12.19-1.15-17.37-3.44-5.19-2.29-9.09-5.44-11.71-9.43-2.62-3.99-3.93-8.59-3.93-13.79h19.08c0,4.23,1.09,7.34,3.28,9.35,2.19,2,5.74,3.01,10.65,3.01,3.14,0,5.63-.68,7.45-2.03,1.82-1.36,2.74-3.26,2.74-5.72Z"/>
    <path class="cls-12" d="M374.49,317.55h-29.92v18.86h35.34v14.63h-54.36v-78.91h54.47v14.69h-35.45v16.64h29.92v14.09Z"/>
  </g>
  <g id="Character_3">
    <g>
      <g id="Layer-14">
        <path class="cls-8" d="M637.58,319.94c39.65,18.17,34.14,94.46,34.14,94.46h-144.07s3.05-23.22,8.25-47.26,18.56-48.88,18.56-48.88c0,0,43.47-16.49,83.12,1.69Z"/>
      </g>
      <g id="Layer-13">
        <path class="cls-12" d="M516.27,255.07s-15.42-30.73-42.89-13.24c-30.35,19.33,1.69,89.09,28.56,98.27,27.13,9.27,46.01-13.03,46.01-13.03,0,0,12.09,6.31,26.45,7.62,14.92,1.36,28.43-3.73,28.43-3.73,0,0,24.07,16.43,56.7,11.18,20.64-3.32,32.97-20.72,29.95-52.79-4.58-48.52-43.42-69.18-68.84-75.53-29.81-7.45-45.85-5.1-68.14,3.79-24.33,9.7-36.23,37.45-36.23,37.45Z"/>
      </g>
      <g id="Layer-27">
        <path class="cls-11" d="M588.1,209.52c-.67.01-1.35,0-2.01.03v5.4h-10.99v-4.21c-.67.12-1.34.3-2.01.44v3.77h-11.02v-.79c-.67.22-1.34.39-2.01.63v.16h-.41c-1.76.62-3.57,1.3-5.4,2.01h5.81v11.02h-11.02v-8.57c-.68.34-1.35.67-2.01,1.04v7.53h-10.86c-.77.68-1.41,1.4-2.13,2.1v10.89h-9.45c-.5.69-.9,1.34-1.35,2.01h10.8v11.02h-11.02v-10.71c-.69,1.04-1.43,2.07-2.01,3.01v7.69h-4.21c-.08.19-.53,1.07-.53,1.07,0,0-.55-.87-.66-1.07h-5.62v-7.72c-.58-.62-1.36-1.2-2.01-1.82v9.54h-10.99v-11.02h9.36c-.87-.73-1.81-1.35-2.79-2.01h-6.56v-3.33c-.66-.21-1.32-.44-2.01-.6v3.92h-11.02v-3.77c-.66.16-1.33.38-2.01.6v3.17h-7c-.53.3-1.03.51-1.57.85-.53.33-.89.8-1.38,1.16h9.95v11.02h-10.99v-10.14c-.68.57-1.41,1.1-2.01,1.73v8.41h-5.21c-.26.67-.56,1.32-.78,2.01h6v11.02h-7.76c-.02.67-.04,1.33-.03,2.01h7.79v10.99h-6.72c.12.66.3,1.34.44,2.01h6.28v11.02h-3.27c.23.67.41,1.34.66,2.01h2.61v6.5c.63,1.43,1.32,2.81,2.01,4.21v-10.71h10.99v11.02h-10.83c.33.67.66,1.35,1,2.01h9.83v10.99h-3.27c.47.69.96,1.34,1.44,2.01h1.82v2.54c.66.85,1.34,1.59,2.01,2.39v-4.93h11.02v11.02h-5.27c.72.67,1.44,1.41,2.17,2.01h3.11v2.23c.67.46,1.34,1.02,2.01,1.41v-3.64h10.99v7.5c.68.13,1.34.23,2.01.31v-7.82h11.02v7.76c.71-.11,1.32-.36,2.01-.5v-7.25h11.02v3.45c.69-.36,1.36-.69,2.01-1.07v-2.39h3.77c1.01-.71,1.83-1.34,2.67-2.01h-6.44v-11.02h10.99v6.88c.17-.19.91-.91.91-.91,0,0,.98.41,1.1.47v-6.44h11.02v10.61c3.29,1.01,6.96,1.82,11.02,2.42h2.01v.35c.46.05.85.18,1.32.22.24.02.46.01.69.03v-.6h10.99v.44c.73-.07,1.31-.22,2.01-.31v-.13h.85c4.99-.71,7.35-1.29,9.7-2.01h-10.55v-11.02h11.02v10.89c.61-.19,1.71-.46,2.01-.57v-10.33h11.02v11.02h-7.35c.9.55,1.6.95,3.71,2.01h3.64v1.76c.59.26,1.37.52,2.01.79v-2.54h10.99v6.19c.7.18,1.28.39,2.01.56v-6.75h11.02v8.54c.64.07,1.35.04,2.01.09v-8.63h11.02v8.73c.66-.04,1.34-.1,2.01-.16v-8.57h10.99v6.81c.66-.19,1.37-.31,2.01-.53v-6.28h10.61c.82-.72,1.67-1.39,2.42-2.2v-10.83h6.69c.28-.69.66-1.28.91-2.01h-7.6v-10.99h9.98c.08-.65.12-1.34.19-2.01h-10.17v-11.02h10.45c-.02-.67-.02-1.33-.06-2.01h-10.39v-11.02h9.2c-.12-.67-.21-1.35-.35-2.01h-8.85v-10.99h5.81c-.23-.67-.44-1.35-.69-2.01h-5.12v-10.96c-.65-1.15-1.31-2.3-2.01-3.39v1.32h-11.02v-11.02h3.71c-.59-.67-1.16-1.37-1.76-2.01h-1.95v-1.95c-.66-.66-1.33-1.31-2.01-1.95v3.89h-10.99v-10.99h2.13c-1.39-.99-2.73-2.05-4.14-2.95v.94h-11.02v-7.03c-.68-.32-1.33-.57-2.01-.88v7.91h-11.02v-11.02h3.71c-2.26-.82-4.36-1.39-6.5-2.01h-10.2v-2.54c-.66-.14-1.36-.34-2.01-.47v3.01h-11.02v-4.84c-.69-.08-1.34-.12-2.01-.19v5.02h-11.02v-5.43ZM562.07,216.96h11.02v11.02h-11.02v-11.02ZM575.1,216.96h10.99v11.02h-10.99v-11.02ZM588.1,216.96h11.02v11.02h-11.02v-11.02ZM601.13,216.96h11.02v11.02h-11.02v-11.02ZM614.16,216.96h10.99v11.02h-10.99v-11.02ZM536.05,229.99h10.99v10.99h-10.99v-10.99ZM549.04,229.99h11.02v10.99h-11.02v-10.99ZM562.07,229.99h11.02v10.99h-11.02v-10.99ZM575.1,229.99h10.99v10.99h-10.99v-10.99ZM588.1,229.99h11.02v10.99h-11.02v-10.99ZM601.13,229.99h11.02v10.99h-11.02v-10.99ZM614.16,229.99h10.99v10.99h-10.99v-10.99ZM627.16,229.99h11.02v10.99h-11.02v-10.99ZM640.19,229.99h11.02v10.99h-11.02v-10.99ZM483.96,242.99h11.02v11.02h-11.02v-11.02ZM536.05,242.99h10.99v11.02h-10.99v-11.02ZM549.04,242.99h11.02v11.02h-11.02v-11.02ZM562.07,242.99h11.02v11.02h-11.02v-11.02ZM575.1,242.99h10.99v11.02h-10.99v-11.02ZM588.1,242.99h11.02v11.02h-11.02v-11.02ZM601.13,242.99h11.02v11.02h-11.02v-11.02ZM614.16,242.99h10.99v11.02h-10.99v-11.02ZM627.16,242.99h11.02v11.02h-11.02v-11.02ZM640.19,242.99h11.02v11.02h-11.02v-11.02ZM653.22,242.99h10.99v11.02h-10.99v-11.02ZM470.96,256.02h10.99v11.02h-10.99v-11.02ZM483.96,256.02h11.02v11.02h-11.02v-11.02ZM496.99,256.02h10.99v11.02h-10.99v-11.02ZM509.99,256.02h11.02v11.02h-11.02v-11.02ZM523.02,256.02h11.02v11.02h-11.02v-11.02ZM536.05,256.02h10.99v11.02h-10.99v-11.02ZM549.04,256.02h11.02v11.02h-11.02v-11.02ZM562.07,256.02h11.02v11.02h-11.02v-11.02ZM575.1,256.02h10.99v11.02h-10.99v-11.02ZM588.1,256.02h11.02v11.02h-11.02v-11.02ZM601.13,256.02h11.02v11.02h-11.02v-11.02ZM614.16,256.02h10.99v11.02h-10.99v-11.02ZM627.16,256.02h11.02v11.02h-11.02v-11.02ZM640.19,256.02h11.02v11.02h-11.02v-11.02ZM653.22,256.02h10.99v11.02h-10.99v-11.02ZM666.21,256.02h11.02v11.02h-11.02v-11.02ZM470.96,269.05h10.99v10.99h-10.99v-10.99ZM483.96,269.05h11.02v10.99h-11.02v-10.99ZM496.99,269.05h10.99v10.99h-10.99v-10.99ZM509.99,269.05h11.02v10.99h-11.02v-10.99ZM523.02,269.05h11.02v10.99h-11.02v-10.99ZM536.05,269.05h10.99v10.99h-10.99v-10.99ZM549.04,269.05h11.02v10.99h-11.02v-10.99ZM562.07,269.05h11.02v10.99h-11.02v-10.99ZM575.1,269.05h10.99v10.99h-10.99v-10.99ZM588.1,269.05h11.02v10.99h-11.02v-10.99ZM601.13,269.05h11.02v10.99h-11.02v-10.99ZM614.16,269.05h10.99v10.99h-10.99v-10.99ZM627.16,269.05h11.02v10.99h-11.02v-10.99ZM640.19,269.05h11.02v10.99h-11.02v-10.99ZM653.22,269.05h10.99v10.99h-10.99v-10.99ZM666.21,269.05h11.02v10.99h-11.02v-10.99ZM470.96,282.05h10.99v11.02h-10.99v-11.02ZM483.96,282.05h11.02v11.02h-11.02v-11.02ZM496.99,282.05h10.99v11.02h-10.99v-11.02ZM509.99,282.05h11.02v11.02h-11.02v-11.02ZM523.02,282.05h11.02v11.02h-11.02v-11.02ZM536.05,282.05h10.99v11.02h-10.99v-11.02ZM549.04,282.05h11.02v11.02h-11.02v-11.02ZM562.07,282.05h11.02v11.02h-11.02v-11.02ZM575.1,282.05h10.99v11.02h-10.99v-11.02ZM588.1,282.05h11.02v11.02h-11.02v-11.02ZM601.13,282.05h11.02v11.02h-11.02v-11.02ZM614.16,282.05h10.99v11.02h-10.99v-11.02ZM627.16,282.05h11.02v11.02h-11.02v-11.02ZM640.19,282.05h11.02v11.02h-11.02v-11.02ZM653.22,282.05h10.99v11.02h-10.99v-11.02ZM666.21,282.05h11.02v11.02h-11.02v-11.02ZM483.96,295.08h11.02v11.02h-11.02v-11.02ZM496.99,295.08h10.99v11.02h-10.99v-11.02ZM509.99,295.08h11.02v11.02h-11.02v-11.02ZM523.02,295.08h11.02v11.02h-11.02v-11.02ZM536.05,295.08h10.99v11.02h-10.99v-11.02ZM549.04,295.08h11.02v11.02h-11.02v-11.02ZM562.07,295.08h11.02v11.02h-11.02v-11.02ZM575.1,295.08h10.99v11.02h-10.99v-11.02ZM588.1,295.08h11.02v11.02h-11.02v-11.02ZM601.13,295.08h11.02v11.02h-11.02v-11.02ZM614.16,295.08h10.99v11.02h-10.99v-11.02ZM627.16,295.08h11.02v11.02h-11.02v-11.02ZM640.19,295.08h11.02v11.02h-11.02v-11.02ZM653.22,295.08h10.99v11.02h-10.99v-11.02ZM666.21,295.08h11.02v11.02h-11.02v-11.02ZM483.96,308.1h11.02v10.99h-11.02v-10.99ZM496.99,308.1h10.99v10.99h-10.99v-10.99ZM509.99,308.1h11.02v10.99h-11.02v-10.99ZM523.02,308.1h11.02v10.99h-11.02v-10.99ZM536.05,308.1h10.99v10.99h-10.99v-10.99ZM549.04,308.1h11.02v10.99h-11.02v-10.99ZM562.07,308.1h11.02v10.99h-11.02v-10.99ZM575.1,308.1h10.99v10.99h-10.99v-10.99ZM588.1,308.1h11.02v10.99h-11.02v-10.99ZM601.13,308.1h11.02v10.99h-11.02v-10.99ZM614.16,308.1h10.99v10.99h-10.99v-10.99ZM627.16,308.1h11.02v10.99h-11.02v-10.99ZM640.19,308.1h11.02v10.99h-11.02v-10.99ZM653.22,308.1h10.99v10.99h-10.99v-10.99ZM666.21,308.1h11.02v10.99h-11.02v-10.99ZM496.99,321.1h10.99v11.02h-10.99v-11.02ZM509.99,321.1h11.02v11.02h-11.02v-11.02ZM523.02,321.1h11.02v11.02h-11.02v-11.02ZM562.07,321.1h11.02v11.02h-11.02v-11.02ZM575.1,321.1h10.99v11.02h-10.99v-11.02ZM614.16,321.1h10.99v11.02h-10.99v-11.02ZM627.16,321.1h11.02v11.02h-11.02v-11.02ZM640.19,321.1h11.02v11.02h-11.02v-11.02ZM653.22,321.1h10.99v11.02h-10.99v-11.02ZM666.21,321.1h11.02v11.02h-11.02v-11.02Z"/>
      </g>
      <g id="Layer-28">
        <path class="cls-8" d="M582.32,217.74c0-1.46,1.18-2.65,2.65-2.65s2.65,1.19,2.65,2.65-1.18,2.65-2.65,2.65-2.65-1.18-2.65-2.65Z"/>
        <path class="cls-8" d="M582.32,227.32c0-1.46,1.18-2.65,2.65-2.65s2.65,1.18,2.65,2.65-1.18,2.65-2.65,2.65-2.65-1.18-2.65-2.65Z"/>
      </g>
      <g id="Layer-8">
        <path class="cls-4" d="M651.93,290.23s-10.17-5.28-26.5-4.68c-9.89.36-16.39,2.88-19.38,7.99"/>
        <path class="cls-5" d="M539.59,253.5s-6.51,18-5.27,37.56c.85,13.45,12.95,31.36,12.95,31.36"/>
        <path class="cls-4" d="M630.29,251.43s3.75,7.3,5.58,13.89c1.83,6.59,2.64,20.18,2.64,20.18"/>
      </g>
      <path class="cls-8" d="M583.82,148.14c-1.32.06-2.7.37-4.08.97-5.56,2.42-9.75,9.51-7.72,13.68-4.83,4.01-8.64,7.06-10.15,15.45-2.03,11.2,10.08,15.86,10.08,15.86,0,0-6.18-7.58-4.96-14.88.87-5.24,4.58-11.04,7.06-14.63.86.97,2.08,1.37,3.86,1.63,4.52.66,7.62-1.45,9.04-2.64-.21,3.44.11,10.24,5.12,17.55,4.41,6.45,11.2,6.65,11.55,6.66-.39.89-4.86,8.47-4.86,8.47,0,0,2.68,3.48,10.6,7.52,8.87,4.52,28.03,3.34,32.09-5.07,4.05-8.41,1.83-18.19-4.42-21.59-4.67-2.54-13.59-1.45-18.05-5.8-4.46-4.36-4.21-10.31-9.5-12.5-3.79-1.57-9.03.06-9.03.06,0,0-7.37-11.17-16.64-10.74Z"/>
      <path class="cls-8" d="M603.07,152.8c-1.75-1.05,6.86-25.72,16.69-25.72,10.08,0,15.22,5.99,11.29,12.66-3.93,6.68-26.26,14.08-27.98,13.06Z"/>
      <path class="cls-8" d="M570.09,171.88c-.05-1.07.78-1.97,1.85-2.02,1.07-.05,1.97.78,2.02,1.85.05,1.07-.78,1.97-1.85,2.02-1.07.05-1.97-.78-2.02-1.85Z"/>
      <path class="cls-5" d="M582.37,187.21c.36-1.6-.64-3.2-2.25-3.56-1.6-.36-3.2.64-3.56,2.25-.36,1.6.64,3.2,2.25,3.56,1.6.36,3.2-.64,3.56-2.25Z"/>
      <path class="cls-12" d="M588.63,180.31c-.05-1.25-1.11-2.23-2.37-2.17-1.25.05-2.23,1.11-2.17,2.37.05,1.25,1.11,2.23,2.37,2.17,1.25-.05,2.23-1.11,2.17-2.37Z"/>
      <path class="cls-5" d="M566.82,180.96c-.46-10.83,7.94-19.98,18.77-20.45,10.83-.46,19.98,7.94,20.45,18.77.46,10.83-7.94,19.98-18.77,20.45-10.83.46-19.98-7.94-20.45-18.77Z"/>
      <path class="cls-8" d="M580.1,175.27c-.05-1.07.78-1.97,1.85-2.02,1.07-.05,1.97.78,2.02,1.85.05,1.07-.78,1.97-1.85,2.02-1.07.05-1.97-.78-2.02-1.85Z"/>
      <path class="cls-5" d="M577.11,172.09l-5.22,7.9,3.91.53"/>
      <path class="cls-9" d="M588.19,242.35c-1.27-4.8-6.11-7.69-10.8-6.44l-37.21,1.26c-4.69,1.24-7.46,6.15-6.19,10.95l16.82,63.4c1.27,4.8,6.11,7.69,10.8,6.44l37.95-1.26c4.69-1.24,7.46-6.15,6.19-10.95l-17.55-63.4Z"/>
      <path class="cls-3" d="M579.88,241.83l18.89,65.63"/>
      <path class="cls-1" d="M560.42,251.43c0-2.01-1.63-3.64-3.64-3.64s-3.64,1.63-3.64,3.64,1.63,3.64,3.64,3.64,3.64-1.63,3.64-3.64Z"/>
      <path class="cls-5" d="M611.57,295.93s-5.68-22.26-10.41-21.25c-3.69.79-3.52,4.07-3.46,6.9.13,5.7,3.91,13.34-.53,15.57-4.44,2.23-21.21-12.37-25.82-7.22-4.07,4.55,16.43,16.27,16.43,16.27,0,0-5.95-3.2-9.46-6.16-3.81-3.21-5.58-4.91-5.58-4.91,0,0-6.24,6.04,2.09,13.27,8.33,7.23,10.95,6.45,10.95,6.45,0,0-3.53-.46-7.9-3.92-5.57-4.41-6.72-6.86-6.72-6.86,0,0-4.51,8.48,4.99,16.03,17.03,13.53,33.89,3.23,33.89,3.23"/>
      <g id="Layer-3">
        <path class="cls-5" d="M493.13,245.58s-2.59-14.72-10.77-18.34c-8.18-3.61-17.3-.38-17.3-.38,0,0-3.47-4.59-5.83-8.63-2.36-4.04-4.56-7.8-6.94-7.03-2.38.77-1.49,10.34,1.51,14.67,3,4.33,4.98,6.78,4.98,6.78,0,0-3.87-4.55-5.41-7.09-4.84-8.02-4.09-9.83-6.85-12.88-2.4-2.65-5.37-.44-4.75,6.26.43,4.73,1.99,8.44,5.72,13.29,3.06,3.99,5,6.65,5,6.65,0,0-4.71.3-9.61-4.22-3.6-3.32-5.08-9.38-7.25-8.43-2.17.96-3.25,6.35,1.7,13.53,4.95,7.18,10.48,10.65,16.87,10.78,6.38.12,12.98-.15,18.58,2.94"/>
      </g>
    </g>
  </g>
</svg>