<?xml version="1.0" encoding="UTF-8"?>
<svg id="Capa_2" xmlns="http://www.w3.org/2000/svg" viewBox="0 0 458.12 440.78">
  <defs>
    <style>
      .cls-1 {
        fill: #ffc051;
      }

      .cls-2 {
        fill: #263238;
      }

      .cls-3, .cls-4, .cls-5 {
        fill: #fff;
      }

      .cls-6 {
        stroke: #ffc051;
      }

      .cls-6, .cls-7, .cls-8, .cls-9 {
        fill: none;
        stroke-linecap: round;
        stroke-linejoin: round;
        stroke-width: 2px;
      }

      .cls-4 {
        opacity: .3;
      }

      .cls-4, .cls-5 {
        isolation: isolate;
      }

      .cls-7 {
        stroke: #fff;
      }

      .cls-5 {
        opacity: .25;
      }

      .cls-8 {
        stroke: #263238;
      }

      .cls-10 {
        fill: #ff367c;
      }

      .cls-9 {
        stroke: #ff367c;
      }
    </style>
  </defs>
  <g id="Shadows">
    <g id="Layer-21">
      <path class="cls-1" d="M45.95,387.33c0-7.3,46.29-13.22,103.4-13.22s103.39,5.92,103.39,13.22-46.29,13.23-103.39,13.23-103.4-5.92-103.4-13.23Z"/>
      <path class="cls-1" d="M71.09,411.75c0-7.3,46.29-13.22,103.39-13.22s103.39,5.92,103.39,13.22-46.29,13.23-103.39,13.23-103.39-5.92-103.39-13.23Z"/>
      <path class="cls-1" d="M212.04,426.94c0-7.64,45.02-13.83,100.55-13.83s117.16,5.4,117.16,13.04-61.63,14.62-117.16,14.62-100.55-6.19-100.55-13.83Z"/>
    </g>
  </g>
  <g id="Floor">
    <g id="Layer-20">
      <path class="cls-8" d="M1,357.34h73.63"/>
      <path class="cls-8" d="M242.86,357.34h26.8"/>
      <path class="cls-8" d="M335.08,357.34h44.14"/>
      <path class="cls-8" d="M391.19,357.34h65.93"/>
    </g>
  </g>
  <g id="Sparkles">
    <g id="Layer-24">
      <g>
        <path class="cls-8" d="M154.24,40.16v4"/>
        <path class="cls-8" d="M154.24,48.66v4"/>
        <path class="cls-8" d="M147.99,46.41h4"/>
        <path class="cls-8" d="M156.49,46.41h4"/>
      </g>
      <g>
        <path class="cls-8" d="M323.95,12.35v4"/>
        <path class="cls-8" d="M323.95,20.85v4"/>
        <path class="cls-8" d="M317.7,18.6h4"/>
        <path class="cls-8" d="M326.2,18.6h3.99"/>
      </g>
      <g>
        <path class="cls-8" d="M24.37,215.71v4"/>
        <path class="cls-8" d="M24.37,224.21v4"/>
        <path class="cls-8" d="M18.12,221.96h4"/>
        <path class="cls-8" d="M26.62,221.96h4"/>
      </g>
      <g>
        <path class="cls-8" d="M427.5,297.82v4"/>
        <path class="cls-8" d="M427.5,306.32v4"/>
        <path class="cls-8" d="M421.25,304.07h4"/>
        <path class="cls-8" d="M429.75,304.07h4"/>
      </g>
    </g>
  </g>
  <g id="Icons">
    <g>
      <path class="cls-9" d="M376.08,124.27c0-13.27,10.76-24.03,24.03-24.03,7.68,0,14.52,3.6,18.92,9.21,3.2,4.08,5.11,9.23,5.11,14.82,0,13.27-10.76,24.03-24.03,24.03s-24.03-10.76-24.03-24.03Z"/>
      <g>
        <path class="cls-9" d="M399.86,100.23v48.07"/>
        <path class="cls-9" d="M376.08,124.27h48.07"/>
        <path class="cls-9" d="M420.11,111.18s-9.89,3.72-19.87,3.72-20.06-3.72-20.06-3.72"/>
        <path class="cls-9" d="M420.08,136.5s-9.89-3.72-19.87-3.72-20.06,3.72-20.06,3.72"/>
        <path class="cls-9" d="M404.21,147.33s5.86-11.42,5.86-22.95-5.86-23.17-5.86-23.17"/>
        <path class="cls-9" d="M412.39,144.56s5.71-10.11,5.71-20.32-5.71-20.51-5.71-20.51"/>
        <path class="cls-9" d="M395.97,147.33s-5.86-11.42-5.86-22.95,5.86-23.17,5.86-23.17"/>
        <path class="cls-9" d="M387.79,144.56s-5.71-10.11-5.71-20.32,5.71-20.51,5.71-20.51"/>
      </g>
    </g>
    <g>
      <path class="cls-8" d="M5.86,148.94c0-13.63,11.05-24.68,24.68-24.68s24.68,11.05,24.68,24.68-11.05,24.68-24.68,24.68-24.68-11.05-24.68-24.68Z"/>
      <g>
        <path class="cls-9" d="M18.12,140.75c0-2.33,1.89-4.23,4.23-4.23h16.38c2.33,0,4.23,1.89,4.23,4.23v16.38c0,2.33-1.89,4.23-4.23,4.23h-16.38c-2.33,0-4.23-1.89-4.23-4.23v-16.38Z"/>
        <path class="cls-9" d="M25.45,148.94c0-2.81,2.28-5.09,5.09-5.09s5.09,2.28,5.09,5.09-2.28,5.09-5.09,5.09-5.09-2.28-5.09-5.09Z"/>
        <path class="cls-10" d="M35.79,142.02c0-1.02.82-1.84,1.84-1.84s1.84.82,1.84,1.84-.82,1.84-1.84,1.84-1.84-.82-1.84-1.84Z"/>
      </g>
    </g>
    <g>
      <path class="cls-8" d="M222.17,24.53c0-1.42.94-2.57,2.1-2.57h21.68c1.16,0,2.1,1.15,2.1,2.57v15.93c0,1.42-.94,2.57-2.1,2.57h-21.68c-1.16,0-2.1-1.15-2.1-2.57v-15.93Z"/>
      <path class="cls-8" d="M230.83,26.58v11.83l5.81-3.17,5.02-2.74-10.83-5.92Z"/>
      <path class="cls-9" d="M211.02,32.49c0-13.3,10.78-24.08,24.08-24.08s24.08,10.78,24.08,24.08-10.78,24.08-24.08,24.08-24.08-10.78-24.08-24.08Z"/>
    </g>
    <g>
      <path class="cls-6" d="M73.37,27.62c0-14.7,11.92-26.62,26.62-26.62s26.62,11.92,26.62,26.62-11.92,26.62-26.62,26.62-26.62-11.92-26.62-26.62Z"/>
      <g>
        <path class="cls-9" d="M86.2,23.45v17.21s26.08,1.63,28.05-1.97c1.65-3.02,1.98-14.35-.96-15.05-5.78-1.36-10.29-.9-10.29-.9,0,0-.51-12.3-5.56-11.42-1.53.27-2.68,11.42-2.68,11.42l-8.56.71Z"/>
        <path class="cls-9" d="M90.99,23.05v17.83"/>
        <path class="cls-9" d="M107.42,28.86l7.75.14"/>
        <path class="cls-9" d="M107.42,34.47l7.75.14"/>
      </g>
    </g>
    <g>
      <path class="cls-6" d="M398.19,24.85c0-12.73,10.32-23.06,23.06-23.06s23.06,10.32,23.06,23.06-10.32,23.06-23.06,23.06-23.06-10.32-23.06-23.06Z"/>
      <path class="cls-10" d="M427.97,16.07c-3.84.11-7,7.3-7,7.3,0,0-2.57-7.99-7.06-7.12-.62.12-1.37.37-1.92,1.08-5.35,6.92,8.99,19.39,8.99,19.39,0,0,15.08-13.8,9.23-19.84-.68-.7-1.57-.83-2.22-.81Z"/>
    </g>
    <g>
      <path class="cls-8" d="M272.68,154.57c0-10.45,8.47-18.92,18.92-18.92s18.92,8.47,18.92,18.92-8.47,18.92-18.92,18.92-18.92-8.47-18.92-18.92Z"/>
      <g id="Layer-23">
        <g>
          <path class="cls-2" d="M289.61,166.51c-1.55-.92-2.06-2.92-1.14-4.47.92-1.55,2.92-2.06,4.47-1.14,1.55.92,2.06,2.92,1.14,4.47-.92,1.55-2.92,2.06-4.47,1.14Z"/>
          <path class="cls-2" d="M281.95,152.49c-1.55-.92-2.06-2.92-1.14-4.47.92-1.55,2.92-2.06,4.47-1.14,1.55.92,2.06,2.92,1.14,4.47-.92,1.55-2.92,2.06-4.47,1.14Z"/>
          <path class="cls-2" d="M297.92,152.51c-1.55-.92-2.06-2.92-1.14-4.47.92-1.55,2.92-2.06,4.47-1.14,1.55.92,2.06,2.92,1.14,4.47-.92,1.55-2.92,2.06-4.47,1.14Z"/>
          <path class="cls-8" d="M284.85,151.32l6.42,12.38"/>
          <path class="cls-8" d="M285.23,149.75l13.94-.29"/>
        </g>
      </g>
    </g>
  </g>
  <g id="Arrow">
    <g>
      <path class="cls-1" d="M294.46,54.24l6.28,7.92-19.06,16.21-1.67-2.08,14.46-22.05ZM288.63,98.14l31.21,6.78-5.9,11.44-25.89-16.86.58-1.35Z"/>
      <path class="cls-10" d="M378.59,50.02l-21.44,2.22.97,4.88,12.91-1.4-39.01,26.44-3.17-14.77-35.58,16.57,1.3,2.91,29.51-11.26,2.37,18.48,48.53-34.11-3.13,11.7,4.86.97,4.77-19.69c.36-1.74-1.16-3.29-2.9-2.94Z"/>
    </g>
  </g>
  <g id="Character_2">
    <g>
      <g>
        <g id="Layer-14">
          <path class="cls-8" d="M385.49,341.14v80.09"/>
          <path class="cls-8" d="M330.2,341.14v32.41"/>
          <path class="cls-2" d="M369.62,209.48c8.38.17,12.79,3.91,16.21,11.64,8.41,19.02,9.32,58.97,9.32,104.64v5.9c0,2.73-2.09,4.95-4.66,4.95h-76.4c-2.57,0-4.66-2.22-4.66-4.95v-5.9c0-2.73,2.09-4.95,4.66-4.95h29.99c0-43.85.03-82.2,8.21-100.37,3.38-7.49,8.94-11.14,17.33-10.97Z"/>
        </g>
        <g id="Layer-29">
          <path class="cls-7" d="M385.49,269.05v55"/>
        </g>
      </g>
      <g>
        <g id="Layer-17">
          <path class="cls-2" d="M312.81,284.52s-44.35,13.09-51.97,25.21c-7.62,12.11-17.39,91.25-17.39,91.25h49.04l37.71-116.65-17.39.19Z"/>
        </g>
        <g id="Layer-16">
          <path class="cls-10" d="M324.44,286.77s-46.85,13.12-51.07,28.58c-4.22,15.46,18.55,97.35,18.55,97.35h55.21l-27.73-81.7s44.75-2.72,51.19-14.25c9.74-17.43-6.79-39.36-6.79-39.36l-39.36,9.37Z"/>
        </g>
        <g id="Layer-26">
          <path class="cls-5" d="M363.78,277.4l-1.21.29v44.86c.7-.32,1.41-.62,2.04-.96v-42.95c-.21-.29-.83-1.24-.83-1.24ZM356.58,279.12l-2.04.48v45.85c.7-.2,1.37-.4,2.04-.61v-45.72ZM348.54,281.03l-2.04.48v45.88c.68-.14,1.36-.27,2.04-.41v-45.95ZM340.51,282.94l-2.04.48v45.34c.74-.11,1.29-.16,2.04-.29v-45.53ZM332.47,284.86l-2.04.48v44.51c.63-.07,1.38-.2,2.04-.29v-44.7ZM324.44,286.77s-1.62.52-2.04.64v43.33c.62-.05,1.08-.11,2.04-.19v-43.78ZM316.43,289.29c-.56.19-1.43.56-2.04.77v122.63h2.04v-123.4ZM370.58,289.96v26.78c.92-1.65,1.55-3.33,2.04-5.04v-15.37c-.54-2.25-1.25-4.38-2.04-6.38ZM308.4,292.29c-.7.26-1.32.49-2.04.77v119.63h2.04v-120.4ZM300.36,295.32c-.68.29-1.35.65-2.04.96v116.41h2.04v-117.37ZM292.33,299.08c-.7.36-1.35.72-2.04,1.08v106.43c.54,2,1.63,6.09,1.63,6.09h.41v-113.61ZM284.29,303.67c-.72.47-1.37.95-2.04,1.43v69.51c.72,3.04,1.34,5.4,2.04,8.26v-79.2ZM276.26,310.37c-.85,1-1.52,2-2.04,3.03v21.52c.54,3.72,1.25,7.72,2.04,11.92v-36.48ZM322.4,339.83v72.86h2.04v-66.86l-2.04-5.99ZM330.43,363.49v49.2h2.04v-43.2l-2.04-5.99ZM338.47,387.15v25.54h2.04v-19.55l-2.04-5.99ZM346.5,410.81v1.88h.64l-.64-1.88Z"/>
        </g>
        <g id="Layer-15">
          <path class="cls-1" d="M388.63,225.77s1.75-32.24,13.71-40.52c6.83-4.73,21.97-5.17,27.63,8.08,5.66,13.25-2.78,68.94-22.01,77.67-19.23,8.72-34.31-5.43-34.31-5.43,0,0-6.26,23.61-39.64,27.39-18.25,2.06-27.62-7.3-27.62-7.3,0,0-12.02,13.25-24.75,12.11-14.37-1.29-24.28-8.91-18.68-32.19,5.31-22.11,20.45-38.55,37.39-47.74,14.83-8.04,27.92-10.29,47.51-8.35,19.59,1.94,40.77,16.3,40.77,16.3Z"/>
        </g>
        <g id="Layer-19">
          <path class="cls-2" d="M329.23,217.12c0-1.32,1.07-2.39,2.39-2.39s2.39,1.07,2.39,2.39-1.07,2.39-2.39,2.39-2.39-1.07-2.39-2.39Z"/>
          <path class="cls-2" d="M328.54,225.81c0-1.32,1.07-2.39,2.39-2.39s2.39,1.07,2.39,2.39-1.07,2.39-2.39,2.39-2.39-1.07-2.39-2.39Z"/>
        </g>
        <g id="Layer-18">
          <path class="cls-3" d="M357.15,246.26c0-3.55-2.76-6.43-6.16-6.43h-54.61c-3.4,0-6.16,2.88-6.16,6.43v30.86c0,3.55,2.76,6.43,6.16,6.43h54.61c3.4,0,6.16-2.88,6.16-6.43v-30.86Z"/>
          <path class="cls-6" d="M350.84,276.79h-38.65"/>
          <path class="cls-6" d="M327.02,254.03c0-1.93-1.49-3.49-3.34-3.49s-3.34,1.56-3.34,3.49,1.49,3.49,3.34,3.49,3.34-1.56,3.34-3.49Z"/>
          <path class="cls-8" d="M281.64,269.01s4.06-15.93,7.45-15.2c2.64.57,2.52,2.91,2.47,4.94-.09,4.08-2.79,9.54.38,11.14,3.17,1.59,13.81-8.78,17.1-5.09,2.91,3.26-10.38,11.56-10.38,11.56,0,0,4.26-2.29,6.77-4.41,2.73-2.3,3.45-2.94,3.45-2.94,0,0,5.01,3.75-.95,8.92s-7.84,4.61-7.84,4.61c0,0,2.53-.33,5.65-2.81,3.99-3.15,4.81-4.91,4.81-4.91,0,0,3.23,6.06-3.57,11.47-12.18,9.68-24.25,2.31-24.25,2.31"/>
          <path class="cls-8" d="M407.01,185.34s-2.41-10.29,2.27-14.58c4.68-4.29,12.77-1.92,12.77-1.92,0,0,1.29-3.7,1.95-6.78.66-3.08,1.28-5.95,3.06-6.08,1.78-.13,3.36,5.98,2.33,9.4-1.03,3.42-1.8,5.43-1.8,5.43,0,0,1.57-3.78,2.02-5.73,1.43-6.15.51-7.07,1.67-9.65,1.01-2.23,3.51-1.63,4.63,2.65.79,3.02.59,5.69-.81,9.62-1.15,3.23-1.85,5.35-1.85,5.35,0,0,3.24-1.01,5.5-5.02,1.66-2.95,1.27-7.05,2.95-7.01,1.68.04,3.64,3.08,1.95,8.74-1.69,5.67-4.62,9.2-8.89,10.89-4.27,1.69-10.81,2.88-13.39,6.58"/>
        </g>
        <path class="cls-2" d="M324.59,180.45s-5.53-2.16-5.18-6.24c.35-3.98,3.62-6.93,8.74-7.05,6.05-.14,11.61,6.24,11.61,6.24,0,0,8.43-3.11,12.88,2.9,3.61,4.88.47,11.47.47,11.47,0,0,4.39,4.64,1.45,9.41-2.94,4.77-10.89,3.54-10.89,3.54,0,0,8.33-10.64,2.13-18.47-8.82-11.14-21.21-1.78-21.21-1.78Z"/>
        <path class="cls-2" d="M356.82,186.48s4.58-11.16,10.52-15.73c5.59-4.3,14.5-5.8,17.14.11,2.12,4.75-.59,10-6.49,12.78-9.95,4.69-21.17,2.83-21.17,2.83Z"/>
        <path class="cls-2" d="M335.55,176.91s-1.11,5.79,2.83,11.4c3.82,5.43,8.89,6.65,8.89,6.65,0,0,4.61-9.48-2.72-15.63-2.9-2.44-9.01-2.41-9.01-2.41Z"/>
        <path class="cls-8" d="M321.12,189.92c0-7.52,6.1-13.62,13.62-13.62s13.62,6.1,13.62,13.62-6.1,13.62-13.62,13.62-13.62-6.1-13.62-13.62Z"/>
        <path class="cls-10" d="M332.38,189.91c.12-.84.88-1.43,1.72-1.31.83.11,1.41.89,1.29,1.73-.12.84-.88,1.43-1.71,1.31-.83-.11-1.41-.89-1.3-1.73Z"/>
        <path class="cls-2" d="M329.86,186.16c.1-.71.75-1.2,1.46-1.11.71.1,1.21.75,1.11,1.46-.1.71-.75,1.21-1.46,1.11-.71-.1-1.21-.75-1.11-1.46Z"/>
        <path class="cls-2" d="M323.7,182.53c.1-.71.75-1.21,1.46-1.11.71.1,1.21.75,1.11,1.46-.1.71-.75,1.21-1.46,1.11-.71-.1-1.21-.75-1.11-1.46Z"/>
        <path class="cls-8" d="M329.69,190.55s-.74,1.43-1.88,1.78c-1.68.52-3.18-.41-3.18-.41"/>
        <path class="cls-8" d="M328.16,183.99l-4.2,4.17,2.9.99"/>
        <g id="Layer-13">
          <path class="cls-8" d="M333.68,418.83c0,4.21.33,15.77.33,15.77,0,0-49.47,3-54.44.59-3.34-1.63,4.23-6.21,11.56-10.45,6.96-4.03,15.16-6.97,15.16-6.97"/>
          <path class="cls-9" d="M304.57,424.88l-8.43-7.32"/>
          <path class="cls-9" d="M300.35,426.75l-8.43-7.32"/>
          <path class="cls-8" d="M286.48,404.79c0,4.21.33,15.77.33,15.77,0,0-49.48,3-54.44.59-3.34-1.63,4.23-6.21,11.56-10.45,6.96-4.03,15.16-6.97,15.16-6.97"/>
          <path class="cls-9" d="M257.36,410.84l-8.44-7.32"/>
          <path class="cls-9" d="M253.15,412.7l-8.44-7.32"/>
        </g>
      </g>
    </g>
  </g>
  <g id="Character_1">
    <g>
      <g>
        <g id="Layer-11">
          <path class="cls-8" d="M138.19,371.41c0-.87.7-1.57,1.57-1.57h30.46c.87,0,1.57.7,1.57,1.57v4.29c0,.87-.7,1.57-1.57,1.57h-30.46c-.87,0-1.57-.7-1.57-1.57v-4.29Z"/>
        </g>
        <g id="Layer-10">
          <path class="cls-8" d="M78.01,92.74c0-8.69,7.27-15.73,16.23-15.73h127c8.97,0,16.23,7.04,16.23,15.73v277c0,8.69-7.27,15.73-16.23,15.73h-127c-8.97,0-16.23-7.04-16.23-15.73V92.74Z"/>
          <path class="cls-8" d="M91.47,102.78c0-7.72,6.04-13.98,13.49-13.98h105.57c7.45,0,13.49,6.26,13.49,13.98v246.1c0,7.72-6.04,13.98-13.49,13.98h-105.57c-7.45,0-13.49-6.26-13.49-13.98V102.78Z"/>
        </g>
        <g id="Layer-25">
          <path class="cls-8" d="M138.19,100.23l-37.33,34.34"/>
          <path class="cls-8" d="M126.62,121.37l-26.62,25.99"/>
          <path class="cls-8" d="M214.43,209.47l-37.33,34.34"/>
          <path class="cls-8" d="M202.86,230.61l-26.62,25.99"/>
        </g>
      </g>
      <g>
        <g id="Layer-8">
          <path class="cls-3" d="M222.44,100.29l-14.47,9.01,1.44,5.27,10.83-.67s4.24,9.65,11.48,12.1c7.23,2.44,9.72,1.65,15-1.49,5.27-3.14,5.24-11.41,5.24-11.41l25.09-.79s2.81-11.23.29-19.07c-2.52-7.84-14.14-15.98-14.14-15.98l-22.46,14.14s-2.47-1.6-3.78-1.16c-1.31.44-1.45,2.9-1.45,2.9,0,0-2.66-1.82-4.36-.97-1.69.85-2.42,4.36-2.42,4.36,0,0-3.17-2.01-4.74-1.07-1.57.94-1.54,4.83-1.54,4.83Z"/>
          <path class="cls-3" d="M81.51,257.75c1.28,7.44,5.58,26.14.21,26.4-3.72.18-4.84-6.09-6.56-13.44-1.36-5.82-3.03-14.11-.41-15.94,3.25-2.26,6.33.54,6.75,2.98Z"/>
        </g>
        <g id="Layer-5">
          <path class="cls-2" d="M138.19,217.12s26.06,75.69,26.44,88.08c.38,12.39-4.32,90.07-4.32,90.07h55.7s-3.1-76.15-7.13-97.31c-4.83-25.35-36.94-88.49-36.94-88.49l-33.76,7.65Z"/>
        </g>
        <g id="Layer-4">
          <path class="cls-1" d="M129.48,209.47s-13.85,10.23-15.34,20.03c-1.49,9.8,6.82,21.73,6.82,21.73l-9.59,33.66-18.84,38.08s-.45,26.92.35,29.51c1.26,4.11,5.14,9.01,11.36,9.23,6.63.23,22.37.12,22.37.12,0,0,25.18-51.16,28.37-64.58,3.2-13.42,9.64-84.79,9.64-84.79l-35.15-2.98Z"/>
        </g>
        <g id="Layer-28">
          <path class="cls-8" d="M154.99,223.42s-4.35,58.38-8.64,71.25c-4.29,12.88-30.85,68.19-30.85,68.19"/>
        </g>
        <g id="Layer-3">
          <path class="cls-10" d="M122.44,193.94s-1.82,26.41,33.76,24.11c24.42-1.58,36.93-29.72,36.93-29.72,0,0,29.38,18.32,45.98,7.74,16.6-10.58,22.91-60.44,14.61-69.76-5.86-6.59-24.7-7.25-31.82,2.16-7.56,9.97-4.84,24.88-4.84,24.88,0,0-19.84-17.77-63.3-12.83-33.31,3.79-47.51,18-62.47,31.68-8.61,7.88-41.99,53.2-35.16,78.49,2.25,8.32,20,21.78,35.38,5.51,14.56-15.4,30.93-62.26,30.93-62.26Z"/>
        </g>
        <g id="Layer-27">
          <path class="cls-4" d="M240.55,127.28c-2.77,0-5.01,2.24-5.01,5.01s2.24,5.01,5.01,5.01,5.01-2.24,5.01-5.01-2.24-5.01-5.01-5.01ZM141.22,145.97c-2.77,0-5.04,2.24-5.04,5.01s2.27,5.01,5.04,5.01,5.01-2.24,5.01-5.01-2.24-5.01-5.01-5.01ZM169.47,145.97c-2.77,0-5.04,2.24-5.04,5.01,0,2.77,2.27,5.01,5.04,5.01s5.01-2.24,5.01-5.01-2.24-5.01-5.01-5.01ZM197.72,145.97c-2.77,0-5.04,2.24-5.04,5.01s2.27,5.01,5.04,5.01,5.01-2.24,5.01-5.01-2.24-5.01-5.01-5.01ZM225.97,145.97c-2.77,0-5.04,2.24-5.04,5.01,0,2.77,2.27,5.01,5.04,5.01s5.01-2.24,5.01-5.01-2.24-5.01-5.01-5.01ZM254.23,145.97c-2.77,0-5.01,2.24-5.01,5.01s2.24,5.01,5.01,5.01c.8,0,1.53-.21,2.2-.54.37-2.91.62-5.69.73-8.42-.83-.62-1.81-1.05-2.93-1.05ZM117.88,151.48c-2.37,1.32-4.61,2.69-6.73,4.14.55.21,1.16.35,1.79.35,2.59,0,4.67-1.98,4.94-4.5ZM127.54,164.65c-2.77,0-5.01,2.24-5.01,5.01s2.24,5.01,5.01,5.01,5.01-2.24,5.01-5.01c0-2.77-2.24-5.01-5.01-5.01ZM155.8,164.65c-2.77,0-5.01,2.24-5.01,5.01,0,2.77,2.24,5.01,5.01,5.01s5.01-2.24,5.01-5.01-2.24-5.01-5.01-5.01ZM184.05,164.65c-2.77,0-5.01,2.24-5.01,5.01s2.24,5.01,5.01,5.01,5.01-2.24,5.01-5.01-2.24-5.01-5.01-5.01ZM212.3,164.65c-2.77,0-5.01,2.24-5.01,5.01,0,2.77,2.24,5.01,5.01,5.01s5.01-2.24,5.01-5.01-2.24-5.01-5.01-5.01ZM240.55,164.65c-2.77,0-5.01,2.24-5.01,5.01s2.24,5.01,5.01,5.01,5.01-2.24,5.01-5.01-2.24-5.01-5.01-5.01ZM99.65,164.71c-1.8,1.58-3.58,3.18-5.33,4.78,0,.06-.03.1-.03.16,0,2.77,2.24,5.01,5.01,5.01s5.01-2.24,5.01-5.01-2.06-4.75-4.65-4.94ZM84.69,183.34c-2.77,0-5.01,2.24-5.01,5.01s2.24,5.01,5.01,5.01,5.04-2.24,5.04-5.01-2.27-5.01-5.04-5.01ZM112.94,183.34c-2.77,0-5.01,2.24-5.01,5.01s2.24,5.01,5.01,5.01,5.04-2.24,5.04-5.01-2.27-5.01-5.04-5.01ZM141.22,183.34c-2.77,0-5.04,2.24-5.04,5.01s2.27,5.01,5.04,5.01,5.01-2.24,5.01-5.01-2.24-5.01-5.01-5.01ZM169.47,183.34c-2.77,0-5.04,2.24-5.04,5.01,0,2.77,2.27,5.01,5.04,5.01s5.01-2.24,5.01-5.01-2.24-5.01-5.01-5.01ZM197.72,183.34c-2.77,0-5.04,2.24-5.04,5.01,0,.22.1.4.13.61.03-.06.32-.61.32-.61,0,0,3.07,1.81,7.53,3.95,1.23-.91,2.07-2.31,2.07-3.95,0-2.77-2.24-5.01-5.01-5.01ZM225.97,183.34c-2.77,0-5.04,2.24-5.04,5.01,0,2.77,2.27,5.01,5.04,5.01s5.01-2.24,5.01-5.01-2.24-5.01-5.01-5.01ZM71.04,201.99c-.54,0-1.05.13-1.53.29-1.13,1.97-2.18,3.92-3.25,5.96.55,2.16,2.44,3.79,4.78,3.79,2.77,0,5.01-2.24,5.01-5.01,0-2.77-2.24-5.04-5.01-5.04ZM99.29,201.99c-2.77,0-5.01,2.27-5.01,5.04,0,2.77,2.24,5.01,5.01,5.01s5.01-2.24,5.01-5.01-2.24-5.04-5.01-5.04ZM127.54,201.99c-1.27,0-2.4.49-3.28,1.28,1.09,2.72,2.72,5.6,5.58,8.13,1.58-.84,2.71-2.45,2.71-4.37,0-2.77-2.24-5.04-5.01-5.04ZM155.8,201.99c-2.77,0-5.01,2.27-5.01,5.04,0,2.77,2.24,5.01,5.01,5.01s5.01-2.24,5.01-5.01-2.24-5.04-5.01-5.04ZM184.05,201.99c-2.77,0-5.01,2.27-5.01,5.04,0,.15.08.27.1.41,1.91-1.76,3.61-3.59,5.13-5.42-.08,0-.14-.03-.22-.03ZM84.69,220.67c-2.77,0-5.01,2.27-5.01,5.04s2.24,5.01,5.01,5.01,5.04-2.24,5.04-5.01-2.27-5.04-5.04-5.04ZM111.7,220.93c-2.15.57-3.76,2.45-3.76,4.78,0,.81.24,1.53.57,2.2,1.1-2.35,2.18-4.68,3.19-6.98ZM60.01,222.17c-1.07,2.83-2.17,5.65-2.9,8.42,2.44-.34,4.37-2.35,4.37-4.88,0-1.37-.57-2.63-1.47-3.54ZM71.04,239.36c-2.77,0-5.01,2.24-5.01,5.01s2.24,5.04,5.01,5.04,5.01-2.27,5.01-5.04c0-2.77-2.24-5.01-5.01-5.01ZM99.29,239.36c-2.77,0-5.01,2.24-5.01,5.01,0,2,1.17,3.72,2.87,4.53,1.71-2.57,3.4-5.46,5.07-8.48-.83-.62-1.81-1.05-2.93-1.05ZM84.69,258.04c-2.77,0-5.01,2.24-5.01,5.01,0,.11.06.21.06.32,2.71-.62,5.48-1.92,8.23-4.02-.89-.78-2.01-1.31-3.28-1.31Z"/>
        </g>
        <g id="Layer-9">
          <path class="cls-7" d="M177.09,143.44l-3.93,13.26-9.45-11.44-8.73,14.27-7.92-13.26"/>
          <path class="cls-7" d="M192.91,163.24s1.96,5.23,1.72,12.8c-.14,4.28-1.46,9.21-1.46,9.21"/>
        </g>
        <path class="cls-8" d="M262.78,77.67l-21.65,13.29"/>
        <path class="cls-8" d="M276.82,112.42l-45.11,1.22"/>
        <path class="cls-8" d="M221.04,113.94l-11.64.65-1.48-5.25,14.47-8.58"/>
        <path class="cls-2" d="M262.83,76.71s11.73,1.95,15.46,15.02c4.26,14.91-.8,21.36-.8,21.36,0,0-10.01-4.38-14.09-16.74-3.87-11.72-.57-19.64-.57-19.64Z"/>
        <path class="cls-8" d="M246.71,125.99s2.69-3.33,3.75-6.05c1.33-3.42,1.49-6.85,1.49-6.85"/>
        <path class="cls-8" d="M243.63,117.65s-1.58-2.45-4.48-3.21c-2.89-.76-7.1.18-7.1.18,0,0-7.95-9.03-11.02-7.83-3.06,1.2-.33,8.04,3.68,12.76,3.03,3.56,8.71,8.09,8.71,8.09"/>
        <path class="cls-8" d="M239.53,90.55c2.29,1.59,4.31,5.45,4.08,9.29-.23,3.83-2.26,4.57-4.43,2.05-2.17-2.52-4.01-7.68-3.75-9.46.26-1.78,1.81-3.46,4.1-1.87Z"/>
        <path class="cls-8" d="M233.52,93.28c2.5,2.16,4.82,7.27,4.15,11.36-.67,4.09-3.03,4.86-5.3,1.73-2.26-3.13-3.71-10.18-3.22-12.05.49-1.87,1.86-3.19,4.37-1.04Z"/>
        <path class="cls-8" d="M226.79,96.31c2.39,2.28,4.15,6.68,3.63,11.32-.46,4.12-2.99,3.44-5.1.19-2.1-3.24-2.74-6.88-2.9-8.8-.25-3,1.98-4.99,4.37-2.72Z"/>
        <path class="cls-6" d="M264.13,87.43s6.59,1.18,8.13,6.58c1.53,5.4-1.58,10.2-1.58,10.2"/>
        <g>
          <path class="cls-8" d="M176.98,121.98c.14-7.09-5.49-12.96-12.58-13.11-7.09-.14-12.96,5.49-13.11,12.58-.14,7.09,5.49,12.96,12.58,13.11,7.09.14,12.96-5.49,13.11-12.58Z"/>
          <path class="cls-2" d="M166.31,101.47c4.91.87,4.13,6.04,4.13,6.04,0,0,3.09-2.43,6.32.87,3.46,3.53-.17,8.18-.17,8.18,0,0-2.56-3.52-5.56-5.43-2.81-1.79-6.07-1.98-6.07-1.98,0,0-1.32,6.55-6.75,11.17-2.97,2.53-5.04,3.12-6.05,3.33.94,4.39,5.14,9.42,5.14,9.42,0,0-6.95,3.59-10.63-.42-2.9-3.16-.24-7.38-.24-7.38,0,0-5.66-1.41-4.24-8.4.88-4.33,6.1-6.16,6.1-6.16,0,0-.65-4.67,2.98-7.05,4.37-2.86,8.72.75,8.72.75,0,0,2.75-3.56,6.31-2.94Z"/>
          <path class="cls-10" d="M164.13,122.4c.02-.82-.64-1.5-1.46-1.52-.82-.02-1.5.64-1.52,1.46-.02.82.64,1.5,1.46,1.52.82.02,1.5-.64,1.52-1.46Z"/>
          <path class="cls-2" d="M166.49,118.71c.01-.65-.51-1.19-1.16-1.21-.65-.01-1.19.51-1.2,1.16-.01.65.51,1.19,1.16,1.2.65.01,1.19-.51,1.21-1.16Z"/>
          <path class="cls-2" d="M173.6,115.72c.01-.65-.5-1.19-1.16-1.21-.65-.01-1.19.51-1.21,1.16-.01.65.51,1.19,1.16,1.2.65.01,1.19-.51,1.21-1.16Z"/>
          <path class="cls-8" d="M169.23,116.23l3.73,4.97-2.76-.03"/>
          <path class="cls-8" d="M165.21,127.04c-.35-1.35.46-2.74,1.81-3.09,1.35-.35,2.74.46,3.09,1.81s-.46,2.74-1.81,3.09c-1.35.35-2.74-.46-3.09-1.81Z"/>
        </g>
        <g id="Layer-6">
          <path class="cls-8" d="M63.52,253.79s-9.66,4.38-16.14,14.61c-3.45,5.44-5.7,11.04-3.63,12.03,2.69,1.28,6.17-3.56,6.17-3.56l5.19-6.36s-1.46,2.19-3.71,7.2c-2.07,4.6-3.01,9.22-.46,11.25,2.52,2.01,5.12-5.26,6.77-8.48,1.64-3.22,4-6.63,4-6.63,0,0-1.86,4-2.37,6.1-.83,3.41-1.6,10.03,2.35,10.03,2.56,0,3.07-3.59,4.34-7.81,2.05-6.83,4.56-11.55,7.72-11.45,2.51.08,2.15,3.29,3.08,7.11,1.43,5.87,4.47,7.38,6.38,4.69,2.9-4.07-1.81-22.86-1.81-22.86"/>
        </g>
        <g id="Layer-12">
          <path class="cls-8" d="M170.38,399.27c0,4.21-.33,15.77-.33,15.77,0,0,49.48,3,54.44.59,3.34-1.63-4.23-6.21-11.56-10.45-6.96-4.03-15.16-6.97-15.16-6.97"/>
          <path class="cls-9" d="M199.5,405.32l8.44-7.32"/>
          <path class="cls-9" d="M203.71,407.18l8.44-7.32"/>
        </g>
      </g>
    </g>
  </g>
</svg>