<?xml version="1.0" encoding="UTF-8"?>
<svg id="Capa_2" xmlns="http://www.w3.org/2000/svg" viewBox="0 0 459.04 459.57">
  <defs>
    <style>
      .cls-1 {
        fill: #ffc051;
      }

      .cls-2 {
        fill: #263238;
      }

      .cls-3 {
        isolation: isolate;
        opacity: .25;
      }

      .cls-3, .cls-4 {
        fill: #fff;
      }

      .cls-5 {
        stroke: #ffc051;
      }

      .cls-5, .cls-6, .cls-7, .cls-8, .cls-9, .cls-10 {
        stroke-linecap: round;
        stroke-linejoin: round;
        stroke-width: 2px;
      }

      .cls-5, .cls-8, .cls-9, .cls-10 {
        fill: none;
      }

      .cls-6, .cls-7, .cls-11 {
        fill: #ff367c;
      }

      .cls-6, .cls-10 {
        stroke: #ff367c;
      }

      .cls-7, .cls-9 {
        stroke: #263238;
      }

      .cls-8 {
        stroke: #fff;
      }
    </style>
  </defs>
  <g id="Shadow">
    <g id="Layer-20">
      <path class="cls-1" d="M222.5,447.26c0-6.8,45.23-12.31,101.03-12.31s101.03,5.51,101.03,12.31-45.24,12.31-101.03,12.31-101.03-5.51-101.03-12.31Z"/>
    </g>
  </g>
  <g id="Sparkles">
    <g>
      <g>
        <path class="cls-9" d="M24.14,315.46v3.78"/>
        <path class="cls-9" d="M24.14,323.51v3.79"/>
        <path class="cls-9" d="M18.22,321.38h3.79"/>
        <path class="cls-9" d="M26.27,321.38h3.79"/>
      </g>
      <g>
        <path class="cls-9" d="M157.19,16.04v3.79"/>
        <path class="cls-9" d="M157.19,24.1v3.79"/>
        <path class="cls-9" d="M151.27,21.96h3.79"/>
        <path class="cls-9" d="M159.32,21.96h3.79"/>
      </g>
      <g>
        <path class="cls-9" d="M421.73,222.1v3.79"/>
        <path class="cls-9" d="M421.73,230.15v3.79"/>
        <path class="cls-9" d="M415.81,228.02h3.79"/>
        <path class="cls-9" d="M423.87,228.02h3.79"/>
      </g>
    </g>
  </g>
  <g id="Floor">
    <g id="Layer-7">
      <path class="cls-9" d="M19.66,401.73h303.87"/>
      <path class="cls-9" d="M1,401.73h338.41"/>
      <path class="cls-9" d="M392.83,401.73h53.99"/>
    </g>
  </g>
  <g id="Tabs_2">
    <g>
      <path class="cls-9" d="M402.32,84.49c0-3.91,3.17-7.07,7.07-7.07h30.35c3.91,0,7.07,3.17,7.07,7.07v44.99c0,3.91-3.17,7.07-7.07,7.07h-30.35c-3.91,0-7.07-3.17-7.07-7.07v-44.99Z"/>
      <path class="cls-7" d="M402.32,89.67h44.5-44.5Z"/>
      <path class="cls-7" d="M412.79,111.91h23.56-23.56Z"/>
      <path class="cls-7" d="M412.79,119.4h23.56-23.56Z"/>
      <path class="cls-7" d="M412.79,126.37h23.56-23.56Z"/>
      <g>
        <path class="cls-10" d="M418.91,96.46l-5.21,4.02,5.21,4.67"/>
        <path class="cls-10" d="M430.23,96.46l5.21,4.02-5.21,4.67"/>
        <path class="cls-10" d="M427.35,96.46l-5.49,8.7"/>
      </g>
      <path class="cls-2" d="M407.82,84.09c0-.76.61-1.37,1.37-1.37s1.37.61,1.37,1.37-.61,1.37-1.37,1.37-1.37-.61-1.37-1.37Z"/>
      <path class="cls-2" d="M416.04,84.09c0-.76.61-1.37,1.37-1.37s1.37.61,1.37,1.37-.61,1.37-1.37,1.37-1.37-.61-1.37-1.37Z"/>
      <path class="cls-2" d="M411.93,84.09c0-.76.61-1.37,1.37-1.37s1.37.61,1.37,1.37-.61,1.37-1.37,1.37-1.37-.61-1.37-1.37Z"/>
    </g>
    <g>
      <path class="cls-9" d="M1,145.75c0-3.03,2.45-5.48,5.48-5.48h23.51c3.03,0,5.48,2.45,5.48,5.48v34.85c0,3.03-2.45,5.48-5.48,5.48H6.48c-3.03,0-5.48-2.45-5.48-5.48v-34.85Z"/>
      <path class="cls-7" d="M1,149.76h34.47H1Z"/>
      <path class="cls-7" d="M9.11,166.99h18.25H9.11Z"/>
      <path class="cls-7" d="M9.11,172.79h18.25H9.11Z"/>
      <path class="cls-7" d="M9.11,178.19h18.25H9.11Z"/>
      <g>
        <path class="cls-10" d="M13.85,155.02l-4.04,3.12,4.04,3.62"/>
        <path class="cls-10" d="M22.62,155.02l4.04,3.12-4.04,3.62"/>
        <path class="cls-10" d="M20.39,155.02l-4.25,6.74"/>
      </g>
      <path class="cls-2" d="M5.26,145.44c0-.59.48-1.06,1.06-1.06s1.06.48,1.06,1.06-.48,1.06-1.06,1.06-1.06-.48-1.06-1.06Z"/>
      <path class="cls-2" d="M11.63,145.44c0-.59.48-1.06,1.06-1.06s1.06.48,1.06,1.06-.48,1.06-1.06,1.06-1.06-.48-1.06-1.06Z"/>
      <path class="cls-2" d="M8.44,145.44c0-.59.48-1.06,1.06-1.06s1.06.48,1.06,1.06-.48,1.06-1.06,1.06-1.06-.48-1.06-1.06Z"/>
    </g>
  </g>
  <g id="Tab_1">
    <g>
      <g id="xml-version1.0-encodingUTF-8-standaloneno-DOCTYPE-svg-PUBLIC--W3CDTD-SVG-1.1EN-httpwww.w3.orgGraphicsSVG1.1DTDsvg11.dtd----Created-with-Vectornator-httpvectornator.io----svg-height100-stroke-miterlimit10-stylefill-rulenonzeroclip-ruleevenoddstroke-line">
        <path class="cls-2" d="M46.3,138.91h337.62s1.53-12.98-2.1-21.31c-3.63-8.32-16.54-12.88-16.54-12.88H65.06s-12.86,4.05-16.38,12.6c-3.52,8.55-2.38,21.58-2.38,21.58Z"/>
        <path class="cls-9" d="M384.86,171.68v142.9c0,14.41-9.79,26.09-21.87,26.09H67.23c-12.08,0-21.87-11.68-21.87-26.09v-183.76c0-14.41,9.79-26.09,21.87-26.09h295.76c12.08,0,21.87,11.68,21.87,26.09v20.32"/>
      </g>
      <g id="Layer-24">
        <path class="cls-4" d="M352.31,123.24c0-1.62,1.31-2.93,2.94-2.93s2.93,1.31,2.93,2.93-1.31,2.93-2.93,2.93-2.94-1.31-2.94-2.93Z"/>
        <path class="cls-4" d="M342.37,123.24c0-1.62,1.31-2.93,2.93-2.93s2.93,1.31,2.93,2.93-1.31,2.93-2.93,2.93-2.93-1.31-2.93-2.93Z"/>
        <path class="cls-4" d="M362.25,123.24c0-1.62,1.31-2.93,2.93-2.93s2.94,1.31,2.94,2.93-1.31,2.93-2.94,2.93-2.93-1.31-2.93-2.93Z"/>
      </g>
      <g id="Layer-12">
        <path class="cls-1" d="M281.77,213.58c0-6.33,5.45-11.47,12.18-11.47h57.87c6.72,0,12.18,5.13,12.18,11.47v100.95c0,6.33-5.45,11.47-12.18,11.47h-57.87c-6.73,0-12.18-5.13-12.18-11.47v-100.95Z"/>
      </g>
      <path class="cls-11" d="M322,151.65l-138.77-.14c-3.85-3.36-8.88-5.39-14.38-5.39-12.09,0-21.9,9.8-21.9,21.9,0,1.13.09,2.24.25,3.33-3.51-2.41-7.77-3.82-12.35-3.82-11.2,0-20.42,8.41-21.72,19.25-1.94-1.55-4.39-2.48-7.06-2.48-2.09,0-4.03.57-5.71,1.56-1.75-14.21-13.86-25.22-28.55-25.22-15.89,0-28.77,12.88-28.77,28.77,0,5.55,1.57,10.72,4.29,15.12-16.23,2.37-28.69,16.34-28.69,33.23s13.12,31.59,29.97,33.39c-.87,2.74-1.35,5.66-1.35,8.69,0,15.81,12.81,28.62,28.62,28.62,2.47,0,4.87-.31,7.16-.9,3.21,12.88,14.85,22.43,28.73,22.43,9.31,0,17.62-4.3,23.04-11.02,3.35,2.09,7.31,3.3,11.55,3.3,12.09,0,21.89-9.8,21.89-21.89,0-3.21-.7-6.26-1.94-9,5.41-.85,9.56-5.52,9.56-11.18,0-4.83-3.03-8.95-7.3-10.57,6.05-3.89,10.05-10.68,10.05-18.41,0-7.15-3.43-13.5-8.74-17.5,8.85-2.81,15.26-11.09,15.26-20.86,0-.95-.07-1.88-.18-2.79.06,0,.12,0,.18,0,9.54,0,17.43-7.01,18.85-16.15,2.05,1.37,5.17,2.31,9.44.52,7.97-1.52,14.16-7.98,15.3-16.07l93.26.13c4.42,0,8.01-3.06,8.01-6.83v-13.23c0-3.77-3.58-6.8-8.01-6.8Z"/>
      <g id="Layer-15">
        <g>
          <path class="cls-8" d="M306.39,160.92c0-2.34,1.74-4.24,3.89-4.24s3.89,1.9,3.89,4.24-1.74,4.24-3.89,4.24-3.89-1.9-3.89-4.24Z"/>
          <path class="cls-8" d="M312.32,165.16l3.71,6.53"/>
        </g>
        <path class="cls-8" d="M298.49,154.65v21.05"/>
      </g>
      <g id="Layer-10">
        <path class="cls-4" d="M138.02,207.1h9.53v49.13h-9.53v-49.13Z"/>
        <path class="cls-4" d="M94.14,238.67h-9.01v17.55h9.01v-17.55Z"/>
        <path class="cls-4" d="M76.25,243.94h-8.67v12.28h8.67v-12.28Z"/>
        <path class="cls-4" d="M111.86,231.66h-9.01v24.57h9.01v-24.57Z"/>
        <path class="cls-4" d="M129.57,221.12h-9.01v35.11h9.01v-35.11Z"/>
        <path class="cls-8" d="M150.33,261.23H63.91"/>
        <g>
          <path class="cls-8" d="M67.7,231.66l47.93-19.13"/>
          <path class="cls-8" d="M103.36,207.53l12.26,5.01-5.47,12.01"/>
        </g>
      </g>
      <line class="cls-9" x1="196.13" y1="255.42" x2="268.52" y2="255.42"/>
      <line class="cls-9" x1="196.13" y1="266.28" x2="268.52" y2="266.28"/>
      <line class="cls-9" x1="196.13" y1="277.15" x2="268.52" y2="277.15"/>
      <line class="cls-9" x1="196.13" y1="288.02" x2="268.52" y2="288.02"/>
      <line class="cls-9" x1="196.13" y1="298.88" x2="268.52" y2="298.88"/>
      <line class="cls-9" x1="196.13" y1="309.75" x2="268.52" y2="309.75"/>
      <g>
        <line class="cls-9" x1="75.75" y1="278.07" x2="138.5" y2="278.07"/>
        <line class="cls-9" x1="75.75" y1="288.02" x2="138.5" y2="288.02"/>
      </g>
    </g>
  </g>
  <g id="Text">
    <g>
      <path class="cls-4" d="M206.42,168.08c0-.39-.14-.68-.41-.89-.27-.21-.76-.42-1.47-.65-.71-.23-1.27-.45-1.68-.68-1.12-.61-1.69-1.43-1.69-2.45,0-.53.15-1.01.45-1.43.3-.42.73-.75,1.3-.98.56-.24,1.2-.35,1.9-.35s1.34.13,1.89.38c.55.26.98.62,1.29,1.08.31.47.46,1,.46,1.59h-2.04c0-.45-.14-.81-.43-1.06-.29-.25-.69-.38-1.2-.38s-.89.11-1.16.32c-.28.21-.41.49-.41.83,0,.32.16.59.49.81.32.22.8.42,1.43.61,1.16.35,2.01.78,2.54,1.3s.8,1.16.8,1.93c0,.86-.32,1.53-.97,2.02-.65.49-1.52.73-2.62.73-.76,0-1.46-.14-2.08-.42-.63-.28-1.1-.66-1.43-1.15-.33-.48-.49-1.05-.49-1.69h2.05c0,1.09.65,1.64,1.96,1.64.48,0,.86-.1,1.14-.3.27-.2.41-.47.41-.83Z"/>
      <path class="cls-4" d="M215.8,166.39h-3.92v2.65h4.6v1.64h-6.63v-9.9h6.62v1.65h-4.58v2.36h3.92v1.6Z"/>
      <path class="cls-4" d="M223.27,168.64h-3.58l-.68,2.04h-2.17l3.69-9.9h1.89l3.71,9.9h-2.17l-.69-2.04ZM220.24,166.99h2.47l-1.24-3.7-1.23,3.7Z"/>
      <path class="cls-4" d="M230.71,167.06h-1.62v3.62h-2.04v-9.9h3.68c1.17,0,2.07.26,2.7.78.63.52.95,1.26.95,2.21,0,.68-.15,1.24-.44,1.69-.29.45-.74.81-1.33,1.08l2.14,4.04v.1h-2.19l-1.86-3.62ZM229.08,165.41h1.65c.51,0,.91-.13,1.19-.39.28-.26.42-.62.42-1.08s-.13-.83-.4-1.1c-.26-.27-.67-.4-1.22-.4h-1.64v2.97Z"/>
      <path class="cls-4" d="M243.7,167.38c-.08,1.06-.47,1.9-1.18,2.52-.71.61-1.64.92-2.8.92-1.27,0-2.27-.43-2.99-1.28-.73-.85-1.09-2.03-1.09-3.52v-.6c0-.95.17-1.79.5-2.52.33-.73.81-1.28,1.44-1.67.62-.39,1.35-.58,2.17-.58,1.14,0,2.06.31,2.76.92.7.61,1.1,1.47,1.21,2.58h-2.04c-.05-.64-.23-1.1-.53-1.39-.31-.29-.77-.43-1.4-.43-.68,0-1.19.24-1.53.73-.34.49-.51,1.24-.52,2.27v.75c0,1.07.16,1.85.49,2.35.32.49.83.74,1.53.74.63,0,1.1-.14,1.41-.43.31-.29.49-.73.53-1.34h2.04Z"/>
      <path class="cls-4" d="M253.1,170.68h-2.04v-4.24h-3.98v4.24h-2.04v-9.9h2.04v4.01h3.98v-4.01h2.04v9.9Z"/>
      <path class="cls-4" d="M257.04,170.68h-2.04v-9.9h2.04v9.9Z"/>
      <path class="cls-4" d="M266.98,170.68h-2.04l-3.97-6.51v6.51h-2.04v-9.9h2.04l3.98,6.53v-6.53h2.03v9.9Z"/>
      <path class="cls-4" d="M276.6,169.43c-.37.44-.89.78-1.56,1.02-.67.24-1.41.36-2.23.36-.86,0-1.61-.19-2.25-.56-.65-.37-1.14-.92-1.5-1.63-.35-.71-.53-1.55-.54-2.51v-.67c0-.99.17-1.84.5-2.57.33-.72.81-1.28,1.44-1.66.63-.38,1.36-.57,2.21-.57,1.17,0,2.09.28,2.75.84.66.56,1.05,1.37,1.18,2.44h-1.99c-.09-.57-.29-.98-.6-1.24-.31-.26-.74-.39-1.28-.39-.69,0-1.22.26-1.58.78-.36.52-.55,1.3-.55,2.33v.63c0,1.04.2,1.82.59,2.35s.97.8,1.73.8,1.31-.16,1.64-.49v-1.71h-1.86v-1.5h3.9v3.95Z"/>
      <path class="cls-4" d="M278.22,169.72c0-.31.11-.57.32-.76.21-.19.47-.29.79-.29s.59.1.8.29c.21.19.32.45.32.76s-.1.56-.31.75c-.21.19-.48.29-.8.29s-.59-.1-.8-.29c-.21-.19-.31-.44-.31-.75Z"/>
      <path class="cls-4" d="M282.26,169.72c0-.31.11-.57.32-.76.21-.19.47-.29.79-.29s.59.1.8.29c.21.19.32.45.32.76s-.1.56-.31.75c-.21.19-.48.29-.8.29s-.59-.1-.8-.29c-.21-.19-.31-.44-.31-.75Z"/>
      <path class="cls-4" d="M286.31,169.72c0-.31.11-.57.32-.76s.47-.29.79-.29.59.1.8.29c.21.19.32.45.32.76s-.1.56-.31.75c-.21.19-.48.29-.8.29s-.59-.1-.8-.29c-.21-.19-.31-.44-.31-.75Z"/>
    </g>
  </g>
  <g id="Folder">
    <g id="Layer-23">
      <g>
        <path class="cls-4" d="M381.88,292.23c-2.47,0-4.48,2.03-4.48,4.5v49.34c0,4.3,3.72,7.81,8.32,7.81h63.96c4.61,0,8.36-3.5,8.36-7.81v-38.1c0-4.31-3.75-7.78-8.36-7.78h-44.92v-3.46c0-2.48-2.01-4.5-4.48-4.5h-18.4Z"/>
        <path class="cls-1" d="M397.15,291.15c-.2,0,3.87.13,6.19,2.51,1.65,1.7,1.43,6.63,1.42,6.7,1.01.09,10.42,0,11.46-.04v-5.32c0-2.12-1.72-3.84-3.84-3.84h-15.23Z"/>
        <path class="cls-5" d="M381.88,292.23c-2.47,0-4.48,2.03-4.48,4.5v49.34c0,4.3,3.72,7.81,8.32,7.81h63.96c4.61,0,8.36-3.5,8.36-7.81v-38.1c0-4.31-3.75-7.78-8.36-7.78h-44.92v-3.46c0-2.48-2.01-4.5-4.48-4.5h-18.4Z"/>
        <path class="cls-10" d="M395.23,315.54c0-2.61,1.98-4.72,4.42-4.72h36.13c2.44,0,4.42,2.11,4.42,4.72v16.14c0,2.61-1.98,4.72-4.42,4.72h-36.13c-2.44,0-4.42-2.11-4.42-4.72v-16.14Z"/>
        <path class="cls-10" d="M402.02,317.35h31.26"/>
        <path class="cls-10" d="M402.16,323.68h31.26"/>
        <path class="cls-10" d="M402.02,329.86h31.26"/>
      </g>
    </g>
  </g>
  <g id="Gears">
    <g>
      <path class="cls-1" d="M334.43,40.68l2.11,2.87c-.59,1.1-1.07,2.22-1.45,3.39l-3.6.53-.09,10.27,3.39.65c.43,1.62,1.07,3.18,1.89,4.67l-2.09,3,7.42,7.09,2.81-2.05c1.33.72,2.71,1.28,4.14,1.69l.72,3.47,10.27-.25.43-3.33c1.36-.41,2.67-.96,3.93-1.66l2.91,2.1,7.21-7.3-2.05-2.91c.64-1.18,1.16-2.39,1.56-3.65l3.57-.61.09-10.27-3.44-.56c-.44-1.62-1.08-3.18-1.92-4.66l1.99-3.02-7.42-7.09-2.78,2.13c-1.31-.7-2.67-1.25-4.07-1.64l-.66-3.66-10.27.25-.56,3.57c-1.36.42-2.67.99-3.93,1.69l-2.91-2-7.21,7.3ZM351.78,50.48c1.49-1.51,3.93-1.52,5.44-.03,1.51,1.49,1.52,3.92.02,5.44-1.49,1.51-3.92,1.53-5.43.04-1.51-1.49-1.53-3.93-.03-5.45Z"/>
      <path class="cls-5" d="M395.12,26.36l.26,1.98c-.59.38-1.13.8-1.63,1.27l-1.91-.72-2.84,5.02,1.49,1.24c-.23.91-.34,1.85-.34,2.81l-1.84.9,1.72,5.5,1.94-.24c.46.72.98,1.37,1.58,1.95l-.59,1.9,5.11,2.67,1.12-1.52c.78.17,1.57.25,2.38.26l.86,1.82,5.53-1.62-.22-1.99c.64-.4,1.22-.86,1.76-1.37l1.92.67,2.84-5.02-1.54-1.21c.23-.91.33-1.85.32-2.81l1.8-.94-1.71-5.5-1.94.29c-.46-.7-.97-1.34-1.56-1.91l.67-1.98-5.11-2.67-1.25,1.6c-.78-.16-1.58-.24-2.39-.24l-.89-1.78-5.53,1.62ZM400.98,35.89c1.14-.34,2.35.32,2.68,1.47.34,1.15-.32,2.34-1.47,2.68-1.15.34-2.35-.31-2.68-1.46-.34-1.15.32-2.35,1.47-2.68Z"/>
    </g>
  </g>
  <g id="Earth">
    <g>
      <path class="cls-10" d="M245.16,29.88c0-15.95,12.93-28.88,28.88-28.88s28.88,12.93,28.88,28.88-12.93,28.88-28.88,28.88-28.88-12.93-28.88-28.88Z"/>
      <g>
        <path class="cls-11" d="M257.79,6.49s4.09,2.31,4.47,5.1c.38,2.79-1.73,5.86.05,7.55,1.78,1.68,3.8-.87,5.19-.62,1.39.24.05,1.68,1.3,2.36s2.79.72,2.21,2.31c-.58,1.59-.96,2.74-2.79,2.88-1.83.14-2.88-1.01-4.33.29-1.44,1.3.09,2.21-.9,3.26-1.24,1.31-3.06.21-3.81,1.41-.76,1.2.93,1.55.87,2.88-.06,1.33-1.11,1.55-1.11,2.45,0,1.11,1.2.74,1.96,1.96.75,1.19,1.31,2.7-.13,2.8-.71.05-.84-.91-1.83-1.56-1.03-.67-2.08-.22-2.86-1.05-1.28-1.35.1-3.53-1.54-5.07-1.63-1.54-3.45-.2-5.25-2.14-3.86-4.17-3.61-7.19-3.61-7.19,0,0,3.77-10.94,7.37-14.06s4.73-3.54,4.73-3.54Z"/>
        <path class="cls-11" d="M260.01,5.07s.22,2,2.13,2c1.27,0,1.72-.51,2.76-1.74,1.03-1.22.96-1.49,2.33-1.03,1.38.46,1.34.69,2.37.15,1.03-.53,1.53-3.28,1.53-3.28,0,0-4.05.31-7.18,1.8-3.13,1.49-3.93,2.1-3.93,2.1Z"/>
        <path class="cls-11" d="M265.57,6.49c-.83.39-1.31,3.21-1.31,3.21,0,0-.83,3.26.62,3.2,1.45-.06,1.78-1.97,2.38-3.45.6-1.49-.87-3.35-1.69-2.96Z"/>
        <path class="cls-11" d="M274.18,1.27s-.85,1.86-1.54,3.41c-.69,1.55.21,2.01-.55,2.9s-1.41.88-2.27,2.49c-.87,1.61-1.62,5.48,0,5.83,1.62.35,1.86-2.86,3.37-4.18,1.51-1.32,3.46-1.2,5.25-2.55,1.79-1.34,2.96-2.52,3.14-4.05.18-1.53-.17-3.45-.17-3.45,0,0-2.26-.24-3.99-.35-1.73-.12-3.24-.05-3.24-.05Z"/>
        <path class="cls-11" d="M267.25,39.02c-2.57.37-4.68,1.49-4.97,4.25-.28,2.76,3.9,4.82,4.43,6.86.42,1.61-.1.93-.73,3.24-.63,2.31,2.66,5,2.66,5l4.15.39s-.35-4.33,1.27-6.3c1.62-1.97,2.89-5.26,2.94-6.94.05-1.68-2.95-2.58-4.45-3.72-1.51-1.14-2.74-3.15-5.3-2.78Z"/>
        <path class="cls-11" d="M293.2,8.6s-1.83-.19-2.95,1.34c-1.12,1.53,1.9,2.68.99,4.18-.91,1.51-1.54.94-2.58,2.58-1.04,1.64.05,2.95-1.58,3.41-1.62.46-3.12,1.1-3.37,2.72-.26,1.61,2.94,2.28,4.58,2.02,1.64-.25,3.73-.75,4.53.41.8,1.16,1.17,3.7,3.29,3.98,2.12.29,6.64.75,6.64.75,0,0,.78-7.47-1.76-11.33-2.53-3.86-7.79-10.07-7.79-10.07Z"/>
        <path class="cls-11" d="M282.73,32.94c.21,2.34,2.9,1.31,2.33,3.16-.57,1.85-2.76,4.45-.52,4.52,2.24.08,4.69-2.27,5.85-.38s.25,3.63,1.13,5.37c.88,1.74,2.53,4.99,2.53,4.99,0,0,3.23-3.03,4.95-6.48,1.72-3.45,1.18-4.51.87-6.87-.31-2.36.42-3.98-1.38-5.41-1.8-1.44-2.99.41-5.09-.77-2.1-1.18-2.88-2.03-5.21-2.17-2.33-.14-5.67,1.7-5.45,4.04Z"/>
      </g>
    </g>
  </g>
  <g id="Cloud">
    <g>
      <path class="cls-10" d="M78.35,58.9c8.22,0,14.23-1.79,17.94-4.6,4.57-3.46,5.95-9.31,3.11-13.57-7.03-10.55-22.98.11-22.98.11,0,0-1.46-18.16-14.94-18.54-17.56-.49-17.18,17.71-17.18,17.71,0,0-9.04-10.6-20.03-4.48-9.69,5.4-9.05,23.03,6.23,23.2,27.24.31,25.86.16,47.85.16Z"/>
      <g>
        <path class="cls-9" d="M59.33,70.53v-29.91"/>
        <path class="cls-9" d="M54,46.14l5.33-5.53,5.29,5.53"/>
      </g>
    </g>
  </g>
  <g id="Stars">
    <g id="Layer-19">
      <g>
        <path class="cls-5" d="M24.65,369.83c0-8.19,6.64-14.83,14.83-14.83h185.23c8.19,0,14.83,6.64,14.83,14.83v2.74c0,8.19-6.64,14.83-14.83,14.83H39.49c-8.19,0-14.83-6.64-14.83-14.83v-2.74Z"/>
        <path class="cls-6" d="M125.73,380.3l2.5-7.07-5.95-4.57,7.5.2,2.5-7.07,2.13,7.19,7.5.2-6.18,4.25,2.13,7.19-5.95-4.57-6.18,4.25Z"/>
        <path class="cls-6" d="M160.53,380.3l2.5-7.07-5.95-4.57,7.5.2,2.5-7.07,2.13,7.19,7.5.2-6.18,4.25,2.13,7.19-5.95-4.57-6.18,4.25Z"/>
        <path class="cls-10" d="M195.32,380.3l2.5-7.07-5.95-4.57,7.5.2,2.5-7.07,2.13,7.19,7.5.2-6.18,4.25,2.13,7.19-5.95-4.57-6.18,4.25Z"/>
        <path class="cls-6" d="M56.14,380.3l2.5-7.07-5.95-4.57,7.5.2,2.5-7.07,2.13,7.19,7.5.2-6.18,4.25,2.13,7.19-5.95-4.57-6.18,4.25Z"/>
        <path class="cls-6" d="M90.94,380.3l2.5-7.07-5.95-4.57,7.5.2,2.5-7.07,2.13,7.19,7.5.2-6.18,4.25,2.13,7.19-5.95-4.57-6.18,4.25Z"/>
      </g>
    </g>
  </g>
  <g id="Character">
    <g id="Layer-14">
      <path class="cls-4" d="M305.27,207.91c0-7.26,5.89-13.15,13.15-13.15s13.15,5.89,13.15,13.15-5.89,13.15-13.15,13.15-13.15-5.89-13.15-13.15Z"/>
    </g>
    <g id="Layer-4">
      <path class="cls-2" d="M307.05,278.65s-27.29,48.9-28.93,66.27c-1.64,17.37-4.09,88.55-4.09,88.55h43.54l1.7-68.63,40.34,52.52,33.22-27.52-47.01-51.85.77-27.03s8.84-4.93,8.17-14.19c-.67-9.26-11.64-18.7-11.64-18.7l-36.06.58Z"/>
      <path class="cls-8" d="M336.28,291.25s3.94,5.65,2.98,10.94c-.96,5.29-8.63,8.99-8.63,8.99"/>
      <path class="cls-8" d="M322.88,326.3s-5.65,10.52-5.68,17.43c-.03,6.92,1.17,16.78,1.17,16.78"/>
    </g>
    <g id="Layer-5">
      <path class="cls-5" d="M307.05,291.25s-18.8,42.58-21.02,53.51c-2.22,10.93-4.02,79.64-4.02,79.64"/>
      <path class="cls-9" d="M306,437.83c0,3.52.28,13.2.28,13.2,0,0-41.42,2.51-45.57.49-2.8-1.36,3.54-5.2,9.68-8.75,5.83-3.37,12.69-5.84,12.69-5.84"/>
      <path class="cls-10" d="M281.62,442.9l-7.06-6.13"/>
      <path class="cls-10" d="M278.09,444.46l-7.06-6.13"/>
      <path class="cls-9" d="M383.38,399.79c2.47,2.51,9.45,9.22,9.45,9.22,0,0-27.78,30.82-32.16,32.29-2.95.99-1.12-6.19.77-13.02,1.79-6.49,4.96-13.06,4.96-13.06"/>
      <path class="cls-10" d="M369.55,420.49l-9.33.58"/>
      <path class="cls-10" d="M368.13,424.07l-9.33.58"/>
    </g>
    <g id="Layer-3">
      <path class="cls-11" d="M270.43,240.77s-7.62-17.63-16.96-19.63c-15.68-3.36-22.8,4.28-21.64,18.44,1.21,14.83,15.13,37.22,27.38,40.52,12.25,3.3,35.32-11.14,35.32-11.14,0,0,14.4,21.11,37.77,15.71,27.66-6.4,22.65-32.81,22.65-32.81,0,0,27.61-3.9,39.82-20.33,11.64-15.66,18.05-49.86,6.71-59.65-11.95-10.31-25.66-2.7-27.69,4.32-3.56,12.35-1.33,26.05-10.74,35.75-7.76,8.01-27.41,13.89-44.03,15.38-16.61,1.49-48.59,13.45-48.59,13.45Z"/>
    </g>
    <g id="Layer-1">
      <path class="cls-3" d="M391.79,168.64l-7.18,12.38,14.46.1-7.28-12.48ZM372.97,180.34c-.05.26-.11.52-.16.78h.62l-.45-.78ZM378.27,186.77l-7.21,12.38,14.46.06-7.25-12.45ZM403.87,186.77l-7.18,12.38,10.07.03c.31-2.27.41-4.45.49-6.63l-3.38-5.78ZM391.79,205.95l-7.18,12.38,14.46.1-7.28-12.48ZM366.7,206.86c-.99,1.77-2.14,3.52-3.67,5.1-.19.2-.47.39-.68.58l-3.38,5.78,14.46.1-6.73-11.57ZM250.14,224.08l-7.18,12.38,14.46.1-7.28-12.48ZM352.63,224.08l-7.18,12.38,14.46.1-7.28-12.48ZM378.27,224.08l-7.21,12.38,14.46.1-7.25-12.48ZM328.13,225.96c-.81.14-1.6.23-2.41.36l-5.91,10.14,14.46.1-6.14-10.59ZM304.83,229.96c-2.74.68-5.42,1.51-8.19,2.31l-2.44,4.19,14.46.1-3.83-6.6ZM238.06,243.28l-3.77,6.5c.7,1.97,1.5,3.93,2.44,5.91l8.58.07-7.25-12.48ZM263.69,243.28l-7.21,12.38,14.46.1-7.25-12.48ZM289.3,243.28l-7.18,12.38,14.43.1-7.25-12.48ZM314.94,243.28l-7.21,12.38,14.46.1-7.25-12.48ZM340.54,243.28l-7.18,12.38,14.46.1-7.28-12.48ZM366.18,243.28l-4.03,6.92c2.08-.52,4.27-1.12,6.89-2.01l-2.86-4.91ZM250.14,261.41l-4.78,8.22c1.26,1.53,2.6,2.91,3.93,4.19l8.12.03-7.28-12.45ZM275.78,261.41l-7.21,12.38,14.46.06-7.25-12.45ZM301.39,261.41l-5.43,9.33c.69.87,1.32,1.57,2.83,3.09l9.88.03-7.28-12.45ZM327.03,261.41l-7.21,12.38,14.46.06-7.25-12.45ZM352.63,261.41l-7.18,12.38,4.35.03c2.31-3.14,3.77-6.4,4.52-9.55l-1.69-2.86ZM314.94,280.58l-1.59,2.73c1.28.48,2.54.93,3.93,1.27l-2.34-4ZM340.54,280.58l-.88,1.5c.45-.21.97-.39,1.4-.62l-.52-.88Z"/>
    </g>
    <g id="Layer-25">
      <path class="cls-9" d="M347.09,232.98s3.72,4.42,5.65,8.5c1.93,4.08,2.51,8.79,2.51,8.79"/>
    </g>
    <path class="cls-2" d="M316.06,195.63s.55,6.94,5.35,13.76c2.89,4.1,7.92,6.47,7.92,6.47,0,0,3.68-11.8-1.32-16.7-5.34-5.23-11.95-3.53-11.95-3.53Z"/>
    <path class="cls-11" d="M319.04,207.66c-.22-.81-1.05-1.28-1.86-1.07-.81.22-1.29,1.05-1.07,1.86.22.81,1.05,1.28,1.86,1.07.81-.22,1.29-1.05,1.07-1.86Z"/>
    <path class="cls-9" d="M305.73,211.48c-1.89-6.97,2.23-14.16,9.2-16.05,6.97-1.89,14.16,2.23,16.05,9.2,1.89,6.97-2.23,14.16-9.2,16.05-6.97,1.89-14.16-2.23-16.05-9.2Z"/>
    <path class="cls-2" d="M313.7,204.96c-.17-.64.2-1.3.85-1.48.64-.17,1.3.2,1.48.85.17.64-.2,1.3-.85,1.48-.64.17-1.3-.2-1.48-.85Z"/>
    <path class="cls-2" d="M307.1,202.55c-.17-.64.2-1.3.85-1.48.64-.17,1.3.2,1.48.85.17.64-.2,1.3-.85,1.48-.64.17-1.3-.2-1.48-.85Z"/>
    <path class="cls-9" d="M311.97,202.59l-3.26,5.41,2.62.25"/>
    <path class="cls-9" d="M314.99,210.06s-1.34,1.62-2.78,1.84c-1.44.22-3.06-.49-3.06-.49"/>
    <path class="cls-2" d="M348.57,196.64c0-4.73-3.84-8.57-8.57-8.57s-8.57,3.84-8.57,8.57,3.84,8.57,8.57,8.57,8.57-3.84,8.57-8.57Z"/>
    <path class="cls-2" d="M361.98,183.78c0-3.88-3.14-7.02-7.02-7.02s-7.02,3.14-7.02,7.02,3.14,7.02,7.02,7.02,7.02-3.14,7.02-7.02Z"/>
    <path class="cls-2" d="M365.19,169.06c0-2.75-2.23-4.97-4.97-4.97s-4.97,2.23-4.97,4.97,2.23,4.97,4.97,4.97,4.97-2.23,4.97-4.97Z"/>
    <path class="cls-9" d="M379.8,174.03s-4.49-5.56-5.29-11.98c-.8-6.43-.75-13.42.26-15,1.98-3.1,4.96.1,5.45,4.2.49,4.11-1.34,8.6,1.81,7.87,3.15-.74,6.94-6.51,8.95-9.79,2.01-3.28,1.67-7.83,4.22-7.23,2.54.6,2.68,6.29,1.47,8.84-1.2,2.54-4.42,6.13-4.42,6.13,0,0,1.8-1.7,3.82-4.7,2.51-3.73.77-8.91.77-8.91,0,0,2.72-.6,3.88.99,1.24,1.7,1.75,4.77,1.38,6.63-.67,3.35-4.42,7.77-4.42,7.77,0,0,2.56-2.49,3.83-5.63,1.27-3.15.56-5.3.56-5.3,0,0,3.14-1.5,4.1,2.57.57,2.39.09,4.82-2.1,8.72-1.61,2.87-5.32,5.94-7.13,8.42-1.81,2.48-1.14,5.29-1.14,5.29"/>
    <g>
      <path class="cls-9" d="M244.4,166.97c1.19-13.3-8.63-25.05-21.94-26.24-13.3-1.19-25.05,8.63-26.24,21.94-1.19,13.3,8.63,25.05,21.94,26.24,13.3,1.19,25.05-8.63,26.24-21.94Z"/>
      <path class="cls-9" d="M239.42,166.53c.94-10.55-6.85-19.87-17.4-20.82-10.55-.94-19.87,6.85-20.82,17.4-.94,10.55,6.85,19.87,17.4,20.81,10.55.94,19.87-6.85,20.81-17.4Z"/>
      <path class="cls-9" d="M232.73,202.73l-3.62-14.67"/>
      <path class="cls-9" d="M228.28,208.17l5.15,20.88c.21.86,1.08,1.38,1.94,1.17l2.35-.58c.86-.21,1.38-1.08,1.17-1.94l-2.9-11.76"/>
      <path class="cls-9" d="M224.47,192.72l2.01,8.14"/>
      <path class="cls-9" d="M223.63,189.28l.85,3.44"/>
      <path class="cls-9" d="M242.87,219.28s-3.2.61-6.34-2.83c-1.98-2.17-2.3-4.89-2.3-4.89,0,0-10.07-4.31-9.61-9.55.33-3.68,14.38,3.45,14.38,3.45"/>
      <path class="cls-9" d="M224.22,196.59s-3.41-.14-4.43,2.8c-1.18,3.38,2.03,8.4,4.2,9.74,3.84,2.35,5.6.38,5.6.38"/>
      <path class="cls-9" d="M219.73,203.73s-2.9.6-2.26,3.63c.64,3.03,3.19,5.69,6.35,6.12,5.59.77,4.62-3.1,4.62-3.1"/>
      <path class="cls-9" d="M218.75,211.36s-1.97,1.32-.58,3.38c.33.48.73.92,1.18,1.29,1.47,1.22,3.5,1.8,5.39,1.31,4.39-1.13,2.49-3.7,2.49-3.7"/>
      <path class="cls-9" d="M231.27,196.05s9.51,2.12,14.26,9.85c6.5,10.57,4.16,17.9,4.16,17.9"/>
      <path class="cls-9" d="M227.82,213.29s-.3,4.06.79,7.07c1.09,3.01,3.29,4.37,3.29,4.37"/>
    </g>
  </g>
  <g id="Rocket">
    <g>
      <g id="Layer-22">
        <path class="cls-4" d="M213.95,36.64c-19.22-.49-67.64,30.84-67.64,30.84,0,0-9.2-5.5-21.27-5.92-13.02-.45-23.26,6.95-23.26,6.95l16.83,19.67c-5.96,4.6-11.95,9.35-18.07,14.41l39.33,45.5c6.13-5.53,11.92-11,17.52-16.43l17.01,19.49s8.81-9.07,10.24-22.02c1.33-12-2.81-21.9-2.81-21.9,0,0,47.58-52.36,37.85-67.94-1.04-1.67-3.21-2.56-5.74-2.63Z"/>
      </g>
      <g>
        <g id="Layer-21">
          <path class="cls-1" d="M100.71,113.52l31.75,36.72s-36.38,41.66-43.83,38.31c-6.97-3.14,14.27-31.54,14.27-31.54,0,0-42.13,27.89-45.43,21.56-3.29-6.33,36.15-42.38,36.15-42.38,0,0-32.75,11.83-31.15,5.65,1.6-6.17,38.23-28.31,38.23-28.31Z"/>
        </g>
        <g id="Layer-22-copy">
          <g>
            <path class="cls-1" d="M186.37,44.25s3.47,8.68,9.27,15.46c5.79,6.77,13.91,11.63,13.91,11.63,0,0,18.06-22.9,9.96-32.27-7.63-8.82-33.14,5.19-33.14,5.19Z"/>
            <g>
              <path class="cls-9" d="M219.69,39.28c-10.29-11.9-62.35,16.23-119.16,63.3l39.35,45.5c54.78-49.42,90.11-96.9,79.82-108.8Z"/>
              <path class="cls-9" d="M165.33,65.99c6.42-5.55,16.13-4.85,21.68,1.57,5.55,6.42,4.85,16.13-1.57,21.68-6.42,5.55-16.13,4.85-21.68-1.57-5.55-6.42-4.85-16.13,1.57-21.68Z"/>
              <path class="cls-2" d="M167.49,68.49c5.04-4.36,12.67-3.81,17.03,1.24,4.36,5.04,3.81,12.67-1.23,17.03-5.04,4.36-12.67,3.81-17.03-1.24-4.36-5.04-3.81-12.67,1.24-17.03Z"/>
              <path class="cls-9" d="M115.13,97.34l32.23,37.27"/>
              <path class="cls-9" d="M109.95,101.82l32.23,37.27"/>
              <g>
                <path class="cls-2" d="M120.71,93.64c.83-.72,2.09-.63,2.81.2.72.83.63,2.09-.2,2.81-.83.72-2.09.63-2.81-.2-.72-.83-.63-2.09.2-2.81Z"/>
                <path class="cls-2" d="M126.37,100.19c.83-.72,2.09-.63,2.81.2.72.83.63,2.09-.2,2.81-.83.72-2.09.63-2.81-.2-.72-.83-.63-2.09.2-2.81Z"/>
                <path class="cls-2" d="M132.04,106.74c.83-.72,2.09-.63,2.81.2.72.83.63,2.09-.2,2.81-.83.72-2.09.63-2.81-.2-.72-.83-.63-2.09.2-2.81Z"/>
                <path class="cls-2" d="M137.7,113.29c.83-.72,2.09-.63,2.81.2.72.83.63,2.09-.2,2.81-.83.72-2.09.63-2.81-.2-.72-.83-.63-2.09.2-2.81Z"/>
                <path class="cls-2" d="M143.36,119.84c.83-.72,2.09-.63,2.81.2.72.83.63,2.09-.2,2.81-.83.72-2.09.63-2.81-.2-.72-.83-.63-2.09.2-2.81Z"/>
                <path class="cls-2" d="M149.03,126.39c.83-.72,2.09-.63,2.81.2.72.83.63,2.09-.2,2.81-.83.72-2.09.63-2.81-.2-.72-.83-.63-2.09.2-2.81Z"/>
              </g>
              <path class="cls-9" d="M146.31,67.5s-9.19-5.5-21.26-5.92c-13.02-.45-23.27,6.95-23.27,6.95l17.04,19.89"/>
              <path class="cls-9" d="M181.85,107.22s4.12,9.89,2.79,21.89c-1.43,12.95-10.24,22.02-10.24,22.02l-17.22-19.74"/>
            </g>
          </g>
        </g>
      </g>
    </g>
  </g>
</svg>