<?xml version="1.0" encoding="UTF-8"?>
<svg id="Capa_2" xmlns="http://www.w3.org/2000/svg" viewBox="0 0 460.04 429.14">
  <defs>
    <style>
      .cls-1 {
        fill: #ffc051;
      }

      .cls-2 {
        isolation: isolate;
        opacity: .3;
      }

      .cls-2, .cls-3, .cls-4, .cls-5 {
        fill: #fff;
      }

      .cls-6 {
        fill: #263238;
      }

      .cls-7, .cls-4, .cls-8, .cls-9, .cls-5, .cls-10 {
        stroke-linecap: round;
        stroke-linejoin: round;
        stroke-width: 2px;
      }

      .cls-7, .cls-9, .cls-5 {
        stroke: #263238;
      }

      .cls-7, .cls-11 {
        fill: #ff367c;
      }

      .cls-4, .cls-10 {
        stroke: #ff367c;
      }

      .cls-8 {
        stroke: #fff;
      }

      .cls-8, .cls-9, .cls-10 {
        fill: none;
      }
    </style>
  </defs>
  <g id="Shadows">
    <path class="cls-11" d="M449.13,370.35c0,2.34-90.63,4.24-202.42,4.24s-202.42-1.9-202.42-4.24,90.63-4.24,202.42-4.24,202.42,1.9,202.42,4.24Z"/>
    <ellipse class="cls-11" cx="150.87" cy="419.63" rx="128.03" ry="9.51"/>
  </g>
  <g id="Floor">
    <line class="cls-9" x1="1" y1="368.14" x2="459.04" y2="368.14"/>
  </g>
  <g id="Sparkles">
    <g>
      <g>
        <path class="cls-9" d="M28.86,118.42v3.85"/>
        <path class="cls-9" d="M28.86,126.6v3.85"/>
        <path class="cls-9" d="M22.85,124.44h3.85"/>
        <path class="cls-9" d="M31.03,124.44h3.85"/>
      </g>
      <g>
        <path class="cls-9" d="M281.68,1v3.85"/>
        <path class="cls-9" d="M281.68,9.18v3.85"/>
        <path class="cls-9" d="M275.67,7.01h3.85"/>
        <path class="cls-9" d="M283.85,7.01h3.85"/>
      </g>
      <g>
        <path class="cls-9" d="M429.37,86.15v3.85"/>
        <path class="cls-9" d="M429.37,94.33v3.85"/>
        <path class="cls-9" d="M423.35,92.16h3.85"/>
        <path class="cls-9" d="M431.54,92.16h3.85"/>
      </g>
      <g>
        <path class="cls-9" d="M419.35,382.6v3.85"/>
        <path class="cls-9" d="M419.35,390.78v3.85"/>
        <path class="cls-9" d="M413.34,388.61h3.85"/>
        <path class="cls-9" d="M421.52,388.61h3.85"/>
      </g>
    </g>
  </g>
  <g id="Rating">
    <g>
      <g>
        <path class="cls-11" d="M43.72,50.68c.12-.3.55-.3.67,0l1.72,4.26c.05.13.17.22.31.22l4.58.32c.32.02.45.43.21.64l-3.52,2.95c-.1.09-.15.23-.12.36l1.11,4.46c.08.31-.27.57-.54.39l-3.9-2.43c-.12-.07-.27-.07-.38,0l-3.9,2.43c-.27.17-.62-.08-.54-.39l1.11-4.46c.03-.13-.01-.28-.12-.36l-3.52-2.95c-.25-.21-.12-.61.21-.64l4.58-.32c.14,0,.26-.1.31-.22l1.72-4.26Z"/>
        <path class="cls-11" d="M63.82,50.68c.12-.3.55-.3.67,0l1.72,4.26c.05.13.17.22.31.22l4.58.32c.32.02.45.43.21.64l-3.52,2.95c-.11.09-.15.23-.12.36l1.11,4.46c.08.31-.27.57-.54.39l-3.9-2.43c-.12-.07-.27-.07-.38,0l-3.9,2.43c-.27.17-.62-.08-.54-.39l1.11-4.46c.03-.13-.01-.28-.12-.36l-3.52-2.95c-.25-.21-.12-.61.21-.64l4.58-.32c.14,0,.26-.1.31-.22l1.72-4.26Z"/>
        <path class="cls-11" d="M83.92,50.68c.12-.3.55-.3.67,0l1.72,4.26c.05.13.17.22.31.22l4.58.32c.32.02.45.43.21.64l-3.52,2.95c-.11.09-.15.23-.12.36l1.11,4.46c.08.31-.27.57-.54.39l-3.9-2.43c-.12-.07-.27-.07-.38,0l-3.9,2.43c-.27.17-.62-.08-.54-.39l1.11-4.46c.03-.13-.01-.28-.12-.36l-3.52-2.95c-.25-.21-.12-.61.21-.64l4.58-.32c.14,0,.26-.1.31-.22l1.72-4.26Z"/>
        <path class="cls-11" d="M104.02,50.68c.12-.3.55-.3.67,0l1.72,4.26c.05.13.17.22.31.22l4.58.32c.32.02.46.43.21.64l-3.52,2.95c-.11.09-.15.23-.12.36l1.11,4.46c.08.31-.27.57-.54.39l-3.9-2.43c-.12-.07-.27-.07-.38,0l-3.9,2.43c-.27.17-.62-.08-.54-.39l1.11-4.46c.03-.13-.01-.28-.12-.36l-3.52-2.95c-.25-.21-.12-.61.21-.64l4.58-.32c.14,0,.26-.1.31-.22l1.72-4.26Z"/>
        <path class="cls-1" d="M124.12,50.68c.12-.3.55-.3.67,0l1.72,4.26c.05.13.17.22.31.22l4.58.32c.32.02.46.43.21.64l-3.52,2.95c-.11.09-.15.23-.12.36l1.11,4.46c.08.31-.27.57-.54.39l-3.9-2.43c-.12-.07-.27-.07-.38,0l-3.9,2.43c-.27.17-.62-.08-.54-.39l1.11-4.46c.03-.13-.01-.28-.12-.36l-3.52-2.95c-.25-.21-.12-.61.21-.64l4.58-.32c.14,0,.26-.1.31-.22l1.72-4.26Z"/>
      </g>
      <path class="cls-10" d="M25.81,49.09c0-2.35,2.01-4.25,4.48-4.25h107.93c2.47,0,4.48,1.9,4.48,4.25v16.61c0,2.35-2,4.25-4.48,4.25H30.29c-2.47,0-4.48-1.9-4.48-4.25v-16.61Z"/>
    </g>
  </g>
  <g id="Icon">
    <g id="Layer-27">
      <g>
        <path class="cls-10" d="M306.89,37.02c0-16.2,13.14-29.34,29.34-29.34,9.38,0,17.73,4.4,23.1,11.25,3.91,4.98,6.24,11.27,6.24,18.09,0,16.2-13.14,29.34-29.34,29.34s-29.34-13.14-29.34-29.34Z"/>
        <g>
          <path class="cls-10" d="M335.91,7.68v58.68"/>
          <path class="cls-10" d="M306.89,37.02h58.68"/>
          <path class="cls-10" d="M360.63,21.04s-12.07,4.54-24.26,4.54-24.48-4.54-24.48-4.54"/>
          <path class="cls-10" d="M360.6,51.95s-12.07-4.54-24.26-4.54-24.48,4.54-24.48,4.54"/>
          <path class="cls-10" d="M341.23,65.17s7.16-13.94,7.16-28.02-7.16-28.28-7.16-28.28"/>
          <path class="cls-10" d="M351.21,61.79s6.97-12.35,6.97-24.81-6.97-25.04-6.97-25.04"/>
          <path class="cls-10" d="M331.16,65.17s-7.16-13.94-7.16-28.02,7.16-28.28,7.16-28.28"/>
          <path class="cls-10" d="M321.18,61.79s-6.97-12.35-6.97-24.81,6.97-25.04,6.97-25.04"/>
        </g>
      </g>
    </g>
  </g>
  <g id="Device">
    <g>
      <rect class="cls-5" x="121.06" y="48.46" width="251.31" height="388.05" rx="6" ry="6" transform="translate(489.19 -4.23) rotate(90)"/>
      <rect class="cls-5" x="134.34" y="75.18" width="211.31" height="334.61" transform="translate(482.47 2.49) rotate(90)"/>
      <rect class="cls-1" x="419.35" y="222.09" width="10.02" height="40.8"/>
    </g>
  </g>
  <g id="Tab">
    <g>
      <path class="cls-3" d="M438.94,157.22l-41.99.13c-4.33,0-7.84-3.51-7.84-7.84v-65.07c0-4.33,3.51-7.84,7.84-7.84h45.08c4.33,0,7.84,3.51,7.84,7.84v62.03c0,6.82-4.61,11.05-10.92,10.74Z"/>
      <path class="cls-11" d="M388.74,89.02l.85-7.84,4.55-4.17,50.02-.15,5.48,5.48.31,6.68h-61.22Z"/>
      <path class="cls-10" d="M438.94,157.22l-41.99.13c-4.33,0-7.84-3.51-7.84-7.84v-65.07c0-4.33,3.51-7.84,7.84-7.84h45.08c4.33,0,7.84,3.51,7.84,7.84v62.03c0,6.82-4.61,11.05-10.92,10.74Z"/>
      <path class="cls-7" d="M403.41,123.71h32.17-32.17Z"/>
      <path class="cls-7" d="M403.41,133.93h32.17-32.17Z"/>
      <path class="cls-7" d="M403.41,143.44h32.17-32.17Z"/>
      <path class="cls-11" d="M411.96,99.31c-.38-.05-.8.06-1.12.31l-7.09,5.5c-.74.57-.79,1.69-.09,2.31l7.12,6.38c.62.55,1.57.49,2.12-.12s.49-1.57-.12-2.12l-5.78-5.19,5.69-4.38c.66-.51.79-1.44.28-2.09-.25-.33-.62-.55-1-.59Z"/>
      <path class="cls-11" d="M427.02,99.31c-.38.05-.75.27-1,.59-.51.66-.37,1.59.28,2.09l5.69,4.38-5.78,5.19c-.62.55-.65,1.51-.09,2.12s1.48.68,2.09.12l7.12-6.38c.7-.63.65-1.74-.09-2.31l-7.09-5.5c-.33-.25-.74-.36-1.12-.31Z"/>
      <path class="cls-11" d="M422.96,99.34c-.37.09-.72.31-.94.66l-7.5,11.88c-.44.7-.23,1.62.47,2.06.7.44,1.62.26,2.06-.44l7.5-11.88c.44-.7.23-1.65-.47-2.09-.35-.22-.75-.27-1.12-.19Z"/>
      <path class="cls-3" d="M396.35,82.94c0-.98.79-1.77,1.77-1.77s1.77.79,1.77,1.77-.79,1.77-1.77,1.77-1.77-.79-1.77-1.77Z"/>
      <path class="cls-3" d="M406.93,82.94c0-.98.79-1.77,1.77-1.77s1.77.79,1.77,1.77-.79,1.77-1.77,1.77-1.77-.79-1.77-1.77Z"/>
      <path class="cls-3" d="M401.64,82.94c0-.98.79-1.77,1.77-1.77s1.77.79,1.77,1.77-.79,1.77-1.77,1.77-1.77-.79-1.77-1.77Z"/>
    </g>
  </g>
  <g id="Search_bar">
    <g>
      <path class="cls-11" d="M287.99,283.94h52.75v15.99h-52.75v-15.99Z"/>
      <path class="cls-11" d="M220.34,283.94h52.75v15.99h-52.75v-15.99Z"/>
      <path class="cls-11" d="M152.68,283.94h52.75v15.99h-52.75v-15.99Z"/>
    </g>
    <g>
      <path class="cls-9" d="M148.1,234.38c0-1.84,1.49-3.34,3.34-3.34h190.55c1.84,0,3.34,1.5,3.34,3.34v20.88c0,1.84-1.49,3.34-3.34,3.34h-190.55c-1.84,0-3.34-1.49-3.34-3.34v-20.88Z"/>
      <path class="cls-9" d="M327.25,241.34c0-2.48,2.01-4.49,4.49-4.49s4.49,2.01,4.49,4.49-2.01,4.49-4.49,4.49-4.49-2.01-4.49-4.49Z"/>
      <path class="cls-9" d="M329.67,244.82l-5.49,7.5"/>
    </g>
  </g>
  <g id="Rocket">
    <path class="cls-4" d="M407.3,209.66s-5.41-11.14-15.83-13.16c-10.41-2.02-20.88,2.23-20.88,2.23,0,0,2.23-11.82-5.26-18.58-7.5-6.76-22.11,0-22.11,0,0,0,6.68-14.04-2.88-25.59-9.56-11.55-27.57-6.89-27.57-6.89,0,0,7.16-9.73-.48-17.65-7.64-7.93-20.53-5.75-26.07-13.51-5.54-7.76-3.35-15.75-8.06-25-4.72-9.25-16.31-13.73-16.31-13.73l-5.83,8.48s9.59,21.32-6.03,34.67c-15.62,13.35-70.06,13.69-83.27,16.74-13.21,3.05-21.98,16.17-21.98,16.17,0,0-16.81-3.81-27.99,4.13-11.18,7.94-14.01,22.18-14.01,22.18,0,0-23.77-8.03-30.06,14.41"/>
    <g>
      <g id="Layer-31">
        <path class="cls-6" d="M242.55,78.66l13.36,19.77,19.76-32.59-21.52-5.62-11.59,18.44Z"/>
      </g>
      <path class="cls-3" d="M159.11,15.02c3.71,15.62,38.23,47.71,38.23,47.71,0,0-2.29,8.65-.04,18.48,2.43,10.61,10.32,17.22,10.32,17.22l11.6-17.95c4.82,3.78,9.76,7.57,14.98,11.37l26.76-41.86c-5.57-3.71-11.04-7.17-16.43-10.48l11.43-18.06s-8.88-5.09-19.19-3.36c-9.55,1.6-16.32,7.14-16.32,7.14,0,0-50.57-26.74-60.54-15.42-1.07,1.21-1.3,3.16-.81,5.22Z"/>
      <path class="cls-11" d="M170.86,35.59s5.97-4.73,9.96-10.92c3.99-6.18,6.02-13.81,6.02-13.81,0,0-21.53-9.48-27.04-.85-5.19,8.12,11.07,25.58,11.07,25.58Z"/>
      <path class="cls-9" d="M159.93,9.8c-7,10.95,25.81,46.7,74.27,82.05l26.76-41.87C211.12,16.79,166.93-1.15,159.93,9.8Z"/>
      <path class="cls-9" d="M192.13,47.72c-5.66-3.95-7.18-11.93-3.4-17.84,3.78-5.91,11.42-7.5,17.08-3.56,5.66,3.95,7.18,11.93,3.4,17.84-3.78,5.91-11.42,7.5-17.08,3.56Z"/>
      <path class="cls-6" d="M193.6,45.42c-4.44-3.1-5.64-9.37-2.67-14.01,2.97-4.64,8.97-5.89,13.41-2.79,4.44,3.1,5.64,9.37,2.67,14.01-2.97,4.64-8.97,5.89-13.41,2.79Z"/>
      <path class="cls-9" d="M227.04,81.24l21.92-34.3"/>
      <path class="cls-9" d="M231.6,84.43l21.92-34.3"/>
      <g>
        <path class="cls-6" d="M222.99,77.57c-.73-.51-.93-1.55-.44-2.32.49-.77,1.48-.97,2.22-.46.73.51.93,1.55.44,2.32-.49.77-1.48.97-2.22.46Z"/>
        <path class="cls-6" d="M226.85,71.54c-.73-.51-.93-1.55-.44-2.32s1.48-.97,2.22-.46c.73.51.93,1.55.44,2.32-.49.77-1.48.97-2.22.46Z"/>
        <path class="cls-6" d="M230.7,65.51c-.73-.51-.93-1.55-.44-2.32.49-.77,1.48-.97,2.22-.46.73.51.93,1.55.44,2.32-.49.77-1.48.97-2.22.46Z"/>
        <path class="cls-6" d="M234.55,59.48c-.73-.51-.93-1.55-.44-2.32s1.48-.97,2.22-.46c.73.51.93,1.55.44,2.32-.49.77-1.48.97-2.22.46Z"/>
        <path class="cls-6" d="M238.4,53.46c-.73-.51-.93-1.55-.44-2.32.49-.77,1.48-.97,2.22-.46s.93,1.55.44,2.32-1.48.97-2.22.46Z"/>
        <path class="cls-6" d="M242.25,47.43c-.73-.51-.93-1.55-.44-2.32.49-.77,1.48-.97,2.22-.46.73.51.93,1.55.44,2.32-.49.77-1.48.97-2.22.46Z"/>
      </g>
      <path class="cls-9" d="M197.35,62.73s-2.29,8.64-.04,18.47c2.42,10.61,10.32,17.23,10.32,17.23l11.73-18.18"/>
      <path class="cls-9" d="M220.46,25.21s6.76-5.53,16.31-7.13c10.31-1.73,19.19,3.36,19.19,3.36l-11.57,18.29"/>
    </g>
  </g>
  <g id="Text">
    <g>
      <path class="cls-11" d="M224.31,205.88c0-1.35-.48-2.4-1.43-3.15-.95-.75-2.63-1.53-5.03-2.34-2.4-.8-4.36-1.58-5.88-2.34-4.95-2.43-7.43-5.77-7.43-10.03,0-2.12.62-3.98,1.85-5.6,1.23-1.62,2.98-2.88,5.24-3.78,2.26-.9,4.79-1.35,7.61-1.35s5.21.49,7.39,1.47c2.18.98,3.87,2.38,5.08,4.19,1.21,1.81,1.81,3.88,1.81,6.21h-9.19c0-1.56-.48-2.76-1.43-3.62-.95-.86-2.24-1.29-3.87-1.29s-2.94.36-3.9,1.09c-.95.73-1.43,1.65-1.43,2.77,0,.98.52,1.87,1.57,2.66,1.05.8,2.9,1.62,5.54,2.47,2.64.85,4.81,1.76,6.51,2.74,4.13,2.38,6.19,5.66,6.19,9.84,0,3.34-1.26,5.97-3.78,7.87-2.52,1.91-5.98,2.86-10.37,2.86-3.1,0-5.9-.56-8.41-1.67-2.51-1.11-4.4-2.63-5.67-4.57-1.27-1.93-1.9-4.16-1.9-6.68h9.24c0,2.05.53,3.56,1.59,4.53,1.06.97,2.78,1.46,5.16,1.46,1.52,0,2.73-.33,3.61-.98.88-.66,1.33-1.58,1.33-2.77Z"/>
      <path class="cls-11" d="M262.94,199.81h-14.49v9.13h17.11v7.09h-26.33v-38.22h26.38v7.11h-17.17v8.06h14.49v6.82Z"/>
      <path class="cls-11" d="M302.97,197.71c0,3.73-.69,7.03-2.07,9.9-1.38,2.87-3.35,5.08-5.89,6.63-2.55,1.55-5.45,2.32-8.7,2.32s-6.14-.75-8.66-2.24-4.48-3.64-5.89-6.42c-1.41-2.78-2.15-5.98-2.22-9.58v-2.15c0-3.74.69-7.05,2.06-9.91,1.37-2.86,3.34-5.07,5.91-6.63,2.56-1.56,5.48-2.34,8.75-2.34s6.12.77,8.66,2.31c2.54,1.54,4.51,3.73,5.92,6.58,1.41,2.84,2.12,6.1,2.14,9.78v1.76ZM293.6,196.11c0-3.8-.63-6.68-1.9-8.65-1.27-1.97-3.08-2.95-5.45-2.95-4.62,0-7.06,3.46-7.32,10.39l-.03,2.81c0,3.74.62,6.62,1.86,8.64,1.24,2.01,3.09,3.02,5.54,3.02s4.12-.99,5.38-2.97c1.26-1.98,1.9-4.82,1.92-8.53v-1.76Z"/>
    </g>
  </g>
  <g id="Character">
    <g>
      <path class="cls-6" d="M60.76,328.73h89.74c14.52,0,17.6-4.32,16.28-8.57l-52.63-136.48c-.86-2.76-3.41-4.63-6.3-4.63H26.25c-3.94,0-7.01,3.44-6.56,7.35l15.67,136.48c.38,3.33,3.2,5.85,6.56,5.85h18.84Z"/>
      <path class="cls-6" d="M47.54,328.73l-10.14,89.81c-.12,1.02.6,1.92,1.53,1.92h4.44c.74,0,1.38-.58,1.52-1.39l15.87-90.34h-13.22Z"/>
      <path class="cls-6" d="M138.97,328.73l10.14,89.81c.12,1.02-.6,1.92-1.53,1.92h-4.44c-.74,0-1.38-.58-1.52-1.39l-15.87-90.34h13.22Z"/>
      <path class="cls-1" d="M196.87,283.95c14.5,28.47,19.87,104.67,19.87,104.67l-55.17-.58-1.5-77.66-20.36-49.36s48.04,5.03,57.16,22.93Z"/>
      <path class="cls-9" d="M147.42,321.15c8.79-2.63,16.47-10.38,17.6-20.61,1.6-14.48-5.59-24-12.96-29.73"/>
      <path class="cls-1" d="M57.7,266.46s-11.03,27.31.87,41.52c10.22,12.2,35.5,12.99,52.46,12.85,13.06-.11,51.22,4.83,54-20.28,2.52-22.83-16.8-33.34-24.27-36.08-7.47-2.74-83.06,1.99-83.06,1.99Z"/>
      <g id="Layer-23">
        <path class="cls-3" d="M82.99,173.06l8.18-1.56,3.31-4.02,23.97,11.57,22.74-5.25.82,4.35-14.2,16.42-21.42-.98-23.39-20.52Z"/>
      </g>
      <g id="Layer-23-2" data-name="Layer-23">
        <path class="cls-9" d="M127.81,194.57l-21.42-.98-22.96-20.61,8.15-1.67"/>
      </g>
      <g id="Layer-14">
        <path class="cls-11" d="M83.92,171.5s-12.38,3.57-21.31,8.85c-9.34,5.51-19.82,14.03-28.71,26.98-17.39,25.33-18.96,53.45-8.53,71.42,10.42,17.96,36.22,13.61,45.54,8.06,9.33-5.55,17.77-18.3,17.77-18.3,0,0,5.13,4.18,14.65,3.77,7.39-.32,13.18-4.11,22.17-4.11s18.47-2.77,18.47-2.77c0,0,17.59,8.78,33.12,1.89,15.53-6.89,13.53-29.93,1.3-56.36-5.71-12.35-13.28-18.96-21.36-25.2-4.66-3.59-14.33-8.44-14.33-8.44,0,0-12.75,14.66-27.44,13.21-14.7-1.45-31.35-19-31.35-19Z"/>
      </g>
      <g id="Layer-35">
        <path class="cls-2" d="M85.51,173.06l-6.34,6.5c-.7.72-.69,1.89.03,2.59.72.7,1.86.68,2.56-.03l6.44-6.62c-1.32-1.19-2-1.76-2.69-2.44ZM142.7,177.28s-.71.73-1.06,1.09c.29-.08.61-.11.84-.34l.56-.56s-.34-.19-.34-.19ZM64.76,179.25c-.71.38-1.48.69-2.16,1.09-.01,0-.02.02-.03.03-.16.57-.14,1.18.28,1.66l7.16,8.12c.66.75,1.81.85,2.56.19s.85-1.81.19-2.56l-7.19-8.12c-.22-.25-.52-.3-.81-.41ZM154.39,184.09c-.11.54-.04,1.09.34,1.53l7.16,8.16c.66.75,1.81.82,2.56.16.41-.36.57-.86.56-1.38-2.58-2.43-5.21-4.69-7.97-6.81-.69-.54-1.79-1.09-2.66-1.66ZM56.85,184.12c-3.31,2.32-6.66,5.04-10,8.19-.09.56,0,1.1.44,1.53.72.7,1.86.69,2.56-.03l7.03-7.12c.69-.71.66-1.86-.03-2.56ZM133.26,185.22c-.84.54-1.67,1.09-2.59,1.59.66.41,1.48.48,2.09-.06.46-.4.55-.96.5-1.53ZM95.14,187.15c-.46-.03-.94.14-1.31.47-.75.66-.85,1.78-.19,2.53l7.19,8.19c.66.75,1.81.82,2.56.16.75-.66.82-1.84.16-2.59l-7.19-8.12c-.33-.38-.75-.6-1.22-.62ZM147.45,187.15c-.46,0-.93.17-1.28.53l-7,7.19c-.7.72-.69,1.86.03,2.56s1.83.72,2.53,0l7-7.19c.7-.72.69-1.89-.03-2.59-.36-.35-.79-.51-1.25-.5ZM107.23,188.25c-.31.68-.31,1.48.25,2.03.72.7,1.86.68,2.56-.03l.72-.75c-1.18-.35-2.35-.76-3.53-1.25ZM86.35,191.72c-.46,0-.93.17-1.28.53l-7,7.19c-.7.72-.69,1.89.03,2.59.72.7,1.86.68,2.56-.03l7-7.19c.7-.72.68-1.86-.03-2.56-.36-.35-.82-.54-1.28-.53ZM124.42,194.34c-.46-.03-.94.11-1.31.44-.75.66-.82,1.81-.16,2.56l7.16,8.16c.66.75,1.81.82,2.56.16.75-.66.82-1.81.16-2.56l-7.16-8.12c-.33-.38-.79-.6-1.25-.62ZM63.32,198.9c-.46-.03-.91.11-1.28.44-.75.66-.85,1.81-.19,2.56l7.19,8.16c.66.75,1.78.82,2.53.16s.85-1.81.19-2.56l-7.19-8.12c-.33-.38-.79-.6-1.25-.62ZM115.64,198.9c-.46,0-.9.17-1.25.53l-7,7.19c-.7.72-.72,1.86,0,2.56.72.7,1.86.69,2.56-.03l7-7.16c.7-.72.69-1.89-.03-2.59-.36-.35-.82-.51-1.28-.5ZM40.39,198.97c-.77.89-1.49,1.96-2.25,2.91l.03.03c.66.75,1.78.82,2.53.16s.85-1.78.19-2.53l-.5-.56ZM171.07,199.15l-2.03,2.06c-.7.72-.69,1.89.03,2.59s1.86.69,2.56-.03l1.69-1.72c-.72-1.05-1.49-1.95-2.25-2.91ZM152.7,202.5c-.46-.03-.94.11-1.31.44-.75.66-.82,1.81-.16,2.56l7.16,8.16c.66.75,1.81.82,2.56.16s.85-1.84.19-2.59l-7.19-8.12c-.33-.38-.79-.56-1.25-.59ZM54.57,203.47c-.46,0-.93.17-1.28.53l-7,7.19c-.7.72-.69,1.86.03,2.56.72.7,1.86.65,2.56-.06l7-7.12c.7-.72.69-1.89-.03-2.59-.36-.35-.82-.51-1.28-.5ZM91.6,207.03c-.46-.03-.94.14-1.31.47-.75.66-.82,1.81-.16,2.56l7.16,8.16c.66.75,1.84.82,2.59.16.75-.66.82-1.81.16-2.56l-7.19-8.16c-.33-.38-.79-.6-1.25-.62ZM143.92,207.03c-.46,0-.93.2-1.28.56l-7,7.16c-.7.72-.69,1.89.03,2.59.72.7,1.89.69,2.59-.03l7-7.19c.7-.72.69-1.86-.03-2.56-.36-.35-.85-.54-1.31-.53ZM82.85,211.59c-.46,0-.93.2-1.28.56l-7,7.16c-.7.72-.69,1.89.03,2.59.72.7,1.83.69,2.53-.03l7.03-7.19c.7-.72.68-1.86-.03-2.56-.36-.35-.82-.54-1.28-.53ZM31.01,212.12c-.66,1.1-1.4,2.18-2,3.28l5.62,6.38c.66.75,1.81.82,2.56.16s.82-1.78.16-2.53l-6.34-7.28ZM173.82,213.37c-.46,0-.9.24-1.25.59l-7.03,7.16c-.7.72-.69,1.86.03,2.56s1.86.69,2.56-.03l7-7.19c.7-.72.68-1.83-.03-2.53-.36-.35-.82-.57-1.28-.56ZM124.42,214.22c-.46-.03-.94.11-1.31.44-.75.66-.82,1.81-.16,2.56l7.16,8.16c.66.75,1.81.85,2.56.19.75-.66.82-1.84.16-2.59l-7.16-8.12c-.33-.38-.79-.59-1.25-.62ZM61.54,216.5c-.46-.03-.94.14-1.31.47-.75.66-.82,1.78-.16,2.53l7.19,8.16c.66.75,1.78.82,2.53.16.75-.66.85-1.78.19-2.53l-7.19-8.19c-.33-.38-.79-.56-1.25-.59ZM115.64,218.78c-.46,0-.9.17-1.25.53l-7,7.19c-.7.72-.72,1.86,0,2.56.72.7,1.86.69,2.56-.03l7-7.16c.7-.72.69-1.89-.03-2.59-.36-.35-.82-.51-1.28-.5ZM150.89,220.56c-.46-.03-.91.11-1.28.44-.75.66-.85,1.84-.19,2.59l7.19,8.12c.66.75,1.78.85,2.53.19.75-.66.85-1.84.19-2.59l-7.19-8.12c-.33-.38-.79-.6-1.25-.62ZM52.76,221.06c-.46,0-.93.2-1.28.56l-7,7.16c-.7.72-.69,1.86.03,2.56.72.7,1.89.69,2.59-.03l7-7.19c.7-.72.69-1.83-.03-2.53-.36-.35-.85-.54-1.31-.53ZM142.14,225.12c-.46,0-.93.17-1.28.53l-7,7.19c-.7.72-.68,1.86.03,2.56.72.7,1.86.72,2.56,0l7-7.19c.7-.72.69-1.89-.03-2.59-.36-.35-.82-.51-1.28-.5ZM90.73,225.93c-.46-.03-.94.14-1.31.47-.75.66-.82,1.81-.16,2.56l7.16,8.16c.66.75,1.81.79,2.56.13.75-.66.82-1.78.16-2.53l-7.16-8.16c-.33-.38-.79-.6-1.25-.62ZM182.6,227.75c-.46-.03-.94.11-1.31.44-.75.66-.82,1.81-.16,2.56l6.12,7c-.41-2.37-.93-4.84-1.62-7.38l-1.78-2.03c-.33-.38-.79-.56-1.25-.59ZM28.85,230.03c-.46-.03-.94.14-1.31.47-.75.66-.82,1.78-.16,2.53l7.16,8.16c.66.75,1.81.82,2.56.16.75-.66.85-1.81.19-2.56l-7.19-8.16c-.33-.38-.79-.56-1.25-.59ZM81.95,230.5c-.46,0-.93.2-1.28.56l-7,7.16c-.7.72-.69,1.89.03,2.59s1.86.65,2.56-.06l7-7.16c.7-.72.69-1.86-.03-2.56-.36-.35-.82-.54-1.28-.53ZM173.82,232.31c-.46,0-.9.17-1.25.53l-7.03,7.16c-.7.72-.69,1.89.03,2.59.72.7,1.86.69,2.56-.03l7-7.16c.7-.72.68-1.89-.03-2.59-.36-.35-.82-.51-1.28-.5ZM120.92,234.09c-.46-.03-.94.11-1.31.44-.75.66-.82,1.84-.16,2.59l7.16,8.13c.66.75,1.81.85,2.56.19.75-.66.85-1.84.19-2.59l-7.19-8.12c-.33-.38-.79-.59-1.25-.62ZM21.2,235.03c-.32,1.24-.56,2.46-.81,3.69l1.03-1.06c.7-.72.69-1.86-.03-2.56-.05-.05-.13-.02-.19-.06ZM57.95,236.37c-.46-.03-.94.14-1.31.47-.75.66-.82,1.78-.16,2.53l7.16,8.16c.66.75,1.81.82,2.56.16s.85-1.78.19-2.53l-7.19-8.19c-.33-.38-.79-.56-1.25-.59ZM112.14,238.65c-.46,0-.93.17-1.28.53l-7,7.19c-.7.72-.68,1.86.03,2.56.72.7,1.89.69,2.59-.03l7-7.16c.7-.72.69-1.89-.03-2.59-.36-.35-.85-.51-1.31-.5ZM150.82,239.47c-.46-.03-.94.14-1.31.47-.75.66-.85,1.78-.19,2.53l7.19,8.19c.66.75,1.81.79,2.56.12s.82-1.78.16-2.53l-7.16-8.16c-.33-.38-.79-.59-1.25-.62ZM49.2,240.93c-.46,0-.93.2-1.28.56l-7,7.16c-.7.72-.69,1.86.03,2.56.72.7,1.83.69,2.53-.03l7.03-7.19c.7-.72.69-1.83-.03-2.53-.36-.35-.82-.54-1.28-.53ZM142.04,244.03c-.46,0-.93.17-1.28.53l-7,7.19c-.7.72-.68,1.86.03,2.56s1.86.69,2.56-.03l7-7.16c.7-.72.69-1.86-.03-2.56-.36-.35-.82-.54-1.28-.53ZM88.04,245.81c-.46-.03-.94.14-1.31.47-.75.66-.82,1.81-.16,2.56l7.16,8.16c.66.75,1.81.79,2.56.12.75-.66.82-1.78.16-2.53l-7.16-8.16c-.33-.38-.79-.6-1.25-.62ZM179.1,247.62c-.46-.03-.97.11-1.34.44-.75.66-.79,1.84-.12,2.59l7.16,8.12c.21.24.52.31.81.41.55-1.09.85-2.39,1.22-3.62l-6.47-7.31c-.33-.38-.79-.6-1.25-.63ZM26.17,248.12c-.46-.03-.94.11-1.31.44-.75.66-.82,1.81-.16,2.56l7.16,8.13c.66.75,1.81.85,2.56.19.75-.66.82-1.81.16-2.56l-7.16-8.16c-.33-.38-.79-.56-1.25-.59ZM79.26,250.37c-.46,0-.9.2-1.25.56l-7.03,7.16c-.7.72-.69,1.89.03,2.59.72.7,1.86.69,2.56-.03l7-7.19c.7-.72.69-1.86-.03-2.56-.36-.35-.82-.54-1.28-.53ZM118.89,252.18c-.46-.03-.97.11-1.34.44-.75.66-.79,1.81-.12,2.56l7.16,8.16c.66.75,1.81.85,2.56.19.75-.66.82-1.84.16-2.59l-7.16-8.12c-.33-.38-.79-.6-1.25-.62ZM170.32,252.18c-.46,0-.93.17-1.28.53l-7,7.16c-.7.72-.69,1.89.03,2.59.72.7,1.86.69,2.56-.03l7-7.16c.7-.72.72-1.89,0-2.59-.36-.35-.85-.51-1.31-.5ZM54.45,256.25c-.46-.03-.94.14-1.31.47-.75.66-.82,1.78-.16,2.53l7.19,8.16c.66.75,1.78.82,2.53.16s.85-1.78.19-2.53l-7.19-8.16c-.33-.38-.79-.59-1.25-.62ZM110.1,256.75c-.46,0-.93.17-1.28.53l-7,7.19c-.7.72-.69,1.86.03,2.56.72.7,1.86.69,2.56-.03l7-7.16c.7-.72.68-1.89-.03-2.59-.36-.35-.82-.51-1.28-.5ZM150.82,259.34c-.46-.03-.94.14-1.31.47-.75.66-.85,1.78-.19,2.53l5.84,6.66c1.38.28,2.84.53,4.37.69.13-.55.09-1.1-.31-1.56l-7.16-8.16c-.33-.38-.79-.59-1.25-.62ZM45.67,260.81c-.46,0-.93.2-1.28.56l-7,7.16c-.7.72-.69,1.86.03,2.56.72.7,1.89.69,2.59-.03l7-7.16c.7-.72.69-1.86-.03-2.56-.36-.35-.85-.54-1.31-.53ZM87.1,263.9c-.46-.03-.97.14-1.34.47-.75.66-.79,1.78-.12,2.53l2.28,2.59c.08-.12.75-1,.75-1,0,0,1.97,1.42,5.37,2.53l-5.69-6.5c-.33-.38-.79-.6-1.25-.62ZM142.04,263.9c-.46,0-.93.2-1.28.56l-2.16,2.19c2.89-.6,5-1.14,5.16-1.19-.06-.37-.15-.75-.44-1.03-.36-.35-.82-.54-1.28-.53ZM178.95,264.4c-.46-.03-.94.11-1.31.44-.68.6-.75,1.57-.28,2.31,1.14-.52,2.15-1.15,3.09-1.84l-.25-.28c-.33-.38-.79-.6-1.25-.62ZM22.6,268c-.46-.03-.94.11-1.31.44-.05.04-.05.11-.09.16.4,1.35.78,2.69,1.28,3.97l5.81,6.59c.66.75,1.81.82,2.56.16.75-.66.82-1.81.16-2.56l-7.16-8.16c-.33-.38-.79-.56-1.25-.59ZM78.32,268.47c-.46,0-.93.2-1.28.56l-7,7.16c-.7.72-.72,1.89,0,2.59.72.7,1.89.65,2.59-.06l7-7.16c.7-.72.68-1.86-.03-2.56-.36-.35-.82-.54-1.28-.53ZM170.17,268.97c-.43,0-.84.19-1.19.5.63-.09,1.24-.12,1.87-.25-.23-.1-.44-.25-.69-.25ZM53.6,275.65c-.46-.03-.94.11-1.31.44-.75.66-.82,1.81-.16,2.56l7.16,8.16c.66.75,1.81.82,2.56.16.75-.66.85-1.81.19-2.56l-7.19-8.16c-.33-.38-.79-.57-1.25-.59ZM44.82,280.22c-.46,0-.93.17-1.28.53l-7,7.19c-.19.19-.2.45-.28.69,1.12.53,2.29.88,3.47,1.25l6.44-6.59c.7-.72.69-1.86-.03-2.56-.36-.35-.85-.5-1.31-.5Z"/>
      </g>
      <path class="cls-5" d="M209.65,392.53v4.25s9.77,3.71,18.07,8.79c8.73,5.34,17.2,11.17,13.78,13.18-3.76,2.21-65.66-.47-65.66-.47l-.07-26.43"/>
      <path class="cls-10" d="M211.72,405.76l10.05-9.23"/>
      <path class="cls-10" d="M216.74,408.11l10.06-9.23"/>
      <g id="Layer-19">
        <path class="cls-3" d="M105.74,153.26c0-9.5,7.7-17.2,17.2-17.2s17.2,7.7,17.2,17.2-7.7,17.2-17.2,17.2-17.2-7.7-17.2-17.2Z"/>
      </g>
      <path class="cls-9" d="M75.94,207.33s-2.49,5.92-4.53,13.37c-2.04,7.45-2.15,14.71-2.15,14.71"/>
      <path class="cls-8" d="M79.97,174.57s22.88,22.67,39.66,21.33c16.78-1.34,25.65-14.88,25.65-14.88"/>
      <g>
        <path class="cls-9" d="M135.71,164.72c6.16-7,5.49-17.68-1.52-23.84-7-6.17-17.68-5.49-23.84,1.52-6.17,7-5.49,17.68,1.52,23.84,7,6.16,17.68,5.49,23.84-1.52Z"/>
        <path class="cls-11" d="M123,155.71c.83-.94.74-2.37-.2-3.2-.94-.83-2.37-.74-3.2.2-.83.94-.74,2.37.2,3.2s2.37.74,3.2-.2Z"/>
        <path class="cls-6" d="M129.68,154.58c.66-.75.58-1.89-.16-2.54-.75-.66-1.88-.59-2.54.16-.66.75-.58,1.88.16,2.54.75.66,1.88.59,2.54-.16Z"/>
        <path class="cls-6" d="M138.79,157.03c.66-.75.58-1.88-.16-2.54-.75-.66-1.88-.58-2.54.16-.66.75-.58,1.88.16,2.54.75.66,1.88.59,2.54-.16Z"/>
        <path class="cls-9" d="M133.6,154.04l-.69,7.48-4.31-2.65"/>
        <path class="cls-9" d="M123.56,159.66s.02,1.78,1.02,2.69c1,.91,2.74,1.31,2.74,1.31"/>
        <path class="cls-6" d="M95.32,116.98c-4.43,0-8,3.6-8,8.03s3.57,8.03,8,8.03c.24,0,.45-.1.69-.12-.34,1.07-.69,2.16-.69,3.34,0,6.22,5.06,11.28,11.28,11.28.3,0,.55-.16.84-.19-1.51,3.97-1.31,7.84-1.31,7.84,0,0,5.82-1.15,11.41-4.81,5.58-3.66,9.78-10.16,9.78-10.16,0,0,2.73,5.06,6.28,7.31,3.55,2.26,6.53,2.75,6.53,2.75,0,0-.85-10.44-11.81-13.62-4.22-1.23-7.71-.95-10.59.12,0-.19.12-.34.12-.53,0-6.22-5.03-11.25-11.25-11.25-1.19,0-2.3.34-3.37.69.02-.24.12-.44.12-.69,0-4.43-3.6-8.03-8.03-8.03Z"/>
      </g>
      <path class="cls-9" d="M171.69,301.24l-15.34,71.84"/>
      <path class="cls-9" d="M160.83,280.46c14.83-.12,16.34,10.61,14.36,16.37-1.98,4.23-5.51,6.19-9.93,5.57"/>
      <path class="cls-5" d="M140.91,382.89c1.91-7.48,8.25-12.08,14.17-10.27,5.92,1.81,9.16,9.34,7.25,16.82"/>
      <path class="cls-5" d="M138.05,382.72l-6.17,21.27s58.07,24.08,64.87,23.1c4.59-.66-2.81-9.5-10.04-17.8-6.87-7.89-17.19-16.76-17.19-16.76l-31.47-9.81Z"/>
      <path class="cls-10" d="M167.46,397.53l12.73-5.67"/>
      <path class="cls-10" d="M171.83,401.59l12.73-5.67"/>
      <path class="cls-9" d="M93.57,167.31l-2.1,4.19,15.66,20.88,11.78-13.34,11.16,12.68,11.47-13.89v-4l-22.63,5.14-25.34-11.68Z"/>
      <path class="cls-5" d="M74.17,242.57c.22-10.99,5.35-24.6,11.89-26.65,7.41-2.32,19.16-2.49,24.52-1.02l-1.95,6.16c-1.92.09-5.59-.52-7.33-.42-3.99.23-6.89,1.03-6.89,1.03,0,0,5.73-1.12,9.63,1.12,7.12,4.1,2.95,8.56,2.95,8.56,0,0-3.5-2.11-6.61-3.07-3.12-.96-5.33.13-5.33.13,0,0,3.3-.84,6.64.42,3.39,1.28,5.75,2.58,4.38,5.2-1.88,3.6-13.4,1.41-13.4,1.41,0,0,1.74,7.7-7.36,13.69l-11.14-6.57Z"/>
      <path class="cls-9" d="M159.61,260.6c10.11,4.97,17.05,2.23,22.06-4.35"/>
      <path class="cls-9" d="M147.22,255.61c1.67,5.43-7.2,11.24-16.55,12.04-9.35.8-14.23-2.26-21.52-1.44"/>
      <path class="cls-3" d="M176.88,202.78c2.97,0,5.38,2.55,5.38,5.71l-10.99,34.9c0,3.16-2.41,5.75-5.38,5.75h-58.85c-7.1,0-5.28-6.38-5.28-6.38l10.86-34.27c0-3.16,2.41-5.71,5.38-5.71h58.89Z"/>
      <path class="cls-9" d="M176.88,202.78c2.97,0,5.38,2.55,5.38,5.71l-10.99,34.9c0,3.16-2.41,5.75-5.38,5.75h-58.85c-7.1,0-5.28-6.38-5.28-6.38,0,0,9.48-30.8,10.86-34.27s2.41-5.71,5.38-5.71h58.89Z"/>
      <path class="cls-11" d="M126.81,214.25c0-1.79-1.45-3.25-3.25-3.25s-3.25,1.45-3.25,3.25,1.45,3.25,3.25,3.25,3.25-1.45,3.25-3.25Z"/>
      <g id="Layer-5">
        <path class="cls-5" d="M171.84,259.04c-6.95,3.99-16.86,1.43-24.62-3.43-3.98-2.5-6.85-7.06-5.44-9.65.74-1.36,3.16.93,7.27,2.63,4.1,1.69,6.93,1.49,6.93,1.49,0,0-2.23-.25-6.31-3.1-3.75-2.62-6.53-5.85-5.69-8.9.83-3.03,5.9,2.6,8.66,4.33s6.16,2.97,6.16,2.97c0,0-3.76-.84-8.13-4.53-3.42-2.88-4.2-4.36-3.42-7,.87-2.95,4.47.05,8.87,2.82,4.68,2.95,10.83,6.92,13.06,5.09,1.77-1.45,1.52-17.11,7.03-16.47,1.99.23,2.5,8.94,2.01,14.55-.4,4.7.56,15.21-6.39,19.19Z"/>
      </g>
      <path class="cls-11" d="M48.26,248.29c4.52-5.84,11.82-12.89,19.73-12.89s15.99,4.08,20.43,10.41c5.38,7.67,3.03,19.01-2.06,26.23-3.44,4.88-8.33,9.01-13.21,12.38-4.38,3.03-9.75,6.35-15.23,6.65"/>
      <path class="cls-2" d="M86.73,246.28c.38-.33.85-.5,1.31-.47.15,0,.29.05.44.09,1.74,2.51,2.64,5.41,2.91,8.43l-4.82-5.49c-.66-.75-.6-1.9.16-2.56ZM79.26,250.37c-.46,0-.9.2-1.25.56l-7.03,7.16c-.7.72-.69,1.89.03,2.59.72.7,1.86.69,2.56-.03l7-7.19c.7-.72.69-1.86-.03-2.56-.36-.35-.82-.54-1.28-.53ZM73.67,238.22c-.7.72-.69,1.89.03,2.59s1.86.65,2.56-.06l2.68-2.74c-1.18-.57-2.41-1.06-3.65-1.45l-1.62,1.66ZM79.6,269c-.36-.35-.82-.54-1.28-.53-.46,0-.93.2-1.28.56l-7,7.16c-.7.72-.72,1.89,0,2.59.72.7,1.89.65,2.59-.06l7-7.16c.7-.72.68-1.86-.03-2.56ZM60.17,267.4c.66.75,1.78.82,2.53.16s.85-1.78.19-2.53l-7.19-8.16c-.33-.38-.79-.59-1.25-.62-.46-.03-.94.14-1.31.47-.75.66-.82,1.78-.16,2.53l7.19,8.16ZM63.64,247.53c.66.75,1.81.82,2.56.16s.85-1.78.19-2.53l-6.52-7.43c-1.06.59-2.09,1.25-3.09,1.99l6.86,7.81ZM88.35,264.53c-.33-.38-.79-.6-1.25-.62-.46-.03-.97.14-1.34.47-.75.66-.79,1.78-.12,2.53l2.28,2.59s.05-.07.1-.14c.59-1.09,1.12-2.23,1.58-3.41l-1.24-1.42ZM61.85,286.97c.75-.66.85-1.81.19-2.56l-7.19-8.16c-.1-.12-.22-.21-.34-.29l1.64,7.28,3.14,3.58c.66.75,1.81.82,2.56.16Z"/>
      <path class="cls-9" d="M48.26,248.29c4.52-5.84,11.82-12.89,19.73-12.89s15.99,4.08,20.43,10.41c5.38,7.67,3.03,19.01-2.06,26.23-3.44,4.88-8.33,9.01-13.21,12.38-4.38,3.03-9.75,6.35-15.23,6.65"/>
    </g>
  </g>
</svg>