<?xml version="1.0" encoding="UTF-8"?>
<svg id="Capa_2" xmlns="http://www.w3.org/2000/svg" viewBox="0 0 432.72 441.4">
  <defs>
    <style>
      .cls-1 {
        fill: #ffc051;
      }

      .cls-2 {
        opacity: .3;
      }

      .cls-2, .cls-3, .cls-4 {
        fill: #fff;
      }

      .cls-2, .cls-4 {
        isolation: isolate;
      }

      .cls-5 {
        fill: #263238;
      }

      .cls-6 {
        stroke: #ffc051;
      }

      .cls-6, .cls-7, .cls-8, .cls-9, .cls-10 {
        fill: none;
        stroke-linecap: round;
        stroke-linejoin: round;
        stroke-width: 2px;
      }

      .cls-4 {
        opacity: .3;
      }

      .cls-7 {
        stroke: #fff;
      }

      .cls-8 {
        stroke-dasharray: 6;
      }

      .cls-8, .cls-10 {
        stroke: #ff367c;
      }

      .cls-9 {
        stroke: #263238;
      }

      .cls-11 {
        fill: #ff367c;
      }
    </style>
  </defs>
  <g id="Sparkles">
    <g id="Layer-14">
      <g>
        <path class="cls-9" d="M308.44,1v3.36"/>
        <path class="cls-9" d="M308.44,8.15v3.36"/>
        <path class="cls-9" d="M303.19,6.26h3.36"/>
        <path class="cls-9" d="M310.34,6.26h3.36"/>
      </g>
      <g>
        <path class="cls-9" d="M17.68,145.67v3.36"/>
        <path class="cls-9" d="M17.68,152.82v3.36"/>
        <path class="cls-9" d="M12.43,150.93h3.36"/>
        <path class="cls-9" d="M19.58,150.93h3.36"/>
      </g>
      <g>
        <path class="cls-9" d="M416.83,300.17v3.36"/>
        <path class="cls-9" d="M416.83,307.32v3.36"/>
        <path class="cls-9" d="M411.57,305.43h3.36"/>
        <path class="cls-9" d="M418.73,305.43h3.36"/>
      </g>
      <g>
        <path class="cls-9" d="M134.63,425.45v3.36"/>
        <path class="cls-9" d="M134.63,432.61v3.36"/>
        <path class="cls-9" d="M129.37,430.71h3.36"/>
        <path class="cls-9" d="M136.52,430.71h3.36"/>
      </g>
    </g>
  </g>
  <g id="Lines">
    <g id="Layer-23">
      <path class="cls-8" d="M398.2,192.94l-22.07-51.39"/>
      <path class="cls-8" d="M371.49,207.64l-76.58-11.77"/>
      <path class="cls-8" d="M228.15,316.09l-66.12,30.25"/>
      <path class="cls-8" d="M138.34,224.68l-93.13,15.13"/>
      <path class="cls-8" d="M29.18,213.29l30.87-74.74"/>
      <path class="cls-8" d="M375.02,301.62l23.18-53.09"/>
      <path class="cls-8" d="M44.62,303.63l-15.43-41.81"/>
      <path class="cls-8" d="M244.05,278l-9.66-28.13"/>
      <path class="cls-8" d="M291.86,331.45l-18.8-10.75"/>
      <path class="cls-8" d="M234.39,409.82l57.1-13.84"/>
      <path class="cls-8" d="M126.46,400.78l56.27,11.38"/>
      <path class="cls-8" d="M177.68,46.27l-26.48,13.84"/>
      <path class="cls-8" d="M295.73,66.06l-82.82-19.21"/>
      <path class="cls-8" d="M207.65,106.16l-9.69-49.7"/>
    </g>
    <line class="cls-10" x1="100.68" y1="84.88" x2="361.36" y2="345.56"/>
    <line class="cls-10" x1="361.36" y1="84.88" x2="100.68" y2="345.56"/>
  </g>
  <g id="Speech_bubble">
    <g>
      <path class="cls-11" d="M164.44,35.06c0-15.55,12.61-28.16,28.16-28.16s28.16,12.61,28.16,28.16-12.61,28.16-28.16,28.16-28.16-12.61-28.16-28.16Z"/>
      <path class="cls-3" d="M182.77,24.02c-3.37,0-6.12,2.9-6.12,6.47v7.94c0,3.56,3,6.44,6.37,6.44.04.62.31,3.65,4.78,5.38,2.3.89,8.56,1.4,8.94.94.26-.32-3.06-.66-5.12-2.69-1.82-1.79-1.74-3.26-1.69-3.62h12.5c3.38,0,6.09-2.87,6.09-6.44v-7.94c0-3.57-2.72-6.47-6.09-6.47h-19.66Z"/>
      <path class="cls-5" d="M201.84,34.66c0-.97-.79-1.76-1.76-1.76s-1.76.79-1.76,1.76.79,1.76,1.76,1.76,1.76-.79,1.76-1.76Z"/>
      <path class="cls-5" d="M194.36,34.66c0-.97-.79-1.76-1.76-1.76s-1.76.79-1.76,1.76.79,1.76,1.76,1.76,1.76-.79,1.76-1.76Z"/>
      <path class="cls-5" d="M186.87,34.66c0-.97-.79-1.76-1.76-1.76s-1.76.79-1.76,1.76.79,1.76,1.76,1.76,1.76-.79,1.76-1.76Z"/>
    </g>
  </g>
  <g id="Profile">
    <g>
      <path class="cls-5" d="M37.74,250.73s-.44-4.24-2.34-7.48c-2.05-3.49-5.86-5.82-10.19-6.31-4.29-.49-8.35,1.01-11.26,3.77-2.31,2.19-4.08,5.73-4.47,9.15-.03.3,4.06,6.07,13.57,6.43,10.25.39,14.7-5.56,14.7-5.56Z"/>
      <path class="cls-5" d="M18.87,230.2c-.6-2.8,1.17-5.57,3.95-6.2,2.78-.63,5.53,1.13,6.13,3.92.6,2.8-1.17,5.57-3.95,6.2-2.78.63-5.53-1.13-6.13-3.92Z"/>
      <path class="cls-9" d="M1,238.99c0-12.61,10.22-22.83,22.83-22.83s22.83,10.22,22.83,22.83-10.22,22.83-22.83,22.83S1,251.6,1,238.99Z"/>
    </g>
  </g>
  <g id="Video">
    <g>
      <path class="cls-11" d="M98.43,189.22c0-5.74,4.65-10.4,10.4-10.4s10.4,4.66,10.4,10.4-4.66,10.4-10.4,10.4-10.4-4.65-10.4-10.4Z"/>
      <path class="cls-3" d="M106.08,184.57c-.58-.31-1.28.1-1.28.76v7.78c0,.66.7,1.07,1.28.76l3.98-2.17,3.15-1.72c.6-.33.6-1.19,0-1.52l-7.13-3.89Z"/>
      <path class="cls-9" d="M91.77,189.22c0-9.58,7.76-17.34,17.34-17.34s17.34,7.76,17.34,17.34-7.76,17.34-17.34,17.34-17.34-7.76-17.34-17.34Z"/>
    </g>
  </g>
  <g id="Heart">
    <g>
      <path class="cls-10" d="M374.78,221.41c0-15.72,12.74-28.47,28.47-28.47s28.47,12.74,28.47,28.47-12.75,28.47-28.47,28.47-28.47-12.75-28.47-28.47Z"/>
      <path class="cls-9" d="M395.38,231.5c-3.84-2.78-6.34-7.29-6.34-12.4,0-8.44,6.84-15.28,15.28-15.28s15.28,6.84,15.28,15.28-6.84,15.28-15.28,15.28c-1.17,0-2.31-.13-3.4-.38"/>
      <path class="cls-9" d="M395.36,231.49s-1.25,3.45-3.55,4.93c-3.65,2.35-5.2,2.39-5.2,2.39,0,0,5.46.68,8.81-.51,3.43-1.22,5.45-4.3,5.45-4.3"/>
      <path class="cls-11" d="M408.74,213.38c-2.49.07-4.54,4.73-4.54,4.73,0,0-1.66-5.18-4.58-4.62-.4.08-.89.24-1.25.7-3.46,4.49,5.82,12.57,5.82,12.57,0,0,9.78-8.95,5.98-12.86-.44-.45-1.02-.54-1.44-.53Z"/>
    </g>
  </g>
  <g id="Email">
    <g>
      <path class="cls-9" d="M238.09,296.19c0-1.29,1.04-2.33,2.33-2.33h24.08c1.29,0,2.33,1.04,2.33,2.33v14.43c0,1.29-1.04,2.33-2.33,2.33h-24.08c-1.29,0-2.33-1.04-2.33-2.33v-14.43Z"/>
      <path class="cls-9" d="M238.97,294.64l13.5,13.14,13.5-13.14"/>
      <path class="cls-9" d="M238.53,312.29s7.3-6.19,9.73-8.25"/>
      <path class="cls-9" d="M265.96,312.29s-7.3-6.19-9.73-8.25"/>
      <path class="cls-11" d="M259.32,294.7c0-3.1,2.51-5.62,5.62-5.62s5.62,2.52,5.62,5.62-2.52,5.62-5.62,5.62-5.62-2.52-5.62-5.62Z"/>
      <path class="cls-7" d="M263.38,293.33l2.09-1.72v6.17"/>
      <path class="cls-9" d="M229.39,303.63c0-13.19,10.69-23.89,23.89-23.89s23.89,10.69,23.89,23.89-10.69,23.89-23.89,23.89-23.89-10.69-23.89-23.89Z"/>
    </g>
  </g>
  <g id="Gear">
    <g>
      <path class="cls-11" d="M182.73,416.48c0-13.76,11.16-24.92,24.92-24.92s24.92,11.16,24.92,24.92-11.16,24.93-24.92,24.93-24.92-11.16-24.92-24.93Z"/>
      <path class="cls-3" d="M203.91,400.71l-.36,2.42c-.81.25-1.59.56-2.34.95l-2.01-1.48-5,4.95,1.34,1.95c-.57.99-1.01,2.06-1.33,3.19l-2.46.45.19,7.03,2.36.36c.3.99.7,1.93,1.2,2.82l-1.32,2.03,5.11,4.83,1.81-1.41c.86.46,1.76.82,2.71,1.09l.41,2.42,7.03-.07.4-2.41c.88-.26,1.72-.6,2.52-1.03l2.03,1.43,5-4.95-1.4-1.93c.57-1,1-2.07,1.31-3.2l2.42-.51-.19-7.03-2.38-.3c-.3-.97-.7-1.9-1.19-2.76l1.44-2.1-5.11-4.83-1.99,1.47c-.86-.45-1.77-.81-2.73-1.07l-.45-2.38-7.03.07ZM207.63,413.85c1.46-.01,2.65,1.15,2.66,2.61.01,1.46-1.15,2.64-2.61,2.66s-2.65-1.15-2.66-2.6,1.15-2.65,2.61-2.66Z"/>
    </g>
  </g>
  <g id="Character_5">
    <g>
      <path class="cls-9" d="M411.57,102.79c-9.56,31.83-43.12,49.88-74.95,40.32-31.83-9.56-49.88-43.12-40.32-74.95,6.49-21.6,24.03-36.86,44.58-41.44"/>
      <g id="Layer-15">
        <g>
          <path class="cls-5" d="M363.5,21.01s0,4.61,3.09,7.55c4.55,4.33,9.16,6.02,9.16,6.02l-.86,2.12s3.66.09,6.04-2.56c2.94-3.27,3.72-9.15,1.33-12.53-2.7-3.82-7.11-4.03-7.11-4.03,0,0-1.12-3.83-5.1-7.25-4.81-4.13-15.41-5.72-20.41-.77-2.01,1.99-3.07,5.83-2.75,7.84.56,3.53,3.5,5.78,3.5,5.78,0,0,3.48.88,7.48-.02,2.94-.67,5.62-2.15,5.62-2.15Z"/>
          <path class="cls-9" d="M375.99,12.18l-1.51,6.85"/>
          <path class="cls-9" d="M378.42,14.99l-5.23,4.67"/>
          <path class="cls-9" d="M375.99,12.18l-1.51,6.85"/>
        </g>
      </g>
      <g id="Layer-18">
        <path class="cls-1" d="M323.88,136.27s9.01,7.25,28.63,8.32c17.66.97,31.16-7.96,31.16-7.96,0,0,2.66-2.69,2.66-10.69,0-9.93-10.39-13.67-10.39-13.67l-40.83-.7-11.24,24.69Z"/>
      </g>
      <g id="Layer-17">
        <path class="cls-11" d="M301.05,74.31s10.67-8.92,25.6-17.01c14.93-8.09,26.65-8.28,36.02-6.98,19.03,2.65,27.61,13.44,27.61,13.44,0,0,8.54-6.57,19.58-6.08,12.54.56,23.8,33.77,21.59,51.56-2.21,17.79-17.48,22.32-30.44,19.6-11.08-2.33-18.11-7.47-18.11-7.47,0,0-12.75,8.24-27.63,8.24-24.94,0-31.7-15.47-31.7-15.47,0,0-11.9,11.94-27.63,11.94-6.97,0-23.16-.76-33.76-28.78-3.89-10.29-10.65-35.99,6.97-42.4,21.31-7.76,31.92,19.4,31.92,19.4Z"/>
      </g>
      <g id="Layer-24">
        <path class="cls-9" d="M326.12,70.58s-6.46,9.47-7.2,19.72c-.59,8.18.74,12.79,3.08,19.08,2.96,7.95,8.49,12.8,8.49,12.8"/>
        <path class="cls-9" d="M389.39,65.36s-4.91,4.04-3.05,23.8c.83,8.89,3.71,15.25,3.71,15.25"/>
      </g>
      <g>
        <path class="cls-3" d="M355.07,56.59c.13-1.08,1.11-1.84,2.19-1.71,1.08.13,1.84,1.11,1.71,2.19-.13,1.08-1.11,1.84-2.19,1.71s-1.84-1.11-1.71-2.19Z"/>
        <path class="cls-3" d="M354.26,63.15c.13-1.08,1.11-1.84,2.19-1.71s1.84,1.11,1.71,2.19c-.13,1.08-1.11,1.84-2.19,1.71-1.08-.13-1.84-1.11-1.71-2.19Z"/>
      </g>
      <path class="cls-5" d="M350.98,28.12c.73-.17,1.46.26,1.63.99.17.73-.3,1.48-1.03,1.66-.73.17-1.44-.29-1.61-1.03-.17-.73.28-1.45,1-1.62Z"/>
      <path class="cls-5" d="M360.37,30.33c.74-.11,1.43.38,1.54,1.12s-.42,1.45-1.16,1.56c-.74.11-1.41-.41-1.52-1.15-.11-.74.39-1.42,1.13-1.53Z"/>
      <path class="cls-9" d="M348.4,32.68c-.13-7.71,6-14.13,13.69-14.34,7.69-.21,14.04,5.87,14.17,13.59.13,7.71-6,14.13-13.7,14.34-7.69.21-14.04-5.87-14.17-13.59Z"/>
      <path class="cls-11" d="M364.2,36c.41-.69.2-1.58-.49-1.99-.68-.41-1.57-.18-1.99.51-.41.69-.2,1.58.49,1.99.68.41,1.57.18,1.99-.51Z"/>
      <path class="cls-9" d="M355.24,30.81l-3.26,4.31,2.7.21"/>
      <g>
        <path class="cls-6" d="M367.24,34.77c1.46-2.75.43-6.15-2.29-7.6s-6.11-.38-7.57,2.37c-1.46,2.75-.43,6.15,2.29,7.6s6.12.38,7.57-2.37Z"/>
        <path class="cls-6" d="M353.83,30.71c1.27-2.4.38-5.37-2-6.63s-5.33-.33-6.6,2.07-.38,5.37,2,6.63c2.37,1.26,5.33.33,6.6-2.07Z"/>
        <path class="cls-6" d="M356.63,30.75l-2.59-.68"/>
      </g>
      <path class="cls-1" d="M377.35,23.83c.7-2,2.74-3.06,4.56-2.37l12.44,1.62c1.82.69,2.73,2.87,2.03,4.87l-9.21,26.36c-.7,2-2.74,3.06-4.55,2.37l-12.44-1.62c-1.82-.69-2.73-2.87-2.03-4.87l9.21-26.36Z"/>
      <path class="cls-9" d="M406.02,62.19s2.17-11.29-1.56-19.37c-5.66-12.24-20.39-14.44-22.15-9.41-.82,2.34,3.61,1.52,7.16,4.18,3.24,2.43,4.35,3.89,4.35,3.89,0,0-3.45-4.06-7.59-5.57-7.75-2.83-7.79,3.37-7.79,3.37,0,0,3.81,1.2,6.57,2.9,2.76,1.69,4.21,3.2,4.21,3.2,0,0-2.34-2.15-5.46-3.81-3.16-1.68-5.65-2.58-6.51.21-1.17,3.83,11.25,9.98,11.25,9.98,0,0-.36,3.51,1.58,8.32,1.95,4.84,6.32,5.99,6.32,5.99"/>
      <path class="cls-7" d="M380.78,24.25l-9.29,27.08"/>
      <path class="cls-9" d="M353.76,39.18s1.25.29,2.44-.25c1.31-.59,1.66-1.65,1.66-1.65"/>
      <g>
        <path class="cls-9" d="M281.78,58.86s3.86-5.44,5.66-12.14c1.92-7.13,2.9-14.59-.05-15.06-4.57-.72-7.63,12.67-7.63,12.67,0,0-2.95-.76-5.59-.39-2.64.37-5.38,2.19-5.38,2.19"/>
        <path class="cls-9" d="M280.89,40.06s-1.53-16.32-5.54-17.72c-4.01-1.4-1.91,16.15-1.91,16.15,0,0-4.54-15.92-8.1-15.18s1.98,16.39,1.98,16.39c0,0-5.26-13.65-8.76-11.45-2.66,1.68.68,12.92,3.39,20.48,1.45,4.07,6.23,12.25,6.23,12.25"/>
      </g>
    </g>
  </g>
  <g id="Character_4">
    <g>
      <g>
        <path class="cls-5" d="M342.08,298.83c.85-.01,1.55.65,1.55,1.5,0,.85-.7,1.56-1.55,1.57-.85.01-1.52-.68-1.52-1.54s.67-1.53,1.52-1.54Z"/>
        <path class="cls-5" d="M332.89,296.07c.85-.01,1.55.65,1.55,1.5,0,.85-.7,1.56-1.55,1.57-.85.01-1.52-.68-1.52-1.53,0-.85.67-1.53,1.52-1.54Z"/>
        <path class="cls-9" d="M331.38,292.67s4.81.79,8.69-.88c3.35-1.45,5.47-3.88,5.47-3.88,0,0,.32,5.4,3.54,9.6,2.2,2.86,8.01,4.74,8.01,4.74"/>
        <path class="cls-9" d="M329.4,307.11c-3.22-7.57.26-16.37,7.78-19.67,7.52-3.29,16.23.17,19.45,7.74,3.22,7.57-.26,16.37-7.78,19.67-7.52,3.3-16.23-.17-19.45-7.74Z"/>
        <path class="cls-11" d="M346.95,305.66c.69-.86.57-2.11-.28-2.8-.85-.69-2.1-.55-2.79.31-.69.86-.57,2.11.28,2.8.85.69,2.1.55,2.79-.31Z"/>
        <path class="cls-9" d="M340.54,307.35s-1.03,1.54-2.48,1.54c-2.49,0-3.73-1.72-3.73-1.72"/>
        <path class="cls-9" d="M340.67,304.77s-.32,2.73,1.12,4.28c1.59,1.71,3.81,1.93,3.81,1.93"/>
        <path class="cls-9" d="M338.22,297.53l-4.34,5.18,3.19.92"/>
        <path class="cls-9" d="M356.79,287.91s8.58-21.88,17.25-16.19c3.77,2.47,2.04,8.95-1.79,11.57-5.71,3.92-15.46,4.62-15.46,4.62Z"/>
      </g>
      <path class="cls-5" d="M323.73,394.01l-7.56,12.53s15.25,10.13,35.21,9.94c16.72-.16,31.65-8.86,31.65-8.86l-10.26-13.07-49.04-.54Z"/>
      <path class="cls-9" d="M361.64,301.3c27.78,5.16,48.76,28.79,48.76,57.16,0,32.15-26.94,58.21-60.18,58.21s-60.18-26.06-60.18-58.21c0-21.82,14.58-44.39,34.2-53.31"/>
      <path class="cls-1" d="M295.08,362.86s-15.06-17.36-29.35-9.63c-12.47,6.74-10.91,19.86-5.28,29.65,5.63,9.79,16.83,24.09,31.19,21.88,12.5-1.92,25.26-15.81,25.26-15.81,0,0,3.96,8.38,16.74,11.75,9.68,2.56,19.73,1.47,19.73,1.47,0,0,18.83,17.62,41.4,6.05,15.12-7.76,21.34-27.88,17.35-45.35-4.52-19.84-22.06-37.49-42.98-40.15-20.91-2.67-34.02,1.45-46.77,9.17s-27.29,30.99-27.29,30.99Z"/>
      <path class="cls-10" d="M374.84,354.83s-.92,3.21-.5,8.03c.52,5.93,3.76,11.06,3.76,11.06,0,0-8.01-4.66-14.72-3.39-6.7,1.26-10.73,3.88-13.79,11.22-3.06,7.34.62,15.43.62,15.43"/>
      <path class="cls-3" d="M334.57,349.8c-.55-1.68-2.35-2.59-4.01-2.04l-11.24,1.16c-1.66.55-2.56,2.35-2,4.03l7.3,22.12c.55,1.68,2.35,2.59,4.01,2.04l11.24-1.16c1.66-.55,2.56-2.35,2-4.03l-7.3-22.12Z"/>
      <path class="cls-9" d="M341.36,370.95s-3.02.86-8.79-.6c-5.77-1.46-10.92-6.29-11.56-5.21-1.39,2.33,2.45,9.11,7.59,10.67,5.14,1.56,9.24,1.88,9.24,1.88,0,0-6.25-.7-9.68-2.07-3.43-1.38-5.55-4.28-5.55-4.28,0,0-1.54,2.57.27,5.69,1.5,2.57,3.93,3.39,5.47,4.3.84.5,5.62,1.86,5.62,1.86,0,0-2.33-.38-5.6-1.77-3.27-1.39-5.68-4.33-5.68-4.33,0,0-2.15,4.55,4.51,8.83,9.77,6.28,23.83,4.08,23.83,4.08"/>
      <path class="cls-9" d="M338.34,359.85s5.96,1.08,10.27,5.14c5.62,5.29,8.63,11.21,8.63,11.21"/>
      <path class="cls-7" d="M331.35,331.3s-2.06,6.9,2.82,7.69c4.43.71,8.69-8.14,8.69-8.14,0,0-.58,8.91,5.47,9.44,6.05.53,8.9-11,8.9-11"/>
      <path class="cls-9" d="M271.31,356.84s-1.22-9.2-6.85-11.56c-5.63-2.36-12.18,2.42-12.18,2.42,0,0-2.37-2.93-3.97-5.5-1.6-2.57-3.1-4.97-4.75-4.5s-1.1,6.51.95,9.27c2.04,2.76,3.39,4.32,3.39,4.32,0,0-2.65-2.91-3.69-4.53-3.29-5.11-2.76-6.24-4.65-8.19-1.64-1.69-3.71-.33-3.33,3.9.27,2.99,1.32,5.34,3.86,8.44,2.09,2.54,3.41,4.25,3.41,4.25,0,0-3.26.14-6.61-2.75-2.46-2.13-3.45-5.97-4.95-5.38-1.51.58-2.29,3.97,1.09,8.55,3.38,4.58,7.17,6.82,11.59,6.96,4.41.14,11.08-1.27,16.7,2.45"/>
    </g>
  </g>
  <g id="Character_3">
    <g>
      <g id="Layer-21">
        <path class="cls-5" d="M42.91,402.91l-6.45,11.88s14.06,10.41,32.13,10.55c15.14.12,32.1-7.62,32.1-7.62l-5.73-13.92-52.04-.89Z"/>
      </g>
      <path class="cls-9" d="M52.71,306.83c-16.08,2.52-35.03,15.97-41.71,40.9-8.61,32.1,8.49,65.39,40.32,74.95,31.83,9.56,70.66-6.01,79.39-40.48,10.64-42.02-22.43-61.1-22.43-61.1"/>
      <g id="Layer-31">
        <path class="cls-11" d="M68.17,413.33c12.73-.48,16.5-1.6,26.21-8.06,9.71-6.46,12.64-17.78,12.64-17.78,0,0,26.78,14.57,43.2,4.09,16.42-10.47,10.8-56.27,2.59-65.49-5.8-6.52-23.28-9.31-30.33,0-7.48,9.87-1.73,22.7-1.73,22.7,0,0-19.85-14.5-55-12.18-14.07.93-28.79,8.47-38.43,20.14-7.68,9.3-13.74,21.11-14.28,28.19-.06.76,3.97,10.57,9.56,17.74,5.59,7.17,15.63,13.99,15.63,13.99l5.25-9.49s11.97,6.62,24.69,6.15Z"/>
      </g>
      <path class="cls-7" d="M90.08,340.82l-3.64,9.1-8.76-7.85-8.08,9.79-7.34-9.09"/>
      <g>
        <path class="cls-9" d="M151.03,276.02l-20.37,14.73"/>
        <path class="cls-9" d="M167.48,309.26l-44.42,4.57"/>
        <path class="cls-9" d="M112.55,314.93l-11.43,1.51-1.85-5.07,13.63-9.55"/>
        <path class="cls-5" d="M151.01,275.07s11.72,1.05,16.38,13.67c5.32,14.4.81,21.14.81,21.14,0,0-10.21-3.57-15.16-15.47-4.69-11.27-2.03-19.34-2.03-19.34Z"/>
        <path class="cls-9" d="M138.78,324.9s2.41-3.49,3.25-6.25c1.06-3.48.96-6.87.96-6.87"/>
        <path class="cls-9" d="M135.12,316.9s-1.74-2.31-4.66-2.84c-2.91-.53-6.99.71-6.99.71,0,0-8.52-8.31-11.45-6.91-2.93,1.41.27,7.96,4.58,12.32,3.25,3.29,9.2,7.34,9.2,7.34"/>
        <path class="cls-9" d="M129.05,290.47c2.38,1.4,4.66,5.06,4.72,8.86.06,3.8-1.89,4.68-4.22,2.35s-4.53-7.28-4.41-9.06c.12-1.78,1.53-3.55,3.9-2.15Z"/>
        <path class="cls-9" d="M123.32,293.61c2.63,1.94,5.3,6.82,4.94,10.9-.36,4.08-2.63,5.03-5.1,2.1-2.47-2.92-4.42-9.77-4.08-11.65.35-1.88,1.6-3.29,4.23-1.35Z"/>
        <path class="cls-9" d="M116.9,297.11c2.53,2.07,4.59,6.28,4.42,10.9-.15,4.09-2.7,3.61-5.02.57-2.32-3.04-3.22-6.58-3.52-8.47-.47-2.94,1.58-5.08,4.11-3.01Z"/>
        <path class="cls-6" d="M153.09,285.55s6.59.67,8.51,5.88-.8,10.19-.8,10.19"/>
      </g>
      <path class="cls-9" d="M94.94,317.81c.16-8.03-6.21-14.67-14.24-14.83s-14.67,6.21-14.83,14.24c-.16,8.03,6.21,14.67,14.24,14.83,8.03.16,14.67-6.21,14.83-14.24Z"/>
      <path class="cls-5" d="M83.08,293.67c5.77.92,4.19,6.84,4.19,6.84,0,0,5.14-2.31,8.56,1.72,3.44,4.05-1.45,9.47-1.45,9.47,0,0-2.97-3.96-6.48-6.09-3.29-2-7.12-2.18-7.12-2.18,0,0-1.63,7.45-8.07,12.76-3.52,2.91-5.97,3.6-7.16,3.85,1.06,4.98,7.27,9.84,7.27,9.84,0,0-9.16,5.68-13.76,1.05-3.46-3.48-.27-8.99-.27-8.99,0,0-7.58-1.26-5.82-9.21,1.09-4.93,7.38-7.71,7.38-7.71,0,0-1-5.69,3.29-8.43,5.18-3.3,11.56.88,11.56.88,0,0,3.68-4.48,7.86-3.81Z"/>
      <path class="cls-11" d="M80.4,318.28c.02-.93-.72-1.7-1.65-1.72-.93-.02-1.7.72-1.72,1.65s.72,1.7,1.65,1.72,1.7-.72,1.72-1.65Z"/>
      <path class="cls-5" d="M83.51,314.25c.02-.85-.66-1.55-1.5-1.56s-1.55.65-1.56,1.5.65,1.55,1.5,1.56,1.55-.65,1.56-1.5Z"/>
      <path class="cls-5" d="M92.02,310.72c.02-.85-.66-1.55-1.5-1.57-.85-.02-1.55.66-1.56,1.5-.02.85.65,1.55,1.5,1.56.85.02,1.55-.66,1.56-1.5Z"/>
      <path class="cls-9" d="M86.91,312.22l4.22,5.62-3.13-.04"/>
      <path class="cls-9" d="M81.62,323.52c-.4-1.53.52-3.1,2.05-3.5,1.53-.4,3.1.52,3.5,2.05.4,1.53-.52,3.1-2.05,3.5-1.53.4-3.1-.52-3.5-2.05Z"/>
      <g id="Layer-30">
        <path class="cls-4" d="M137.39,320.17c-2.85-.09-5.68.25-8.25,1.19-.07.31-.19.61-.19.94,0,2.5,2,4.5,4.5,4.5s4.53-2,4.53-4.5c0-.78-.25-1.49-.59-2.12ZM121.11,334.64c-.83,0-1.55.27-2.22.66-.37,3.03-.11,5.63.34,7.94.58.27,1.19.47,1.87.47,2.5,0,4.53-2.06,4.53-4.56s-2.03-4.5-4.53-4.5ZM146.64,334.64c-2.5,0-4.5,2-4.5,4.5,0,2.5,2,4.56,4.5,4.56s4.53-2.06,4.53-4.56-2.03-4.5-4.53-4.5ZM73.68,336.51c-2.38-.01-4.71-.06-7.25.09-.51.73-.87,1.57-.87,2.53,0,2.5,2.03,4.56,4.53,4.56s4.53-2.06,4.53-4.56c0-1.01-.38-1.88-.94-2.62ZM91.3,337.98c-.1.38-.22.74-.22,1.16,0,2.5,2.03,4.56,4.53,4.56,2.25,0,4.02-1.69,4.37-3.84-2.65-.72-5.56-1.33-8.69-1.87ZM48.74,340.89c-1.78.77-3.54,1.64-5.25,2.59.35.09.68.22,1.06.22,1.89,0,3.5-1.17,4.19-2.81ZM56.93,351.51c-2.5,0-4.56,2.03-4.56,4.53,0,2.5,2.06,4.5,4.56,4.5s4.5-2,4.5-4.5c0-2.5-2-4.53-4.5-4.53ZM82.43,351.51c-2.5,0-4.53,2.03-4.53,4.53s2.03,4.5,4.53,4.5,4.53-2,4.53-4.5-2.03-4.53-4.53-4.53ZM107.96,351.51c-2.5,0-4.53,2.03-4.53,4.53s2.03,4.5,4.53,4.5,4.53-2,4.53-4.5-2.03-4.53-4.53-4.53ZM133.46,351.51c-2.5,0-4.5,2.03-4.5,4.53s2,4.5,4.5,4.5,4.53-2,4.53-4.5-2.03-4.53-4.53-4.53ZM158.99,351.51c-2.5,0-4.5,2.03-4.5,4.53s2,4.5,4.5,4.5c.59,0,1.17-.11,1.69-.31-.02-2.87-.2-5.66-.47-8.47-.39-.11-.79-.25-1.22-.25ZM32.18,351.67c-1.71,1.6-3.35,3.29-4.84,5.09-.1.12-.18.25-.28.38.51,1.95,2.23,3.41,4.34,3.41,2.5,0,4.53-2,4.53-4.5,0-2.22-1.64-3.99-3.75-4.38ZM44.55,368.39c-2.5,0-4.53,2-4.53,4.5s2.03,4.56,4.53,4.56,4.53-2.06,4.53-4.56-2.03-4.5-4.53-4.5ZM70.08,368.39c-2.5,0-4.53,2-4.53,4.5s2.03,4.56,4.53,4.56,4.53-2.06,4.53-4.56-2.03-4.5-4.53-4.5ZM95.61,368.39c-2.5,0-4.53,2-4.53,4.5s2.03,4.56,4.53,4.56,4.5-2.06,4.5-4.56-2-4.5-4.5-4.5ZM121.11,368.39c-2.5,0-4.5,2-4.5,4.5s2,4.56,4.5,4.56,4.53-2.06,4.53-4.56-2.03-4.5-4.53-4.5ZM146.64,368.39c-2.5,0-4.5,2-4.5,4.5,0,2.5,2,4.56,4.5,4.56s4.53-2.06,4.53-4.56-2.03-4.5-4.53-4.5ZM19.36,368.45c-1.47,2.57-2.69,5.03-3.69,7.44.83.94,2.03,1.56,3.38,1.56,2.5,0,4.53-2.06,4.53-4.56s-1.87-4.27-4.22-4.44ZM31.39,385.26c-2.5,0-4.56,2.03-4.56,4.53s2.06,4.53,4.56,4.53,4.53-2.03,4.53-4.53c0-2.5-2.03-4.53-4.53-4.53ZM56.93,385.26c-2.5,0-4.56,2.03-4.56,4.53,0,2.5,2.06,4.53,4.56,4.53s4.5-2.03,4.5-4.53c0-2.5-2-4.53-4.5-4.53ZM82.43,385.26c-2.5,0-4.53,2.03-4.53,4.53s2.03,4.53,4.53,4.53,4.53-2.03,4.53-4.53-2.03-4.53-4.53-4.53ZM107.96,385.26c-2.5,0-4.53,2.03-4.53,4.53,0,1.26.51,2.37,1.34,3.19,1.52-3.08,2.25-5.5,2.25-5.5,0,0,2.15,1.15,5.44,2.53,0-.08.03-.14.03-.22,0-2.5-2.03-4.53-4.53-4.53ZM133.46,385.26c-2.5,0-4.5,2.03-4.5,4.53s2,4.53,4.5,4.53,4.53-2.03,4.53-4.53-2.03-4.53-4.53-4.53ZM44.55,402.14c-2.5,0-4.53,2.03-4.53,4.53,0,1.45.75,2.67,1.81,3.5l1.66-2.97s1.99.95,4.69,2.06c.54-.75.91-1.6.91-2.59,0-2.5-2.03-4.53-4.53-4.53ZM70.08,402.14c-2.5,0-4.53,2.03-4.53,4.53s2.03,4.53,4.53,4.53,4.53-2.03,4.53-4.53-2.03-4.53-4.53-4.53ZM95.61,402.14c-2.5,0-4.53,2.03-4.53,4.53,0,.2.07.37.09.56,1.06-.65,1.97-1.16,3.19-1.97,1.19-.8,2.28-1.68,3.28-2.59-.62-.32-1.28-.53-2.03-.53Z"/>
      </g>
      <g id="Layer-29">
        <g>
          <path class="cls-1" d="M174.08,266.23c.17-.26.55-.28.74-.03l3.08,3.89c.15.19.13.47-.06.63l-10.69,9.08c-.2.17-.49.14-.65-.06l-.49-.62c-.12-.15-.13-.37-.03-.54l8.1-12.35Z"/>
          <path class="cls-1" d="M173.82,298.36c.09-.2.3-.31.52-.27l17.68,3.84c.29.06.45.39.31.66l-3.02,5.85c-.12.24-.43.32-.66.17l-14.71-9.58c-.19-.12-.26-.36-.17-.57l.05-.11Z"/>
          <path class="cls-1" d="M188.22,276.35c.25-.15.58-.03.67.25l2.1,6.43c.09.27-.09.55-.36.59l-15.04,2.38c-.25.04-.49-.14-.52-.39l-.12-.95c-.02-.18.06-.36.22-.45l13.07-7.85Z"/>
        </g>
      </g>
      <g id="Layer-25">
        <path class="cls-7" d="M53.12,376.38s-1.73,7.6-5.29,17.62c-3.57,10.02-8.94,21.48-8.94,21.48"/>
      </g>
      <path class="cls-9" d="M106.87,359.85s2.25,11.47,0,24.75c-2.13,12.56-11.01,20.65-11.01,20.65"/>
    </g>
  </g>
  <g id="Character_2">
    <g>
      <path class="cls-9" d="M117.3,32.54c27.75,10.12,41.39,43.76,32.95,71.85-9.56,31.83-43.12,49.88-74.95,40.32-31.83-9.56-49.88-43.12-40.32-74.95,6.49-21.6,27.66-35.68,39.9-38.72"/>
      <g id="Layer-12">
        <path class="cls-5" d="M66.71,122.17l-6.66,15.64s19.22,9.59,29.39,9.56c25.63-.09,36.49-10.28,36.49-10.28l-11.44-16.36-47.78,1.45Z"/>
      </g>
      <path class="cls-1" d="M41.46,73.02s14.81-16.41,38.62-18.33c23.81-1.92,37.69,2.02,45.79,8.61,10.69,8.71,22.78,18.88,26.5,38.35,2.54,13.31-5.98,33.04-20.06,35.99-18.42,3.86-33.04-5.83-33.04-5.83,0,0-13.58,3.61-28.03-2.58-11.58-4.96-16.48-19.59-16.48-19.59,0,0-11.73,11.5-29.47,8.97-15.47-2.2-23.18-18.97-24.2-34.98C.07,67.63,8.51,50.53,14.72,46.31c8.35-5.67,20.12-5.16,26.07.04,5.95,5.2.67,26.66.67,26.66Z"/>
      <path class="cls-11" d="M68.08,61.95s6.75-34.04,15.37-42.09c8.67-8.1,23.29-6.32,28.04,1.59,5.45,9.07,3.07,40.51,3.07,40.51h-46.48Z"/>
      <path class="cls-7" d="M105.71,47.77s-3.77,5.13-10.72,7.77c-4.71,1.8-11.67,1.88-11.67,1.88"/>
      <path class="cls-3" d="M85.05,66.08c-3.17,0-5.72,2.58-5.72,5.75l-1.18,12.88c.86-.45,8-4.79,15.23-1.31,6.61,3.18,12.12,12.03,12.14,12.09,1.41-.53,2.85-.99,4.3-1.15,1.43-.16,2.86-.05,4.27.2l2.07-22.71c0-3.17-2.58-5.75-5.75-5.75h-25.37ZM89.77,102.32c-.82.43-3.7,1.54-6.91,1.99-3.21.45-6.12-.97-6.42-1.07l-.89,9.86c0,3.17,2.58,5.72,5.75,5.72h11.14c-.49-.97-.85-1.99-.99-3.09-.17-1.37-.07-2.74.2-4.17.36-1.92,1.81-5.46,1.81-5.46,0,0-2.88-2.75-3.69-3.78Z"/>
      <path class="cls-6" d="M81.21,104.41l-.89,9.95"/>
      <path class="cls-6" d="M84.28,69.95l-1.09,12.23"/>
      <path class="cls-10" d="M126.27,100.56s-8.66-8.05-19.61-5.72c-8.63,1.84-15.09,9.42-15.09,19.55,0,7.6,5.85,14.83,5.85,14.83"/>
      <path class="cls-3" d="M84.38,36.26c0-7.6,6.16-13.77,13.77-13.77s13.77,6.16,13.77,13.77-6.16,13.77-13.77,13.77-13.77-6.16-13.77-13.77Z"/>
      <path class="cls-5" d="M101.09,33.97c-.75-.22-1.54.18-1.76.94-.22.75.22,1.56.97,1.79.75.22,1.52-.22,1.74-.98.22-.75-.2-1.52-.95-1.75Z"/>
      <path class="cls-5" d="M108.68,34.05c-.75-.22-1.54.18-1.76.94-.22.75.22,1.56.97,1.79.75.22,1.52-.22,1.74-.98.22-.75-.2-1.52-.95-1.75Z"/>
      <path class="cls-5" d="M111.92,32.45s-4.51.27-8.16-2.57c-2.66-2.07-3.19-3.49-3.19-3.49,0,0-1.95,3.66-6.38,5.73-5.67,2.66-9.59,1.98-9.59,1.98,0,0-.07-11.6,14.04-11.6,10.22,0,13.27,9.95,13.27,9.95Z"/>
      <path class="cls-9" d="M108.81,45.05c4.79-5.89,3.94-14.59-1.89-19.42-5.83-4.84-14.44-3.98-19.22,1.91s-3.94,14.59,1.89,19.42c5.83,4.84,14.44,3.98,19.22-1.91Z"/>
      <path class="cls-11" d="M95.94,38.82c-.31-.73.02-1.57.74-1.87.72-.31,1.56.04,1.87.77.31.73-.02,1.57-.74,1.87-.72.31-1.56-.04-1.87-.77Z"/>
      <path class="cls-9" d="M98.67,41.45s.4,1.22,1.55,1.91c1.28.76,2.47.45,2.47.45"/>
      <path class="cls-9" d="M104.62,34.84l1.09,5.43-3.61-.1"/>
      <g>
        <path class="cls-9" d="M37.55,49.96s4.95-3.22,7.45-8.61c2.68-5.79,6.17-15.79,5.41-17.84-1.13-3.03-5.67-1.64-8.2,3.33-1.62,3.19-2.55,5.72-2.55,5.72,0,0-3.36-1.67-6.34-1.07-2.98.61-5.57,3.49-5.57,3.49"/>
        <path class="cls-9" d="M39.42,30.82s.33-5.92-1.36-11.91c-1.37-4.85-4.37-9.15-6.57-8.33-2.28.85-1.86,6.23-.8,9.13,1.05,2.91,1.93,8.4,1.93,8.4,0,0-.56-4.69-1.99-8.26-1.93-4.84-5.01-9.19-7.49-9.01-2.48.18-.94,5.33.79,9.52,1.87,4.53,3.12,9.11,3.12,9.11l-3.33-9.22s-2.8-5.72-5-4.46c-2.65,1.53.53,9.21,1.43,13.41.68,3.14.57,7.72,1.73,11.82.98,3.46,3.25,7.88,3.25,7.88"/>
      </g>
      <path class="cls-9" d="M106.66,96.23s-6.72-11.26-15.39-13.79c-12.07-3.51-23.96,7.41-18.79,11.87,1.32,1.14,2.04-2.18,6.22-3.83,3.82-1.51,8.23-1.68,8.23-1.68,0,0-8.16.58-11.45,3.6-5.4,4.95-1.1,8.64-1.1,8.64,0,0,3.07-2.65,6-4.14s7.69-2.2,7.69-2.2c0,0-5.79,1.14-8.89,2.96-3.14,1.84-5.24,3.51-3.28,5.73,2.69,3.06,13.82-1.17,13.82-1.17,0,0,4.16,6.28,12.82,5.64"/>
    </g>
  </g>
  <g id="Character_1">
    <g>
      <g id="Layer-3">
        <path class="cls-5" d="M247.68,233.08l8.07,22.5s-13.57,11.67-41.67,10.12c-22.64-1.24-38.79-17.32-38.79-17.32l10.03-16.05,62.36.75Z"/>
        <path class="cls-9" d="M243.56,132.39c26.58,9.46,45.61,34.85,45.61,64.68,0,37.9-30.73,68.63-68.63,68.63s-68.63-30.73-68.63-68.63c0-30.22,19.53-55.88,46.66-65.04"/>
      </g>
      <g id="Layer-27">
        <path class="cls-11" d="M272.57,169.27s-19.24-20.53-49.3-20.11c-40.53.56-60.4,19.11-71.37,35.17-9.95,14.58-24.71,59.76,5.44,69.84,16.65,5.57,34.57-10.38,34.57-10.38,0,0,13.98,5.31,30.77,5.31,18.89,0,29.23-8.78,29.23-8.78,0,0,26.87,9.69,37.26-4.45,19.41-26.42-16.59-66.59-16.59-66.59Z"/>
      </g>
      <g id="Layer-26">
        <path class="cls-2" d="M223.71,149.17v99.84c.69-.01,1.33-.06,2-.09v-99.62c-.68-.02-1.3-.13-2-.12ZM217.83,149.54c-.68.04-1.34.08-2,.12v98.94c.66.06,1.32.09,2,.13v-99.19ZM231.58,149.73v98.59c.68-.11,1.35-.19,2-.31v-98.16c-.64-.09-1.35-.05-2-.12ZM209.96,150.11c-.68.09-1.34.19-2,.28v97.34c.7.12,1.26.27,2,.37v-98ZM239.43,151.14v95.41c.71-.23,1.35-.45,2-.69v-94.25c-.65-.18-1.34-.31-2-.47ZM202.08,151.54c-.66.14-1.35.26-2,.41v94.22c.8.2,1.1.26,2,.47v-95.09ZM194.21,153.42c-.7.21-1.32.47-2,.69v89.75c.05.02,1.63.46,2,.59v-91.03ZM247.3,153.51v89.59c.65-.36,1.5-.75,2-1.06v-87.78c-.65-.27-1.33-.5-2-.75ZM186.36,156.11c-.69.28-1.33.58-2,.88v91.94c.69-.42,1.39-.82,2-1.22v-91.59ZM255.18,156.95v84.34c.74.21,1.01.26,2,.5v-83.81c-.64-.35-1.33-.68-2-1.03ZM178.49,159.92c-.64.35-1.38.64-2,1v92c.69-.26,1.34-.55,2-.84v-92.16ZM263.05,161.58v81.34c.66.1,1.31.17,2,.25v-80.25c-.59-.43-1.34-.9-2-1.34ZM170.61,164.92c-.64.47-1.39.9-2,1.38v88.69c.68-.09,1.34-.18,2-.31v-89.75ZM270.93,167.76v75.69c.67,0,1.32.04,2,0v-73.75s-.34-.44-.34-.44c0,0-1.13-1-1.66-1.5ZM162.74,171.48c-.7.68-1.34,1.35-2,2.03v81.28c.67.11,1.33.32,2,.38v-83.69ZM278.8,177.26v65.28c.7-.19,1.32-.56,2-.81v-61.53c-.68-1-1.36-2.05-2-2.94ZM154.86,180.36c-.69.9-1.37,1.8-2,2.69v69.12c.62.34,1.33.61,2,.91v-72.72ZM286.64,189.98v48.56c.72-.62,1.38-1.33,2-2.09v-42.56c-.65-1.37-1.3-2.61-2-3.91ZM146.99,193.61c-.68,1.52-1.36,3.07-2,4.75v47.09c.59.8,1.3,1.49,2,2.22v-54.06Z"/>
      </g>
      <g id="Layer-28">
        <path class="cls-7" d="M188.39,182.05s-3.81,10.06-4.58,15.78c-.77,5.72-1.07,12.12-1.07,12.12"/>
        <path class="cls-7" d="M211.89,152.16s5.26,5.02,13.02,5.94c8.37,1,7.66-6.21,7.66-6.21"/>
      </g>
      <path class="cls-3" d="M269.36,173.05c3.27,0,5.94,2.81,5.94,6.31l-6.42,38.54c0,3.49-2.66,6.34-5.94,6.34h-.04l-79.09.45c-1.43,0-3.03-1.6-3.03-3.03v-1.84c0-1.43,1.6-3.05,3.03-3.05l8.32-.44,6.27-36.96c0-3.49,2.66-6.31,5.94-6.31h65.01Z"/>
      <path class="cls-10" d="M241.56,185.64c0-1.98-1.6-3.59-3.59-3.59s-3.59,1.61-3.59,3.59,1.6,3.59,3.59,3.59,3.59-1.61,3.59-3.59Z"/>
      <path class="cls-10" d="M264.56,216.98h-58.67"/>
      <path class="cls-9" d="M269.34,219.72c0-1.52,1.02-6.17,1.02-6.17,0,0-10.39-.31-11.53-3.58-1-2.89,1.76-3.62,5.49-4.05,3.68-.43,6.98.03,6.98.03,0,0-2.14-.44-5.54-.26s-7.39,1.41-7.39,1.41c0,0-3.65-5.37,4.72-7.54,4.47-1.16,9.86.29,9.86.29,0,0-1.83-.61-6.06-.77-4.64-.18-7.97,3.16-8.66.66-1.47-5.38,14.34-10.27,21.28-2.07,4.24,5.01,2.4,12.7-.63,17.9-2.25,3.87-9.54,9.64-9.54,4.15Z"/>
      <g id="Layer-6">
        <path class="cls-9" d="M173.99,232.34s.15-7.24,4.01-15.21c2.57-5.29,12.08-14.94,14.19-14.59,3.11.52,2.85,5.34-.1,10.66-1.72,3.1-4.33,4.92-4.33,4.92,0,0,1.94-1.11,5.67-3.01,4.99-2.54,10.76-6.05,12.3-3.48,1.32,2.21-1.69,5.79-5.77,8.16-3.91,2.28-6.59,3.14-6.59,3.14,0,0,3.84-1.55,6.61-3.06,2.75-1.51,6.41-3.63,7.85-1.94,1.97,2.32-3.66,6.33-6.94,8.21-3.35,1.92-3.82,2-3.82,2,0,0,1.77-.6,4.68-2.43,3.38-2.13,6.78-3.93,7.94-1.96,1.37,2.34-6.2,9.45-9.69,11.67-8.43,5.37-14.7,5.99-14.7,5.99"/>
      </g>
      <path class="cls-1" d="M221.62,106.07c-1.53-.17-3.15-.02-4.84.6-6.76,2.49-8.26,7.91-8.26,7.91,0,0-5.21-1.82-12.06,1.06-3.72,1.57-6.12,6.86-5.9,11.32.27,5.66,5.36,7.45,5.36,7.45,0,0-3.63,6,3.3,8.26,6.01,1.96,10.56-4.03,10.56-4.03l-.95-4.04s5.31-1.58,9.07-6.34c4.53-5.72,6.18-11.59,6.18-11.59,0,0,2.84,4.43,6.86,7.46,3.81,2.87,8.39,4.38,8.92,4.55l-.61,5.71-1.84,2.63s5.76,2.96,8.87-1.67c2.63-3.92.88-7.1-.58-8.85,3.03-1.68,6-4.22,5.12-7.66-2.27-8.84-12.21-6.24-17.04-7.83-3.62-1.19-7.56-4.45-12.15-4.95Z"/>
      <path class="cls-9" d="M238.25,136.73c3.97-7.97.73-17.65-7.24-21.62s-17.65-.73-21.62,7.24-.73,17.65,7.24,21.62,17.65.73,21.62-7.24Z"/>
      <path class="cls-11" d="M222.82,134.15c.32-.95-.18-1.98-1.12-2.3-.94-.32-1.96.2-2.29,1.15-.32.95.18,1.98,1.12,2.3.94.32,1.96-.2,2.28-1.15Z"/>
      <path class="cls-5" d="M227.76,131.53c.26-.79-.16-1.64-.94-1.9s-1.64.16-1.9.94.16,1.64.94,1.9c.79.27,1.64-.16,1.9-.94Z"/>
      <path class="cls-5" d="M236.35,132.41c.26-.79-.16-1.64-.94-1.9-.79-.27-1.64.16-1.9.94-.27.79.16,1.64.94,1.9s1.64-.16,1.9-.94Z"/>
      <path class="cls-9" d="M230.66,130.76l1.19,6.27-3.43-1.16"/>
      <path class="cls-9" d="M223.75,137.31s.18,1.89,1.69,2.68c1.05.55,3.29.03,3.29.03"/>
    </g>
  </g>
</svg>