<?xml version="1.0" encoding="UTF-8"?>
<svg id="Capa_2" xmlns="http://www.w3.org/2000/svg" viewBox="0 0 461.36 455.76">
  <defs>
    <style>
      .cls-1, .cls-2, .cls-3, .cls-4, .cls-5, .cls-6, .cls-7, .cls-8, .cls-9 {
        stroke-linejoin: round;
        stroke-width: 2px;
      }

      .cls-1, .cls-2, .cls-3, .cls-4, .cls-5, .cls-6, .cls-7, .cls-9 {
        fill: none;
      }

      .cls-1, .cls-9 {
        stroke: #ff367c;
      }

      .cls-10 {
        fill: #ffc051;
      }

      .cls-2 {
        stroke: #ff367c;
      }

      .cls-2, .cls-3, .cls-5, .cls-8, .cls-9 {
        stroke-linecap: round;
      }

      .cls-11 {
        fill: #263238;
      }

      .cls-12, .cls-13, .cls-8 {
        fill: #fff;
      }

      .cls-3, .cls-7 {
        stroke: #ffc051;
      }

      .cls-13 {
        isolation: isolate;
        opacity: .3;
      }

      .cls-4 {
        stroke: #fff;
      }

      .cls-5, .cls-6, .cls-8 {
        stroke: #263238;
      }

      .cls-14 {
        fill: #ff367c;
      }
    </style>
  </defs>
  <g id="Sparkles">
    <g>
      <g>
        <path class="cls-5" d="M77.41,1v3.58"/>
        <path class="cls-5" d="M77.41,8.61v3.58"/>
        <path class="cls-5" d="M83.01,6.6h-3.58"/>
        <path class="cls-5" d="M75.4,6.6h-3.58"/>
      </g>
      <g>
        <path class="cls-5" d="M448.37,154.7v3.58"/>
        <path class="cls-5" d="M448.37,162.31v3.58"/>
        <path class="cls-5" d="M453.97,160.3h-3.58"/>
        <path class="cls-5" d="M446.36,160.3h-3.58"/>
      </g>
      <g>
        <path class="cls-5" d="M388.63,415.11v3.58"/>
        <path class="cls-5" d="M388.63,422.73v3.58"/>
        <path class="cls-5" d="M394.22,420.71h-3.58"/>
        <path class="cls-5" d="M386.61,420.71h-3.58"/>
      </g>
    </g>
  </g>
  <g id="Gears">
    <g id="Layer-13">
      <path class="cls-10" d="M415.14,6.75l-.78,5.27c-1.78.55-3.48,1.23-5.1,2.08l-4.38-3.23-10.9,10.81,2.92,4.26c-1.25,2.17-2.21,4.5-2.91,6.96l-5.37.99.41,15.34,5.15.78c.66,2.16,1.53,4.22,2.62,6.15l-2.89,4.44,11.16,10.54,3.96-3.08c1.87.99,3.84,1.79,5.92,2.38l.89,5.29,15.34-.16.88-5.25c1.92-.58,3.75-1.32,5.49-2.24l4.44,3.11,10.9-10.81-3.06-4.22c1.23-2.18,2.19-4.51,2.87-6.98l5.29-1.11-.41-15.34-5.19-.66c-.66-2.12-1.52-4.13-2.6-6.03l3.15-4.58-11.16-10.54-4.35,3.2c-1.88-.99-3.87-1.76-5.96-2.34l-.99-5.19-15.34.16ZM423.26,35.41c3.18-.03,5.78,2.52,5.81,5.7.03,3.18-2.52,5.76-5.7,5.79-3.18.03-5.78-2.5-5.81-5.68-.03-3.18,2.52-5.78,5.7-5.81Z"/>
      <path class="cls-11" d="M309.98,368.8l-.51,3.42c-1.15.35-2.26.8-3.31,1.35l-2.84-2.1-7.08,7.02,1.9,2.76c-.81,1.41-1.44,2.92-1.89,4.52l-3.49.64.27,9.96,3.34.51c.43,1.4.99,2.74,1.7,3.99l-1.88,2.88,7.25,6.85,2.57-2c1.22.65,2.5,1.16,3.84,1.55l.58,3.43,9.96-.1.57-3.41c1.25-.37,2.44-.86,3.57-1.45l2.88,2.02,7.08-7.02-1.99-2.74c.8-1.41,1.42-2.93,1.86-4.53l3.43-.72-.27-9.96-3.37-.43c-.43-1.38-.99-2.68-1.69-3.91l2.05-2.97-7.25-6.85-2.83,2.08c-1.22-.64-2.51-1.14-3.87-1.52l-.64-3.37-9.96.1ZM315.25,387.4c2.06-.02,3.75,1.64,3.78,3.7.02,2.06-1.64,3.74-3.7,3.76-2.06.02-3.76-1.62-3.78-3.69-.02-2.06,1.64-3.75,3.7-3.78Z"/>
    </g>
  </g>
  <g id="Tab">
    <g>
      <g id="Layer-24">
        <path class="cls-12" d="M29.54,132.2V54.05c0-7.11,5.77-12.88,12.88-12.88h358.39c7.11,0,12.88,5.77,12.88,12.88v285.75c0,7.11-5.77,12.88-12.88,12.88H42.42c-7.11,0-12.88-5.77-12.88-12.88v-207.59"/>
      </g>
      <g id="Layer-22">
        <path class="cls-11" d="M42.43,41.15c-7.11,0-12.88,5.79-12.88,12.91v16.16h384.12v-16.16c0-7.11-5.76-12.91-12.87-12.91H42.43Z"/>
      </g>
      <g id="Layer-16">
        <path class="cls-14" d="M29.54,70.22h384.14v58.16H29.54v-58.16Z"/>
      </g>
      <g>
        <path class="cls-3" d="M202.54,160.3h48.54"/>
        <path class="cls-3" d="M202.54,169.19h48.54"/>
        <path class="cls-3" d="M185.41,187.48h65.67"/>
        <path class="cls-3" d="M185.41,177.95h65.67"/>
        <path class="cls-3" d="M185.41,206.33h54.2"/>
        <path class="cls-3" d="M185.41,196.8h61.01"/>
        <path class="cls-3" d="M185.41,216.26h65.67"/>
      </g>
      <path class="cls-12" d="M237.02,98.1c0-.78.63-1.41,1.41-1.41h18.61c.78,0,1.41.63,1.41,1.41v12.17c0,.78-.63,1.41-1.41,1.41h-18.61c-.78,0-1.41-.63-1.41-1.41v-12.17Z"/>
      <path class="cls-10" d="M271.02,98.1c0-.78.63-1.41,1.41-1.41h25.72c.78,0,1.41.63,1.41,1.41v12.17c0,.78-.63,1.41-1.41,1.41h-25.72c-.78,0-1.41-.63-1.41-1.41v-12.17Z"/>
      <path class="cls-12" d="M315.28,98.1c0-.78.63-1.41,1.41-1.41h74.55c.78,0,1.41.63,1.41,1.41v12.17c0,.78-.63,1.41-1.41,1.41h-74.55c-.78,0-1.41-.63-1.41-1.41v-12.17Z"/>
      <path class="cls-10" d="M304.71,140.45c0-.85.69-1.55,1.55-1.55h84.85c.85,0,1.55.69,1.55,1.55v7.6c0,.85-.69,1.55-1.55,1.55h-84.85c-.85,0-1.55-.69-1.55-1.55v-7.6Z"/>
      <path class="cls-14" d="M184.16,140.45c0-.85.69-1.55,1.55-1.55h75.64c.85,0,1.55.69,1.55,1.55v7.6c0,.85-.69,1.55-1.55,1.55h-75.64c-.85,0-1.55-.69-1.55-1.55v-7.6Z"/>
      <path class="cls-6" d="M268.63,262.77h71.63v62.71h-71.63v-62.71Z"/>
      <path class="cls-14" d="M184.16,161.95c0-.91.74-1.65,1.65-1.65h8.2c.91,0,1.65.74,1.65,1.65v7.39c0,.91-.74,1.65-1.65,1.65h-8.2c-.91,0-1.65-.74-1.65-1.65v-7.39Z"/>
      <g>
        <path class="cls-12" d="M101.46,104.35l2.96-15.65h4.52l-4.88,21.99h-4.56l-3.58-14.71-3.58,14.71h-4.56l-4.88-21.99h4.52l2.98,15.62,3.62-15.62h3.84l3.61,15.65Z"/>
        <path class="cls-12" d="M124.61,101.16h-8.7v5.89h10.21v3.64h-14.74v-21.99h14.71v3.67h-10.18v5.24h8.7v3.55Z"/>
        <path class="cls-12" d="M128.78,110.69v-21.99h7.7c2.67,0,4.69.51,6.07,1.53,1.38,1.02,2.07,2.52,2.07,4.49,0,1.08-.28,2.03-.83,2.85-.55.82-1.32,1.42-2.31,1.8,1.13.28,2.02.85,2.66,1.71.65.86.97,1.9.97,3.14,0,2.11-.67,3.71-2.02,4.8-1.35,1.09-3.27,1.64-5.77,1.66h-8.55ZM133.31,97.91h3.35c2.29-.04,3.43-.95,3.43-2.73,0-1-.29-1.71-.87-2.15-.58-.44-1.49-.66-2.74-.66h-3.17v5.54ZM133.31,101.11v5.94h3.88c1.07,0,1.9-.25,2.5-.76.6-.51.9-1.21.9-2.11,0-2.01-1.04-3.04-3.13-3.07h-4.15Z"/>
        <path class="cls-12" d="M159.92,104.92c0-.86-.3-1.51-.91-1.97-.6-.46-1.69-.94-3.26-1.45-1.57-.51-2.81-1.01-3.73-1.5-2.5-1.35-3.75-3.17-3.75-5.45,0-1.19.33-2.25,1-3.18.67-.93,1.63-1.66,2.88-2.18,1.25-.52,2.66-.79,4.22-.79s2.97.28,4.2.85c1.23.57,2.18,1.37,2.86,2.41.68,1.04,1.02,2.21,1.02,3.53h-4.53c0-1.01-.32-1.79-.95-2.35-.63-.56-1.53-.84-2.67-.84s-1.97.23-2.58.7c-.61.47-.92,1.09-.92,1.85,0,.72.36,1.31,1.08,1.8.72.48,1.78.94,3.18,1.36,2.58.78,4.45,1.74,5.63,2.88,1.18,1.15,1.77,2.58,1.77,4.29,0,1.9-.72,3.4-2.16,4.48-1.44,1.08-3.38,1.62-5.81,1.62-1.69,0-3.23-.31-4.62-.93-1.39-.62-2.45-1.47-3.18-2.54-.73-1.08-1.09-2.33-1.09-3.75h4.55c0,2.43,1.45,3.64,4.35,3.64,1.08,0,1.92-.22,2.52-.66.6-.44.91-1.05.91-1.84Z"/>
        <path class="cls-12" d="M172.35,110.69h-4.53v-21.99h4.53v21.99Z"/>
        <path class="cls-12" d="M192.66,92.37h-6.74v18.32h-4.53v-18.32h-6.65v-3.67h17.91v3.67Z"/>
        <path class="cls-12" d="M208.47,101.16h-8.7v5.89h10.21v3.64h-14.74v-21.99h14.71v3.67h-10.18v5.24h8.7v3.55Z"/>
      </g>
      <path class="cls-7" d="M47.5,138.91h123.58v84.4H47.5v-84.4Z"/>
      <g>
        <path class="cls-7" d="M47.5,138.91l123.58,84.4"/>
        <path class="cls-7" d="M47.5,223.31l123.58-84.4"/>
      </g>
      <g id="Layer-19">
        <g>
          <path class="cls-11" d="M265.85,323.3c0-.35.28-.64.63-.64h4.28c.35,0,.63.28.63.64v4.31c0,.35-.28.63-.63.63h-4.28c-.35,0-.63-.28-.63-.63v-4.31Z"/>
          <path class="cls-11" d="M337.48,323.3c0-.35.28-.64.63-.64h4.28c.35,0,.63.28.63.64v4.31c0,.35-.28.63-.63.63h-4.28c-.35,0-.63-.28-.63-.63v-4.31Z"/>
          <path class="cls-11" d="M301.67,323.36c0-.35.28-.63.63-.63h4.28c.35,0,.63.28.63.63v4.31c0,.35-.28.63-.63.63h-4.28c-.35,0-.63-.28-.63-.63v-4.31Z"/>
          <path class="cls-11" d="M265.85,260.39c0-.35.28-.63.63-.63h4.28c.35,0,.63.28.63.63v4.31c0,.35-.28.63-.63.63h-4.28c-.35,0-.63-.28-.63-.63v-4.31Z"/>
          <path class="cls-11" d="M337.48,260.39c0-.35.28-.63.63-.63h4.28c.35,0,.63.28.63.63v4.31c0,.35-.28.63-.63.63h-4.28c-.35,0-.63-.28-.63-.63v-4.31Z"/>
          <path class="cls-11" d="M301.67,260.44c0-.35.28-.63.63-.63h4.28c.35,0,.63.28.63.63v4.31c0,.35-.28.63-.63.63h-4.28c-.35,0-.63-.28-.63-.63v-4.31Z"/>
          <path class="cls-11" d="M337.48,291.97c0-.35.28-.63.63-.63h4.28c.35,0,.63.28.63.63v4.31c0,.35-.28.63-.63.63h-4.28c-.35,0-.63-.28-.63-.63v-4.31Z"/>
          <path class="cls-11" d="M265.85,291.97c0-.35.28-.63.63-.63h4.28c.35,0,.63.28.63.63v4.31c0,.35-.28.63-.63.63h-4.28c-.35,0-.63-.28-.63-.63v-4.31Z"/>
        </g>
      </g>
      <g id="Layer-3">
        <path class="cls-6" d="M29.54,132.2V54.05c0-7.11,5.77-12.88,12.88-12.88h358.39c7.11,0,12.88,5.77,12.88,12.88v285.75c0,7.11-5.77,12.88-12.88,12.88H42.42c-7.11,0-12.88-5.77-12.88-12.88v-207.59"/>
      </g>
      <g>
        <path class="cls-12" d="M47.5,57.24c0-1.61,1.31-2.92,2.92-2.92s2.92,1.31,2.92,2.92-1.31,2.92-2.92,2.92-2.92-1.31-2.92-2.92Z"/>
        <path class="cls-12" d="M58.76,57.24c0-1.61,1.31-2.92,2.92-2.92s2.92,1.31,2.92,2.92-1.31,2.92-2.92,2.92-2.92-1.31-2.92-2.92Z"/>
        <path class="cls-12" d="M70.03,57.24c0-1.61,1.31-2.92,2.92-2.92s2.93,1.31,2.93,2.92-1.31,2.92-2.93,2.92-2.92-1.31-2.92-2.92Z"/>
      </g>
      <g>
        <path class="cls-14" d="M307.57,171.14s0,1.44,0,1.44h2.65c.4,0,.72-.33.72-.72s-.32-.72-.72-.72h-2.65ZM316.68,171.14c-.4,0-.72.32-.72.72s.32.72.72.72h5.75c.4,0,.72-.32.72-.72s-.32-.72-.72-.72h-5.75ZM328.89,171.14c-.4,0-.72.32-.72.72s.32.72.72.72h5.75c.4,0,.72-.32.72-.72s-.32-.72-.72-.72h-5.75ZM341.1,171.14c-.4,0-.72.32-.72.72s.32.72.72.72l6.19.02c.4,0,.72-.32.72-.72s-.32-.72-.72-.72l-6.19-.02ZM359.06,171.14l-5.23.02c-.4,0-.72.32-.72.72s.32.72.72.72l5.23-.02c.4,0,.72-.32.72-.72s-.32-.72-.72-.72ZM365.53,171.14c-.4,0-.72.32-.72.72s.32.72.72.72h5.75c.4,0,.72-.32.72-.72s-.32-.72-.72-.72h-5.75ZM377.74,171.14c-.4,0-.72.32-.72.72s.32.72.72.72h5.75c.4,0,.72-.32.72-.72s-.32-.72-.72-.72h-5.75ZM389.95,171.14c-.4,0-.72.32-.72.72s.32.72.72.72l3.97.02c.4,0,.72-.32.72-.72s-.32-.72-.72-.72l-3.97-.02ZM303.79,174.42s-.03-.15-.03,1.32c0,.4.32.72.72.72s.72-.32.72-.72v-1.32s-1.4,0-1.4,0ZM396.8,176.5c-.4,0-.72.32-.72.72v5.75c0,.4.32.72.72.72s.72-.32.72-.72v-5.75c0-.4-.32-.72-.72-.72ZM304.47,181.49c-.4,0-.72.32-.72.72v5.75c0,.4.32.72.72.72s.72-.32.72-.72v-5.75c0-.4-.32-.72-.72-.72ZM396.8,188.71c-.4,0-.72.32-.72.72v5.75c0,.4.32.72.72.72s.72-.32.72-.72v-5.75c0-.4-.32-.72-.72-.72ZM304.47,193.7c-.4,0-.72.32-.72.72v5.75c0,.4.32.72.72.72s.72-.32.72-.72v-5.75c0-.4-.32-.72-.72-.72ZM396.8,200.93c-.4,0-.72.32-.72.72v5.75c0,.4.32.72.72.72s.72-.32.72-.72v-5.75c0-.4-.32-.72-.72-.72ZM304.47,205.93c-.4,0-.72.32-.72.72,0,2.75.01,5.07.01,5.19,0,.4.32.72.72.72s.72-.32.72-.72c0-.12-.01-2.44-.01-5.19,0-.4-.32-.72-.72-.72ZM396.8,217.03c-.4,0-.72.32-.72.72v1.85c0,.4.32.72.72.72s.72-.32.72-.72v-1.85c0-.4-.32-.72-.72-.72ZM304.5,217.44c-.4,0-.72.32-.72.72,0,2.9-.02,3.61-.02,6.45,0,.4.32.72.72.72s.72-.32.72-.72c0-2.84.02-3.55.02-6.45,0-.4-.32-.72-.72-.72ZM396.8,225.35c-.4,0-.72.32-.72.72v5.75c0,.4.32.72.72.72s.72-.32.72-.72v-5.75c0-.4-.32-.72-.72-.72ZM304.47,230.33c-.4,0-.72.32-.72.72v5.75c0,.4.32.72.72.72s.72-.32.72-.72v-5.75c0-.4-.32-.72-.72-.72ZM396.8,237.56c-.4,0-.72.32-.72.72v5.75c0,.4.32.72.72.72s.72-.32.72-.72v-5.75c0-.4-.32-.72-.72-.72ZM304.47,242.54c-.4,0-.72.32-.72.72v5.75c0,.4.32.72.72.72s.72-.32.72-.72v-5.75c0-.4-.32-.72-.72-.72ZM307.52,251.72c-.4,0-.72.32-.72.72s.32.72.72.72h5.75c.4,0,.72-.32.72-.72s-.32-.72-.72-.72h-5.75ZM319.73,251.72c-.4,0-.72.32-.72.72s.32.72.72.72h5.75c.4,0,.72-.32.72-.72s-.32-.72-.72-.72h-5.75ZM331.95,251.72c-.4,0-.72.32-.72.72s.32.72.72.72h5.75c.4,0,.72-.32.72-.72s-.32-.72-.72-.72h-5.75ZM344.16,251.72c-.4,0-.72.32-.72.72s.32.72.72.72h3.63c.4,0,.72-.32.72-.72s-.32-.72-.72-.72h-3.63ZM356.37,251.72c-.4,0-.72.32-.72.72s.32.72.72.72h5.75c.4,0,.72-.32.72-.72s-.32-.72-.72-.72h-5.75ZM368.58,251.72c-.4,0-.72.32-.72.72s.32.72.72.72h5.75c.4,0,.72-.32.72-.72s-.32-.72-.72-.72h-5.75ZM380.79,251.72c-.4,0-.72.32-.72.72s.32.72.72.72h5.75c.4,0,.72-.32.72-.72s-.32-.72-.72-.72h-5.75Z"/>
        <path class="cls-1" d="M348.02,169.86c0-.39.31-.7.7-.7h3.99c.39,0,.7.31.7.7v4.01c0,.39-.31.7-.7.7h-3.99c-.39,0-.7-.31-.7-.7v-4.01Z"/>
        <path class="cls-1" d="M302.03,169.86c0-.39.31-.7.7-.7h3.99c.39,0,.7.31.7.7v4.01c0,.39-.31.7-.7.7h-3.99c-.39,0-.7-.31-.7-.7v-4.01Z"/>
        <path class="cls-1" d="M394.01,169.86c0-.39.31-.7.7-.7h3.99c.39,0,.7.31.7.7v4.01c0,.39-.31.7-.7.7h-3.99c-.39,0-.7-.31-.7-.7v-4.01Z"/>
        <path class="cls-1" d="M348.02,251.33c0-.39.31-.7.7-.7h3.99c.39,0,.7.31.7.7v4.01c0,.39-.31.7-.7.7h-3.99c-.39,0-.7-.31-.7-.7v-4.01Z"/>
        <path class="cls-1" d="M302.03,251.33c0-.39.31-.7.7-.7h3.99c.39,0,.7.31.7.7v4.01c0,.39-.31.7-.7.7h-3.99c-.39,0-.7-.31-.7-.7v-4.01Z"/>
        <path class="cls-1" d="M301.77,212.85c0-.39.31-.7.7-.7h3.99c.39,0,.7.31.7.7v4.02c0,.39-.31.7-.7.7h-3.99c-.39,0-.7-.31-.7-.7v-4.02Z"/>
        <path class="cls-1" d="M394.63,212.85c0-.39.31-.7.7-.7h3.99c.39,0,.7.31.7.7v4.02c0,.39-.31.7-.7.7h-3.99c-.39,0-.7-.31-.7-.7v-4.02Z"/>
        <path class="cls-1" d="M394.01,251.33c0-.39.31-.7.7-.7h3.99c.39,0,.7.31.7.7v4.01c0,.39-.31.7-.7.7h-3.99c-.39,0-.7-.31-.7-.7v-4.01Z"/>
        <path class="cls-1" d="M311.67,214.31l15.71-8.6,16.48,8.47,24.71-13.48,20.09,15.23v24.64l-76.99.34v-26.6Z"/>
        <path class="cls-14" d="M350.63,224.24l39.81-20.67.15,37-4.42,4.71h-71.31l-4.19-4.37v-34.02l39.96,17.35Z"/>
        <path class="cls-9" d="M384.11,179.01c3.58,0,6.48,3,6.48,6.69v52.88c0,3.69-2.9,6.69-6.48,6.69h-66.95c-3.58,0-6.48-3-6.48-6.69v-52.88c0-3.7,2.9-6.69,6.48-6.69h66.95Z"/>
        <path class="cls-14" d="M336.93,190.84c2.76,0,4.99,2.21,4.99,4.93s-2.23,4.93-4.99,4.93-4.99-2.21-4.99-4.93,2.23-4.93,4.99-4.93Z"/>
      </g>
    </g>
  </g>
  <g id="Floor">
    <g id="Layer-5">
      <path class="cls-5" d="M1,380.2h451.18"/>
    </g>
  </g>
  <g id="Plant">
    <g>
      <path class="cls-10" d="M461.36,325.44c-.59,24.56-10.38,45.45-24.17,54.52v2.73c0,1.16-1.18,2.13-2.65,2.13h-25.42c-1.47,0-2.69-.97-2.69-2.13v-2.73c-13.79-9.07-23.54-29.96-24.13-54.52h79.06Z"/>
      <path class="cls-11" d="M388.21,330.94h67.85s-10.26,13.27-34.23,12.81c-23.02-.44-33.62-12.81-33.62-12.81Z"/>
      <path class="cls-14" d="M427.41,219.06c-3.73,4.51-6.42,12.83-7.53,19.88-.39,2.51-.3,6.74-.1,9.19.51,6.12,2.68,12.93,3.39,13.13,1.51.43,4.74-8.67,5.39-11.25,1.81-7.18,3.12-13.45,2.1-20.8-.19-1.41-2.04-11.6-3.25-10.14Z"/>
      <path class="cls-14" d="M451.2,245.94c-4.53.85-10.36,4.52-14.59,8.22-1.51,1.32-3.59,3.92-4.7,5.51-2.78,3.96-4.91,9.18-4.58,9.66.7,1.02,7.25-2.85,8.94-4.09,4.72-3.43,8.68-6.56,11.78-11.53.6-.95,4.63-8.05,3.15-7.77Z"/>
      <path class="cls-14" d="M453.93,268.09c-5.36.96-12.26,5.25-17.29,9.59-1.79,1.55-4.26,4.6-5.59,6.46-3.31,4.65-5.87,10.79-5.48,11.36.82,1.21,8.57-3.31,10.59-4.75,5.6-4.01,10.29-7.68,13.99-13.51.71-1.12,5.53-9.46,3.78-9.15Z"/>
      <path class="cls-14" d="M457.66,293.06c-5.44.16-12.91,3.37-18.52,6.92-2,1.26-4.9,3.92-6.48,5.56-3.96,4.11-7.4,9.8-7.11,10.42.63,1.32,8.97-2,11.17-3.13,6.13-3.14,11.32-6.07,15.84-11.28.87-1,6.87-8.54,5.1-8.49Z"/>
      <path class="cls-14" d="M403.5,246.78c-.05,4.25,2.17,10.15,4.72,14.61.91,1.59,2.85,3.91,4.07,5.19,3.03,3.19,7.3,6,7.79,5.78,1.03-.46-1.25-7.05-2.05-8.8-2.21-4.86-4.3-8.97-8.17-12.62-.74-.7-6.34-5.55-6.36-4.17Z"/>
      <path class="cls-14" d="M399.53,267.8c.11,4.65,2.87,11.09,5.93,15.96,1.09,1.73,3.39,4.27,4.81,5.65,3.56,3.47,8.51,6.52,9.05,6.29,1.15-.51-1.7-7.7-2.67-9.61-2.7-5.3-5.23-9.79-9.76-13.76-.87-.76-7.41-6.04-7.37-4.53Z"/>
      <path class="cls-14" d="M392.8,289.69c.94,4.61,5.01,10.63,9.12,15.05,1.46,1.57,4.34,3.77,6.09,4.96,4.38,2.96,10.15,5.32,10.68,5,1.13-.66-3.17-7.42-4.53-9.18-3.8-4.9-7.27-9.02-12.76-12.34-1.05-.64-8.9-4.99-8.6-3.49Z"/>
      <path class="cls-5" d="M424.33,265.16l-2.5,72.19"/>
    </g>
  </g>
  <g id="Speech_bubble">
    <g>
      <path class="cls-8" d="M36.99,91.56c-19.28.57-34.44,16.65-33.88,35.94.57,19.28,16.65,34.44,35.94,33.88,2.52-.07,4.96-.45,7.31-1.03.42.58,5,6.85,12.75,9.34,7.95,2.56,18.34,2.3,20.51,1.3,2.04-.94-3.44-.7-12.17-5.96-5.16-3.11-8.02-9.88-8.38-10.75l.22-.09c8.59-6.6,14-17.09,13.66-28.75-.57-19.28-16.68-34.44-35.97-33.88Z"/>
      <path class="cls-14" d="M28.98,119.01c-.45-.09-.93,0-1.34.28l-8.77,5.95c-1,.68-1.06,2.13-.11,2.88l8.8,6.93c.78.61,1.88.47,2.49-.31.61-.77.5-1.9-.28-2.51l-6.87-5.39,6.76-4.58c.82-.56,1.03-1.67.47-2.49-.28-.41-.7-.67-1.15-.75ZM42.59,119.01c-.45.07-.89.3-1.17.7l-9.25,12.88c-.58.8-.41,1.94.39,2.52.8.58,1.94.38,2.51-.42l9.25-12.88c.58-.8.38-1.91-.42-2.49-.4-.29-.86-.38-1.31-.31ZM47.39,119.01c-.45.09-.87.35-1.15.75-.55.82-.34,1.93.48,2.49l6.76,4.58-6.87,5.39c-.78.61-.92,1.74-.31,2.51.61.78,1.74.92,2.51.31l8.8-6.93c.95-.75.89-2.2-.11-2.88l-8.77-5.95c-.41-.28-.89-.36-1.34-.28Z"/>
    </g>
  </g>
  <g id="Character">
    <g>
      <g id="Layer-21">
        <path class="cls-12" d="M105.03,187.92c0-10.11,8.2-18.31,18.31-18.31s18.31,8.2,18.31,18.31-8.2,18.31-18.31,18.31-18.31-8.2-18.31-18.31Z"/>
      </g>
      <g>
        <path class="cls-11" d="M127.57,171.18s-3.9,10.86-9.3,15.86c-5.06,4.69-12.35,6.34-12.35,6.34l3.6,5.87-25.21.78s-2.02-3.53,0-7.07c3.38-5.92,9.44-7.04,10.89-11.03,2.01-5.52.82-12.05,10.12-16.33,7.72-3.56,12.45,2.16,12.45,2.16,0,0,10.95-14.19,23.5-6.6,9.59,5.8,4.55,12.24,6.52,17.42,3.62,9.49,11.88,9.07,9.55,19.89,0,.04-19.02.39-19.02.39,0,0,6.27-10.4,2-17.87-4.27-7.47-12.76-9.8-12.76-9.8Z"/>
        <path class="cls-6" d="M140.81,192.13c2.25-9.78-3.85-19.54-13.64-21.79-9.78-2.25-19.54,3.85-21.79,13.64-2.25,9.78,3.85,19.54,13.64,21.79,9.78,2.25,19.54-3.85,21.79-13.64Z"/>
        <path class="cls-14" d="M122.32,190.58c.1-1.13-.72-2.12-1.84-2.22-1.12-.1-2.1.73-2.2,1.86-.1,1.13.72,2.12,1.84,2.22,1.11.1,2.1-.73,2.2-1.86Z"/>
        <path class="cls-11" d="M127.07,185.49c.08-.93-.6-1.75-1.54-1.84-.93-.08-1.75.6-1.84,1.54-.08.93.6,1.76,1.54,1.84.93.08,1.75-.6,1.84-1.54Z"/>
        <path class="cls-11" d="M137.74,183.77c.08-.93-.6-1.76-1.54-1.84-.93-.08-1.75.6-1.84,1.54-.08.93.6,1.75,1.54,1.84.93.08,1.75-.61,1.84-1.54Z"/>
        <path class="cls-5" d="M130.73,183.17l3.37,6.52-4.06.42"/>
        <path class="cls-5" d="M125.9,191.73s.74,1.85,2.21,2.37c1.02.36,2.69-.55,2.69-.55"/>
      </g>
      <path class="cls-11" d="M144.09,323.28s84.28,15.83,100.74,30.33c8.39,7.39,13.79,16.88,10.14,26.47-13.09,34.37-162.41,29.22-162.41,29.22l-3.8-61.38,55.32-24.64Z"/>
      <path class="cls-1" d="M104.09,366.36l5.12,60.82"/>
      <g id="Layer-7">
        <path class="cls-10" d="M78.83,321.73s-25.07,54.07-1.72,72.23c12.3,9.57,27.52,7.52,27.52,7.52l5.43,51.36s103.25-1.01,137.45-21.93c11.87-7.26,39.62-43.25-13.94-70.99-58.27-30.17-154.74-38.19-154.74-38.19Z"/>
      </g>
      <g id="Layer-29">
        <path class="cls-4" d="M117.41,401.97l4.44,45.61"/>
      </g>
      <g id="Layer-26">
        <path class="cls-14" d="M139.83,211.46c-4.29,0-8.17,1.55-11.28,4.03-3.07-2.35-6.87-3.81-11.03-3.81-5.37,0-10.11,2.4-13.44,6.09-2.72-2.93-6.54-4.81-10.84-4.81-6.85,0-12.59,4.66-14.31,10.97-2.08-1.11-4.42-1.78-6.94-1.78-7.62,0-13.83,5.76-14.69,13.16-1.03-.21-2.06-.44-3.16-.44-10.07,0-18.25,8.18-18.25,18.25,0,.18.06.35.06.53-7.99,1.94-13.94,9.1-13.94,17.69,0,3.5,1.01,6.73,2.72,9.5-4.28,3.34-7.06,8.5-7.06,14.34,0,5.92,2.85,11.14,7.22,14.47-1.02,2.28-1.59,4.78-1.59,7.44,0,7.55,4.58,14.04,11.12,16.81-.36,1.43-.62,2.89-.62,4.44,0,10.07,8.15,18.25,18.22,18.25.9,0,1.76-.16,2.62-.28,2.95,6.1,9.15,10.34,16.38,10.34,4.86,0,9.26-1.93,12.53-5.03,3.27,3.1,7.67,5.03,12.53,5.03,6.31,0,11.88-3.19,15.16-8.06,1.97.73,4.06,1.19,6.28,1.19,10.07,0,18.25-8.18,18.25-18.25,0-1.89-.37-3.66-.91-5.38,4.26-7.42,5.97-13.69,5.97-13.69,0,0,46.43-2.52,70.44-1.84,3.32,3.47,7.97,5.66,13.16,5.66,5.67,0,10.65-2.63,14-6.69,1.36.33,2.75.53,4.22.53,9.03,0,16.48-6.58,17.94-15.19.11,0,.21.03.31.03,10.07,0,18.22-8.18,18.22-18.25,0-.84-.11-1.66-.22-2.47,8.28-1.73,14.5-9.06,14.5-17.84,0-3.15-.88-6.07-2.28-8.66,2.65-3.17,4.31-7.2,4.31-11.66,0-9.56-7.39-17.32-16.75-18.09-1.82-8.15-9.08-14.22-17.78-14.22-4.51,0-8.6,1.67-11.78,4.38-2.23-.98-4.69-1.53-7.28-1.53-10.07,0-18.25,8.18-18.25,18.25v.13c-8.55.4-15.55,6.63-17.06,14.84-2.29-2.99-5.47-5.19-9.16-6.31-1.25-8.85-8.77-15.69-17.97-15.69-.47,0-.91.09-1.37.12-2.72-6.64-9.25-11.34-16.88-11.34-2.6,0-5.04.58-7.28,1.56-3.34-4.06-8.36-6.72-14.03-6.72Z"/>
      </g>
      <g id="Layer-28">
        <path class="cls-13" d="M116.8,212.18c-2.89,0-5.22,2.33-5.22,5.22s2.33,5.22,5.22,5.22c2.89,0,5.22-2.33,5.22-5.22s-2.33-5.22-5.22-5.22ZM145.24,212.4c-2.38.49-4.22,2.48-4.22,5,0,2.89,2.36,5.22,5.25,5.22,2.89,0,5.22-2.33,5.22-5.22,0-.68-.14-1.31-.37-1.91-1.72-1.39-3.72-2.4-5.87-3.09ZM90.55,213.4c-3.3.62-6.15,2.3-8.28,4.72.36,2.53,2.43,4.5,5.06,4.5,2.89,0,5.22-2.33,5.22-5.22,0-1.65-.81-3.04-2-4ZM260.89,213.77c-.18,0-.35.06-.53.06-.89.94-1.47,2.17-1.47,3.56,0,2.89,2.33,5.22,5.22,5.22,2.89,0,5.22-2.33,5.22-5.22,0-.6-.16-1.15-.34-1.69-2.44-1.22-5.17-1.94-8.09-1.94ZM239.77,216.83c-3.45.39-6.57,1.71-9.16,3.75.95,1.22,2.36,2.03,4.03,2.03,2.89,0,5.25-2.33,5.25-5.22,0-.2-.1-.37-.12-.56ZM170.99,219.58c.6,1.31,1.74,2.26,3.12,2.72-.97-1-1.95-1.96-3.12-2.72ZM73.08,231.65c-2.89,0-5.22,2.36-5.22,5.25,0,2.89,2.33,5.22,5.22,5.22,2.89,0,5.22-2.33,5.22-5.22s-2.33-5.25-5.22-5.25ZM102.55,231.65c-2.89,0-5.25,2.36-5.25,5.25s2.36,5.22,5.25,5.22c2.89,0,5.22-2.33,5.22-5.22s-2.33-5.25-5.22-5.25ZM132.02,231.65c-2.89,0-5.25,2.36-5.25,5.25,0,2.89,2.36,5.22,5.25,5.22,2.89,0,5.22-2.33,5.22-5.22s-2.33-5.25-5.22-5.25ZM161.46,231.65c-2.89,0-5.22,2.36-5.22,5.25s2.33,5.22,5.22,5.22c2.89,0,5.25-2.33,5.25-5.22s-2.36-5.25-5.25-5.25ZM249.86,231.65c-2.89,0-5.22,2.36-5.22,5.25,0,2.89,2.33,5.22,5.22,5.22,2.89,0,5.22-2.33,5.22-5.22s-2.33-5.25-5.22-5.25ZM279.33,231.65c-2.89,0-5.22,2.36-5.22,5.25s2.33,5.22,5.22,5.22c2.89,0,5.22-2.33,5.22-5.22s-2.33-5.25-5.22-5.25ZM190.52,231.74c-2.69.22-4.81,2.41-4.81,5.16,0,2.89,2.33,5.22,5.22,5.22,2.31,0,4.24-1.49,4.94-3.56-1.22-2.69-3.05-5.01-5.34-6.81ZM223.77,232.99c-.06.62-.19,1.23-.19,1.87v.13c-3.02.14-5.82,1.07-8.28,2.5.3,2.59,2.41,4.62,5.09,4.62,2.89,0,5.22-2.33,5.22-5.22,0-1.58-.74-2.94-1.84-3.91ZM48.61,235.8c-3.15,1.01-5.92,2.81-8.06,5.22.87.65,1.89,1.09,3.06,1.09,2.89,0,5.22-2.33,5.22-5.22,0-.39-.14-.73-.22-1.09ZM57.86,251.15c-2.89,0-5.22,2.33-5.22,5.22s2.33,5.22,5.22,5.22,5.22-2.33,5.22-5.22-2.33-5.22-5.22-5.22ZM87.33,251.15c-2.89,0-5.22,2.33-5.22,5.22s2.33,5.22,5.22,5.22,5.22-2.33,5.22-5.22-2.33-5.22-5.22-5.22ZM116.8,251.15c-2.89,0-5.22,2.33-5.22,5.22s2.33,5.22,5.22,5.22,5.22-2.33,5.22-5.22-2.33-5.22-5.22-5.22ZM146.27,251.15c-2.89,0-5.25,2.33-5.25,5.22,0,2.89,2.36,5.22,5.25,5.22s5.22-2.33,5.22-5.22-2.33-5.22-5.22-5.22ZM175.74,251.15c-2.89,0-5.25,2.33-5.25,5.22s2.36,5.22,5.25,5.22,5.22-2.33,5.22-5.22-2.33-5.22-5.22-5.22ZM205.18,251.15c-2.89,0-5.22,2.33-5.22,5.22s2.33,5.22,5.22,5.22,5.25-2.33,5.25-5.22-2.36-5.22-5.25-5.22ZM234.64,251.15c-2.89,0-5.22,2.33-5.22,5.22s2.33,5.22,5.22,5.22,5.25-2.33,5.25-5.22c0-2.89-2.36-5.22-5.25-5.22ZM264.11,251.15c-2.89,0-5.22,2.33-5.22,5.22,0,2.89,2.33,5.22,5.22,5.22s5.22-2.33,5.22-5.22-2.33-5.22-5.22-5.22ZM293.58,251.15c-2.89,0-5.22,2.33-5.22,5.22,0,2.53,1.83,4.55,4.22,5.03-.38-1.27-.85-2.51-1.47-3.66,1.55-1.85,2.7-4.02,3.44-6.38-.33-.06-.62-.22-.97-.22ZM33.24,254.55c-3.1,1.29-5.73,3.42-7.69,6.09.83.55,1.77.94,2.84.94,2.89,0,5.22-2.33,5.22-5.22,0-.64-.16-1.24-.38-1.81ZM43.61,270.62c-2.89,0-5.22,2.33-5.22,5.22s2.33,5.25,5.22,5.25,5.22-2.36,5.22-5.25-2.33-5.22-5.22-5.22ZM73.08,270.62c-2.89,0-5.22,2.33-5.22,5.22,0,2.89,2.33,5.25,5.22,5.25s5.22-2.36,5.22-5.25-2.33-5.22-5.22-5.22ZM102.55,270.62c-2.89,0-5.25,2.33-5.25,5.22s2.36,5.25,5.25,5.25,5.22-2.36,5.22-5.25-2.33-5.22-5.22-5.22ZM132.02,270.62c-2.89,0-5.25,2.33-5.25,5.22,0,2.89,2.36,5.25,5.25,5.25s5.22-2.36,5.22-5.25-2.33-5.22-5.22-5.22ZM161.46,270.62c-2.89,0-5.22,2.33-5.22,5.22s2.33,5.25,5.22,5.25,5.25-2.36,5.25-5.25-2.36-5.22-5.25-5.22ZM190.93,270.62c-2.89,0-5.22,2.33-5.22,5.22s2.33,5.25,5.22,5.25,5.25-2.36,5.25-5.25-2.36-5.22-5.25-5.22ZM220.39,270.62c-2.89,0-5.22,2.33-5.22,5.22s2.33,5.25,5.22,5.25,5.22-2.36,5.22-5.25-2.33-5.22-5.22-5.22ZM249.86,270.62c-2.89,0-5.22,2.33-5.22,5.22,0,2.89,2.33,5.25,5.22,5.25s5.22-2.36,5.22-5.25-2.33-5.22-5.22-5.22ZM279.33,270.62c-2.89,0-5.22,2.33-5.22,5.22s2.33,5.25,5.22,5.25,5.22-2.36,5.22-5.25-2.33-5.22-5.22-5.22ZM28.4,290.12c-2.89,0-5.22,2.33-5.22,5.22,0,2.89,2.33,5.22,5.22,5.22s5.22-2.33,5.22-5.22-2.33-5.22-5.22-5.22ZM57.86,290.12c-2.89,0-5.22,2.33-5.22,5.22s2.33,5.22,5.22,5.22,5.22-2.33,5.22-5.22-2.33-5.22-5.22-5.22ZM87.33,290.12c-2.89,0-5.22,2.33-5.22,5.22s2.33,5.22,5.22,5.22,5.22-2.33,5.22-5.22-2.33-5.22-5.22-5.22ZM116.8,290.12c-2.89,0-5.22,2.33-5.22,5.22s2.33,5.22,5.22,5.22,5.22-2.33,5.22-5.22-2.33-5.22-5.22-5.22ZM146.27,290.12c-2.89,0-5.25,2.33-5.25,5.22,0,2.89,2.36,5.22,5.25,5.22s5.22-2.33,5.22-5.22-2.33-5.22-5.22-5.22ZM175.74,290.12c-2.89,0-5.25,2.33-5.25,5.22s2.36,5.22,5.25,5.22,5.22-2.33,5.22-5.22-2.33-5.22-5.22-5.22ZM205.18,290.12c-2.89,0-5.22,2.33-5.22,5.22s2.33,5.22,5.22,5.22,5.25-2.33,5.25-5.22-2.36-5.22-5.25-5.22ZM234.64,290.12c-2.89,0-5.22,2.33-5.22,5.22s2.33,5.22,5.22,5.22,5.25-2.33,5.25-5.22c0-2.89-2.36-5.22-5.25-5.22ZM264.11,290.12c-2.89,0-5.22,2.33-5.22,5.22,0,2.89,2.33,5.22,5.22,5.22s5.22-2.33,5.22-5.22-2.33-5.22-5.22-5.22ZM43.61,309.58c-2.89,0-5.22,2.33-5.22,5.22s2.33,5.25,5.22,5.25,5.22-2.36,5.22-5.25-2.33-5.22-5.22-5.22ZM73.08,309.58c-2.89,0-5.22,2.33-5.22,5.22,0,2.89,2.33,5.25,5.22,5.25s5.22-2.36,5.22-5.25-2.33-5.22-5.22-5.22ZM102.55,309.58c-2.89,0-5.25,2.33-5.25,5.22s2.36,5.25,5.25,5.25,5.22-2.36,5.22-5.25-2.33-5.22-5.22-5.22ZM132.02,309.58c-2.89,0-5.25,2.33-5.25,5.22,0,2.89,2.36,5.25,5.25,5.25s5.22-2.36,5.22-5.25-2.33-5.22-5.22-5.22ZM161.46,309.58c-2.89,0-5.22,2.33-5.22,5.22s2.33,5.25,5.22,5.25,5.25-2.36,5.25-5.25-2.36-5.22-5.25-5.22ZM190.93,309.58c-2.89,0-5.22,2.33-5.22,5.22s2.33,5.25,5.22,5.25,5.25-2.36,5.25-5.25-2.36-5.22-5.25-5.22ZM220.39,309.58c-2.89,0-5.22,2.33-5.22,5.22s2.33,5.25,5.22,5.25,5.22-2.36,5.22-5.25-2.33-5.22-5.22-5.22ZM249.86,309.58c-2.89,0-5.22,2.33-5.22,5.22,0,2,1.16,3.71,2.81,4.59,2.87-.79,5.45-2.24,7.56-4.22,0-.13.06-.24.06-.38,0-2.89-2.33-5.22-5.22-5.22ZM28.4,329.08c-.11,0-.2.06-.31.06,1.51,1.68,3.27,3.1,5.31,4.12-.49-2.37-2.48-4.19-5-4.19ZM57.86,329.08c-2.89,0-5.22,2.33-5.22,5.22s2.33,5.22,5.22,5.22,5.22-2.33,5.22-5.22-2.33-5.22-5.22-5.22ZM87.33,329.08c-2.89,0-5.22,2.33-5.22,5.22s2.33,5.22,5.22,5.22,5.22-2.33,5.22-5.22-2.33-5.22-5.22-5.22ZM116.8,329.08c-2.89,0-5.22,2.33-5.22,5.22s2.33,5.22,5.22,5.22,5.22-2.33,5.22-5.22-2.33-5.22-5.22-5.22ZM43.61,348.55c-1.95,0-3.57,1.11-4.47,2.69,2.44,2.45,5.55,4.19,9.06,4.94.37-.72.62-1.54.62-2.41,0-2.89-2.33-5.22-5.22-5.22ZM73.08,348.55c-2.89,0-5.22,2.33-5.22,5.22,0,2.89,2.33,5.25,5.22,5.25s5.22-2.36,5.22-5.25-2.33-5.22-5.22-5.22ZM102.55,348.55c-2.89,0-5.25,2.33-5.25,5.22s2.36,5.25,5.25,5.25,5.22-2.36,5.22-5.25-2.33-5.22-5.22-5.22ZM132.02,348.55c-2.89,0-5.25,2.33-5.25,5.22,0,1.07.42,2.01.97,2.84,2.77-1.88,4.98-4.52,6.37-7.59-.64-.28-1.35-.47-2.09-.47Z"/>
      </g>
      <path class="cls-5" d="M118.73,310.79s-2.37-3.23-7.48-3.38c-7.38-.21-11.13,4.54-11.13,4.54,0,0,2.58-7.74,1.64-12.42-2.27-11.39-15.44-10.13-15.44-10.13,0,0,9.01-4.3,9.17-11.37.17-7.6-8.58-12.24-8.58-12.24"/>
      <path class="cls-5" d="M173.04,248.06s9.66,6.91,9.66,15.68c0,7.32-5.63,13.01-5.63,13.01"/>
      <g id="Layer-9">
        <path class="cls-5" d="M108.2,400.55s22.54-4.64,37.42-6.28c14.88-1.63,49.33-3.14,49.33-3.14"/>
      </g>
      <path class="cls-12" d="M228.27,268.23c4.27,0,7.74,3.67,7.74,8.22l-8.36,50.22c0,4.55-3.47,8.26-7.74,8.26h-.05l-106.38.58c-1.86,0-3.41-1.55-3.41-3.41v-2.4c0-1.86,1.55-3.36,3.41-3.36l14.17-.58,8.17-49.3c0-4.55,3.47-8.22,7.74-8.22h84.72Z"/>
      <path class="cls-9" d="M192.05,301.87c0-2.58-2.09-4.67-4.67-4.67s-4.67,2.09-4.67,4.67,2.09,4.67,4.67,4.67,4.67-2.09,4.67-4.67Z"/>
      <path class="cls-9" d="M218.36,325.48h-49.32"/>
      <path class="cls-9" d="M228.27,268.23c4.27,0,7.74,3.67,7.74,8.22l-8.36,50.22c0,4.55-3.47,8.26-7.74,8.26h-.05l-106.38.58c-1.86,0-3.41-1.55-3.41-3.41v-2.4c0-1.86,1.55-3.36,3.41-3.36l14.17-.58,8.17-49.3c0-4.55,3.47-8.22,7.74-8.22h84.72Z"/>
      <g id="Layer-11">
        <path class="cls-5" d="M107.13,329.69s15.82-22.54,24.81-24.01c3.82-.62,5.45,2.82.64,11.4-2.67,4.77-8.25,10.5-4.77,12.13,5.02,2.35,27.97-15.95,30.96-13.1,4.92,4.72-16.2,19.69-16.2,19.69,0,0,7.89-3.53,12.69-6.6,5.2-3.33,4.74-3.44,6.58-4.25,3.62-1.6,8.16,4.11-3.24,11.58-11.39,7.47-14.59,7.01-14.59,7.01,0,0,4.5-.78,10.44-4.39,7.56-4.6,9.32-6.97,9.32-6.97,0,0,4.61,7.34-8.3,15.22-23.13,14.13-44.32,3.42-44.32,3.42"/>
      </g>
      <path class="cls-5" d="M258.94,226.19s.33-10.76,4.08-22.4c3.82-11.86,9.83-24.39,14.46-23.3,4.41,1.04-4.01,19.88-3.89,20.64.17,1.16,5.81-8.88,8.82-13.93,4.53-7.62,7.85-10.57,10.22-7.37,2.37,3.2-8.89,24.56-8.89,24.56,0,0,8.06-10.02,15.12-6.48,7.04,3.53,9.29,8.26,6.18,10.8-3.45,2.81-7.33-2.99-10.44-1.39-3.11,1.6-10.43,11.35-6.84,13.5,1.8,1.08,4.05,1.27,7.97-.07,2.74-.94,5.22-2.65,7.01-1.67,3.59,1.97,1.31,8.13-5.65,11.78-9.73,5.1-20.8,3.93-20.8,3.93"/>
      <path class="cls-5" d="M105.83,449.06c-20.24,1.34-66.86,4.53-68.19-1.47-1.76-7.91,38.46-40.15,49.27-39.16,1.01.09,2.01.18,2.98.26"/>
      <path class="cls-5" d="M70.91,415.11c-16.94-4.48-32.56-9.54-32.29-13.14.31-4.28,13.84-11.7,28-17.14"/>
      <path class="cls-2" d="M82.06,440.52l-6.77,14.13"/>
      <path class="cls-2" d="M77.41,440.62l-6.77,14.13"/>
    </g>
  </g>
</svg>