<?xml version="1.0" encoding="UTF-8"?>
<svg xmlns="http://www.w3.org/2000/svg" version="1.1" viewBox="0 0 1151.4 343.7">
  <defs>
    <style>
      .cls-1 {
        fill: #27282d;
      }

      .cls-2 {
        fill: #fff;
      }

      .cls-3 {
        fill: #e62450;
      }
    </style>
  </defs>
  <!-- Generator: Adobe Illustrator 28.6.0, SVG Export Plug-In . SVG Version: 1.2.0 Build 709)  -->
  <g>
    <g id="Capa_1">
      <g>
        <path class="cls-1" d="M370.1,30.7h106.6c16.8,0,31.1,5.9,43.2,18,12,12,18,26.4,18,43.3s-5.9,31.2-18,43.2c-11.9,12-26.2,18-43.2,18h-57.1c0-8.1,2.9-15.1,8.5-20.7,5.6-5.7,12.6-8.6,20.7-8.6h27.8c8.8,0,16.2-3,22.5-9.3,6.2-6.2,9.4-13.8,9.4-22.6s-3.2-16.4-9.4-22.6c-6.2-6.2-13.6-9.4-22.5-9.4h-77.4v150c0,8-2.9,14.9-8.7,20.7-5.6,5.6-12.6,8.6-20.6,8.6V30.7h.2Z"/>
        <path class="cls-1" d="M679.8,230.7c-2.2-2.2-3.9-4.6-5.2-7.4-12.9,10.6-27.7,15.9-44.5,15.9s-36.2-6.8-50-20.6-20.6-30.4-20.6-50v-70.4c8.1,0,15.1,2.9,20.7,8.6,5.7,5.7,8.5,12.6,8.5,20.7v41.1c0,11.7,4.1,21.4,12.2,29.4,8.3,8,18.3,11.9,30.1,11.9h.4c11.5-.7,20.9-5.2,28.4-13.3s11.3-17.7,11.3-28.8v-40.3c0-8.1,2.9-15.1,8.5-20.7s12.6-8.6,20.7-8.6v141c-8.1,0-15.1-2.9-20.7-8.6h.2Z"/>
        <path class="cls-1" d="M842.5,230.7c-5.7-5.6-8.5-12.6-8.5-20.6v-41.3c0-11.6-4.1-21.3-12.3-29.3s-18.3-11.9-30-11.9h-.4c-11.5.7-21,5.1-28.5,13.2s-11.3,17.8-11.3,29v40.3c0,8-2.9,14.9-8.5,20.6-5.7,5.6-12.6,8.6-20.6,8.6V98.4c8,0,14.9,2.9,20.6,8.6,2.2,2.2,3.9,4.5,5.4,7.2,12.8-10.6,27.5-15.8,44.5-15.8s35.9,6.9,49.7,20.7c13.8,13.8,20.7,30.3,20.7,49.7v70.4c-8,0-14.9-2.9-20.6-8.6h-.2Z"/>
        <path class="cls-1" d="M966.4,239.2c-15.9,0-30-4.6-42.3-14.1-18.8-14.6-28.2-33.3-28.2-56.4v-52.3h-29.8c0-3.6.9-7.1,2.8-10.3,5.1-8.8,14-14.8,27.1-17.8V27.7c8.1,0,15.1,2.9,20.7,8.7,5.7,5.7,8.5,12.6,8.5,20.6v30.3h76.2c0,8.1-4.1,15.1-12.2,20.7-8,5.7-17.8,8.6-29.3,8.6h-34.8v50.4c0,11.4,4.1,21.1,12,29.1,8.1,8,17.8,12,29.3,12h1.9c15.1,0,25.6,7.5,31.7,22.5.9,2.8,1.3,5.6,1.3,8.7h-34.9Z"/>
        <path class="cls-1" d="M1026.2,218.6c-13.8-13.8-20.6-30.4-20.6-49.8s6.8-36.1,20.6-49.8c13.8-13.8,30.4-20.6,50-20.6s35.9,6.8,49.7,20.6c13.8,13.8,20.7,30.3,20.7,49.8s-6.9,36.1-20.7,49.8c-13.8,13.8-30.3,20.6-49.7,20.6s-36.2-6.8-50-20.6ZM1105.2,197.9c8.1-8,12.2-17.7,12.2-29.1s-4.1-21.1-12.2-29.1c-8-8.1-17.7-12.2-29-12.2s-21.2,4.1-29.3,12.2c-8,8-12,17.7-12,29.1s4.1,21.1,12,29.1c8.1,8,17.8,12,29.3,12s21-4.1,29-12Z"/>
      </g>
      <rect class="cls-3" width="343.7" height="343.7" rx="34.9" ry="34.9"/>
      <g>
        <path class="cls-2" d="M48.9,83.5c0-10.2,3.7-19.1,11-26.4,7.4-7.2,16.3-11,26.6-11v12.6c0,10.2-3.7,19.1-11,26.4s-16.2,11-26.6,11v-12.6ZM48.9,154.3c0-10.2,3.7-19.1,11-26.4,7.4-7.2,16.3-11,26.6-11v143c0,10.4-3.7,19.3-11,26.6-7.2,7.2-16.2,11-26.6,11v-143.2h0Z"/>
        <path class="cls-2" d="M261.6,277.3c-2.8-5.2-4.1-11-4.1-17.1v-52.9c0-14.7-5.2-27.1-15.6-37.3-10.2-10.4-22.7-15.6-37.3-15.6s-27.1,5.2-37.3,15.6c-10.2,10.2-15.4,22.7-15.4,37.3s5.2,27.1,15.4,37.5c10.2,10.2,22.7,15.4,37.3,15.4h15.4c15.4,0,26.8,7.4,34.4,22.5,2,4.6,3.2,9.5,3.2,14.9h-52.9c-30.1,0-54.4-12.5-73.2-37.3-11.3-15.6-17.1-33.2-17.1-52.9s8.7-46.3,26.4-63.9c17.6-17.7,39-26.4,63.9-26.4h4.6c3.2.2,6.5.6,9.7,1.1,4.3.6,7.6,1.3,10.4,2.2,3.5.9,6.7,2,9.7,3.3,6.5,2.8,12.4,6.1,18,10l.6.4c3.9,2.8,7.4,5.9,11,9.3,17.6,17.6,26.4,38.8,26.4,63.9v90.3c-14.5,0-25.6-6.7-33.2-20.2h-.3Z"/>
      </g>
      <g>
        <path class="cls-1" d="M411.5,308.9c0,4.6-1.8,8.1-5.4,10.6s-8.6,3.8-15.1,3.8c-12.1,0-19.1-4.2-21-12.6l6.5-1.3c.8,3,2.3,5.2,4.8,6.6,2.4,1.4,5.8,2.1,10,2.1s7.7-.7,10-2.2,3.5-3.7,3.5-6.6-.4-2.9-1.1-3.9-1.8-1.8-3.1-2.5-2.9-1.2-4.8-1.6c-1.9-.5-3.9-.9-6.1-1.4-2.6-.6-4.8-1.2-6.5-1.7-1.8-.6-3.2-1.1-4.3-1.8s-2.1-1.3-2.9-2c-1.2-1.1-2.1-2.3-2.7-3.8-.6-1.4-.9-3.1-.9-4.9,0-4.2,1.6-7.5,4.9-9.8s7.9-3.5,13.9-3.5,9.9.9,12.9,2.6,5.1,4.7,6.3,8.8l-6.6,1.2c-.7-2.6-2.1-4.5-4.1-5.7s-4.9-1.8-8.5-1.8-7,.7-9.1,2-3.1,3.3-3.1,5.9.4,2.8,1.2,3.8,2,1.8,3.5,2.5c1.4.7,4.5,1.5,9.1,2.6,1.9.5,3.8.9,5.6,1.4s3.6,1.1,5.2,1.8c1,.4,1.9.9,2.8,1.5s1.6,1.2,2.3,2c.9,1,1.6,2.1,2.1,3.5s.8,2.9.8,4.7h0v-.3Z"/>
        <path class="cls-1" d="M451.8,303.5c0,6.7-1.5,11.6-4.4,14.9s-7.2,4.9-12.8,4.9-9.8-1.7-12.6-5.1c-2.8-3.4-4.2-8.3-4.2-14.7s1.4-11.5,4.3-14.8,7.1-4.9,12.8-4.9,10.1,1.6,12.8,4.8,4.1,8.2,4.1,14.9h0ZM445.2,303.5c0-5.2-.8-9.1-2.3-11.4s-4.2-3.6-7.9-3.6-6.4,1.2-8,3.6-2.5,6.2-2.5,11.4.8,8.8,2.4,11.3,4.2,3.8,7.7,3.8,6.5-1.2,8.1-3.7,2.4-6.2,2.4-11.4h0Z"/>
        <path class="cls-1" d="M466,270.4v52.2h-6.3v-52.2h6.3Z"/>
        <path class="cls-1" d="M499.8,316.1c-1.5,2.6-3.1,4.5-5,5.6s-4.3,1.6-7.1,1.6c-4.2,0-7.2-1-9.2-3.1s-2.9-5.5-2.9-10.3v-25.4h6.4v24.1c0,3.8.6,6.4,1.8,7.7,1.2,1.4,3.2,2,6.1,2s5.5-1,7.2-3.1,2.6-5,2.6-8.7v-22h6.3v35.2c0,1.3,0,2.3.2,2.8h-6c0-.1,0-.7-.1-1.6,0-1-.1-2.6-.2-4.9h-.1,0Z"/>
        <path class="cls-1" d="M530.3,323.3c-5.3,0-9.4-1.7-12.2-5-2.8-3.4-4.2-8.3-4.2-14.7s1.4-11.3,4.2-14.6,6.8-5,12.1-5,7.1,1,9.7,3,4.2,4.8,4.8,8.3l-6.5.5c-.3-2.1-1.2-3.8-2.5-5s-3.2-1.9-5.7-1.9-5.8,1.1-7.3,3.3-2.2,6-2.2,11.2.8,8.8,2.4,11.2,4,3.7,7.2,3.7,4.1-.6,5.6-1.8,2.4-3.1,2.8-5.6l6.4.4c-.3,2.4-1.1,4.6-2.4,6.4s-3,3.2-5.1,4.2-4.5,1.5-7.2,1.5h.1Z"/>
        <path class="cls-1" d="M558,270.4v6h-6.3v-6h6.3ZM558,284.5v38h-6.3v-38h6.3Z"/>
        <path class="cls-1" d="M599.9,303.5c0,6.7-1.5,11.6-4.4,14.9s-7.2,4.9-12.8,4.9-9.8-1.7-12.6-5.1-4.2-8.3-4.2-14.7,1.4-11.5,4.3-14.8,7.1-4.9,12.8-4.9,10.1,1.6,12.8,4.8,4.1,8.2,4.1,14.9h0ZM593.3,303.5c0-5.2-.8-9.1-2.3-11.4s-4.2-3.6-7.9-3.6-6.4,1.2-8,3.6-2.5,6.2-2.5,11.4.8,8.8,2.4,11.3,4.2,3.8,7.7,3.8,6.5-1.2,8.1-3.7,2.4-6.2,2.4-11.4h0Z"/>
        <path class="cls-1" d="M614.2,300.5v22h-6.3v-35.3c0-1.4,0-2.3-.2-2.8h6c0,.5,0,1,0,1.7s0,1.4,0,2.2v2.6h0c1.5-2.6,3.1-4.5,5-5.6s4.3-1.6,7.1-1.6c4.2,0,7.2,1.1,9.2,3.2s2.9,5.5,2.9,10.2v25.4h-6.4v-24.1c0-3.6-.6-6.2-1.8-7.6s-3.2-2.1-6.1-2.1-5.5,1-7.2,3.1-2.6,5-2.6,8.7h.2Z"/>
        <path class="cls-1" d="M652.7,304.9c0,4.4.9,7.7,2.7,10.1s4.4,3.5,7.9,3.5,4.9-.5,6.6-1.6,2.8-2.5,3.4-4.2l5.5,1.6c-2.3,6-7.4,9-15.5,9s-9.9-1.7-12.8-5-4.4-8.3-4.4-14.9,1.5-11.1,4.4-14.5,7.1-5,12.6-5,9.8,1.7,12.6,5.1,4.2,8.4,4.2,15.1v.8h-27.2ZM673.3,300c-.3-4-1.4-6.9-3.1-8.8s-4.1-2.8-7.3-2.8-5.5,1-7.3,3.1-2.8,4.9-2.9,8.5h20.6Z"/>
        <path class="cls-1" d="M716.4,312.1c0,3.6-1.3,6.4-4.1,8.3s-6.5,2.9-11.4,2.9-8.4-.8-11-2.3-4.2-4-5-7.3l5.6-1.1c.5,2,1.7,3.5,3.3,4.5s4,1.4,7,1.4,5.6-.5,7-1.5c1.5-1,2.2-2.5,2.2-4.4s-.5-2.7-1.5-3.7c-1-.9-2.7-1.7-5-2.3-2.7-.7-4.9-1.3-6.5-1.8s-2.8-.9-3.7-1.2-1.6-.7-2.1-1c-1.5-.9-2.8-2-3.6-3.3-.9-1.3-1.3-2.9-1.3-4.8,0-3.5,1.2-6.1,3.7-7.9s6.1-2.7,10.8-2.7,7.5.7,10,2.2,4,3.8,4.7,7.1l-5.7.7c-.3-1.7-1.3-3-2.8-3.9s-3.6-1.4-6.2-1.4-5,.4-6.3,1.3c-1.4.9-2,2.2-2,3.9s.4,2.4,1.2,3.2,2.2,1.5,4.4,2.1c2.9.7,5.7,1.5,8.4,2.3s4.5,1.7,5.7,2.5c1.3,1,2.3,2.1,3,3.4s1,2.9,1,4.7h.2Z"/>
        <path class="cls-1" d="M763,278.5v44h-6.7v-44h-17v-5.5h40.7v5.5h-17Z"/>
        <path class="cls-1" d="M783.4,304.9c0,4.4.9,7.7,2.7,10.1s4.4,3.5,7.9,3.5,4.9-.5,6.6-1.6,2.8-2.5,3.4-4.2l5.5,1.6c-2.3,6-7.4,9-15.5,9s-9.9-1.7-12.8-5-4.4-8.3-4.4-14.9,1.5-11.1,4.4-14.5,7.1-5,12.6-5,9.8,1.7,12.6,5.1,4.2,8.4,4.2,15.1v.8h-27.2ZM804,300c-.3-4-1.4-6.9-3.1-8.8s-4.1-2.8-7.3-2.8-5.5,1-7.3,3.1-2.8,4.9-2.9,8.5h20.6Z"/>
        <path class="cls-1" d="M833.2,323.3c-5.3,0-9.4-1.7-12.2-5-2.8-3.4-4.2-8.3-4.2-14.7s1.4-11.3,4.2-14.6,6.8-5,12.1-5,7.1,1,9.7,3,4.2,4.8,4.8,8.3l-6.5.5c-.3-2.1-1.2-3.8-2.5-5s-3.2-1.9-5.7-1.9-5.8,1.1-7.3,3.3-2.2,6-2.2,11.2.8,8.8,2.4,11.2,4,3.7,7.2,3.7,4.1-.6,5.6-1.8,2.4-3.1,2.8-5.6l6.4.4c-.3,2.4-1.1,4.6-2.4,6.4s-3,3.2-5.1,4.2-4.5,1.5-7.2,1.5h.1Z"/>
        <path class="cls-1" d="M861.1,300.5v22h-6.3v-35.3c0-1.4,0-2.3-.2-2.8h6c0,.5,0,1,0,1.7s0,1.4,0,2.2v2.6h0c1.5-2.6,3.1-4.5,5-5.6s4.3-1.6,7.1-1.6c4.2,0,7.2,1.1,9.2,3.2s2.9,5.5,2.9,10.2v25.4h-6.4v-24.1c0-3.6-.6-6.2-1.8-7.6s-3.2-2.1-6.1-2.1-5.5,1-7.2,3.1-2.6,5-2.6,8.7h.2Z"/>
        <path class="cls-1" d="M926.8,303.5c0,6.7-1.5,11.6-4.4,14.9s-7.2,4.9-12.8,4.9-9.8-1.7-12.6-5.1-4.2-8.3-4.2-14.7,1.4-11.5,4.3-14.8,7.1-4.9,12.8-4.9,10.1,1.6,12.8,4.8,4.1,8.2,4.1,14.9h0ZM920.2,303.5c0-5.2-.8-9.1-2.3-11.4s-4.2-3.6-7.9-3.6-6.4,1.2-8,3.6-2.5,6.2-2.5,11.4.8,8.8,2.4,11.3,4.2,3.8,7.7,3.8,6.5-1.2,8.1-3.7,2.4-6.2,2.4-11.4h0Z"/>
        <path class="cls-1" d="M941,270.4v52.2h-6.3v-52.2h6.3Z"/>
        <path class="cls-1" d="M982.9,303.5c0,6.7-1.5,11.6-4.4,14.9s-7.2,4.9-12.8,4.9-9.8-1.7-12.6-5.1-4.2-8.3-4.2-14.7,1.4-11.5,4.3-14.8,7.1-4.9,12.8-4.9,10.1,1.6,12.8,4.8,4.1,8.2,4.1,14.9h0ZM976.2,303.5c0-5.2-.8-9.1-2.3-11.4s-4.2-3.6-7.9-3.6-6.4,1.2-8,3.6-2.5,6.2-2.5,11.4.8,8.8,2.4,11.3,4.2,3.8,7.7,3.8,6.5-1.2,8.1-3.7,2.4-6.2,2.4-11.4h0ZM975.9,270.6l-11.6,9.8h-3.3v-.7l7.6-10.1h7.3v1h0Z"/>
        <path class="cls-1" d="M1005.2,337.5c-4.2,0-7.5-.8-9.9-2.4s-4-3.9-4.8-6.9l6.4-.9c.4,1.8,1.3,3.1,2.8,4.1s3.3,1.4,5.7,1.4,5.5-.9,7.1-2.8,2.4-4.6,2.4-8.3v-6.1h0c-1.2,2.4-2.8,4.3-4.9,5.5-2.1,1.2-4.5,1.9-7.3,1.9-4.7,0-8.1-1.5-10.3-4.6s-3.3-8-3.3-14.6,1.2-11.7,3.5-14.9,5.9-4.8,10.7-4.8,5,.6,7,1.9,3.5,3,4.6,5.3h0v-2.2c0-1,0-1.9.2-2.8s0-1.4.2-1.5h6c0,1.3-.2,3.9-.2,7.9v29.1c0,5.3-1.3,9.4-4,12-2.7,2.7-6.6,4-12,4h0v-.3ZM1014.8,303.6c0-4.6-.9-8.3-2.8-10.9s-4.3-4-7.2-4-5.6,1.2-7.1,3.5-2.2,6.1-2.2,11.4.7,8.9,2.1,11.2,3.8,3.4,7.1,3.4,5.4-1.3,7.3-3.9c1.9-2.6,2.8-6.2,2.8-10.7h0Z"/>
        <path class="cls-1" d="M1037.1,270.4v6h-6.3v-6h6.3ZM1037.1,284.5v38h-6.3v-38h6.3Z"/>
        <path class="cls-1" d="M1061.4,323.3c-5.3,0-9.4-1.7-12.2-5-2.8-3.4-4.2-8.3-4.2-14.7s1.4-11.3,4.2-14.6,6.8-5,12.1-5,7.1,1,9.7,3,4.2,4.8,4.8,8.3l-6.5.5c-.3-2.1-1.2-3.8-2.5-5s-3.2-1.9-5.7-1.9-5.8,1.1-7.3,3.3-2.2,6-2.2,11.2.8,8.8,2.4,11.2,4,3.7,7.2,3.7,4.1-.6,5.6-1.8,2.4-3.1,2.8-5.6l6.4.4c-.3,2.4-1.1,4.6-2.4,6.4s-3,3.2-5.1,4.2-4.5,1.5-7.2,1.5h0Z"/>
        <path class="cls-1" d="M1092.5,323.3c-3.8,0-6.7-1-8.6-3s-2.9-4.8-2.9-8.3,1.3-7,3.9-9.1,6.8-3.2,12.5-3.4h8.5v-2.2c0-3.1-.7-5.3-2-6.6-1.3-1.3-3.4-2-6.2-2s-4.9.5-6.2,1.4c-1.3,1-2.1,2.5-2.3,4.6l-6.6-.6c1.1-6.8,6.2-10.3,15.3-10.3s8.4,1.1,10.8,3.3,3.6,5.4,3.6,9.5v16.4c0,1.9.2,3.3.7,4.2s1.4,1.4,2.8,1.4,1.3,0,2.1-.2v3.9c-.8.2-1.6.3-2.4.4-.8,0-1.6.1-2.5.1-2.3,0-4.1-.6-5.1-1.9s-1.7-3.2-1.8-5.8h-.2c-1.6,2.9-3.5,5-5.6,6.2s-4.8,1.8-7.8,1.8h0v.2ZM1105.9,303.8h-6.9c-2.9.2-5.2.5-6.8,1.1-1.6.6-2.7,1.4-3.6,2.6-.8,1.2-1.2,2.7-1.2,4.6s.6,3.7,1.7,4.8,2.7,1.7,4.8,1.7,4.4-.5,6.2-1.6c1.8-1,3.2-2.5,4.3-4.3s1.6-3.7,1.6-5.7v-3.1h0Z"/>
        <path class="cls-1" d="M1151.4,312.1c0,3.6-1.3,6.4-4.1,8.3s-6.5,2.9-11.4,2.9-8.4-.8-10.9-2.3-4.2-4-5-7.3l5.6-1.1c.5,2,1.7,3.5,3.3,4.5s4,1.4,7,1.4,5.6-.5,7.1-1.5,2.2-2.5,2.2-4.4-.5-2.7-1.6-3.7-2.7-1.7-5-2.3c-2.7-.7-4.9-1.3-6.5-1.8s-2.8-.9-3.7-1.2-1.6-.7-2.1-1c-1.6-.9-2.8-2-3.6-3.3-.9-1.3-1.3-2.9-1.3-4.8,0-3.5,1.2-6.1,3.7-7.9s6.1-2.7,10.8-2.7,7.5.7,10,2.2,4,3.8,4.7,7.1l-5.7.7c-.3-1.7-1.3-3-2.8-3.9s-3.6-1.4-6.2-1.4-5,.4-6.3,1.3-2,2.2-2,3.9.4,2.4,1.2,3.2,2.2,1.5,4.4,2.1c2.9.7,5.7,1.5,8.4,2.3s4.6,1.7,5.7,2.5c1.3,1,2.3,2.1,3,3.4s1,2.9,1,4.7h.1Z"/>
      </g>
    </g>
  </g>
</svg>