<?xml version="1.0" encoding="utf-8"?>
<!-- Generator: Adobe Illustrator 28.1.0, SVG Export Plug-In . SVG Version: 6.00 Build 0)  -->
<svg version="1.1" id="Capa_1" xmlns="http://www.w3.org/2000/svg" xmlns:xlink="http://www.w3.org/1999/xlink" x="0px" y="0px"
	 viewBox="0 0 1135.27 387.69" style="enable-background:new 0 0 1135.27 387.69;" xml:space="preserve">
<style type="text/css">
	.st0{fill:#E62450;}
	.st1{fill:#FFFFFF;}
</style>
<path class="st0" d="M1094.78,367.32H474.59c-9.34,0-16.92-7.57-16.92-16.92v-48.73c0-9.34,7.57-16.92,16.92-16.92h620.19
	c9.34,0,16.92,7.57,16.92,16.92v48.73C1111.7,359.75,1104.12,367.32,1094.78,367.32z"/>
<g>
	<path d="M325.05,45.83h106.64c16.81,0,31.15,5.94,43.18,17.97s17.97,26.37,17.97,43.32c0,16.81-5.94,31.15-17.97,43.18
		c-11.88,12.03-26.22,17.97-43.18,17.97H374.6c0-8.11,2.9-15.07,8.55-20.72c5.65-5.65,12.6-8.55,20.72-8.55h27.82
		c8.84,0,16.23-3.04,22.46-9.27c6.23-6.23,9.42-13.76,9.42-22.6c0-8.84-3.19-16.37-9.42-22.6c-6.23-6.23-13.62-9.42-22.46-9.42
		h-77.37v149.96c0,7.97-2.9,14.92-8.69,20.72c-5.65,5.65-12.6,8.55-20.57,8.55V45.83z"/>
	<path d="M634.8,245.77c-2.17-2.17-3.91-4.64-5.22-7.39c-12.9,10.58-27.67,15.94-44.48,15.94c-19.56,0-36.22-6.81-49.99-20.57
		c-13.76-13.76-20.57-30.43-20.57-49.99v-70.41c8.11,0,15.07,2.9,20.72,8.55c5.65,5.65,8.55,12.6,8.55,20.72v41.15
		c0,11.74,4.06,21.44,12.17,29.41c8.26,7.97,18.26,11.88,30.14,11.88h0.43c11.45-0.72,20.86-5.22,28.4-13.33
		c7.53-8.11,11.3-17.68,11.3-28.83v-40.28c0-8.11,2.9-15.07,8.55-20.72c5.65-5.65,12.6-8.55,20.72-8.55v140.97
		C647.41,254.31,640.45,251.42,634.8,245.77z"/>
	<path d="M797.5,245.77c-5.65-5.65-8.55-12.6-8.55-20.57V183.9c0-11.59-4.06-21.3-12.32-29.27c-8.26-7.97-18.26-11.88-29.99-11.88
		h-0.43c-11.45,0.72-21.01,5.07-28.54,13.18c-7.53,8.11-11.3,17.82-11.3,28.98v40.28c0,7.97-2.9,14.92-8.55,20.57
		c-5.65,5.65-12.6,8.55-20.57,8.55V113.49c7.97,0,14.92,2.9,20.57,8.55c2.17,2.17,3.91,4.49,5.36,7.24
		c12.75-10.58,27.53-15.79,44.48-15.79c19.42,0,35.93,6.95,49.7,20.72c13.76,13.76,20.72,30.28,20.72,49.7v70.41
		C810.11,254.31,803.15,251.42,797.5,245.77z"/>
	<path d="M921.38,254.31c-15.94,0-29.99-4.64-42.31-14.05c-18.84-14.63-28.25-33.32-28.25-56.36v-52.3h-29.85
		c0-3.62,0.87-7.1,2.75-10.29c5.07-8.84,14.05-14.78,27.09-17.82V42.78c8.11,0,15.07,2.9,20.72,8.69c5.65,5.65,8.55,12.6,8.55,20.57
		v30.28h76.21c0,8.11-4.06,15.07-12.17,20.72c-7.97,5.65-17.82,8.55-29.27,8.55h-34.77v50.42c0,11.45,4.06,21.15,12.03,29.12
		c8.11,7.97,17.82,12.02,29.27,12.02h1.88c15.07,0,25.64,7.53,31.73,22.46c0.87,2.75,1.3,5.65,1.3,8.69H921.38z"/>
	<path d="M981.21,233.74c-13.76-13.76-20.57-30.43-20.57-49.84c0-19.56,6.81-36.08,20.57-49.84c13.76-13.76,30.43-20.57,49.99-20.57
		c19.41,0,35.93,6.81,49.7,20.57c13.76,13.76,20.72,30.28,20.72,49.84c0,19.41-6.95,36.08-20.72,49.84
		c-13.76,13.76-30.28,20.57-49.7,20.57C1011.63,254.31,994.97,247.5,981.21,233.74z M1060.17,213.02
		c8.11-7.97,12.17-17.68,12.17-29.12c0-11.45-4.06-21.15-12.17-29.12c-7.97-8.11-17.68-12.17-28.98-12.17
		c-11.45,0-21.15,4.06-29.27,12.17c-7.97,7.97-12.03,17.68-12.03,29.12c0,11.45,4.06,21.15,12.03,29.12
		c8.11,7.97,17.82,12.03,29.27,12.03C1042.49,225.05,1052.2,220.99,1060.17,213.02z"/>
</g>
<g>
	<path d="M83.16,343.43c0,0.72-0.26,1.35-0.78,1.87c-0.52,0.52-1.14,0.78-1.86,0.78c-1.18,0-2.01-0.54-2.51-1.63l-4.54-10.98H47.23
		l-4.54,10.98c-0.36,1.09-1.18,1.63-2.44,1.63c-0.77,0-1.39-0.26-1.86-0.78c-0.47-0.52-0.71-1.14-0.71-1.87
		c0-0.45,0.07-0.83,0.2-1.15l19.93-47.32c0.5-1.22,1.36-1.83,2.58-1.83c1.22,0,2.06,0.61,2.51,1.83l20,47.39
		C83.07,342.67,83.16,343.03,83.16,343.43z M49.13,328.93h22.51l-11.25-27.19L49.13,328.93z"/>
	<path d="M116.17,311.06c2.85,1.6,5.08,3.84,6.71,6.71c1.63,2.87,2.44,6.14,2.44,9.8v13.83c0,3.62-0.8,6.89-2.41,9.83
		c-1.6,2.94-3.83,5.25-6.68,6.95c-2.85,1.69-6.06,2.54-9.63,2.54c-3.48,0-6.58-0.66-9.29-1.97c-2.71-1.31-4.99-3.14-6.85-5.49
		c-0.41-0.45-0.61-0.97-0.61-1.56c0-0.68,0.32-1.27,0.95-1.76c0.45-0.32,0.95-0.47,1.49-0.47c0.41,0,0.81,0.1,1.22,0.3
		c0.41,0.2,0.72,0.46,0.95,0.78c1.36,1.72,3.07,3.05,5.15,4c2.08,0.95,4.43,1.42,7.05,1.42c2.53,0,4.82-0.62,6.88-1.86
		c2.06-1.24,3.67-2.98,4.85-5.22c1.17-2.24,1.76-4.8,1.76-7.69v-3.05c-1.36,2.58-3.28,4.6-5.76,6.07c-2.49,1.47-5.31,2.2-8.47,2.2
		c-3.53,0-6.68-0.8-9.46-2.41c-2.78-1.6-4.95-3.84-6.51-6.71c-1.56-2.87-2.34-6.11-2.34-9.73c0-3.66,0.81-6.92,2.44-9.8
		c1.63-2.87,3.87-5.11,6.75-6.71c2.87-1.6,6.09-2.41,9.66-2.41C110.1,308.66,113.33,309.46,116.17,311.06z M113.53,339.88
		c2.08-1.2,3.71-2.87,4.88-5.02c1.17-2.15,1.76-4.58,1.76-7.29c0-2.71-0.59-5.14-1.76-7.29c-1.18-2.15-2.8-3.83-4.88-5.05
		c-2.08-1.22-4.43-1.83-7.05-1.83c-2.67,0-5.04,0.61-7.12,1.83c-2.08,1.22-3.71,2.9-4.88,5.05c-1.18,2.15-1.76,4.58-1.76,7.29
		c0,2.71,0.59,5.14,1.76,7.29c1.17,2.15,2.8,3.82,4.88,5.02c2.08,1.2,4.45,1.8,7.12,1.8C109.1,341.67,111.45,341.07,113.53,339.88z"
		/>
	<path d="M160.17,311c2.58,1.56,4.58,3.72,6,6.47c1.42,2.76,2.14,5.9,2.14,9.42c0,0.72-0.23,1.3-0.68,1.73
		c-0.45,0.43-1.04,0.64-1.76,0.64h-27.39c0.36,3.71,1.81,6.71,4.34,9.02c2.53,2.3,5.69,3.46,9.49,3.46c1.63,0,3.26-0.28,4.91-0.85
		c1.65-0.56,2.97-1.28,3.97-2.14c0.59-0.45,1.2-0.68,1.83-0.68c0.5,0,0.99,0.18,1.49,0.54c0.59,0.54,0.88,1.15,0.88,1.83
		c0,0.59-0.25,1.11-0.75,1.56c-1.49,1.27-3.39,2.32-5.69,3.15c-2.31,0.84-4.52,1.25-6.64,1.25c-3.62,0-6.85-0.8-9.69-2.41
		c-2.85-1.6-5.07-3.84-6.68-6.71c-1.6-2.87-2.41-6.11-2.41-9.73c0-3.66,0.76-6.92,2.27-9.8c1.51-2.87,3.62-5.11,6.3-6.71
		c2.69-1.6,5.75-2.41,9.19-2.41C154.63,308.66,157.59,309.44,160.17,311z M142.75,316.52c-2.26,2.12-3.64,4.93-4.14,8.41h24.81
		c-0.36-3.48-1.63-6.28-3.8-8.41c-2.17-2.12-4.95-3.19-8.34-3.19C147.85,313.34,145.01,314.4,142.75,316.52z"/>
	<path d="M203.32,310.62c2.55,1.36,4.55,3.33,6,5.93c1.45,2.6,2.17,5.71,2.17,9.32v17.63c0,0.72-0.25,1.33-0.75,1.83
		c-0.5,0.5-1.11,0.75-1.83,0.75c-0.77,0-1.4-0.25-1.9-0.75c-0.5-0.5-0.75-1.11-0.75-1.83v-17.63c0-4.02-1.12-7.09-3.36-9.19
		c-2.24-2.1-5.16-3.15-8.78-3.15c-2.22,0-4.21,0.43-6,1.29c-1.79,0.86-3.2,2.05-4.24,3.56c-1.04,1.51-1.56,3.2-1.56,5.05v20.07
		c0,0.77-0.24,1.39-0.71,1.86s-1.1,0.71-1.86,0.71c-0.77,0-1.4-0.24-1.9-0.71c-0.5-0.47-0.75-1.1-0.75-1.86v-31.86
		c0-0.77,0.25-1.4,0.75-1.9c0.5-0.5,1.13-0.75,1.9-0.75c0.77,0,1.39,0.25,1.86,0.75c0.47,0.5,0.71,1.13,0.71,1.9v2.3
		c1.49-1.67,3.3-2.98,5.42-3.93c2.12-0.95,4.43-1.42,6.91-1.42C197.88,308.59,200.77,309.27,203.32,310.62z"/>
	<path d="M230.06,343.94c-2.8-1.65-5.01-3.91-6.61-6.78c-1.6-2.87-2.41-6.07-2.41-9.59c0-3.62,0.77-6.86,2.31-9.73
		c1.54-2.87,3.66-5.12,6.37-6.74c2.71-1.63,5.76-2.44,9.15-2.44c5.65,0,10.24,2.17,13.76,6.51c0.36,0.41,0.54,0.88,0.54,1.42
		c0,0.72-0.38,1.36-1.15,1.9c-0.41,0.27-0.84,0.41-1.29,0.41c-0.68,0-1.33-0.34-1.97-1.02c-1.36-1.49-2.85-2.61-4.47-3.36
		c-1.63-0.74-3.43-1.12-5.42-1.12c-2.49,0-4.7,0.6-6.64,1.8c-1.94,1.2-3.45,2.88-4.51,5.05c-1.06,2.17-1.59,4.61-1.59,7.32
		c0,2.67,0.56,5.07,1.69,7.22c1.13,2.15,2.71,3.83,4.75,5.05c2.03,1.22,4.36,1.83,6.98,1.83c3.62,0,6.53-0.97,8.75-2.92
		c0.59-0.5,1.2-0.75,1.83-0.75c0.54,0,1.04,0.18,1.49,0.54c0.63,0.54,0.95,1.15,0.95,1.83c0,0.59-0.23,1.09-0.68,1.49
		c-3.25,3.03-7.37,4.54-12.34,4.54C236.03,346.42,232.86,345.59,230.06,343.94z"/>
	<path d="M264.47,300.86c-0.7-0.72-1.05-1.6-1.05-2.64c0-1.08,0.36-1.97,1.08-2.64c0.72-0.68,1.6-1.02,2.64-1.02
		c0.99,0,1.85,0.34,2.58,1.02c0.72,0.68,1.08,1.56,1.08,2.64c0,1.04-0.36,1.92-1.08,2.64c-0.72,0.72-1.6,1.08-2.64,1.08
		C266.04,301.95,265.17,301.59,264.47,300.86z M265.25,345.33c-0.5-0.5-0.75-1.13-0.75-1.9v-31.79c0-0.77,0.25-1.4,0.75-1.9
		c0.5-0.5,1.13-0.75,1.9-0.75c0.77,0,1.39,0.25,1.86,0.75c0.47,0.5,0.71,1.13,0.71,1.9v31.79c0,0.77-0.24,1.4-0.71,1.9
		c-0.47,0.5-1.1,0.75-1.86,0.75C266.38,346.08,265.74,345.83,265.25,345.33z"/>
	<path d="M309.48,311.13c2.87,1.65,5.13,3.92,6.78,6.81c1.65,2.89,2.47,6.1,2.47,9.63v15.93c0,0.72-0.25,1.33-0.75,1.83
		c-0.5,0.5-1.13,0.75-1.9,0.75c-0.77,0-1.4-0.24-1.9-0.71c-0.5-0.47-0.75-1.1-0.75-1.86v-4.07c-1.58,2.17-3.59,3.88-6.03,5.12
		c-2.44,1.24-5.13,1.86-8.07,1.86c-3.44,0-6.54-0.82-9.32-2.47c-2.78-1.65-4.97-3.91-6.58-6.78c-1.6-2.87-2.41-6.07-2.41-9.59
		c0-3.52,0.82-6.73,2.47-9.63c1.65-2.89,3.91-5.16,6.78-6.81c2.87-1.65,6.07-2.47,9.59-2.47S306.61,309.48,309.48,311.13z
		 M306.87,339.84c2.08-1.22,3.72-2.9,4.92-5.05c1.2-2.15,1.8-4.55,1.8-7.22c0-2.67-0.6-5.07-1.8-7.22c-1.2-2.15-2.84-3.84-4.92-5.08
		c-2.08-1.24-4.41-1.86-6.98-1.86s-4.91,0.62-7.02,1.86c-2.1,1.24-3.75,2.94-4.95,5.08c-1.2,2.15-1.8,4.55-1.8,7.22
		c0,2.67,0.6,5.07,1.8,7.22c1.2,2.15,2.85,3.83,4.95,5.05c2.1,1.22,4.44,1.83,7.02,1.83S304.79,341.06,306.87,339.84z"/>
	<path d="M384.49,311.57v15.93c0,3.53-0.82,6.73-2.47,9.63c-1.65,2.89-3.91,5.16-6.78,6.81c-2.87,1.65-6.07,2.47-9.59,2.47
		s-6.72-0.82-9.59-2.47c-2.87-1.65-5.13-3.92-6.78-6.81c-1.65-2.89-2.47-6.1-2.47-9.63c0-3.52,0.8-6.72,2.41-9.59
		c1.6-2.87,3.8-5.13,6.58-6.78c2.78-1.65,5.89-2.47,9.32-2.47c2.94,0,5.63,0.62,8.07,1.86c2.44,1.24,4.45,2.95,6.03,5.12v-19.86
		c0-0.77,0.25-1.4,0.75-1.9c0.5-0.5,1.13-0.75,1.9-0.75c0.77,0,1.39,0.25,1.86,0.75c0.47,0.5,0.71,1.13,0.71,1.9v15.18
		C384.47,311.1,384.49,311.3,384.49,311.57z M372.63,339.81c2.08-1.24,3.72-2.94,4.92-5.08c1.2-2.15,1.8-4.55,1.8-7.22
		c0-0.77-0.02-1.33-0.07-1.69c-0.05-0.09-0.07-0.2-0.07-0.34c-0.45-3.52-1.93-6.42-4.44-8.68c-2.51-2.26-5.55-3.39-9.12-3.39
		c-2.58,0-4.91,0.61-7.02,1.83c-2.1,1.22-3.75,2.9-4.95,5.05c-1.2,2.15-1.8,4.55-1.8,7.22c0,2.67,0.6,5.07,1.8,7.22
		c1.2,2.15,2.85,3.84,4.95,5.08c2.1,1.24,4.44,1.86,7.02,1.86S370.55,341.05,372.63,339.81z"/>
	<path d="M421.37,311c2.58,1.56,4.58,3.72,6,6.47c1.42,2.76,2.14,5.9,2.14,9.42c0,0.72-0.23,1.3-0.68,1.73
		c-0.45,0.43-1.04,0.64-1.76,0.64h-27.39c0.36,3.71,1.81,6.71,4.34,9.02c2.53,2.3,5.69,3.46,9.49,3.46c1.63,0,3.26-0.28,4.91-0.85
		c1.65-0.56,2.97-1.28,3.97-2.14c0.59-0.45,1.2-0.68,1.83-0.68c0.5,0,0.99,0.18,1.49,0.54c0.59,0.54,0.88,1.15,0.88,1.83
		c0,0.59-0.25,1.11-0.75,1.56c-1.49,1.27-3.39,2.32-5.69,3.15c-2.31,0.84-4.52,1.25-6.64,1.25c-3.62,0-6.85-0.8-9.69-2.41
		c-2.85-1.6-5.07-3.84-6.68-6.71c-1.6-2.87-2.41-6.11-2.41-9.73c0-3.66,0.76-6.92,2.27-9.8c1.51-2.87,3.62-5.11,6.3-6.71
		c2.69-1.6,5.75-2.41,9.19-2.41C415.83,308.66,418.79,309.44,421.37,311z M403.95,316.52c-2.26,2.12-3.64,4.93-4.14,8.41h24.81
		c-0.36-3.48-1.63-6.28-3.8-8.41c-2.17-2.12-4.95-3.19-8.34-3.19C409.05,313.34,406.2,314.4,403.95,316.52z"/>
</g>
<g>
	<path class="st1" d="M535.6,294.14c0.67,0.67,1.01,1.5,1.01,2.48v45.39c0,0.98-0.35,1.81-1.04,2.48c-0.69,0.67-1.51,1.01-2.45,1.01
		c-0.98,0-1.81-0.34-2.48-1.01c-0.67-0.67-1.01-1.5-1.01-2.48v-33.32l-16.23,33.06c-0.76,1.16-1.77,1.74-3.02,1.74
		c-1.47,0-2.55-0.69-3.22-2.08l-16.03-32.12v32.72c0,0.98-0.34,1.81-1.01,2.48c-0.67,0.67-1.5,1.01-2.48,1.01
		c-0.98,0-1.81-0.34-2.48-1.01c-0.67-0.67-1.01-1.5-1.01-2.48v-45.39c0-0.98,0.34-1.81,1.01-2.48c0.67-0.67,1.5-1.01,2.48-1.01
		c1.34,0,2.37,0.63,3.08,1.88l19.91,39.9l19.38-39.9c0.71-1.25,1.74-1.88,3.08-1.88C534.1,293.13,534.93,293.47,535.6,294.14z"/>
	<path class="st1" d="M575.33,311c2.79,1.63,5.01,3.87,6.64,6.7c1.63,2.84,2.45,6,2.45,9.49v14.95c0,0.98-0.32,1.8-0.97,2.45
		c-0.65,0.65-1.46,0.97-2.45,0.97c-0.98,0-1.8-0.32-2.45-0.97c-0.65-0.65-0.97-1.46-0.97-2.45v-2.48c-1.57,1.92-3.46,3.42-5.7,4.49
		c-2.24,1.07-4.65,1.61-7.24,1.61c-3.22,0-6.14-0.81-8.75-2.41c-2.62-1.61-4.67-3.83-6.17-6.67c-1.5-2.84-2.25-6-2.25-9.49
		c0-3.49,0.8-6.65,2.41-9.49c1.61-2.84,3.83-5.07,6.67-6.7c2.84-1.63,5.98-2.45,9.42-2.45C569.41,308.56,572.53,309.37,575.33,311z
		 M572.04,338.09c1.81-1.09,3.23-2.59,4.26-4.49c1.03-1.9,1.54-4.03,1.54-6.4c0-2.37-0.51-4.51-1.54-6.44
		c-1.03-1.92-2.45-3.43-4.26-4.53c-1.81-1.1-3.83-1.64-6.07-1.64c-2.24,0-4.26,0.55-6.07,1.64c-1.81,1.1-3.24,2.6-4.29,4.53
		c-1.05,1.92-1.58,4.07-1.58,6.44c0,2.37,0.53,4.5,1.58,6.4c1.05,1.9,2.48,3.4,4.29,4.49c1.81,1.1,3.83,1.64,6.07,1.64
		C568.21,339.73,570.23,339.19,572.04,338.09z"/>
	<path class="st1" d="M618.14,309.49c1.34,0.72,2.01,1.61,2.01,2.68c0,0.31-0.02,0.54-0.07,0.67c-0.4,1.43-1.3,2.15-2.68,2.15
		c-0.22,0-0.56-0.04-1.01-0.13c-1.79-0.31-3.24-0.47-4.36-0.47c-3.22,0-5.81,0.74-7.78,2.21c-1.97,1.48-2.95,3.46-2.95,5.97v19.58
		c0,1.07-0.28,1.9-0.84,2.48c-0.56,0.58-1.4,0.87-2.51,0.87c-1.07,0-1.9-0.28-2.48-0.84c-0.58-0.56-0.87-1.4-0.87-2.51v-29.97
		c0-1.07,0.29-1.9,0.87-2.48c0.58-0.58,1.41-0.87,2.48-0.87c2.23,0,3.35,1.12,3.35,3.35v1.27c1.34-1.56,2.99-2.79,4.96-3.69
		c1.97-0.89,4.07-1.34,6.3-1.34C614.94,308.42,616.8,308.78,618.14,309.49z"/>
	<path class="st1" d="M655.62,342.69c0,0.98-0.4,1.81-1.21,2.48c-0.67,0.54-1.39,0.81-2.15,0.81c-0.98,0-1.79-0.4-2.41-1.21
		l-12.74-15.76l-3.35,2.95v10.26c0,0.98-0.3,1.78-0.91,2.38c-0.6,0.6-1.4,0.91-2.38,0.91c-0.98,0-1.78-0.3-2.38-0.91
		c-0.6-0.6-0.91-1.4-0.91-2.38v-45.8c0-0.98,0.3-1.78,0.91-2.38c0.6-0.6,1.4-0.9,2.38-0.9c0.98,0,1.78,0.3,2.38,0.9
		c0.6,0.6,0.91,1.4,0.91,2.38v27.29l16.29-14.55c0.58-0.58,1.27-0.87,2.08-0.87c0.94,0,1.7,0.36,2.28,1.07
		c0.58,0.58,0.87,1.27,0.87,2.08c0,0.94-0.36,1.7-1.07,2.28l-12.34,11l13.01,15.96C655.37,341.21,655.62,341.88,655.62,342.69z"/>
	<path class="st1" d="M694.04,328.7c-0.58,0.56-1.32,0.84-2.21,0.84h-25.48c0.49,3.13,1.91,5.66,4.26,7.58
		c2.35,1.92,5.22,2.88,8.62,2.88c1.34,0,2.74-0.24,4.19-0.74c1.45-0.49,2.65-1.09,3.59-1.81c0.63-0.49,1.36-0.74,2.21-0.74
		c0.85,0,1.52,0.23,2.01,0.67c0.8,0.67,1.21,1.43,1.21,2.28c0,0.8-0.36,1.47-1.07,2.01c-1.52,1.21-3.41,2.19-5.67,2.95
		c-2.26,0.76-4.41,1.14-6.47,1.14c-3.67,0-6.95-0.79-9.86-2.38c-2.91-1.59-5.17-3.79-6.81-6.6c-1.63-2.82-2.45-6.01-2.45-9.59
		c0-3.58,0.77-6.78,2.31-9.62c1.54-2.84,3.69-5.05,6.44-6.64c2.75-1.59,5.87-2.38,9.35-2.38c3.44,0,6.41,0.76,8.92,2.28
		c2.5,1.52,4.43,3.64,5.77,6.37c1.34,2.73,2.01,5.86,2.01,9.39C694.91,327.44,694.62,328.15,694.04,328.7z M670.27,317
		c-2.03,1.79-3.32,4.18-3.86,7.18h22.33c-0.4-2.99-1.52-5.39-3.35-7.18c-1.83-1.79-4.22-2.68-7.17-2.68
		C674.95,314.32,672.3,315.22,670.27,317z"/>
	<path class="st1" d="M721.29,339.73c0.56,0.63,0.84,1.43,0.84,2.41c0,0.98-0.37,1.79-1.11,2.41c-0.74,0.63-1.69,0.94-2.85,0.94
		h-1.21c-2.19,0-4.19-0.57-6-1.71c-1.81-1.14-3.23-2.69-4.26-4.66c-1.03-1.97-1.54-4.18-1.54-6.64v-16.56h-3.08
		c-0.94,0-1.7-0.27-2.28-0.81c-0.58-0.54-0.87-1.21-0.87-2.01c0-0.89,0.29-1.61,0.87-2.15c0.58-0.54,1.34-0.8,2.28-0.8h3.08v-9.66
		c0-0.98,0.31-1.79,0.94-2.41c0.63-0.63,1.43-0.94,2.41-0.94c0.98,0,1.79,0.31,2.41,0.94c0.63,0.63,0.94,1.43,0.94,2.41v9.66h5.7
		c0.94,0,1.7,0.27,2.28,0.8c0.58,0.54,0.87,1.25,0.87,2.15c0,0.8-0.29,1.48-0.87,2.01c-0.58,0.54-1.34,0.81-2.28,0.81h-5.7v16.56
		c0,1.79,0.49,3.29,1.48,4.49c0.98,1.21,2.19,1.81,3.62,1.81h2.28C720.05,338.8,720.73,339.11,721.29,339.73z"/>
	<path class="st1" d="M731.48,301.55c-0.87-0.87-1.31-1.91-1.31-3.12c0-1.21,0.44-2.25,1.31-3.12c0.87-0.87,1.91-1.31,3.12-1.31
		c1.21,0,2.25,0.44,3.12,1.31c0.87,0.87,1.31,1.91,1.31,3.12c0,1.21-0.44,2.25-1.31,3.12c-0.87,0.87-1.91,1.31-3.12,1.31
		C733.39,302.86,732.36,302.42,731.48,301.55z M732.15,344.53c-0.65-0.65-0.97-1.46-0.97-2.45v-29.84c0-1.03,0.32-1.85,0.97-2.48
		c0.65-0.62,1.46-0.94,2.45-0.94c1.03,0,1.85,0.31,2.48,0.94c0.63,0.63,0.94,1.45,0.94,2.48v29.84c0,0.98-0.31,1.8-0.94,2.45
		c-0.63,0.65-1.45,0.97-2.48,0.97C733.62,345.5,732.8,345.18,732.15,344.53z"/>
	<path class="st1" d="M777.31,310.5c2.46,1.34,4.38,3.3,5.77,5.87c1.38,2.57,2.08,5.67,2.08,9.29v16.49c0,0.98-0.32,1.8-0.97,2.45
		c-0.65,0.65-1.46,0.97-2.45,0.97c-0.98,0-1.8-0.32-2.45-0.97c-0.65-0.65-0.97-1.46-0.97-2.45v-16.49c0-3.62-0.97-6.36-2.92-8.21
		c-1.94-1.85-4.53-2.78-7.74-2.78c-1.88,0-3.59,0.38-5.13,1.14c-1.54,0.76-2.75,1.79-3.62,3.08c-0.87,1.3-1.31,2.75-1.31,4.36v18.91
		c0,0.98-0.31,1.8-0.94,2.45c-0.63,0.65-1.45,0.97-2.48,0.97c-0.98,0-1.8-0.32-2.45-0.97c-0.65-0.65-0.97-1.46-0.97-2.45v-29.9
		c0-1.03,0.32-1.85,0.97-2.48c0.65-0.62,1.46-0.94,2.45-0.94c1.03,0,1.85,0.31,2.48,0.94c0.63,0.63,0.94,1.45,0.94,2.48v0.74
		c1.43-1.43,3.13-2.54,5.1-3.32c1.97-0.78,4.07-1.17,6.3-1.17C772.08,308.49,774.85,309.16,777.31,310.5z"/>
	<path class="st1" d="M822.6,310.94c2.79,1.59,4.98,3.79,6.57,6.6c1.59,2.82,2.38,6.03,2.38,9.66v14.48c0,3.53-0.78,6.75-2.35,9.66
		c-1.57,2.91-3.77,5.2-6.6,6.87c-2.84,1.68-6.05,2.51-9.62,2.51c-3.22,0-6.21-0.64-8.99-1.91c-2.77-1.27-5.1-3.1-6.97-5.46
		c-0.49-0.63-0.74-1.25-0.74-1.88c0-0.94,0.47-1.74,1.41-2.41c0.63-0.4,1.25-0.6,1.88-0.6c1.12,0,2.03,0.47,2.75,1.41
		c1.21,1.56,2.73,2.76,4.56,3.59c1.83,0.83,3.91,1.24,6.24,1.24c2.19,0,4.18-0.53,5.97-1.58c1.79-1.05,3.22-2.59,4.29-4.63
		c1.07-2.04,1.61-4.46,1.61-7.28v-3.29c-1.39,2.46-3.22,4.38-5.5,5.77c-2.28,1.39-4.85,2.08-7.71,2.08c-3.31,0-6.27-0.79-8.88-2.38
		c-2.62-1.59-4.65-3.79-6.1-6.6c-1.45-2.82-2.18-6.01-2.18-9.59c0-3.62,0.78-6.84,2.35-9.66c1.56-2.82,3.75-5.02,6.57-6.6
		c2.82-1.59,6.01-2.38,9.59-2.38C816.65,308.56,819.81,309.35,822.6,310.94z M819.25,338.13c1.81-1.07,3.22-2.56,4.22-4.46
		c1.01-1.9,1.51-4.06,1.51-6.47c0-2.41-0.5-4.58-1.51-6.5c-1.01-1.92-2.41-3.42-4.22-4.49c-1.81-1.07-3.86-1.61-6.13-1.61
		c-2.28,0-4.32,0.54-6.14,1.61c-1.81,1.07-3.23,2.57-4.26,4.49c-1.03,1.92-1.54,4.09-1.54,6.5c0,2.41,0.51,4.57,1.54,6.47
		c1.03,1.9,2.45,3.39,4.26,4.46c1.81,1.07,3.86,1.61,6.14,1.61C815.4,339.73,817.44,339.2,819.25,338.13z"/>
	<path class="st1" d="M863.07,344.5c-0.67-0.67-1.01-1.5-1.01-2.48v-45.39c0-1.03,0.34-1.87,1.01-2.51c0.67-0.65,1.5-0.97,2.48-0.97
		h12.14c5.05,0,9.54,1.12,13.48,3.35c3.93,2.24,7,5.33,9.19,9.29c2.19,3.96,3.29,8.46,3.29,13.51s-1.1,9.57-3.29,13.54
		c-2.19,3.98-5.25,7.08-9.19,9.32c-3.93,2.24-8.43,3.35-13.48,3.35h-12.14C864.56,345.5,863.74,345.17,863.07,344.5z M877.68,339.33
		c3.71,0,7.03-0.85,9.96-2.55c2.93-1.7,5.21-4.08,6.84-7.14c1.63-3.06,2.45-6.51,2.45-10.36s-0.82-7.29-2.45-10.33
		c-1.63-3.04-3.91-5.41-6.84-7.11c-2.93-1.7-6.25-2.55-9.96-2.55h-8.65v40.03H877.68z"/>
	<path class="st1" d="M914.86,301.55c-0.87-0.87-1.31-1.91-1.31-3.12c0-1.21,0.44-2.25,1.31-3.12c0.87-0.87,1.91-1.31,3.12-1.31
		c1.21,0,2.25,0.44,3.12,1.31c0.87,0.87,1.31,1.91,1.31,3.12c0,1.21-0.44,2.25-1.31,3.12c-0.87,0.87-1.91,1.31-3.12,1.31
		C916.77,302.86,915.74,302.42,914.86,301.55z M915.53,344.53c-0.65-0.65-0.97-1.46-0.97-2.45v-29.84c0-1.03,0.32-1.85,0.97-2.48
		c0.65-0.62,1.46-0.94,2.45-0.94c1.03,0,1.85,0.31,2.48,0.94c0.63,0.63,0.94,1.45,0.94,2.48v29.84c0,0.98-0.31,1.8-0.94,2.45
		c-0.63,0.65-1.45,0.97-2.48,0.97C917,345.5,916.18,345.18,915.53,344.53z"/>
	<path class="st1" d="M960.26,310.94c2.79,1.59,4.98,3.79,6.57,6.6c1.59,2.82,2.38,6.03,2.38,9.66v14.48c0,3.53-0.78,6.75-2.35,9.66
		c-1.57,2.91-3.77,5.2-6.6,6.87c-2.84,1.68-6.05,2.51-9.62,2.51c-3.22,0-6.21-0.64-8.99-1.91c-2.77-1.27-5.1-3.1-6.97-5.46
		c-0.49-0.63-0.74-1.25-0.74-1.88c0-0.94,0.47-1.74,1.41-2.41c0.63-0.4,1.25-0.6,1.88-0.6c1.12,0,2.03,0.47,2.75,1.41
		c1.21,1.56,2.73,2.76,4.56,3.59c1.83,0.83,3.91,1.24,6.24,1.24c2.19,0,4.18-0.53,5.97-1.58c1.79-1.05,3.22-2.59,4.29-4.63
		c1.07-2.04,1.61-4.46,1.61-7.28v-3.29c-1.39,2.46-3.22,4.38-5.5,5.77c-2.28,1.39-4.85,2.08-7.71,2.08c-3.31,0-6.27-0.79-8.88-2.38
		c-2.62-1.59-4.65-3.79-6.1-6.6c-1.45-2.82-2.18-6.01-2.18-9.59c0-3.62,0.78-6.84,2.35-9.66c1.56-2.82,3.75-5.02,6.57-6.6
		c2.82-1.59,6.01-2.38,9.59-2.38C954.3,308.56,957.46,309.35,960.26,310.94z M956.9,338.13c1.81-1.07,3.22-2.56,4.22-4.46
		c1.01-1.9,1.51-4.06,1.51-6.47c0-2.41-0.5-4.58-1.51-6.5c-1.01-1.92-2.41-3.42-4.22-4.49c-1.81-1.07-3.86-1.61-6.13-1.61
		c-2.28,0-4.32,0.54-6.14,1.61c-1.81,1.07-3.23,2.57-4.26,4.49c-1.03,1.92-1.54,4.09-1.54,6.5c0,2.41,0.51,4.57,1.54,6.47
		c1.03,1.9,2.45,3.39,4.26,4.46c1.81,1.07,3.86,1.61,6.14,1.61C953.05,339.73,955.09,339.2,956.9,338.13z"/>
	<path class="st1" d="M980.37,301.55c-0.87-0.87-1.31-1.91-1.31-3.12c0-1.21,0.44-2.25,1.31-3.12c0.87-0.87,1.91-1.31,3.12-1.31
		c1.21,0,2.25,0.44,3.12,1.31c0.87,0.87,1.31,1.91,1.31,3.12c0,1.21-0.44,2.25-1.31,3.12c-0.87,0.87-1.91,1.31-3.12,1.31
		C982.28,302.86,981.24,302.42,980.37,301.55z M981.04,344.53c-0.65-0.65-0.97-1.46-0.97-2.45v-29.84c0-1.03,0.32-1.85,0.97-2.48
		c0.65-0.62,1.46-0.94,2.45-0.94c1.03,0,1.85,0.31,2.48,0.94c0.63,0.63,0.94,1.45,0.94,2.48v29.84c0,0.98-0.31,1.8-0.94,2.45
		c-0.63,0.65-1.45,0.97-2.48,0.97C982.5,345.5,981.69,345.18,981.04,344.53z"/>
	<path class="st1" d="M1017.31,339.73c0.56,0.63,0.84,1.43,0.84,2.41c0,0.98-0.37,1.79-1.11,2.41c-0.74,0.63-1.69,0.94-2.85,0.94
		h-1.21c-2.19,0-4.19-0.57-6-1.71c-1.81-1.14-3.23-2.69-4.26-4.66c-1.03-1.97-1.54-4.18-1.54-6.64v-16.56h-3.08
		c-0.94,0-1.7-0.27-2.28-0.81c-0.58-0.54-0.87-1.21-0.87-2.01c0-0.89,0.29-1.61,0.87-2.15c0.58-0.54,1.34-0.8,2.28-0.8h3.08v-9.66
		c0-0.98,0.31-1.79,0.94-2.41c0.63-0.63,1.43-0.94,2.41-0.94c0.98,0,1.79,0.31,2.41,0.94c0.63,0.63,0.94,1.43,0.94,2.41v9.66h5.7
		c0.94,0,1.7,0.27,2.28,0.8c0.58,0.54,0.87,1.25,0.87,2.15c0,0.8-0.29,1.48-0.87,2.01c-0.58,0.54-1.34,0.81-2.28,0.81h-5.7v16.56
		c0,1.79,0.49,3.29,1.48,4.49c0.98,1.21,2.19,1.81,3.62,1.81h2.28C1016.07,338.8,1016.75,339.11,1017.31,339.73z"/>
	<path class="st1" d="M1052.51,311c2.79,1.63,5.01,3.87,6.64,6.7c1.63,2.84,2.45,6,2.45,9.49v14.95c0,0.98-0.32,1.8-0.97,2.45
		c-0.65,0.65-1.46,0.97-2.45,0.97s-1.8-0.32-2.45-0.97c-0.65-0.65-0.97-1.46-0.97-2.45v-2.48c-1.57,1.92-3.46,3.42-5.7,4.49
		c-2.24,1.07-4.65,1.61-7.24,1.61c-3.22,0-6.14-0.81-8.75-2.41c-2.62-1.61-4.67-3.83-6.17-6.67c-1.5-2.84-2.25-6-2.25-9.49
		c0-3.49,0.8-6.65,2.41-9.49c1.61-2.84,3.83-5.07,6.67-6.7c2.84-1.63,5.98-2.45,9.42-2.45C1046.6,308.56,1049.72,309.37,1052.51,311
		z M1049.23,338.09c1.81-1.09,3.23-2.59,4.26-4.49c1.03-1.9,1.54-4.03,1.54-6.4c0-2.37-0.51-4.51-1.54-6.44
		c-1.03-1.92-2.45-3.43-4.26-4.53c-1.81-1.1-3.83-1.64-6.07-1.64c-2.24,0-4.26,0.55-6.07,1.64c-1.81,1.1-3.24,2.6-4.29,4.53
		c-1.05,1.92-1.58,4.07-1.58,6.44c0,2.37,0.53,4.5,1.58,6.4c1.05,1.9,2.48,3.4,4.29,4.49c1.81,1.1,3.83,1.64,6.07,1.64
		C1045.4,339.73,1047.42,339.19,1049.23,338.09z"/>
	<path class="st1" d="M1075.31,343.92c-1.54-1.05-2.74-2.52-3.59-4.43c-0.85-1.9-1.27-4.03-1.27-6.4v-36.61
		c0-0.98,0.31-1.79,0.94-2.41c0.63-0.63,1.43-0.94,2.41-0.94c0.98,0,1.79,0.31,2.41,0.94c0.63,0.63,0.94,1.43,0.94,2.41v36.61
		c0,1.65,0.31,3.02,0.94,4.09c0.63,1.07,1.43,1.61,2.41,1.61h1.68c0.89,0,1.62,0.31,2.18,0.94c0.56,0.63,0.84,1.43,0.84,2.41
		c0,0.98-0.43,1.79-1.27,2.41c-0.85,0.63-1.94,0.94-3.29,0.94h-0.13C1078.58,345.5,1076.85,344.98,1075.31,343.92z"/>
</g>
<path class="st0" d="M250.15,275.9H65.33c-19.3,0-34.94-15.64-34.94-34.94V56.14c0-19.3,15.64-34.94,34.94-34.94h184.83
	c19.3,0,34.94,15.64,34.94,34.94v184.83C285.09,260.26,269.45,275.9,250.15,275.9z"/>
<g>
	<path class="st1" d="M66.61,83.09c0-7.57,2.75-14.18,8.12-19.55c5.51-5.37,12.11-8.12,19.68-8.12v9.36
		c0,7.57-2.75,14.18-8.12,19.55c-5.37,5.37-11.98,8.12-19.68,8.12V83.09z M66.61,135.54c0-7.57,2.75-14.18,8.12-19.55
		c5.51-5.37,12.11-8.12,19.68-8.12v105.99c0,7.71-2.75,14.32-8.12,19.68c-5.37,5.37-11.98,8.12-19.68,8.12V135.54z"/>
	<path class="st1" d="M224.23,226.67c-2.07-3.85-3.03-8.12-3.03-12.66v-39.23c0-10.87-3.85-20.1-11.56-27.67
		c-7.57-7.71-16.79-11.56-27.67-11.56c-10.87,0-20.1,3.85-27.67,11.56c-7.57,7.57-11.43,16.79-11.43,27.67
		c0,10.87,3.85,20.1,11.43,27.81c7.57,7.57,16.79,11.43,27.67,11.43h11.43c11.42,0,19.82,5.51,25.47,16.66
		c1.51,3.44,2.34,7.02,2.34,11.01h-39.23c-22.3,0-40.33-9.22-54.24-27.67c-8.4-11.56-12.66-24.64-12.66-39.23
		c0-18.58,6.47-34.28,19.55-47.35c13.08-13.08,28.91-19.55,47.35-19.55h3.44c2.34,0.14,4.82,0.41,7.16,0.83
		c3.17,0.41,5.64,0.96,7.71,1.65c2.61,0.69,4.96,1.51,7.16,2.48c4.82,2.06,9.22,4.54,13.35,7.43l0.41,0.27
		c2.89,2.07,5.51,4.41,8.12,6.88c13.08,13.08,19.55,28.77,19.55,47.35v66.9C238.13,241.67,229.87,236.72,224.23,226.67z"/>
</g>
</svg>
