<?xml version="1.0" encoding="UTF-8"?>
<svg id="Capa_2" xmlns="http://www.w3.org/2000/svg" viewBox="0 0 1151.37 343.74">
  <defs>
    <style>
      .cls-1 {
        fill: #fff;
      }

      .cls-2 {
        fill: #e62450;
      }
    </style>
  </defs>
  <g id="Capa_2-2" data-name="Capa_2">
    <g>
      <path class="cls-1" d="M370.06,30.72h106.64c16.81,0,31.15,5.94,43.18,17.97,12.03,12.03,17.97,26.37,17.97,43.32s-5.94,31.15-17.97,43.18c-11.88,12.03-26.22,17.97-43.18,17.97h-57.08c0-8.11,2.9-15.07,8.55-20.72,5.65-5.65,12.6-8.55,20.72-8.55h27.82c8.84,0,16.23-3.04,22.46-9.27,6.23-6.23,9.42-13.76,9.42-22.6s-3.19-16.37-9.42-22.6c-6.23-6.23-13.62-9.42-22.46-9.42h-77.37v149.96c0,7.97-2.9,14.92-8.69,20.72-5.65,5.65-12.6,8.55-20.57,8.55V30.72h-.02Z"/>
      <path class="cls-1" d="M679.82,230.66c-2.17-2.17-3.91-4.64-5.22-7.39-12.9,10.58-27.67,15.94-44.48,15.94-19.56,0-36.22-6.81-49.99-20.57-13.76-13.76-20.57-30.43-20.57-49.99v-70.41c8.11,0,15.07,2.9,20.72,8.55,5.65,5.65,8.55,12.6,8.55,20.72v41.15c0,11.74,4.06,21.44,12.17,29.41,8.26,7.97,18.26,11.88,30.14,11.88h.43c11.45-.72,20.86-5.22,28.4-13.33,7.53-8.11,11.3-17.68,11.3-28.83v-40.28c0-8.11,2.9-15.07,8.55-20.72s12.6-8.55,20.72-8.55v140.97c-8.11,0-15.07-2.9-20.72-8.55Z"/>
      <path class="cls-1" d="M842.52,230.66c-5.65-5.65-8.55-12.6-8.55-20.57v-41.29c0-11.59-4.06-21.3-12.32-29.27s-18.26-11.88-29.99-11.88h-.43c-11.45.72-21.01,5.07-28.54,13.18-7.53,8.11-11.3,17.82-11.3,28.98v40.28c0,7.97-2.9,14.92-8.55,20.57-5.65,5.65-12.6,8.55-20.57,8.55V98.38c7.97,0,14.92,2.9,20.57,8.55,2.17,2.17,3.91,4.49,5.36,7.24,12.75-10.58,27.53-15.79,44.48-15.79,19.42,0,35.93,6.95,49.7,20.72,13.76,13.76,20.72,30.28,20.72,49.7v70.41c-7.97,0-14.92-2.9-20.57-8.55h-.01Z"/>
      <path class="cls-1" d="M966.39,239.21c-15.94,0-29.99-4.64-42.31-14.05-18.84-14.63-28.25-33.32-28.25-56.36v-52.3h-29.85c0-3.62.87-7.1,2.75-10.29,5.07-8.84,14.05-14.78,27.09-17.82V27.67c8.11,0,15.07,2.9,20.72,8.69,5.65,5.65,8.55,12.6,8.55,20.57v30.28h76.21c0,8.11-4.06,15.07-12.17,20.72-7.97,5.65-17.82,8.55-29.27,8.55h-34.77v50.42c0,11.45,4.06,21.15,12.03,29.12,8.11,7.97,17.82,12.02,29.27,12.02h1.88c15.07,0,25.64,7.53,31.73,22.46.87,2.75,1.3,5.65,1.3,8.69h-34.92v.02Z"/>
      <path class="cls-1" d="M1026.22,218.63c-13.76-13.76-20.57-30.43-20.57-49.84s6.81-36.08,20.57-49.84c13.76-13.76,30.43-20.57,49.99-20.57s35.93,6.81,49.7,20.57c13.76,13.76,20.72,30.28,20.72,49.84s-6.95,36.08-20.72,49.84c-13.76,13.76-30.28,20.57-49.7,20.57s-36.22-6.81-49.99-20.57ZM1105.18,197.91c8.11-7.97,12.17-17.68,12.17-29.12s-4.06-21.15-12.17-29.12c-7.97-8.11-17.68-12.17-28.98-12.17s-21.15,4.06-29.27,12.17c-7.97,7.97-12.03,17.68-12.03,29.12s4.06,21.15,12.03,29.12c8.11,7.97,17.82,12.03,29.27,12.03s21.01-4.06,28.98-12.03Z"/>
    </g>
    <rect class="cls-2" width="343.74" height="343.74" rx="34.94" ry="34.94"/>
    <g>
      <path class="cls-1" d="M48.89,83.54c0-10.22,3.72-19.13,10.96-26.38,7.43-7.24,16.35-10.96,26.57-10.96v12.63c0,10.22-3.72,19.13-10.96,26.38-7.25,7.25-16.16,10.96-26.57,10.96v-12.63ZM48.89,154.32c0-10.22,3.72-19.13,10.96-26.38,7.43-7.25,16.35-10.96,26.57-10.96v143.04c0,10.4-3.72,19.32-10.96,26.56-7.25,7.25-16.16,10.96-26.57,10.96v-143.23h0Z"/>
      <path class="cls-1" d="M261.6,277.29c-2.79-5.2-4.09-10.96-4.09-17.09v-52.94c0-14.68-5.2-27.12-15.6-37.34-10.22-10.4-22.66-15.6-37.34-15.6s-27.12,5.2-37.34,15.6c-10.22,10.22-15.42,22.66-15.42,37.34s5.2,27.12,15.42,37.53c10.22,10.22,22.66,15.42,37.34,15.42h15.42c15.42,0,26.75,7.43,34.37,22.48,2.04,4.64,3.16,9.47,3.16,14.86h-52.94c-30.1,0-54.43-12.45-73.19-37.34-11.33-15.6-17.09-33.25-17.09-52.94,0-25.08,8.73-46.26,26.38-63.9,17.65-17.65,39.01-26.38,63.9-26.38h4.64c3.16.19,6.5.56,9.66,1.11,4.27.56,7.62,1.3,10.4,2.23,3.53.93,6.69,2.04,9.66,3.34,6.5,2.79,12.45,6.13,18.02,10.03l.56.37c3.9,2.79,7.43,5.95,10.96,9.29,17.65,17.65,26.38,38.83,26.38,63.9v90.28c-14.49,0-25.64-6.69-33.25-20.25h0Z"/>
    </g>
    <g>
      <path class="cls-1" d="M411.51,308.91c0,4.57-1.79,8.11-5.36,10.62-3.57,2.51-8.61,3.76-15.1,3.76-12.07,0-19.07-4.2-20.99-12.59l6.5-1.3c.75,2.98,2.34,5.16,4.78,6.56,2.44,1.39,5.75,2.09,9.95,2.09s7.68-.74,10.04-2.23,3.53-3.67,3.53-6.56c0-1.62-.37-2.93-1.11-3.94s-1.78-1.84-3.11-2.5-2.93-1.21-4.78-1.65c-1.85-.45-3.9-.93-6.15-1.44-2.6-.59-4.78-1.16-6.52-1.72-1.75-.56-3.18-1.15-4.31-1.78s-2.09-1.28-2.88-1.99c-1.17-1.08-2.07-2.33-2.69-3.76-.62-1.43-.93-3.07-.93-4.92,0-4.24,1.62-7.51,4.87-9.81s7.89-3.45,13.94-3.45c5.62,0,9.93.86,12.9,2.58,2.98,1.72,5.06,4.66,6.26,8.81l-6.61,1.16c-.73-2.62-2.11-4.53-4.15-5.71s-4.86-1.78-8.47-1.78c-3.96,0-6.98.66-9.07,1.97s-3.13,3.27-3.13,5.87c0,1.52.4,2.78,1.21,3.78s1.97,1.83,3.5,2.51c1.43.68,4.46,1.54,9.11,2.57,1.9.45,3.77.91,5.62,1.39s3.6,1.08,5.24,1.81c.96.4,1.88.88,2.76,1.46s1.65,1.24,2.3,1.99c.89.98,1.59,2.14,2.09,3.48s.76,2.91.76,4.71h0Z"/>
      <path class="cls-1" d="M451.83,303.53c0,6.66-1.46,11.61-4.39,14.87-2.93,3.26-7.18,4.89-12.76,4.89s-9.75-1.69-12.59-5.08c-2.84-3.39-4.25-8.28-4.25-14.68s1.42-11.48,4.27-14.77,7.11-4.92,12.78-4.92,10.09,1.6,12.83,4.8,4.11,8.16,4.11,14.89h0ZM445.19,303.53c0-5.25-.78-9.06-2.34-11.44s-4.18-3.57-7.86-3.57-6.38,1.21-8.03,3.64-2.48,6.22-2.48,11.37.81,8.78,2.44,11.3,4.19,3.78,7.68,3.78c3.8,0,6.51-1.22,8.14-3.66s2.44-6.25,2.44-11.43h0Z"/>
      <path class="cls-1" d="M466.03,270.42v52.17h-6.33v-52.17h6.33Z"/>
      <path class="cls-1" d="M499.75,316.08c-1.45,2.62-3.13,4.48-5.04,5.57s-4.28,1.63-7.12,1.63c-4.17,0-7.22-1.04-9.16-3.11s-2.9-5.5-2.9-10.28v-25.35h6.36v24.12c0,3.8.59,6.37,1.78,7.72,1.18,1.35,3.2,2.02,6.06,2.02,3.05,0,5.45-1.04,7.21-3.13s2.64-4.98,2.64-8.68v-22.04h6.33v29.92c0,2.2.02,3.98.05,5.34s.09,2.29.16,2.78h-5.98c-.02-.12-.06-.67-.12-1.65-.06-.98-.11-2.6-.16-4.85h-.11,0Z"/>
      <path class="cls-1" d="M530.34,323.29c-5.32,0-9.38-1.68-12.18-5.04-2.8-3.36-4.2-8.27-4.2-14.71s1.41-11.28,4.22-14.64,6.84-5.04,12.09-5.04c3.89,0,7.12,1.01,9.69,3.02s4.18,4.79,4.83,8.33l-6.5.49c-.33-2.11-1.16-3.79-2.5-5.03s-3.23-1.86-5.7-1.86c-3.35,0-5.78,1.11-7.28,3.34s-2.25,5.98-2.25,11.25.8,8.81,2.39,11.25,4,3.66,7.21,3.66c2.25,0,4.13-.61,5.64-1.83s2.44-3.09,2.79-5.62l6.4.42c-.33,2.44-1.14,4.56-2.44,6.36s-2.99,3.2-5.06,4.18-4.46,1.48-7.15,1.48h0Z"/>
      <path class="cls-1" d="M558.04,270.42v6.05h-6.33v-6.05h6.33ZM558.04,284.55v38.04h-6.33v-38.04h6.33Z"/>
      <path class="cls-1" d="M599.91,303.53c0,6.66-1.46,11.61-4.39,14.87s-7.18,4.89-12.76,4.89-9.75-1.69-12.59-5.08c-2.84-3.39-4.25-8.28-4.25-14.68s1.42-11.48,4.27-14.77,7.11-4.92,12.78-4.92,10.09,1.6,12.83,4.8,4.11,8.16,4.11,14.89h0ZM593.26,303.53c0-5.25-.78-9.06-2.34-11.44s-4.18-3.57-7.86-3.57-6.38,1.21-8.03,3.64-2.48,6.22-2.48,11.37.81,8.78,2.44,11.3,4.19,3.78,7.68,3.78c3.8,0,6.51-1.22,8.14-3.66s2.44-6.25,2.44-11.43h.01Z"/>
      <path class="cls-1" d="M614.25,300.54v22.04h-6.33v-29.92c0-2.23-.02-4.01-.05-5.36s-.09-2.27-.16-2.76h5.98c.05.45.09,1.01.12,1.69s.06,1.43.09,2.25c.02.82.05,1.68.07,2.57h.11c1.45-2.62,3.13-4.48,5.04-5.57s4.28-1.63,7.12-1.63c4.17,0,7.22,1.07,9.16,3.2s2.9,5.53,2.9,10.2v25.35h-6.36v-24.12c0-3.63-.59-6.16-1.76-7.59s-3.2-2.14-6.08-2.14c-3.05,0-5.45,1.04-7.21,3.13s-2.64,4.98-2.64,8.68v-.02Z"/>
      <path class="cls-1" d="M652.68,304.9c0,4.36.9,7.72,2.71,10.09,1.8,2.37,4.44,3.55,7.91,3.55,2.74,0,4.94-.55,6.59-1.65s2.77-2.5,3.36-4.18l5.55,1.58c-2.27,6-7.44,9-15.5,9-5.62,0-9.91-1.68-12.85-5.03s-4.41-8.33-4.41-14.94,1.47-11.1,4.41-14.45,7.14-5.03,12.6-5.03,9.8,1.69,12.59,5.06c2.79,3.38,4.18,8.43,4.18,15.15v.84h-27.14ZM673.28,300.05c-.35-4.01-1.37-6.93-3.06-8.77s-4.11-2.76-7.28-2.76-5.5,1.03-7.29,3.08-2.76,4.87-2.9,8.46h20.53Z"/>
      <path class="cls-1" d="M716.42,312.08c0,3.59-1.35,6.35-4.06,8.3s-6.5,2.92-11.37,2.92-8.38-.78-10.95-2.34-4.24-3.99-5.01-7.29l5.59-1.09c.54,2.04,1.65,3.53,3.34,4.48s4.03,1.42,7.03,1.42c3.21,0,5.56-.49,7.05-1.48,1.49-.98,2.23-2.46,2.23-4.43,0-1.5-.52-2.72-1.55-3.66-1.03-.94-2.7-1.71-4.99-2.32-2.72-.73-4.88-1.32-6.49-1.79s-2.84-.87-3.71-1.21-1.56-.66-2.07-.97c-1.55-.89-2.75-1.98-3.62-3.27-.87-1.29-1.3-2.87-1.3-4.75,0-3.47,1.24-6.11,3.71-7.93,2.47-1.82,6.08-2.72,10.81-2.72,4.2,0,7.53.74,10,2.21,2.47,1.48,4.04,3.84,4.69,7.1l-5.7.7c-.35-1.69-1.3-2.98-2.83-3.88-1.54-.9-3.59-1.35-6.17-1.35-2.86,0-4.97.43-6.33,1.3-1.36.87-2.04,2.18-2.04,3.94,0,1.29.39,2.35,1.16,3.18s2.25,1.52,4.43,2.06c2.93.7,5.72,1.47,8.37,2.3s4.55,1.66,5.7,2.48c1.34.96,2.35,2.09,3.04,3.39.69,1.3,1.04,2.87,1.04,4.69h0Z"/>
      <path class="cls-1" d="M763.03,278.54v44.05h-6.68v-44.05h-17.02v-5.48h40.71v5.48h-17.02.01Z"/>
      <path class="cls-1" d="M783.43,304.9c0,4.36.9,7.72,2.71,10.09,1.8,2.37,4.44,3.55,7.91,3.55,2.74,0,4.94-.55,6.59-1.65s2.77-2.5,3.36-4.18l5.55,1.58c-2.27,6-7.44,9-15.5,9-5.62,0-9.91-1.68-12.85-5.03s-4.41-8.33-4.41-14.94,1.47-11.1,4.41-14.45,7.14-5.03,12.6-5.03,9.8,1.69,12.59,5.06c2.79,3.38,4.18,8.43,4.18,15.15v.84h-27.14ZM804.03,300.05c-.35-4.01-1.37-6.93-3.06-8.77s-4.11-2.76-7.28-2.76-5.5,1.03-7.29,3.08-2.76,4.87-2.9,8.46h20.53Z"/>
      <path class="cls-1" d="M833.21,323.29c-5.32,0-9.38-1.68-12.18-5.04-2.8-3.36-4.2-8.27-4.2-14.71s1.41-11.28,4.22-14.64,6.84-5.04,12.09-5.04c3.89,0,7.12,1.01,9.69,3.02s4.18,4.79,4.83,8.33l-6.5.49c-.33-2.11-1.16-3.79-2.5-5.03s-3.23-1.86-5.7-1.86c-3.35,0-5.78,1.11-7.28,3.34s-2.25,5.98-2.25,11.25.8,8.81,2.39,11.25,4,3.66,7.21,3.66c2.25,0,4.13-.61,5.64-1.83s2.44-3.09,2.79-5.62l6.4.42c-.33,2.44-1.14,4.56-2.44,6.36s-2.99,3.2-5.06,4.18-4.46,1.48-7.15,1.48h0Z"/>
      <path class="cls-1" d="M861.09,300.54v22.04h-6.33v-29.92c0-2.23-.02-4.01-.05-5.36s-.09-2.27-.16-2.76h5.98c.05.45.09,1.01.12,1.69s.06,1.43.09,2.25c.02.82.05,1.68.07,2.57h.11c1.45-2.62,3.13-4.48,5.04-5.57s4.28-1.63,7.12-1.63c4.17,0,7.22,1.07,9.16,3.2s2.9,5.53,2.9,10.2v25.35h-6.36v-24.12c0-3.63-.59-6.16-1.76-7.59s-3.2-2.14-6.08-2.14c-3.05,0-5.45,1.04-7.21,3.13s-2.64,4.98-2.64,8.68v-.02Z"/>
      <path class="cls-1" d="M926.83,303.53c0,6.66-1.46,11.61-4.39,14.87s-7.18,4.89-12.76,4.89-9.75-1.69-12.59-5.08c-2.84-3.39-4.25-8.28-4.25-14.68s1.42-11.48,4.27-14.77,7.11-4.92,12.78-4.92,10.09,1.6,12.83,4.8,4.11,8.16,4.11,14.89h0ZM920.18,303.53c0-5.25-.78-9.06-2.34-11.44s-4.18-3.57-7.86-3.57-6.38,1.21-8.03,3.64-2.48,6.22-2.48,11.37.81,8.78,2.44,11.3,4.19,3.78,7.68,3.78c3.8,0,6.51-1.22,8.14-3.66s2.44-6.25,2.44-11.43h.01Z"/>
      <path class="cls-1" d="M941.03,270.42v52.17h-6.33v-52.17h6.33Z"/>
      <path class="cls-1" d="M982.87,303.53c0,6.66-1.46,11.61-4.39,14.87s-7.18,4.89-12.76,4.89-9.75-1.69-12.59-5.08c-2.84-3.39-4.25-8.28-4.25-14.68s1.42-11.48,4.27-14.77,7.11-4.92,12.78-4.92,10.09,1.6,12.83,4.8,4.11,8.16,4.11,14.89h0ZM976.22,303.53c0-5.25-.78-9.06-2.34-11.44s-4.18-3.57-7.86-3.57-6.38,1.21-8.03,3.64-2.48,6.22-2.48,11.37.81,8.78,2.44,11.3,4.19,3.78,7.68,3.78c3.8,0,6.51-1.22,8.14-3.66s2.44-6.25,2.44-11.43h.01ZM975.91,270.59l-11.6,9.77h-3.3v-.7l7.63-10.09h7.28v1.02h-.01Z"/>
      <path class="cls-1" d="M1005.16,337.53c-4.15,0-7.45-.81-9.91-2.44s-4.04-3.94-4.75-6.94l6.36-.91c.42,1.76,1.35,3.11,2.79,4.06s3.33,1.42,5.68,1.42c3.14,0,5.5-.93,7.08-2.78s2.37-4.62,2.37-8.3v-6.12h-.07c-1.2,2.44-2.84,4.27-4.92,5.5-2.09,1.23-4.52,1.85-7.31,1.85-4.66,0-8.09-1.55-10.28-4.64-2.19-3.09-3.29-7.96-3.29-14.59s1.18-11.69,3.53-14.89,5.94-4.8,10.74-4.8c2.69,0,5.03.62,7.01,1.85s3.51,2.98,4.59,5.26h.07c0-.47.02-1.2.07-2.2s.11-1.94.18-2.83.13-1.38.18-1.48h6.01c-.14,1.27-.21,3.89-.21,7.88v29.07c0,5.34-1.32,9.35-3.97,12.02-2.65,2.67-6.63,4.01-11.95,4.01h0ZM1014.79,303.57c0-4.62-.94-8.26-2.83-10.92s-4.29-3.99-7.22-3.99c-3.23,0-5.59,1.17-7.07,3.52s-2.21,6.14-2.21,11.39.69,8.94,2.07,11.21,3.75,3.41,7.1,3.41c3,0,5.44-1.31,7.33-3.92,1.89-2.61,2.83-6.18,2.83-10.71h0Z"/>
      <path class="cls-1" d="M1037.08,270.42v6.05h-6.33v-6.05h6.33ZM1037.08,284.55v38.04h-6.33v-38.04h6.33Z"/>
      <path class="cls-1" d="M1061.37,323.29c-5.32,0-9.38-1.68-12.18-5.04-2.8-3.36-4.2-8.27-4.2-14.71s1.41-11.28,4.22-14.64,6.84-5.04,12.09-5.04c3.89,0,7.12,1.01,9.69,3.02s4.18,4.79,4.83,8.33l-6.5.49c-.33-2.11-1.16-3.79-2.5-5.03s-3.23-1.86-5.7-1.86c-3.35,0-5.78,1.11-7.28,3.34s-2.25,5.98-2.25,11.25.8,8.81,2.39,11.25,4,3.66,7.21,3.66c2.25,0,4.13-.61,5.64-1.83s2.44-3.09,2.79-5.62l6.4.42c-.33,2.44-1.14,4.56-2.44,6.36s-2.99,3.2-5.06,4.18-4.46,1.48-7.15,1.48h0Z"/>
      <path class="cls-1" d="M1092.48,323.29c-3.82,0-6.69-1.01-8.61-3.02-1.92-2.02-2.88-4.78-2.88-8.3,0-3.94,1.29-6.96,3.88-9.07,2.59-2.11,6.77-3.23,12.53-3.38l8.54-.14v-2.07c0-3.09-.66-5.31-1.97-6.64-1.31-1.34-3.38-2-6.19-2s-4.9.48-6.19,1.44c-1.29.96-2.06,2.5-2.32,4.61l-6.61-.6c1.08-6.84,6.16-10.27,15.26-10.27,4.78,0,8.38,1.1,10.79,3.29s3.62,5.36,3.62,9.51v16.38c0,1.88.25,3.29.74,4.24s1.43,1.42,2.81,1.42c.66,0,1.35-.08,2.07-.25v3.94c-.8.19-1.61.33-2.43.42-.82.09-1.64.14-2.46.14-2.34,0-4.05-.62-5.12-1.85s-1.67-3.16-1.81-5.78h-.21c-1.62,2.91-3.5,4.96-5.64,6.17s-4.75,1.81-7.82,1.81h.02ZM1105.95,303.81l-6.93.14c-2.95.02-5.2.33-6.75.91-1.55.56-2.73,1.43-3.55,2.6-.82,1.17-1.23,2.71-1.23,4.61,0,2.06.56,3.66,1.67,4.78s2.7,1.69,4.76,1.69c2.34,0,4.41-.53,6.19-1.58,1.8-1.05,3.23-2.5,4.27-4.34s1.56-3.73,1.56-5.68v-3.13h.01Z"/>
      <path class="cls-1" d="M1151.37,312.08c0,3.59-1.35,6.35-4.06,8.3s-6.5,2.92-11.37,2.92-8.38-.78-10.95-2.34-4.24-3.99-5.01-7.29l5.59-1.09c.54,2.04,1.65,3.53,3.34,4.48s4.03,1.42,7.03,1.42c3.21,0,5.56-.49,7.05-1.48,1.49-.98,2.23-2.46,2.23-4.43,0-1.5-.52-2.72-1.55-3.66s-2.7-1.71-4.99-2.32c-2.72-.73-4.88-1.32-6.49-1.79s-2.84-.87-3.71-1.21-1.56-.66-2.07-.97c-1.55-.89-2.75-1.98-3.62-3.27-.87-1.29-1.3-2.87-1.3-4.75,0-3.47,1.24-6.11,3.71-7.93s6.08-2.72,10.81-2.72c4.2,0,7.53.74,10,2.21,2.47,1.48,4.04,3.84,4.69,7.1l-5.7.7c-.35-1.69-1.3-2.98-2.83-3.88-1.54-.9-3.59-1.35-6.17-1.35-2.86,0-4.97.43-6.33,1.3s-2.04,2.18-2.04,3.94c0,1.29.39,2.35,1.16,3.18s2.25,1.52,4.43,2.06c2.93.7,5.72,1.47,8.37,2.3s4.55,1.66,5.7,2.48c1.34.96,2.35,2.09,3.04,3.39.69,1.3,1.04,2.87,1.04,4.69h0Z"/>
    </g>
  </g>
</svg>