<?xml version="1.0" encoding="UTF-8"?>
<svg id="Capa_2" xmlns="http://www.w3.org/2000/svg" viewBox="0 0 463.71 422.25">
  <defs>
    <style>
      .cls-1 {
        fill: #ffc051;
      }

      .cls-2 {
        fill: #263238;
      }

      .cls-3, .cls-4 {
        fill: #fff;
      }

      .cls-5 {
        stroke: #ffc051;
      }

      .cls-5, .cls-6, .cls-7, .cls-8 {
        fill: none;
        stroke-linecap: round;
        stroke-linejoin: round;
        stroke-width: 2px;
      }

      .cls-6 {
        stroke: #fff;
      }

      .cls-7 {
        stroke: #263238;
      }

      .cls-9 {
        fill: #ff367c;
      }

      .cls-4 {
        isolation: isolate;
        opacity: .31;
      }

      .cls-8 {
        stroke: #ff367c;
      }
    </style>
  </defs>
  <g id="Sparkles">
    <g>
      <g>
        <path class="cls-7" d="M390.4,27.99v3.64"/>
        <path class="cls-7" d="M390.4,35.74v3.64"/>
        <path class="cls-7" d="M395.92,33.68h-3.53"/>
        <path class="cls-7" d="M388.41,33.68h-3.53"/>
      </g>
      <g>
        <path class="cls-7" d="M23.1,337.69v3.64"/>
        <path class="cls-7" d="M23.1,345.44v3.64"/>
        <path class="cls-7" d="M28.62,343.39h-3.53"/>
        <path class="cls-7" d="M21.11,343.39h-3.53"/>
      </g>
      <g>
        <path class="cls-7" d="M430.86,396.23v3.64"/>
        <path class="cls-7" d="M430.86,403.98v3.64"/>
        <path class="cls-7" d="M436.38,401.93h-3.53"/>
        <path class="cls-7" d="M428.87,401.93h-3.53"/>
      </g>
      <g>
        <path class="cls-7" d="M23.1,107.91v3.64"/>
        <path class="cls-7" d="M23.1,115.66v3.64"/>
        <path class="cls-7" d="M28.62,113.6h-3.53"/>
        <path class="cls-7" d="M21.11,113.6h-3.53"/>
      </g>
      <g>
        <path class="cls-7" d="M157.21,1v3.64"/>
        <path class="cls-7" d="M157.21,8.75v3.64"/>
        <path class="cls-7" d="M162.73,6.7h-3.53"/>
        <path class="cls-7" d="M155.21,6.7h-3.53"/>
      </g>
    </g>
  </g>
  <g id="Clouds">
    <g id="Layer-11">
      <path class="cls-5" d="M137.93,60.62c12.79,0,20.5-16.91,9.05-23.38-6.95-3.93-19.17,3.41-19.17,3.41,0,0,2.35-16.01-8.94-17.12-10.01-.99-13.42,15.4-13.42,15.4,0,0-4.78-13.66-14.7-11.88-11.36,2.04-9.61,15.28-9.61,15.28,0,0-9.38-6.18-15.42-.86-6.72,5.92-.99,18.29,7.05,18.7,8.29.43,50.37.45,65.15.45Z"/>
      <path class="cls-1" d="M432.04,97.98c13.15,0,11.64-15.55,5.65-19.03-12.34-7.16-20.05,2.97-20.05,2.97,0,0,1.68-14.51-12.57-14.52-12.59-.02-14.38,14.52-14.38,14.52,0,0-6.12-4.54-13.66.78-4.48,3.16-6.95,15.28,4,15.41,19.53.24,35.26-.13,51.02-.13Z"/>
    </g>
  </g>
  <g id="Birds">
    <g>
      <path class="cls-7" d="M204.8,27.99s6.23-.15,8.12,2.31c1.89,2.46,2.3,9.47,2.3,9.47,0,0,4.21-6.62,7.99-7.79,4.84-1.49,9.64,1.59,9.64,1.59"/>
      <path class="cls-7" d="M223.72,42.56s4.25-.28,6,1.21,3.06,6.58,3.06,6.58c0,0,2.15-5.58,4.76-7.08,3.35-1.92,7.33-.46,7.33-.46"/>
    </g>
  </g>
  <g id="Speech_bubble">
    <g id="Layer-7">
      <g>
        <path class="cls-7" d="M303.23,77.04c-8.2-5.14-13.91-14.02-14.61-24.43-1.16-17.22,11.83-32.11,29.01-33.25,17.18-1.14,32.04,11.89,33.2,29.11s-11.83,32.11-29.01,33.25c-2.38.16-4.72.04-6.98-.31"/>
        <path class="cls-7" d="M303.19,77.03s-2.07,7.2-6.55,10.53c-7.11,5.29-10.25,5.57-10.25,5.57,0,0,11.2.64,17.86-2.24,6.81-2.94,10.49-9.5,10.49-9.5"/>
      </g>
      <path class="cls-9" d="M315.82,51.88c.6-.6,1.31-.9,2.21-.91,2.27,0,4.07-.55,5.44-1.64,1.37-1.08,2.09-2.71,2.08-4.99,0-1.74-.61-3.18-1.87-4.31-1.26-1.14-2.82-1.67-4.67-1.66-1.92,0-3.59.67-5.02,1.94-.84.78-1.67,1.15-2.57,1.15-.66,0-1.26-.18-1.74-.59-.9-.66-1.32-1.5-1.32-2.46,0-.78.29-1.5.95-2.16,1.25-1.26,2.68-2.29,4.36-3.01,1.67-.73,3.47-1.09,5.32-1.1,2.33,0,4.49.52,6.41,1.6,1.92,1.07,3.48,2.51,4.62,4.42,1.14,1.86,1.69,3.95,1.7,6.17.01,3.3-.94,5.94-2.79,7.87-1.91,1.93-4.42,3.13-7.53,3.62-.18.06-.24.18-.24.24v1.92c0,.9-.29,1.62-.88,2.28-.6.6-1.31.9-2.21.91-.9,0-1.62-.29-2.22-.89-.6-.6-.9-1.38-.9-2.28v-3.96c-.02-.78.28-1.5.88-2.16ZM315.52,69.7c-.54-.54-.78-1.32-.79-2.28v-.9c0-1.02.23-1.74.77-2.28.54-.54,1.31-.78,2.27-.79h.66c1.02,0,1.74.23,2.28.77.54.54.78,1.32.79,2.28v.9c0,1.02-.23,1.74-.77,2.28-.54.54-1.31.78-2.27.79h-.66c-.96.07-1.74-.23-2.28-.77Z"/>
    </g>
  </g>
  <g id="Plants">
    <path class="cls-2" d="M303.96,173.31c0,27.76,9.71,53.24,25.91,73.25,16.2-20.01,25.91-45.5,25.91-73.25s-9.71-53.24-25.91-73.25c-16.2,20.01-25.91,45.5-25.91,73.25Z"/>
    <path class="cls-2" d="M348.04,171.01c-15.12,23.28-20.85,49.94-18.17,75.55,24.49-7.96,46.51-24.05,61.63-47.32,15.12-23.28,20.85-49.94,18.17-75.55-24.49,7.96-46.51,24.05-61.63,47.32Z"/>
    <path class="cls-2" d="M386.25,193.09c-25.36,11.29-44.69,30.52-56.38,53.47,24.87,6.66,52.1,5.16,77.46-6.12s44.69-30.52,56.38-53.47c-24.87-6.66-52.1-5.16-77.46,6.12Z"/>
    <path class="cls-2" d="M39.47,234.35c17.57,7.41,36.3,8.06,53.29,3.14-8.35-15.6-21.89-28.55-39.47-35.95-17.57-7.41-36.3-8.06-53.29-3.14,8.35,15.6,21.89,28.55,39.47,35.95Z"/>
    <path class="cls-2" d="M49.78,205.83c10.7,15.78,26.05,26.53,42.98,31.66,1.49-17.63-2.81-35.86-13.52-51.65-10.7-15.78-26.05-26.53-42.98-31.66-1.49,17.63,2.81,35.86,13.52,51.65Z"/>
    <path class="cls-2" d="M73.95,187.53c.38,19.07,7.4,36.44,18.81,49.96,10.85-13.97,17.17-31.61,16.79-50.68-.38-19.07-7.4-36.44-18.81-49.96-10.85,13.97-17.17,31.61-16.79,50.68Z"/>
  </g>
  <g id="Character">
    <g>
      <g id="Layer-5">
        <path class="cls-9" d="M50.74,214.15l356.18,11.12c1.68.06,2.99,1.49,2.9,3.17l-10.5,187.22c-.09,1.58-1.38,2.81-2.96,2.83l-334.51,3.77c-1.61.02-2.94-1.23-3.03-2.83l-11.17-202.1c-.1-1.76,1.33-3.22,3.09-3.16Z"/>
      </g>
      <g>
        <path class="cls-3" d="M132.62,379.18v4.39h-2.57v-12.46h4.86c.94,0,1.76.17,2.47.51.71.34,1.26.83,1.64,1.46.38.63.57,1.35.57,2.15,0,1.22-.42,2.18-1.25,2.89-.84.7-1.99,1.06-3.47,1.06h-2.25ZM132.62,377.1h2.29c.68,0,1.2-.16,1.55-.48.36-.32.54-.78.54-1.37s-.18-1.1-.54-1.48c-.36-.38-.86-.57-1.49-.58h-2.35v3.91Z"/>
        <path class="cls-3" d="M149.5,381h-4.5l-.86,2.57h-2.73l4.64-12.46h2.38l4.66,12.46h-2.73l-.86-2.57ZM145.69,378.92h3.12l-1.57-4.67-1.55,4.67Z"/>
        <path class="cls-3" d="M166.57,382c-.46.55-1.12.98-1.96,1.29-.84.31-1.78.46-2.81.46-1.08,0-2.02-.24-2.84-.71-.81-.47-1.44-1.15-1.88-2.05-.44-.9-.67-1.95-.68-3.16v-.85c0-1.24.21-2.32.63-3.23.42-.91,1.02-1.61,1.81-2.09.79-.48,1.72-.72,2.78-.72,1.48,0,2.63.35,3.47,1.06.83.71,1.33,1.73,1.48,3.08h-2.5c-.11-.71-.37-1.24-.76-1.57-.39-.33-.93-.5-1.61-.5-.87,0-1.54.33-1.99.98-.46.66-.69,1.63-.69,2.93v.8c0,1.31.25,2.29.74,2.96.5.67,1.22,1,2.18,1s1.65-.21,2.06-.62v-2.15h-2.34v-1.89h4.9v4.97Z"/>
        <path class="cls-3" d="M178.78,378.17h-4.93v3.34h5.79v2.06h-8.35v-12.46h8.34v2.08h-5.77v2.97h4.93v2.01Z"/>
        <path class="cls-3" d="M200.9,383.57h-2.57l-5-8.2v8.2h-2.57v-12.46h2.57l5.01,8.22v-8.22h2.56v12.46Z"/>
        <path class="cls-3" d="M216.01,377.62c0,1.23-.22,2.3-.65,3.23-.43.92-1.05,1.64-1.86,2.14-.81.5-1.73.75-2.78.75s-1.95-.25-2.77-.74c-.81-.5-1.44-1.21-1.88-2.13-.45-.92-.67-1.98-.68-3.18v-.62c0-1.23.22-2.31.66-3.24.44-.93,1.07-1.65,1.87-2.15.81-.5,1.73-.75,2.77-.75s1.96.25,2.77.75c.81.5,1.43,1.22,1.87,2.15.44.93.66,2.01.66,3.23v.56ZM213.41,377.06c0-1.31-.23-2.3-.7-2.98-.47-.68-1.14-1.02-2-1.02s-1.53.34-1.99,1.01c-.47.67-.7,1.65-.71,2.95v.61c0,1.27.23,2.26.7,2.96.47.7,1.14,1.05,2.02,1.05s1.52-.34,1.99-1.01c.46-.68.7-1.66.7-2.96v-.61Z"/>
        <path class="cls-3" d="M229.16,373.19h-3.82v10.38h-2.57v-10.38h-3.77v-2.08h10.15v2.08Z"/>
        <path class="cls-3" d="M247.24,378.48h-4.93v5.09h-2.57v-12.46h8.12v2.08h-5.55v3.22h4.93v2.07Z"/>
        <path class="cls-3" d="M262.21,377.62c0,1.23-.22,2.3-.65,3.23-.43.92-1.05,1.64-1.86,2.14-.81.5-1.73.75-2.78.75s-1.96-.25-2.76-.74c-.81-.5-1.44-1.21-1.88-2.13-.45-.92-.67-1.98-.68-3.18v-.62c0-1.23.22-2.31.66-3.24.44-.93,1.07-1.65,1.87-2.15.81-.5,1.73-.75,2.77-.75s1.96.25,2.77.75c.81.5,1.43,1.22,1.87,2.15.44.93.66,2.01.66,3.23v.56ZM259.61,377.06c0-1.31-.23-2.3-.7-2.98-.47-.68-1.14-1.02-2-1.02s-1.53.34-1.99,1.01c-.47.67-.7,1.65-.71,2.95v.61c0,1.27.23,2.26.7,2.96.47.7,1.14,1.05,2.02,1.05s1.52-.34,1.99-1.01c.46-.68.7-1.66.7-2.96v-.61Z"/>
        <path class="cls-3" d="M276.14,371.11v8.21c0,1.36-.43,2.44-1.28,3.24-.85.79-2.02,1.19-3.5,1.19s-2.61-.38-3.47-1.16c-.86-.77-1.29-1.83-1.31-3.18v-8.3h2.57v8.23c0,.82.2,1.41.59,1.79.39.37.93.56,1.62.56,1.44,0,2.18-.76,2.2-2.28v-8.29h2.58Z"/>
        <path class="cls-3" d="M291.01,383.57h-2.57l-5-8.2v8.2h-2.57v-12.46h2.57l5.01,8.22v-8.22h2.56v12.46Z"/>
        <path class="cls-3" d="M295.88,383.57v-12.46h3.83c1.1,0,2.08.25,2.94.74.86.49,1.54,1.2,2.02,2.11.49.91.73,1.94.73,3.1v.57c0,1.16-.24,2.19-.71,3.09-.48.9-1.15,1.6-2.02,2.1-.87.5-1.85.75-2.94.75h-3.86ZM298.45,373.19v8.32h1.24c1,0,1.77-.33,2.3-.98.53-.66.8-1.6.81-2.82v-.66c0-1.27-.26-2.23-.79-2.88-.53-.65-1.29-.98-2.3-.98h-1.27Z"/>
        <path class="cls-3" d="M308.82,382.36c0-.39.13-.71.4-.96.27-.25.6-.37,1-.37s.74.12,1.01.37c.27.25.4.56.4.96s-.13.7-.39.95c-.26.24-.6.36-1.01.36s-.74-.12-1-.36c-.26-.24-.39-.56-.39-.95Z"/>
        <path class="cls-3" d="M316.55,382.36c0-.39.13-.71.4-.96.27-.25.6-.37,1-.37s.74.12,1.01.37c.27.25.4.56.4.96s-.13.7-.39.95c-.26.24-.6.36-1.01.36s-.74-.12-1-.36c-.26-.24-.39-.56-.39-.95Z"/>
        <path class="cls-3" d="M324.27,382.36c0-.39.13-.71.4-.96.27-.25.6-.37,1-.37s.74.12,1.01.37c.27.25.4.56.4.96s-.13.7-.39.95c-.26.24-.6.36-1.01.36s-.74-.12-1-.36c-.26-.24-.39-.56-.39-.95Z"/>
      </g>
      <g>
        <path class="cls-3" d="M167.86,321.38h10.54v16.08h-10.54v19.11h-24v-19.11h-40.09l-1.42-12.74,41.51-58.01v-.18h24v54.85ZM125.2,321.38h18.66v-27.7l-1.5,2.1-17.16,25.6Z"/>
        <path class="cls-3" d="M264.89,319.77c0,12.16-3.15,21.54-9.43,28.14-6.29,6.6-15.15,9.89-26.59,9.89s-20.46-3.32-26.77-9.96c-6.31-6.64-9.47-15.99-9.47-28.07v-16.45c0-12.16,3.14-21.54,9.43-28.14,6.29-6.6,15.18-9.89,26.66-9.89s20.39,3.32,26.7,9.96c6.31,6.64,9.47,16.02,9.47,28.14v16.39ZM240.9,300.66c0-6.47-.97-11.31-2.92-14.5-1.95-3.19-5.03-4.79-9.26-4.79s-7.13,1.48-9.01,4.45c-1.88,2.97-2.88,7.46-3.03,13.48v23c0,6.72.97,11.64,2.92,14.75,1.95,3.11,5.03,4.67,9.26,4.67s7.09-1.52,9.04-4.55c1.94-3.03,2.94-7.78,2.99-14.25v-22.26Z"/>
        <path class="cls-3" d="M340.74,321.38h10.54v16.08h-10.54v19.11h-24v-19.11h-40.09l-1.42-12.74,41.51-58.01v-.18h24v54.85ZM298.09,321.38h18.66v-27.7l-1.49,2.1-17.16,25.6Z"/>
      </g>
    </g>
    <g>
      <path class="cls-1" d="M276.6,139.44c-30.28-12.1-49.91-11.36-77.8-9.36-35.39,2.54-63.32,19.93-63.32,19.93,0,0,35.18-37.21,16.04-51.95-23.58-18.17-53.33-.26-66.38,27.13-26.57,55.77-12.3,99.28,9.14,102.29,12.19,1.71,28.01-4.36,39.4-9.92v-.15h.3c8.5-4.17,14.47-8.01,14.47-8.01l1.27,8.01,84.82,2.47v10.84c1.32,6.71,5.82,19.23,21.18,20.94,9.3,1.03,57.05-4.51,67.62-28.4,13.16-29.74-12.63-70.19-46.74-83.81Z"/>
      <path class="cls-6" d="M255.72,171.24s4.4,6.96,5.98,15.56c1.21,6.58.86,12.54.86,12.54"/>
      <g id="Layer-12">
        <path class="cls-4" d="M155.54,155.57c-5.44,0-9.84,4.44-9.84,9.88s4.4,9.84,9.84,9.84,9.87-4.4,9.87-9.84-4.43-9.88-9.87-9.88Z"/>
        <path class="cls-4" d="M246.79,193.83c0-5.44-4.4-9.84-9.84-9.84s-9.84,4.4-9.84,9.84,4.4,9.88,9.84,9.88,9.84-4.44,9.84-9.88Z"/>
        <path class="cls-4" d="M236.94,148.07c5.44,0,9.84-4.4,9.84-9.84,0-3.43-1.84-6.3-4.5-8.06-3.13-.42-6.26-.72-9.34-.91-3.44,1.53-5.84,4.95-5.84,8.97,0,5.44,4.4,9.84,9.84,9.84Z"/>
        <path class="cls-4" d="M203.06,188.75c-5.44,0-9.84,4.4-9.84,9.84s4.4,9.88,9.84,9.88,9.87-4.44,9.87-9.88-4.43-9.84-9.87-9.84Z"/>
        <path class="cls-4" d="M186.41,176.97c5.44,0,9.84-4.4,9.84-9.84s-4.4-9.88-9.84-9.88-9.84,4.44-9.84,9.88c0,5.44,4.4,9.84,9.84,9.84Z"/>
        <path class="cls-4" d="M204.04,148.07c5.44,0,9.87-4.4,9.87-9.84,0-3.84-2.26-7.06-5.47-8.69-3.19.19-6.2.29-9.59.53-2.74,1.75-4.66,4.66-4.66,8.16,0,5.44,4.4,9.84,9.84,9.84Z"/>
        <path class="cls-4" d="M221.35,178.53c5.44,0,9.84-4.4,9.84-9.84s-4.4-9.88-9.84-9.88-9.84,4.43-9.84,9.88,4.4,9.84,9.84,9.84Z"/>
        <path class="cls-4" d="M155.54,210.01c-2.56,0-4.84,1.03-6.59,2.62l.77,4.77h15.38c-1.09-4.25-4.96-7.4-9.56-7.4Z"/>
        <path class="cls-4" d="M287.16,175.29c5.44,0,9.84-4.4,9.84-9.84s-4.4-9.88-9.84-9.88-9.87,4.44-9.87,9.88,4.43,9.84,9.87,9.84Z"/>
        <path class="cls-4" d="M269.85,148.07c4.59,0,8.25-3.19,9.34-7.44-.87-.39-1.71-.84-2.59-1.19-5.57-2.22-10.69-3.88-15.66-5.31-.57,1.25-.94,2.63-.94,4.09,0,5.44,4.4,9.84,9.84,9.84Z"/>
        <path class="cls-4" d="M269.85,182.79c-5.44,0-9.84,4.4-9.84,9.84s4.4,9.88,9.84,9.88,9.84-4.44,9.84-9.88-4.4-9.84-9.84-9.84Z"/>
        <path class="cls-4" d="M317.35,174.73c-2.06-3.46-4.4-6.8-7-10-.02.25-.16.46-.16.72,0,4.49,3.05,8.1,7.16,9.28Z"/>
        <path class="cls-4" d="M138.26,202.51c5.44,0,9.84-4.44,9.84-9.88s-4.4-9.84-9.84-9.84-9.84,4.4-9.84,9.84,4.4,9.88,9.84,9.88Z"/>
        <path class="cls-4" d="M139.35,147.85c2.37-.27,4.48-1.26,6.03-2.91-2.44,1.19-4.55,2.09-6.03,2.91Z"/>
        <path class="cls-4" d="M254.26,175.29c5.44,0,9.84-4.4,9.84-9.84s-4.4-9.88-9.84-9.88-9.84,4.44-9.84,9.88,4.4,9.84,9.84,9.84Z"/>
        <path class="cls-4" d="M122.66,155.57c-5.44,0-9.87,4.44-9.87,9.88s4.43,9.84,9.87,9.84,9.84-4.4,9.84-9.84-4.4-9.88-9.84-9.88Z"/>
        <path class="cls-4" d="M171.16,148.07c5.44,0,9.84-4.4,9.84-9.84,0-1.92-.71-3.61-1.66-5.13-6.57,1.47-12.65,3.21-18.06,5.13,0,5.44,4.43,9.84,9.87,9.84Z"/>
        <path class="cls-4" d="M171.16,182.79c-5.44,0-9.87,4.4-9.87,9.84s4.43,9.88,9.87,9.88,9.84-4.44,9.84-9.88-4.4-9.84-9.84-9.84Z"/>
        <path class="cls-4" d="M105.35,182.79c-5.44,0-9.84,4.4-9.84,9.84s4.4,9.88,9.84,9.88,9.84-4.44,9.84-9.88-4.4-9.84-9.84-9.84Z"/>
        <path class="cls-4" d="M269.85,237.23c-5.44,0-9.84,4.4-9.84,9.84,0,1.7.55,3.23,1.31,4.62,4.58-.23,10.94-1.04,17.94-2.5.16-.7.44-1.37.44-2.12,0-5.44-4.4-9.84-9.84-9.84Z"/>
        <path class="cls-4" d="M264.1,219.85c0-5.44-4.4-9.84-9.84-9.84s-9.84,4.4-9.84,9.84,4.4,9.84,9.84,9.84,9.84-4.4,9.84-9.84Z"/>
        <path class="cls-4" d="M122.66,210.01c-5.44,0-9.87,4.4-9.87,9.84,0,1.96.73,3.69,1.72,5.22,6.39-1.87,12.25-4.32,17.66-6.91-.82-4.6-4.66-8.16-9.5-8.16Z"/>
        <path class="cls-4" d="M236.94,237.23c-.12,0-.22.06-.34.06,1.76,4.14,4.85,8.41,9.87,11.28.08-.51.31-.97.31-1.5,0-5.44-4.4-9.84-9.84-9.84Z"/>
        <path class="cls-4" d="M302.76,182.79c-5.44,0-9.84,4.4-9.84,9.84s4.4,9.88,9.84,9.88,9.84-4.44,9.84-9.88-4.4-9.84-9.84-9.84Z"/>
        <path class="cls-4" d="M320.04,210.01c-5.44,0-9.84,4.4-9.84,9.84s4.02,9.29,9.09,9.69c1.62-1.95,3.05-4,4.06-6.28,1.54-3.47,2.48-7.11,3-10.81-1.72-1.46-3.88-2.44-6.31-2.44Z"/>
        <path class="cls-4" d="M297.01,219.85c0-5.44-4.4-9.84-9.84-9.84s-9.87,4.4-9.87,9.84,4.43,9.84,9.87,9.84,9.84-4.4,9.84-9.84Z"/>
        <path class="cls-4" d="M293.26,245.32c5.12-1.74,10.09-3.83,14.59-6.47-1.51-.93-3.19-1.62-5.09-1.62-4.82,0-8.65,3.52-9.5,8.09Z"/>
        <path class="cls-4" d="M89.76,210.01c-4.88,0-8.75,3.6-9.53,8.25,3.91,5.25,8.77,8.48,14.06,9.22.42.06.88.05,1.31.09,2.37-1.8,4-4.51,4-7.72,0-5.44-4.4-9.84-9.84-9.84Z"/>
        <path class="cls-4" d="M122.66,120.85c5.44,0,9.84-4.4,9.84-9.84s-4.4-9.84-9.84-9.84-9.87,4.4-9.87,9.84,4.43,9.84,9.87,9.84Z"/>
        <path class="cls-4" d="M142.16,92.79c-3.57-1.34-7.21-1.93-10.84-2,1.78,1.76,4.23,2.84,6.94,2.84,1.39,0,2.71-.32,3.91-.84Z"/>
        <path class="cls-4" d="M128.41,138.23c0,5.11,3.93,9.16,8.91,9.66,1.82-2.02,5.51-6.37,10.06-13.22-1.43-3.67-4.94-6.28-9.12-6.28-5.44,0-9.84,4.4-9.84,9.84Z"/>
        <path class="cls-4" d="M95.51,138.23c0,5.44,4.4,9.84,9.84,9.84s9.84-4.4,9.84-9.84-4.4-9.84-9.84-9.84-9.84,4.4-9.84,9.84Z"/>
        <path class="cls-4" d="M154.94,120.73c2.69-7.05,3.42-14.06-.28-19.38-5.01.46-8.97,4.53-8.97,9.66s4.1,9.4,9.25,9.72Z"/>
        <path class="cls-4" d="M72.44,182.79c-.6,0-1.12.24-1.69.34.03,7.12.79,13.61,2.25,19.25,5.16-.31,9.28-4.51,9.28-9.75s-4.4-9.84-9.84-9.84Z"/>
        <path class="cls-4" d="M99.6,111.01c0-1.72-.57-3.25-1.34-4.66-3.99,4.1-7.41,8.95-10.37,14.13.63.12,1.21.38,1.87.37,5.44,0,9.84-4.4,9.84-9.84Z"/>
        <path class="cls-4" d="M82.29,138.23c0-1.51-.42-2.91-1.03-4.19-1.82,4.45-3.37,8.82-4.69,13.06,3.36-1.56,5.72-4.92,5.72-8.87Z"/>
        <path class="cls-4" d="M89.76,175.29c5.44,0,9.84-4.4,9.84-9.84,0-5.44-4.4-9.88-9.84-9.88s-9.84,4.44-9.84,9.88,4.4,9.84,9.84,9.84Z"/>
      </g>
      <g id="Layer-13">
        <path class="cls-6" d="M181.43,134.5l-4.08,5.41,18.9,6.63,5.95-9.45,5.45,9.68,25.21-9.31-3.17-5.81"/>
        <path class="cls-2" d="M199.2,152.24c0-1.36,1.11-2.47,2.47-2.47s2.47,1.11,2.47,2.47-1.11,2.47-2.47,2.47-2.47-1.11-2.47-2.47Z"/>
        <path class="cls-2" d="M199.2,159.72c0-1.36,1.11-2.47,2.47-2.47s2.47,1.11,2.47,2.47-1.11,2.47-2.47,2.47-2.47-1.11-2.47-2.47Z"/>
      </g>
      <g id="Layer-10">
        <path class="cls-6" d="M234.21,223.26s.69-9.22,7.08-14.16c14.95-11.55,35.94-11.26,35.94-11.26"/>
        <path class="cls-7" d="M148.78,217.23c-.5-6.85-.68-18.6,2.27-30.3,3.49-13.85,9.74-24.74,9.74-24.74"/>
      </g>
      <g id="Layer-2">
        <path class="cls-9" d="M196.68,90.5s5.13,6.73,10.05,9.3c7.26,3.8,12.87,5.48,12.87,5.48,0,0-.24,3-1.29,5.33-1.05,2.33-4.14,6.64-4.14,6.64,0,0,3.96,7.35,13.24,7.9,10.67.63,13.05-6.86,23.47-4,11.17,3.07,20.86-2.7,22.94-10.3,2.69-9.84-1.48-17.08-10.87-19.3-8.61-2.04-13.36,3.43-20.26,3.43-4.55,0-9.56-2.32-11.62-4.35-2.06-2.03-6.42-7.68-14.98-11.28-8.91-3.75-13.29-.13-17.63,2.38-2,1.16-8.08-.87-11.4,4.71-1.53,2.56-1.62,5.68-4.18,7.25-3.85,2.35-4.86,11.55-2.9,15.42,4.61,9.1,11.13,7.37,11.13,7.37,0,0-4.97-10.27-3.43-16.54,1.67-6.8,9.01-9.42,9.01-9.42Z"/>
        <path class="cls-8" d="M214.17,79.88c5.07,1.83,8.55,1.35,12.61,3.51,3.54,1.88,4.2,4.15,7.81,5.98,3.15,1.59,5.07-.94,10.2-.43"/>
        <path class="cls-8" d="M187.27,88.44c-2.02,8.83-14.49,6.42-11.11,19.52"/>
        <path class="cls-9" d="M208.46,105.58c-.28-.99-1.31-1.57-2.3-1.29-.99.28-1.57,1.31-1.29,2.3.28.99,1.31,1.57,2.3,1.29.99-.28,1.57-1.31,1.29-2.3Z"/>
        <path class="cls-2" d="M192.84,102.32c-.27-.96-1.27-1.52-2.23-1.25-.96.27-1.52,1.27-1.25,2.23.27.96,1.27,1.52,2.23,1.25.96-.27,1.52-1.27,1.25-2.23Z"/>
        <path class="cls-7" d="M187.71,109.64c-2.53-8.52,2.32-17.48,10.84-20.02,8.52-2.53,17.48,2.32,20.02,10.84s-2.32,17.48-10.84,20.02c-8.52,2.53-17.48-2.32-20.02-10.84Z"/>
        <path class="cls-7" d="M203.08,103s-1.28-1.24-2.61-1.04c-1.08.17-1.72,1.58-1.72,1.58"/>
        <path class="cls-7" d="M195.59,101.8l-2.68,7.29,3.34-.94"/>
        <path class="cls-7" d="M198.8,110.85h2.76"/>
      </g>
      <g id="Layer-4">
        <path class="cls-7" d="M242.65,214.97s-15.68-3.46-27.96,2.95c-16.35,8.53-18.83,27.28-11.76,30.03,2.39.93.3-4.37,3.52-10.12,2.94-5.26,7.79-9.55,7.79-9.55,0,0-8.74,8.23-9.68,14.72-1.54,10.64,3.72,11.25,5.63,9.9,1.98-1.4,2.06-5.67,4.02-10.08,1.96-4.41,6.81-8.88,6.81-8.88,0,0-2.87,7.61-4.02,12.75-.85,3.8-1.19,8.91,2.79,9.67,4.09.79,9.24-15.52,9.24-15.52,0,0,11.41,3.39,20.67-5.38"/>
        <path class="cls-7" d="M141.76,95.21s8.28-15.05,22.03-19.49c12.06-3.89,27.75-.83,29,3.99,1.25,4.82-8.41.8-14.98,1.51-6.57.71-11.28,1.34-11.28,1.34,0,0,4.98-.84,11.31-1.3,5.85-.42,12.16,1.06,12.16,1.06,0,0,3.53,2.26-.13,3.98-3.66,1.72-8.54,1.78-14.5,2.91-5.96,1.12-7.59,3.93-7.59,3.93,0,0-1.32,6.82-5.09,9.69-3.77,2.87-12.9,3.03-12.9,3.03"/>
      </g>
    </g>
  </g>
</svg>